%TF.GenerationSoftware,KiCad,Pcbnew,9.0.7*%
%TF.CreationDate,2026-04-20T16:26:58-04:00*%
%TF.ProjectId,main,6d61696e-2e6b-4696-9361-645f70636258,rev?*%
%TF.SameCoordinates,Original*%
%TF.FileFunction,Legend,Bot*%
%TF.FilePolarity,Positive*%
%FSLAX46Y46*%
G04 Gerber Fmt 4.6, Leading zero omitted, Abs format (unit mm)*
G04 Created by KiCad (PCBNEW 9.0.7) date 2026-04-20 16:26:58*
%MOMM*%
%LPD*%
G01*
G04 APERTURE LIST*
G04 Aperture macros list*
%AMRoundRect*
0 Rectangle with rounded corners*
0 $1 Rounding radius*
0 $2 $3 $4 $5 $6 $7 $8 $9 X,Y pos of 4 corners*
0 Add a 4 corners polygon primitive as box body*
4,1,4,$2,$3,$4,$5,$6,$7,$8,$9,$2,$3,0*
0 Add four circle primitives for the rounded corners*
1,1,$1+$1,$2,$3*
1,1,$1+$1,$4,$5*
1,1,$1+$1,$6,$7*
1,1,$1+$1,$8,$9*
0 Add four rect primitives between the rounded corners*
20,1,$1+$1,$2,$3,$4,$5,0*
20,1,$1+$1,$4,$5,$6,$7,0*
20,1,$1+$1,$6,$7,$8,$9,0*
20,1,$1+$1,$8,$9,$2,$3,0*%
G04 Aperture macros list end*
%ADD10C,0.150000*%
%ADD11C,0.600000*%
%ADD12C,0.400000*%
%ADD13C,0.000000*%
%ADD14R,1.700000X1.700000*%
%ADD15C,1.700000*%
%ADD16R,1.600000X1.600000*%
%ADD17C,1.600000*%
%ADD18C,3.000000*%
%ADD19RoundRect,0.250000X0.550000X-0.550000X0.550000X0.550000X-0.550000X0.550000X-0.550000X-0.550000X0*%
%ADD20C,0.650000*%
%ADD21O,1.050000X2.100000*%
%ADD22O,1.000000X2.000000*%
%ADD23C,1.100000*%
%ADD24C,1.400000*%
%ADD25O,3.500000X1.800000*%
G04 APERTURE END LIST*
D10*
X130110839Y-131107662D02*
X127634649Y-131107662D01*
X129920363Y-130250519D02*
X127825125Y-130250519D01*
X129539411Y-130440995D02*
X129444173Y-130917185D01*
X129539411Y-129679090D02*
X128206077Y-129679090D01*
X128872744Y-129679090D02*
X128872744Y-131107662D01*
X128206077Y-130440995D02*
X128396554Y-130917185D01*
X128872744Y-128821947D02*
X129539411Y-129488614D01*
X129539411Y-129488614D02*
X130110839Y-129774328D01*
X128872744Y-128821947D02*
X128301316Y-129488614D01*
X128301316Y-129488614D02*
X127634649Y-129774328D01*
X127158458Y-129679090D02*
X125920363Y-129679090D01*
X127158458Y-129107662D02*
X126015601Y-129107662D01*
X126967982Y-130631471D02*
X126110839Y-130631471D01*
X126967982Y-130250519D02*
X126110839Y-130250519D01*
X126967982Y-129964804D02*
X126967982Y-131107662D01*
X126872744Y-129202900D02*
X126872744Y-129583852D01*
X126587030Y-128821947D02*
X126587030Y-129107662D01*
X126491792Y-131107662D02*
X126110839Y-131107662D01*
X126206077Y-129202900D02*
X126301315Y-129488614D01*
X125729887Y-130726709D02*
X124872744Y-130726709D01*
X125729887Y-130440995D02*
X124872744Y-130440995D01*
X125729887Y-130155281D02*
X124872744Y-130155281D01*
X125729887Y-129869566D02*
X124872744Y-129869566D01*
X125729887Y-129107662D02*
X124682268Y-129107662D01*
X126967982Y-129964804D02*
X126110839Y-129964804D01*
X126110839Y-129964804D02*
X126110839Y-131107662D01*
X125729887Y-128821947D02*
X125729887Y-129488614D01*
X125729887Y-129488614D02*
X124872744Y-129488614D01*
X124872744Y-129488614D02*
X124872744Y-129869566D01*
X125634649Y-129869566D02*
X125634649Y-131107662D01*
X125634649Y-131107662D02*
X124682268Y-131012424D01*
X124682268Y-131012424D02*
X124682268Y-131107662D01*
X124206077Y-129298138D02*
X124206077Y-129679090D01*
X124015601Y-129012424D02*
X122015601Y-129012424D01*
X124015601Y-129869566D02*
X123348934Y-129869566D01*
X123920363Y-130821947D02*
X122015601Y-130821947D01*
X123920363Y-130440995D02*
X122015601Y-130440995D01*
X123920363Y-130155281D02*
X123920363Y-130917185D01*
X123920363Y-129583852D02*
X123348934Y-129583852D01*
X123063220Y-129012424D02*
X123063220Y-129964804D01*
X122967982Y-131107662D02*
X121825125Y-131107662D01*
X122967982Y-130155281D02*
X122967982Y-131107662D01*
X122777506Y-129869566D02*
X122015601Y-129869566D01*
X122777506Y-129583852D02*
X122110839Y-129583852D01*
X121729887Y-130821947D02*
X121825125Y-131107662D01*
X124206077Y-129298138D02*
X121825125Y-129298138D01*
X121825125Y-129298138D02*
X121825125Y-129679090D01*
X123920363Y-130155281D02*
X122015601Y-130155281D01*
X122015601Y-130155281D02*
X122015601Y-130821947D01*
X121253696Y-130060043D02*
X118777506Y-130060043D01*
X120015601Y-129583852D02*
X120015601Y-131107662D01*
X120015601Y-131107662D02*
X120587030Y-131107662D01*
X120967982Y-129107662D02*
X119063220Y-129107662D01*
X119063220Y-129107662D02*
X119348934Y-129298138D01*
X119348934Y-129298138D02*
X120015601Y-129583852D01*
X129825125Y-134327550D02*
X129825125Y-132327550D01*
X129825125Y-133279931D02*
X128682268Y-133279931D01*
X128682268Y-134327550D02*
X128682268Y-132327550D01*
X127063220Y-133279931D02*
X126777506Y-133375169D01*
X126777506Y-133375169D02*
X126682268Y-133470407D01*
X126682268Y-133470407D02*
X126587030Y-133660883D01*
X126587030Y-133660883D02*
X126587030Y-133946597D01*
X126587030Y-133946597D02*
X126682268Y-134137073D01*
X126682268Y-134137073D02*
X126777506Y-134232312D01*
X126777506Y-134232312D02*
X126967982Y-134327550D01*
X126967982Y-134327550D02*
X127729887Y-134327550D01*
X127729887Y-134327550D02*
X127729887Y-132327550D01*
X127729887Y-132327550D02*
X127063220Y-132327550D01*
X127063220Y-132327550D02*
X126872744Y-132422788D01*
X126872744Y-132422788D02*
X126777506Y-132518026D01*
X126777506Y-132518026D02*
X126682268Y-132708502D01*
X126682268Y-132708502D02*
X126682268Y-132898978D01*
X126682268Y-132898978D02*
X126777506Y-133089454D01*
X126777506Y-133089454D02*
X126872744Y-133184692D01*
X126872744Y-133184692D02*
X127063220Y-133279931D01*
X127063220Y-133279931D02*
X127729887Y-133279931D01*
X125920363Y-132327550D02*
X124587030Y-132327550D01*
X124587030Y-132327550D02*
X125444173Y-134327550D01*
X123444173Y-132327550D02*
X123253696Y-132327550D01*
X123253696Y-132327550D02*
X123063220Y-132422788D01*
X123063220Y-132422788D02*
X122967982Y-132518026D01*
X122967982Y-132518026D02*
X122872744Y-132708502D01*
X122872744Y-132708502D02*
X122777506Y-133089454D01*
X122777506Y-133089454D02*
X122777506Y-133565645D01*
X122777506Y-133565645D02*
X122872744Y-133946597D01*
X122872744Y-133946597D02*
X122967982Y-134137073D01*
X122967982Y-134137073D02*
X123063220Y-134232312D01*
X123063220Y-134232312D02*
X123253696Y-134327550D01*
X123253696Y-134327550D02*
X123444173Y-134327550D01*
X123444173Y-134327550D02*
X123634649Y-134232312D01*
X123634649Y-134232312D02*
X123729887Y-134137073D01*
X123729887Y-134137073D02*
X123825125Y-133946597D01*
X123825125Y-133946597D02*
X123920363Y-133565645D01*
X123920363Y-133565645D02*
X123920363Y-133089454D01*
X123920363Y-133089454D02*
X123825125Y-132708502D01*
X123825125Y-132708502D02*
X123729887Y-132518026D01*
X123729887Y-132518026D02*
X123634649Y-132422788D01*
X123634649Y-132422788D02*
X123444173Y-132327550D01*
X121539411Y-132327550D02*
X121348934Y-132327550D01*
X121348934Y-132327550D02*
X121158458Y-132422788D01*
X121158458Y-132422788D02*
X121063220Y-132518026D01*
X121063220Y-132518026D02*
X120967982Y-132708502D01*
X120967982Y-132708502D02*
X120872744Y-133089454D01*
X120872744Y-133089454D02*
X120872744Y-133565645D01*
X120872744Y-133565645D02*
X120967982Y-133946597D01*
X120967982Y-133946597D02*
X121063220Y-134137073D01*
X121063220Y-134137073D02*
X121158458Y-134232312D01*
X121158458Y-134232312D02*
X121348934Y-134327550D01*
X121348934Y-134327550D02*
X121539411Y-134327550D01*
X121539411Y-134327550D02*
X121729887Y-134232312D01*
X121729887Y-134232312D02*
X121825125Y-134137073D01*
X121825125Y-134137073D02*
X121920363Y-133946597D01*
X121920363Y-133946597D02*
X122015601Y-133565645D01*
X122015601Y-133565645D02*
X122015601Y-133089454D01*
X122015601Y-133089454D02*
X121920363Y-132708502D01*
X121920363Y-132708502D02*
X121825125Y-132518026D01*
X121825125Y-132518026D02*
X121729887Y-132422788D01*
X121729887Y-132422788D02*
X121539411Y-132327550D01*
X120110839Y-132518026D02*
X120015601Y-132422788D01*
X120015601Y-132422788D02*
X119825125Y-132327550D01*
X119825125Y-132327550D02*
X119348934Y-132327550D01*
X119348934Y-132327550D02*
X119158458Y-132422788D01*
X119158458Y-132422788D02*
X119063220Y-132518026D01*
X119063220Y-132518026D02*
X118967982Y-132708502D01*
X118967982Y-132708502D02*
X118967982Y-132898978D01*
X118967982Y-132898978D02*
X119063220Y-133184692D01*
X119063220Y-133184692D02*
X120206077Y-134327550D01*
X120206077Y-134327550D02*
X118967982Y-134327550D01*
X129920363Y-135737914D02*
X129825125Y-135642676D01*
X129825125Y-135642676D02*
X129634649Y-135547438D01*
X129634649Y-135547438D02*
X129158458Y-135547438D01*
X129158458Y-135547438D02*
X128967982Y-135642676D01*
X128967982Y-135642676D02*
X128872744Y-135737914D01*
X128872744Y-135737914D02*
X128777506Y-135928390D01*
X128777506Y-135928390D02*
X128777506Y-136118866D01*
X128777506Y-136118866D02*
X128872744Y-136404580D01*
X128872744Y-136404580D02*
X130015601Y-137547438D01*
X130015601Y-137547438D02*
X128777506Y-137547438D01*
X127063220Y-135547438D02*
X127444173Y-135547438D01*
X127444173Y-135547438D02*
X127634649Y-135642676D01*
X127634649Y-135642676D02*
X127729887Y-135737914D01*
X127729887Y-135737914D02*
X127920363Y-136023628D01*
X127920363Y-136023628D02*
X128015601Y-136404580D01*
X128015601Y-136404580D02*
X128015601Y-137166485D01*
X128015601Y-137166485D02*
X127920363Y-137356961D01*
X127920363Y-137356961D02*
X127825125Y-137452200D01*
X127825125Y-137452200D02*
X127634649Y-137547438D01*
X127634649Y-137547438D02*
X127253696Y-137547438D01*
X127253696Y-137547438D02*
X127063220Y-137452200D01*
X127063220Y-137452200D02*
X126967982Y-137356961D01*
X126967982Y-137356961D02*
X126872744Y-137166485D01*
X126872744Y-137166485D02*
X126872744Y-136690295D01*
X126872744Y-136690295D02*
X126967982Y-136499819D01*
X126967982Y-136499819D02*
X127063220Y-136404580D01*
X127063220Y-136404580D02*
X127253696Y-136309342D01*
X127253696Y-136309342D02*
X127634649Y-136309342D01*
X127634649Y-136309342D02*
X127825125Y-136404580D01*
X127825125Y-136404580D02*
X127920363Y-136499819D01*
X127920363Y-136499819D02*
X128015601Y-136690295D01*
X124967982Y-137547438D02*
X126110839Y-137547438D01*
X125539411Y-137547438D02*
X125539411Y-135547438D01*
X125539411Y-135547438D02*
X125729887Y-135833152D01*
X125729887Y-135833152D02*
X125920363Y-136023628D01*
X125920363Y-136023628D02*
X126110839Y-136118866D01*
X123253696Y-135547438D02*
X123634649Y-135547438D01*
X123634649Y-135547438D02*
X123825125Y-135642676D01*
X123825125Y-135642676D02*
X123920363Y-135737914D01*
X123920363Y-135737914D02*
X124110839Y-136023628D01*
X124110839Y-136023628D02*
X124206077Y-136404580D01*
X124206077Y-136404580D02*
X124206077Y-137166485D01*
X124206077Y-137166485D02*
X124110839Y-137356961D01*
X124110839Y-137356961D02*
X124015601Y-137452200D01*
X124015601Y-137452200D02*
X123825125Y-137547438D01*
X123825125Y-137547438D02*
X123444172Y-137547438D01*
X123444172Y-137547438D02*
X123253696Y-137452200D01*
X123253696Y-137452200D02*
X123158458Y-137356961D01*
X123158458Y-137356961D02*
X123063220Y-137166485D01*
X123063220Y-137166485D02*
X123063220Y-136690295D01*
X123063220Y-136690295D02*
X123158458Y-136499819D01*
X123158458Y-136499819D02*
X123253696Y-136404580D01*
X123253696Y-136404580D02*
X123444172Y-136309342D01*
X123444172Y-136309342D02*
X123825125Y-136309342D01*
X123825125Y-136309342D02*
X124015601Y-136404580D01*
X124015601Y-136404580D02*
X124110839Y-136499819D01*
X124110839Y-136499819D02*
X124206077Y-136690295D01*
X120967981Y-135547438D02*
X119825124Y-135547438D01*
X120396553Y-137547438D02*
X120396553Y-135547438D01*
X119253695Y-136976009D02*
X118301314Y-136976009D01*
X119444171Y-137547438D02*
X118777505Y-135547438D01*
X118777505Y-135547438D02*
X118110838Y-137547438D01*
X117444171Y-137547438D02*
X117444171Y-135547438D01*
X116682266Y-135547438D02*
X116206076Y-137547438D01*
X116206076Y-137547438D02*
X115825123Y-136118866D01*
X115825123Y-136118866D02*
X115444171Y-137547438D01*
X115444171Y-137547438D02*
X114967981Y-135547438D01*
X114301314Y-136976009D02*
X113348933Y-136976009D01*
X114491790Y-137547438D02*
X113825124Y-135547438D01*
X113825124Y-135547438D02*
X113158457Y-137547438D01*
X112491790Y-137547438D02*
X112491790Y-135547438D01*
X112491790Y-135547438D02*
X111348933Y-137547438D01*
X111348933Y-137547438D02*
X111348933Y-135547438D01*
X108967981Y-135452200D02*
X110682266Y-138023628D01*
X108301314Y-137547438D02*
X108301314Y-135547438D01*
X108301314Y-135547438D02*
X107158457Y-137547438D01*
X107158457Y-137547438D02*
X107158457Y-135547438D01*
X106206076Y-136499819D02*
X105539409Y-136499819D01*
X105253695Y-137547438D02*
X106206076Y-137547438D01*
X106206076Y-137547438D02*
X106206076Y-135547438D01*
X106206076Y-135547438D02*
X105253695Y-135547438D01*
X104396552Y-136499819D02*
X103729885Y-136499819D01*
X103444171Y-137547438D02*
X104396552Y-137547438D01*
X104396552Y-137547438D02*
X104396552Y-135547438D01*
X104396552Y-135547438D02*
X103444171Y-135547438D01*
X102587028Y-137547438D02*
X102587028Y-135547438D01*
X102587028Y-135547438D02*
X102110838Y-135547438D01*
X102110838Y-135547438D02*
X101825123Y-135642676D01*
X101825123Y-135642676D02*
X101634647Y-135833152D01*
X101634647Y-135833152D02*
X101539409Y-136023628D01*
X101539409Y-136023628D02*
X101444171Y-136404580D01*
X101444171Y-136404580D02*
X101444171Y-136690295D01*
X101444171Y-136690295D02*
X101539409Y-137071247D01*
X101539409Y-137071247D02*
X101634647Y-137261723D01*
X101634647Y-137261723D02*
X101825123Y-137452200D01*
X101825123Y-137452200D02*
X102110838Y-137547438D01*
X102110838Y-137547438D02*
X102587028Y-137547438D01*
X100587028Y-137547438D02*
X100587028Y-135547438D01*
X100587028Y-136499819D02*
X99444171Y-136499819D01*
X99444171Y-137547438D02*
X99444171Y-135547438D01*
X98587028Y-136976009D02*
X97634647Y-136976009D01*
X98777504Y-137547438D02*
X98110838Y-135547438D01*
X98110838Y-135547438D02*
X97444171Y-137547438D01*
X96777504Y-137547438D02*
X96777504Y-135547438D01*
X96777504Y-135547438D02*
X96110837Y-136976009D01*
X96110837Y-136976009D02*
X95444171Y-135547438D01*
X95444171Y-135547438D02*
X95444171Y-137547438D01*
D11*
X129910750Y-97051560D02*
X129910750Y-93051560D01*
X129910750Y-93051560D02*
X128958369Y-93051560D01*
X128958369Y-93051560D02*
X128386940Y-93242036D01*
X128386940Y-93242036D02*
X128005988Y-93622988D01*
X128005988Y-93622988D02*
X127815511Y-94003941D01*
X127815511Y-94003941D02*
X127625035Y-94765845D01*
X127625035Y-94765845D02*
X127625035Y-95337274D01*
X127625035Y-95337274D02*
X127815511Y-96099179D01*
X127815511Y-96099179D02*
X128005988Y-96480131D01*
X128005988Y-96480131D02*
X128386940Y-96861084D01*
X128386940Y-96861084D02*
X128958369Y-97051560D01*
X128958369Y-97051560D02*
X129910750Y-97051560D01*
X125910750Y-97051560D02*
X125910750Y-93051560D01*
X125910750Y-94956322D02*
X123625035Y-94956322D01*
X123625035Y-97051560D02*
X123625035Y-93051560D01*
X121720274Y-97051560D02*
X121720274Y-93051560D01*
X121720274Y-93051560D02*
X120386940Y-95908703D01*
X120386940Y-95908703D02*
X119053607Y-93051560D01*
X119053607Y-93051560D02*
X119053607Y-97051560D01*
X117148845Y-97051560D02*
X117148845Y-93051560D01*
X112958368Y-96670607D02*
X113148844Y-96861084D01*
X113148844Y-96861084D02*
X113720273Y-97051560D01*
X113720273Y-97051560D02*
X114101225Y-97051560D01*
X114101225Y-97051560D02*
X114672654Y-96861084D01*
X114672654Y-96861084D02*
X115053606Y-96480131D01*
X115053606Y-96480131D02*
X115244083Y-96099179D01*
X115244083Y-96099179D02*
X115434559Y-95337274D01*
X115434559Y-95337274D02*
X115434559Y-94765845D01*
X115434559Y-94765845D02*
X115244083Y-94003941D01*
X115244083Y-94003941D02*
X115053606Y-93622988D01*
X115053606Y-93622988D02*
X114672654Y-93242036D01*
X114672654Y-93242036D02*
X114101225Y-93051560D01*
X114101225Y-93051560D02*
X113720273Y-93051560D01*
X113720273Y-93051560D02*
X113148844Y-93242036D01*
X113148844Y-93242036D02*
X112958368Y-93432512D01*
X108958368Y-97051560D02*
X110291702Y-95146798D01*
X111244083Y-97051560D02*
X111244083Y-93051560D01*
X111244083Y-93051560D02*
X109720273Y-93051560D01*
X109720273Y-93051560D02*
X109339321Y-93242036D01*
X109339321Y-93242036D02*
X109148844Y-93432512D01*
X109148844Y-93432512D02*
X108958368Y-93813464D01*
X108958368Y-93813464D02*
X108958368Y-94384893D01*
X108958368Y-94384893D02*
X109148844Y-94765845D01*
X109148844Y-94765845D02*
X109339321Y-94956322D01*
X109339321Y-94956322D02*
X109720273Y-95146798D01*
X109720273Y-95146798D02*
X111244083Y-95146798D01*
X106482178Y-93051560D02*
X105720273Y-93051560D01*
X105720273Y-93051560D02*
X105339321Y-93242036D01*
X105339321Y-93242036D02*
X104958368Y-93622988D01*
X104958368Y-93622988D02*
X104767892Y-94384893D01*
X104767892Y-94384893D02*
X104767892Y-95718226D01*
X104767892Y-95718226D02*
X104958368Y-96480131D01*
X104958368Y-96480131D02*
X105339321Y-96861084D01*
X105339321Y-96861084D02*
X105720273Y-97051560D01*
X105720273Y-97051560D02*
X106482178Y-97051560D01*
X106482178Y-97051560D02*
X106863130Y-96861084D01*
X106863130Y-96861084D02*
X107244083Y-96480131D01*
X107244083Y-96480131D02*
X107434559Y-95718226D01*
X107434559Y-95718226D02*
X107434559Y-94384893D01*
X107434559Y-94384893D02*
X107244083Y-93622988D01*
X107244083Y-93622988D02*
X106863130Y-93242036D01*
X106863130Y-93242036D02*
X106482178Y-93051560D01*
D12*
X129955890Y-108723233D02*
X129003509Y-108723233D01*
X130146366Y-109294662D02*
X129479700Y-107294662D01*
X129479700Y-107294662D02*
X128813033Y-109294662D01*
X127860652Y-109294662D02*
X128051128Y-109199424D01*
X128051128Y-109199424D02*
X128146366Y-109008947D01*
X128146366Y-109008947D02*
X128146366Y-107294662D01*
X126813033Y-109294662D02*
X127003509Y-109199424D01*
X127003509Y-109199424D02*
X127098747Y-109008947D01*
X127098747Y-109008947D02*
X127098747Y-107294662D01*
X125193985Y-109294662D02*
X125193985Y-108247043D01*
X125193985Y-108247043D02*
X125289223Y-108056566D01*
X125289223Y-108056566D02*
X125479699Y-107961328D01*
X125479699Y-107961328D02*
X125860652Y-107961328D01*
X125860652Y-107961328D02*
X126051128Y-108056566D01*
X125193985Y-109199424D02*
X125384461Y-109294662D01*
X125384461Y-109294662D02*
X125860652Y-109294662D01*
X125860652Y-109294662D02*
X126051128Y-109199424D01*
X126051128Y-109199424D02*
X126146366Y-109008947D01*
X126146366Y-109008947D02*
X126146366Y-108818471D01*
X126146366Y-108818471D02*
X126051128Y-108627995D01*
X126051128Y-108627995D02*
X125860652Y-108532757D01*
X125860652Y-108532757D02*
X125384461Y-108532757D01*
X125384461Y-108532757D02*
X125193985Y-108437519D01*
X124241604Y-107961328D02*
X124241604Y-109294662D01*
X124241604Y-108151804D02*
X124146366Y-108056566D01*
X124146366Y-108056566D02*
X123955890Y-107961328D01*
X123955890Y-107961328D02*
X123670175Y-107961328D01*
X123670175Y-107961328D02*
X123479699Y-108056566D01*
X123479699Y-108056566D02*
X123384461Y-108247043D01*
X123384461Y-108247043D02*
X123384461Y-109294662D01*
X120908270Y-109294662D02*
X120908270Y-107294662D01*
X120908270Y-108247043D02*
X119765413Y-108247043D01*
X119765413Y-109294662D02*
X119765413Y-107294662D01*
X117955889Y-107961328D02*
X117955889Y-109294662D01*
X118813032Y-107961328D02*
X118813032Y-109008947D01*
X118813032Y-109008947D02*
X118717794Y-109199424D01*
X118717794Y-109199424D02*
X118527318Y-109294662D01*
X118527318Y-109294662D02*
X118241603Y-109294662D01*
X118241603Y-109294662D02*
X118051127Y-109199424D01*
X118051127Y-109199424D02*
X117955889Y-109104185D01*
X116146365Y-109294662D02*
X116146365Y-108247043D01*
X116146365Y-108247043D02*
X116241603Y-108056566D01*
X116241603Y-108056566D02*
X116432079Y-107961328D01*
X116432079Y-107961328D02*
X116813032Y-107961328D01*
X116813032Y-107961328D02*
X117003508Y-108056566D01*
X116146365Y-109199424D02*
X116336841Y-109294662D01*
X116336841Y-109294662D02*
X116813032Y-109294662D01*
X116813032Y-109294662D02*
X117003508Y-109199424D01*
X117003508Y-109199424D02*
X117098746Y-109008947D01*
X117098746Y-109008947D02*
X117098746Y-108818471D01*
X117098746Y-108818471D02*
X117003508Y-108627995D01*
X117003508Y-108627995D02*
X116813032Y-108532757D01*
X116813032Y-108532757D02*
X116336841Y-108532757D01*
X116336841Y-108532757D02*
X116146365Y-108437519D01*
X115193984Y-107961328D02*
X115193984Y-109294662D01*
X115193984Y-108151804D02*
X115098746Y-108056566D01*
X115098746Y-108056566D02*
X114908270Y-107961328D01*
X114908270Y-107961328D02*
X114622555Y-107961328D01*
X114622555Y-107961328D02*
X114432079Y-108056566D01*
X114432079Y-108056566D02*
X114336841Y-108247043D01*
X114336841Y-108247043D02*
X114336841Y-109294662D01*
X112527317Y-107961328D02*
X112527317Y-109580376D01*
X112527317Y-109580376D02*
X112622555Y-109770852D01*
X112622555Y-109770852D02*
X112717793Y-109866090D01*
X112717793Y-109866090D02*
X112908270Y-109961328D01*
X112908270Y-109961328D02*
X113193984Y-109961328D01*
X113193984Y-109961328D02*
X113384460Y-109866090D01*
X112527317Y-109199424D02*
X112717793Y-109294662D01*
X112717793Y-109294662D02*
X113098746Y-109294662D01*
X113098746Y-109294662D02*
X113289222Y-109199424D01*
X113289222Y-109199424D02*
X113384460Y-109104185D01*
X113384460Y-109104185D02*
X113479698Y-108913709D01*
X113479698Y-108913709D02*
X113479698Y-108342281D01*
X113479698Y-108342281D02*
X113384460Y-108151804D01*
X113384460Y-108151804D02*
X113289222Y-108056566D01*
X113289222Y-108056566D02*
X113098746Y-107961328D01*
X113098746Y-107961328D02*
X112717793Y-107961328D01*
X112717793Y-107961328D02*
X112527317Y-108056566D01*
X130146366Y-110514550D02*
X129003509Y-110514550D01*
X129574938Y-112514550D02*
X129574938Y-110514550D01*
X128336842Y-112514550D02*
X128336842Y-111181216D01*
X128336842Y-111562169D02*
X128241604Y-111371692D01*
X128241604Y-111371692D02*
X128146366Y-111276454D01*
X128146366Y-111276454D02*
X127955890Y-111181216D01*
X127955890Y-111181216D02*
X127765413Y-111181216D01*
X127098747Y-112514550D02*
X127098747Y-111181216D01*
X127098747Y-110514550D02*
X127193985Y-110609788D01*
X127193985Y-110609788D02*
X127098747Y-110705026D01*
X127098747Y-110705026D02*
X127003509Y-110609788D01*
X127003509Y-110609788D02*
X127098747Y-110514550D01*
X127098747Y-110514550D02*
X127098747Y-110705026D01*
X126146366Y-111181216D02*
X126146366Y-112514550D01*
X126146366Y-111371692D02*
X126051128Y-111276454D01*
X126051128Y-111276454D02*
X125860652Y-111181216D01*
X125860652Y-111181216D02*
X125574937Y-111181216D01*
X125574937Y-111181216D02*
X125384461Y-111276454D01*
X125384461Y-111276454D02*
X125289223Y-111466931D01*
X125289223Y-111466931D02*
X125289223Y-112514550D01*
X124336842Y-112514550D02*
X124336842Y-111181216D01*
X124336842Y-110514550D02*
X124432080Y-110609788D01*
X124432080Y-110609788D02*
X124336842Y-110705026D01*
X124336842Y-110705026D02*
X124241604Y-110609788D01*
X124241604Y-110609788D02*
X124336842Y-110514550D01*
X124336842Y-110514550D02*
X124336842Y-110705026D01*
X123670175Y-111181216D02*
X122908271Y-111181216D01*
X123384461Y-110514550D02*
X123384461Y-112228835D01*
X123384461Y-112228835D02*
X123289223Y-112419312D01*
X123289223Y-112419312D02*
X123098747Y-112514550D01*
X123098747Y-112514550D02*
X122908271Y-112514550D01*
X122432080Y-111181216D02*
X121955890Y-112514550D01*
X121479699Y-111181216D02*
X121955890Y-112514550D01*
X121955890Y-112514550D02*
X122146366Y-112990740D01*
X122146366Y-112990740D02*
X122241604Y-113085978D01*
X122241604Y-113085978D02*
X122432080Y-113181216D01*
X118241603Y-112514550D02*
X119193984Y-112514550D01*
X119193984Y-112514550D02*
X119193984Y-110514550D01*
X116813031Y-112419312D02*
X117003507Y-112514550D01*
X117003507Y-112514550D02*
X117384460Y-112514550D01*
X117384460Y-112514550D02*
X117574936Y-112419312D01*
X117574936Y-112419312D02*
X117670174Y-112228835D01*
X117670174Y-112228835D02*
X117670174Y-111466931D01*
X117670174Y-111466931D02*
X117574936Y-111276454D01*
X117574936Y-111276454D02*
X117384460Y-111181216D01*
X117384460Y-111181216D02*
X117003507Y-111181216D01*
X117003507Y-111181216D02*
X116813031Y-111276454D01*
X116813031Y-111276454D02*
X116717793Y-111466931D01*
X116717793Y-111466931D02*
X116717793Y-111657407D01*
X116717793Y-111657407D02*
X117670174Y-111847883D01*
X115098745Y-112419312D02*
X115289221Y-112514550D01*
X115289221Y-112514550D02*
X115670174Y-112514550D01*
X115670174Y-112514550D02*
X115860650Y-112419312D01*
X115860650Y-112419312D02*
X115955888Y-112228835D01*
X115955888Y-112228835D02*
X115955888Y-111466931D01*
X115955888Y-111466931D02*
X115860650Y-111276454D01*
X115860650Y-111276454D02*
X115670174Y-111181216D01*
X115670174Y-111181216D02*
X115289221Y-111181216D01*
X115289221Y-111181216D02*
X115098745Y-111276454D01*
X115098745Y-111276454D02*
X115003507Y-111466931D01*
X115003507Y-111466931D02*
X115003507Y-111657407D01*
X115003507Y-111657407D02*
X115955888Y-111847883D01*
X130146366Y-113734438D02*
X129479700Y-115734438D01*
X129479700Y-115734438D02*
X128813033Y-113734438D01*
X127384461Y-115639200D02*
X127574937Y-115734438D01*
X127574937Y-115734438D02*
X127955890Y-115734438D01*
X127955890Y-115734438D02*
X128146366Y-115639200D01*
X128146366Y-115639200D02*
X128241604Y-115448723D01*
X128241604Y-115448723D02*
X128241604Y-114686819D01*
X128241604Y-114686819D02*
X128146366Y-114496342D01*
X128146366Y-114496342D02*
X127955890Y-114401104D01*
X127955890Y-114401104D02*
X127574937Y-114401104D01*
X127574937Y-114401104D02*
X127384461Y-114496342D01*
X127384461Y-114496342D02*
X127289223Y-114686819D01*
X127289223Y-114686819D02*
X127289223Y-114877295D01*
X127289223Y-114877295D02*
X128241604Y-115067771D01*
X126432080Y-114401104D02*
X126432080Y-115734438D01*
X126432080Y-114591580D02*
X126336842Y-114496342D01*
X126336842Y-114496342D02*
X126146366Y-114401104D01*
X126146366Y-114401104D02*
X125860651Y-114401104D01*
X125860651Y-114401104D02*
X125670175Y-114496342D01*
X125670175Y-114496342D02*
X125574937Y-114686819D01*
X125574937Y-114686819D02*
X125574937Y-115734438D01*
X124622556Y-115734438D02*
X124622556Y-113734438D01*
X124432080Y-114972533D02*
X123860651Y-115734438D01*
X123860651Y-114401104D02*
X124622556Y-115163009D01*
X122146365Y-115734438D02*
X122146365Y-114686819D01*
X122146365Y-114686819D02*
X122241603Y-114496342D01*
X122241603Y-114496342D02*
X122432079Y-114401104D01*
X122432079Y-114401104D02*
X122813032Y-114401104D01*
X122813032Y-114401104D02*
X123003508Y-114496342D01*
X122146365Y-115639200D02*
X122336841Y-115734438D01*
X122336841Y-115734438D02*
X122813032Y-115734438D01*
X122813032Y-115734438D02*
X123003508Y-115639200D01*
X123003508Y-115639200D02*
X123098746Y-115448723D01*
X123098746Y-115448723D02*
X123098746Y-115258247D01*
X123098746Y-115258247D02*
X123003508Y-115067771D01*
X123003508Y-115067771D02*
X122813032Y-114972533D01*
X122813032Y-114972533D02*
X122336841Y-114972533D01*
X122336841Y-114972533D02*
X122146365Y-114877295D01*
X120336841Y-115734438D02*
X120336841Y-113734438D01*
X120336841Y-115639200D02*
X120527317Y-115734438D01*
X120527317Y-115734438D02*
X120908270Y-115734438D01*
X120908270Y-115734438D02*
X121098746Y-115639200D01*
X121098746Y-115639200D02*
X121193984Y-115543961D01*
X121193984Y-115543961D02*
X121289222Y-115353485D01*
X121289222Y-115353485D02*
X121289222Y-114782057D01*
X121289222Y-114782057D02*
X121193984Y-114591580D01*
X121193984Y-114591580D02*
X121098746Y-114496342D01*
X121098746Y-114496342D02*
X120908270Y-114401104D01*
X120908270Y-114401104D02*
X120527317Y-114401104D01*
X120527317Y-114401104D02*
X120336841Y-114496342D01*
X118622555Y-115639200D02*
X118813031Y-115734438D01*
X118813031Y-115734438D02*
X119193984Y-115734438D01*
X119193984Y-115734438D02*
X119384460Y-115639200D01*
X119384460Y-115639200D02*
X119479698Y-115448723D01*
X119479698Y-115448723D02*
X119479698Y-114686819D01*
X119479698Y-114686819D02*
X119384460Y-114496342D01*
X119384460Y-114496342D02*
X119193984Y-114401104D01*
X119193984Y-114401104D02*
X118813031Y-114401104D01*
X118813031Y-114401104D02*
X118622555Y-114496342D01*
X118622555Y-114496342D02*
X118527317Y-114686819D01*
X118527317Y-114686819D02*
X118527317Y-114877295D01*
X118527317Y-114877295D02*
X119479698Y-115067771D01*
X117765412Y-115639200D02*
X117574936Y-115734438D01*
X117574936Y-115734438D02*
X117193984Y-115734438D01*
X117193984Y-115734438D02*
X117003507Y-115639200D01*
X117003507Y-115639200D02*
X116908269Y-115448723D01*
X116908269Y-115448723D02*
X116908269Y-115353485D01*
X116908269Y-115353485D02*
X117003507Y-115163009D01*
X117003507Y-115163009D02*
X117193984Y-115067771D01*
X117193984Y-115067771D02*
X117479698Y-115067771D01*
X117479698Y-115067771D02*
X117670174Y-114972533D01*
X117670174Y-114972533D02*
X117765412Y-114782057D01*
X117765412Y-114782057D02*
X117765412Y-114686819D01*
X117765412Y-114686819D02*
X117670174Y-114496342D01*
X117670174Y-114496342D02*
X117479698Y-114401104D01*
X117479698Y-114401104D02*
X117193984Y-114401104D01*
X117193984Y-114401104D02*
X117003507Y-114496342D01*
X116051126Y-115734438D02*
X116051126Y-113734438D01*
X115193983Y-115734438D02*
X115193983Y-114686819D01*
X115193983Y-114686819D02*
X115289221Y-114496342D01*
X115289221Y-114496342D02*
X115479697Y-114401104D01*
X115479697Y-114401104D02*
X115765412Y-114401104D01*
X115765412Y-114401104D02*
X115955888Y-114496342D01*
X115955888Y-114496342D02*
X116051126Y-114591580D01*
X112717792Y-114686819D02*
X112051125Y-114686819D01*
X111765411Y-115734438D02*
X112717792Y-115734438D01*
X112717792Y-115734438D02*
X112717792Y-113734438D01*
X112717792Y-113734438D02*
X111765411Y-113734438D01*
X111003506Y-115639200D02*
X110813030Y-115734438D01*
X110813030Y-115734438D02*
X110432078Y-115734438D01*
X110432078Y-115734438D02*
X110241601Y-115639200D01*
X110241601Y-115639200D02*
X110146363Y-115448723D01*
X110146363Y-115448723D02*
X110146363Y-115353485D01*
X110146363Y-115353485D02*
X110241601Y-115163009D01*
X110241601Y-115163009D02*
X110432078Y-115067771D01*
X110432078Y-115067771D02*
X110717792Y-115067771D01*
X110717792Y-115067771D02*
X110908268Y-114972533D01*
X110908268Y-114972533D02*
X111003506Y-114782057D01*
X111003506Y-114782057D02*
X111003506Y-114686819D01*
X111003506Y-114686819D02*
X110908268Y-114496342D01*
X110908268Y-114496342D02*
X110717792Y-114401104D01*
X110717792Y-114401104D02*
X110432078Y-114401104D01*
X110432078Y-114401104D02*
X110241601Y-114496342D01*
X109479696Y-114401104D02*
X109098744Y-115734438D01*
X109098744Y-115734438D02*
X108717791Y-114782057D01*
X108717791Y-114782057D02*
X108336839Y-115734438D01*
X108336839Y-115734438D02*
X107955887Y-114401104D01*
X106336839Y-115734438D02*
X106336839Y-114686819D01*
X106336839Y-114686819D02*
X106432077Y-114496342D01*
X106432077Y-114496342D02*
X106622553Y-114401104D01*
X106622553Y-114401104D02*
X107003506Y-114401104D01*
X107003506Y-114401104D02*
X107193982Y-114496342D01*
X106336839Y-115639200D02*
X106527315Y-115734438D01*
X106527315Y-115734438D02*
X107003506Y-115734438D01*
X107003506Y-115734438D02*
X107193982Y-115639200D01*
X107193982Y-115639200D02*
X107289220Y-115448723D01*
X107289220Y-115448723D02*
X107289220Y-115258247D01*
X107289220Y-115258247D02*
X107193982Y-115067771D01*
X107193982Y-115067771D02*
X107003506Y-114972533D01*
X107003506Y-114972533D02*
X106527315Y-114972533D01*
X106527315Y-114972533D02*
X106336839Y-114877295D01*
X105384458Y-115734438D02*
X105384458Y-114401104D01*
X105384458Y-114782057D02*
X105289220Y-114591580D01*
X105289220Y-114591580D02*
X105193982Y-114496342D01*
X105193982Y-114496342D02*
X105003506Y-114401104D01*
X105003506Y-114401104D02*
X104813029Y-114401104D01*
X103289220Y-115734438D02*
X103289220Y-114686819D01*
X103289220Y-114686819D02*
X103384458Y-114496342D01*
X103384458Y-114496342D02*
X103574934Y-114401104D01*
X103574934Y-114401104D02*
X103955887Y-114401104D01*
X103955887Y-114401104D02*
X104146363Y-114496342D01*
X103289220Y-115639200D02*
X103479696Y-115734438D01*
X103479696Y-115734438D02*
X103955887Y-115734438D01*
X103955887Y-115734438D02*
X104146363Y-115639200D01*
X104146363Y-115639200D02*
X104241601Y-115448723D01*
X104241601Y-115448723D02*
X104241601Y-115258247D01*
X104241601Y-115258247D02*
X104146363Y-115067771D01*
X104146363Y-115067771D02*
X103955887Y-114972533D01*
X103955887Y-114972533D02*
X103479696Y-114972533D01*
X103479696Y-114972533D02*
X103289220Y-114877295D01*
X102336839Y-114401104D02*
X102336839Y-115734438D01*
X102336839Y-114591580D02*
X102241601Y-114496342D01*
X102241601Y-114496342D02*
X102051125Y-114401104D01*
X102051125Y-114401104D02*
X101765410Y-114401104D01*
X101765410Y-114401104D02*
X101574934Y-114496342D01*
X101574934Y-114496342D02*
X101479696Y-114686819D01*
X101479696Y-114686819D02*
X101479696Y-115734438D01*
X99670172Y-115734438D02*
X99670172Y-114686819D01*
X99670172Y-114686819D02*
X99765410Y-114496342D01*
X99765410Y-114496342D02*
X99955886Y-114401104D01*
X99955886Y-114401104D02*
X100336839Y-114401104D01*
X100336839Y-114401104D02*
X100527315Y-114496342D01*
X99670172Y-115639200D02*
X99860648Y-115734438D01*
X99860648Y-115734438D02*
X100336839Y-115734438D01*
X100336839Y-115734438D02*
X100527315Y-115639200D01*
X100527315Y-115639200D02*
X100622553Y-115448723D01*
X100622553Y-115448723D02*
X100622553Y-115258247D01*
X100622553Y-115258247D02*
X100527315Y-115067771D01*
X100527315Y-115067771D02*
X100336839Y-114972533D01*
X100336839Y-114972533D02*
X99860648Y-114972533D01*
X99860648Y-114972533D02*
X99670172Y-114877295D01*
X98717791Y-114401104D02*
X98717791Y-115734438D01*
X98717791Y-114591580D02*
X98622553Y-114496342D01*
X98622553Y-114496342D02*
X98432077Y-114401104D01*
X98432077Y-114401104D02*
X98146362Y-114401104D01*
X98146362Y-114401104D02*
X97955886Y-114496342D01*
X97955886Y-114496342D02*
X97860648Y-114686819D01*
X97860648Y-114686819D02*
X97860648Y-115734438D01*
X96051124Y-115734438D02*
X96051124Y-113734438D01*
X96051124Y-115639200D02*
X96241600Y-115734438D01*
X96241600Y-115734438D02*
X96622553Y-115734438D01*
X96622553Y-115734438D02*
X96813029Y-115639200D01*
X96813029Y-115639200D02*
X96908267Y-115543961D01*
X96908267Y-115543961D02*
X97003505Y-115353485D01*
X97003505Y-115353485D02*
X97003505Y-114782057D01*
X97003505Y-114782057D02*
X96908267Y-114591580D01*
X96908267Y-114591580D02*
X96813029Y-114496342D01*
X96813029Y-114496342D02*
X96622553Y-114401104D01*
X96622553Y-114401104D02*
X96241600Y-114401104D01*
X96241600Y-114401104D02*
X96051124Y-114496342D01*
X94241600Y-115734438D02*
X94241600Y-114686819D01*
X94241600Y-114686819D02*
X94336838Y-114496342D01*
X94336838Y-114496342D02*
X94527314Y-114401104D01*
X94527314Y-114401104D02*
X94908267Y-114401104D01*
X94908267Y-114401104D02*
X95098743Y-114496342D01*
X94241600Y-115639200D02*
X94432076Y-115734438D01*
X94432076Y-115734438D02*
X94908267Y-115734438D01*
X94908267Y-115734438D02*
X95098743Y-115639200D01*
X95098743Y-115639200D02*
X95193981Y-115448723D01*
X95193981Y-115448723D02*
X95193981Y-115258247D01*
X95193981Y-115258247D02*
X95098743Y-115067771D01*
X95098743Y-115067771D02*
X94908267Y-114972533D01*
X94908267Y-114972533D02*
X94432076Y-114972533D01*
X94432076Y-114972533D02*
X94241600Y-114877295D01*
X93289219Y-115734438D02*
X93289219Y-114401104D01*
X93289219Y-114591580D02*
X93193981Y-114496342D01*
X93193981Y-114496342D02*
X93003505Y-114401104D01*
X93003505Y-114401104D02*
X92717790Y-114401104D01*
X92717790Y-114401104D02*
X92527314Y-114496342D01*
X92527314Y-114496342D02*
X92432076Y-114686819D01*
X92432076Y-114686819D02*
X92432076Y-115734438D01*
X92432076Y-114686819D02*
X92336838Y-114496342D01*
X92336838Y-114496342D02*
X92146362Y-114401104D01*
X92146362Y-114401104D02*
X91860648Y-114401104D01*
X91860648Y-114401104D02*
X91670171Y-114496342D01*
X91670171Y-114496342D02*
X91574933Y-114686819D01*
X91574933Y-114686819D02*
X91574933Y-115734438D01*
D13*
%TO.C,G\u002A\u002A\u002A*%
G36*
X67228076Y-131820581D02*
G01*
X67247222Y-131838872D01*
X67274670Y-131875725D01*
X67285308Y-131898988D01*
X67282651Y-131905579D01*
X67265358Y-131889095D01*
X67236789Y-131851669D01*
X67221370Y-131828720D01*
X67214207Y-131812654D01*
X67228076Y-131820581D01*
G37*
G36*
X74844790Y-131837660D02*
G01*
X74851079Y-131843357D01*
X74879784Y-131874239D01*
X74891450Y-131895631D01*
X74891284Y-131900011D01*
X74887208Y-131905399D01*
X74885653Y-131903160D01*
X74868685Y-131881653D01*
X74840548Y-131847428D01*
X74798130Y-131796526D01*
X74844790Y-131837660D01*
G37*
G36*
X62493718Y-114482394D02*
G01*
X62603282Y-114510734D01*
X62740994Y-114574406D01*
X62860631Y-114664109D01*
X62960477Y-114777316D01*
X63038810Y-114911499D01*
X63093914Y-115064130D01*
X63124070Y-115232683D01*
X63127559Y-115414629D01*
X63126373Y-115433300D01*
X63099434Y-115609180D01*
X63045983Y-115769059D01*
X62967744Y-115910371D01*
X62866445Y-116030547D01*
X62743811Y-116127018D01*
X62601569Y-116197218D01*
X62557582Y-116210526D01*
X62447898Y-116226225D01*
X62328051Y-116224789D01*
X62210718Y-116206842D01*
X62108579Y-116173005D01*
X62073064Y-116154886D01*
X61965844Y-116079141D01*
X61866135Y-115978744D01*
X61779343Y-115860698D01*
X61710876Y-115732012D01*
X61666140Y-115599689D01*
X61658735Y-115563805D01*
X61644879Y-115448491D01*
X61641426Y-115323417D01*
X61648385Y-115202600D01*
X61665769Y-115100057D01*
X61697857Y-114997386D01*
X61766626Y-114852202D01*
X61855540Y-114727032D01*
X61961498Y-114624191D01*
X62081397Y-114545992D01*
X62212135Y-114494750D01*
X62350609Y-114472779D01*
X62493718Y-114482394D01*
G37*
G36*
X60166164Y-114476489D02*
G01*
X60304157Y-114506377D01*
X60434639Y-114563793D01*
X60553444Y-114647208D01*
X60656409Y-114755090D01*
X60739369Y-114885911D01*
X60788166Y-114997888D01*
X60821988Y-115120052D01*
X60837758Y-115252761D01*
X60837384Y-115406145D01*
X60825407Y-115541772D01*
X60795135Y-115685091D01*
X60745082Y-115809742D01*
X60672490Y-115922263D01*
X60574601Y-116029190D01*
X60539962Y-116061271D01*
X60460557Y-116124840D01*
X60381766Y-116170579D01*
X60291116Y-116206279D01*
X60245581Y-116216305D01*
X60165787Y-116223495D01*
X60069592Y-116223996D01*
X59944752Y-116211839D01*
X59835335Y-116179736D01*
X59736314Y-116123568D01*
X59637743Y-116039080D01*
X59539976Y-115927067D01*
X59448364Y-115777723D01*
X59386038Y-115616318D01*
X59353670Y-115446695D01*
X59351932Y-115272695D01*
X59381498Y-115098162D01*
X59443041Y-114926937D01*
X59470594Y-114873889D01*
X59539353Y-114771572D01*
X59622200Y-114676156D01*
X59711267Y-114596199D01*
X59798684Y-114540258D01*
X59884300Y-114505418D01*
X60024824Y-114475659D01*
X60166164Y-114476489D01*
G37*
G36*
X64917240Y-104737275D02*
G01*
X65072938Y-104791582D01*
X65214053Y-104872886D01*
X65337437Y-104978829D01*
X65439943Y-105107053D01*
X65518424Y-105255199D01*
X65569734Y-105420908D01*
X65586221Y-105550711D01*
X65583159Y-105702973D01*
X65559329Y-105854956D01*
X65516345Y-105996763D01*
X65455824Y-106118499D01*
X65449879Y-106127631D01*
X65384138Y-106210984D01*
X65296616Y-106299712D01*
X65195495Y-106386139D01*
X65088961Y-106462589D01*
X65033854Y-106499709D01*
X64956063Y-106562072D01*
X64904444Y-106623368D01*
X64875313Y-106690430D01*
X64864987Y-106770089D01*
X64869784Y-106869178D01*
X64880559Y-106929741D01*
X64918327Y-107041942D01*
X64980002Y-107170359D01*
X65064020Y-107311885D01*
X65168819Y-107463415D01*
X65195785Y-107500363D01*
X65253134Y-107584032D01*
X65289469Y-107649089D01*
X65305858Y-107700498D01*
X65303366Y-107743220D01*
X65283061Y-107782217D01*
X65246009Y-107822451D01*
X65232771Y-107834093D01*
X65174152Y-107875015D01*
X65114512Y-107904745D01*
X65049270Y-107920786D01*
X64948705Y-107925586D01*
X64845778Y-107912300D01*
X64754926Y-107881848D01*
X64731631Y-107869786D01*
X64649416Y-107814683D01*
X64562820Y-107736837D01*
X64468924Y-107633402D01*
X64364805Y-107501529D01*
X64227948Y-107308822D01*
X64069506Y-107050722D01*
X63942128Y-106795262D01*
X63844587Y-106539903D01*
X63775654Y-106282101D01*
X63759534Y-106190795D01*
X63743756Y-106043143D01*
X63737485Y-105888691D01*
X63740721Y-105737283D01*
X63753464Y-105598763D01*
X63775712Y-105482975D01*
X63833856Y-105311445D01*
X63914160Y-105158187D01*
X64017832Y-105023651D01*
X64031276Y-105009198D01*
X64164616Y-104888297D01*
X64306746Y-104799496D01*
X64459855Y-104741678D01*
X64626134Y-104713730D01*
X64750105Y-104712324D01*
X64917240Y-104737275D01*
G37*
G36*
X67852577Y-104737275D02*
G01*
X68008276Y-104791582D01*
X68149390Y-104872886D01*
X68272774Y-104978829D01*
X68375280Y-105107053D01*
X68453762Y-105255199D01*
X68505071Y-105420908D01*
X68521558Y-105550711D01*
X68518497Y-105702973D01*
X68494666Y-105854956D01*
X68451682Y-105996763D01*
X68391161Y-106118499D01*
X68385217Y-106127631D01*
X68319476Y-106210984D01*
X68231953Y-106299712D01*
X68130833Y-106386139D01*
X68024298Y-106462589D01*
X67969192Y-106499709D01*
X67891401Y-106562072D01*
X67839781Y-106623368D01*
X67810650Y-106690430D01*
X67800324Y-106770089D01*
X67805121Y-106869178D01*
X67815897Y-106929741D01*
X67853665Y-107041942D01*
X67915339Y-107170359D01*
X67999357Y-107311885D01*
X68104157Y-107463415D01*
X68131122Y-107500363D01*
X68188471Y-107584032D01*
X68224807Y-107649089D01*
X68241195Y-107700498D01*
X68238703Y-107743220D01*
X68218398Y-107782217D01*
X68181346Y-107822451D01*
X68168109Y-107834093D01*
X68109489Y-107875015D01*
X68049850Y-107904745D01*
X67984607Y-107920786D01*
X67884042Y-107925586D01*
X67781116Y-107912300D01*
X67690264Y-107881848D01*
X67666969Y-107869786D01*
X67584753Y-107814683D01*
X67498158Y-107736837D01*
X67404261Y-107633402D01*
X67300143Y-107501529D01*
X67163285Y-107308822D01*
X67004843Y-107050722D01*
X66877465Y-106795262D01*
X66779924Y-106539903D01*
X66710992Y-106282101D01*
X66694871Y-106190795D01*
X66679093Y-106043143D01*
X66672822Y-105888691D01*
X66676059Y-105737283D01*
X66688801Y-105598763D01*
X66711050Y-105482975D01*
X66769193Y-105311445D01*
X66849497Y-105158187D01*
X66953170Y-105023651D01*
X66966613Y-105009198D01*
X67099953Y-104888297D01*
X67242083Y-104799496D01*
X67395193Y-104741678D01*
X67561471Y-104713730D01*
X67685442Y-104712324D01*
X67852577Y-104737275D01*
G37*
G36*
X62907376Y-109520813D02*
G01*
X62974570Y-109524696D01*
X63034480Y-109536718D01*
X63091995Y-109559820D01*
X63152004Y-109596946D01*
X63219397Y-109651037D01*
X63299061Y-109725038D01*
X63395886Y-109821891D01*
X63578953Y-109998954D01*
X63866691Y-110241268D01*
X64168085Y-110454088D01*
X64481838Y-110636759D01*
X64806652Y-110788626D01*
X65141233Y-110909035D01*
X65484282Y-110997330D01*
X65834502Y-111052859D01*
X65918310Y-111060786D01*
X66148369Y-111071462D01*
X66391360Y-111068738D01*
X66636024Y-111053215D01*
X66871102Y-111025493D01*
X67085336Y-110986172D01*
X67138971Y-110973723D01*
X67485903Y-110873251D01*
X67825480Y-110740185D01*
X68156368Y-110575253D01*
X68477231Y-110379183D01*
X68786737Y-110152703D01*
X69083549Y-109896540D01*
X69155425Y-109832659D01*
X69241931Y-109768114D01*
X69321765Y-109726175D01*
X69401745Y-109703478D01*
X69488687Y-109696659D01*
X69541619Y-109700847D01*
X69644823Y-109728184D01*
X69743974Y-109776097D01*
X69825493Y-109838854D01*
X69862420Y-109878673D01*
X69919433Y-109962261D01*
X69953045Y-110055254D01*
X69967891Y-110168376D01*
X69968881Y-110196648D01*
X69961925Y-110289320D01*
X69936475Y-110375148D01*
X69889624Y-110459753D01*
X69818468Y-110548756D01*
X69720101Y-110647777D01*
X69670932Y-110693316D01*
X69348396Y-110965995D01*
X69008289Y-111210484D01*
X68652203Y-111426052D01*
X68281730Y-111611964D01*
X67898459Y-111767488D01*
X67503982Y-111891891D01*
X67099891Y-111984441D01*
X66687776Y-112044404D01*
X66663418Y-112045794D01*
X66605703Y-112047113D01*
X66523741Y-112047848D01*
X66423018Y-112047976D01*
X66309022Y-112047477D01*
X66187242Y-112046330D01*
X66141105Y-112045694D01*
X65933984Y-112040106D01*
X65750421Y-112029487D01*
X65581959Y-112012607D01*
X65420142Y-111988239D01*
X65256513Y-111955154D01*
X65082615Y-111912125D01*
X64889991Y-111857923D01*
X64680871Y-111790832D01*
X64320779Y-111648941D01*
X63967481Y-111476457D01*
X63625142Y-111275500D01*
X63297931Y-111048189D01*
X63243804Y-111006766D01*
X63109414Y-110898620D01*
X62977948Y-110785797D01*
X62852933Y-110671788D01*
X62737889Y-110560082D01*
X62636342Y-110454171D01*
X62551815Y-110357545D01*
X62487831Y-110273695D01*
X62447913Y-110206111D01*
X62445506Y-110200721D01*
X62417711Y-110102563D01*
X62410665Y-109992657D01*
X62424061Y-109884098D01*
X62457597Y-109789979D01*
X62474217Y-109760440D01*
X62554025Y-109657382D01*
X62652162Y-109582278D01*
X62766671Y-109536332D01*
X62895592Y-109520750D01*
X62907376Y-109520813D01*
G37*
G36*
X72801362Y-104974304D02*
G01*
X72780652Y-105279668D01*
X72736162Y-105595054D01*
X72730426Y-105628056D01*
X72719074Y-105694022D01*
X72702609Y-105790042D01*
X72681331Y-105914365D01*
X72655539Y-106065236D01*
X72625531Y-106240902D01*
X72591608Y-106439609D01*
X72554067Y-106659605D01*
X72513209Y-106899136D01*
X72469332Y-107156449D01*
X72422736Y-107429789D01*
X72373720Y-107717404D01*
X72322582Y-108017541D01*
X72269622Y-108328446D01*
X72215139Y-108648365D01*
X72159433Y-108975545D01*
X72106157Y-109288037D01*
X72051542Y-109607451D01*
X71998347Y-109917620D01*
X71946876Y-110216817D01*
X71897430Y-110503309D01*
X71850313Y-110775369D01*
X71805828Y-111031266D01*
X71764277Y-111269270D01*
X71725963Y-111487652D01*
X71691188Y-111684683D01*
X71660256Y-111858632D01*
X71633468Y-112007770D01*
X71611129Y-112130367D01*
X71593539Y-112224694D01*
X71581003Y-112289021D01*
X71573823Y-112321618D01*
X71541242Y-112431469D01*
X71453579Y-112658993D01*
X71343523Y-112864518D01*
X71208532Y-113052406D01*
X71046064Y-113227015D01*
X70927589Y-113330545D01*
X70725181Y-113470372D01*
X70499294Y-113585771D01*
X70250006Y-113676710D01*
X69977396Y-113743156D01*
X69681543Y-113785078D01*
X69669138Y-113786188D01*
X69577884Y-113791178D01*
X69463573Y-113793496D01*
X69335417Y-113793305D01*
X69202625Y-113790768D01*
X69074409Y-113786048D01*
X68959980Y-113779308D01*
X68868548Y-113770710D01*
X68845669Y-113769490D01*
X68789094Y-113768259D01*
X68702050Y-113767229D01*
X68586399Y-113766398D01*
X68444002Y-113765767D01*
X68276723Y-113765337D01*
X68086421Y-113765107D01*
X67874961Y-113765078D01*
X67644202Y-113765249D01*
X67396007Y-113765622D01*
X67132239Y-113766195D01*
X66854758Y-113766969D01*
X66565427Y-113767945D01*
X66266107Y-113769122D01*
X65958661Y-113770500D01*
X63158585Y-113783823D01*
X62954977Y-113741380D01*
X62725599Y-113688248D01*
X62396214Y-113590719D01*
X62094646Y-113473922D01*
X61820927Y-113337876D01*
X61575089Y-113182601D01*
X61357167Y-113008117D01*
X61167192Y-112814441D01*
X61005197Y-112601594D01*
X60885405Y-112401640D01*
X60783175Y-112180904D01*
X60707138Y-111949915D01*
X60656280Y-111704805D01*
X60629586Y-111441707D01*
X60627085Y-111240681D01*
X61615361Y-111240681D01*
X61615381Y-111283107D01*
X61618227Y-111425851D01*
X61626466Y-111544017D01*
X61641439Y-111644859D01*
X61664486Y-111735630D01*
X61696947Y-111823580D01*
X61740164Y-111915964D01*
X61745084Y-111925584D01*
X61850474Y-112092560D01*
X61985781Y-112244715D01*
X62150181Y-112381527D01*
X62342851Y-112502475D01*
X62562966Y-112607037D01*
X62809701Y-112694691D01*
X63082232Y-112764917D01*
X63082834Y-112765047D01*
X63104017Y-112769516D01*
X63125128Y-112773572D01*
X63147786Y-112777229D01*
X63173612Y-112780497D01*
X63204224Y-112783387D01*
X63241241Y-112785913D01*
X63286283Y-112788085D01*
X63340970Y-112789916D01*
X63406920Y-112791416D01*
X63485753Y-112792598D01*
X63579089Y-112793473D01*
X63688546Y-112794054D01*
X63815744Y-112794351D01*
X63962302Y-112794377D01*
X64129839Y-112794143D01*
X64319976Y-112793661D01*
X64534330Y-112792942D01*
X64774523Y-112791999D01*
X65042172Y-112790843D01*
X65338897Y-112789486D01*
X65666317Y-112787940D01*
X66026053Y-112786215D01*
X66276092Y-112785071D01*
X66576121Y-112783853D01*
X66866508Y-112782840D01*
X67145387Y-112782033D01*
X67410887Y-112781431D01*
X67661140Y-112781035D01*
X67894277Y-112780843D01*
X68108431Y-112780856D01*
X68301731Y-112781074D01*
X68472309Y-112781495D01*
X68618298Y-112782120D01*
X68737827Y-112782948D01*
X68829028Y-112783980D01*
X68890032Y-112785214D01*
X68918972Y-112786651D01*
X68980926Y-112793176D01*
X69089709Y-112800961D01*
X69211200Y-112806419D01*
X69336101Y-112809363D01*
X69455117Y-112809603D01*
X69558949Y-112806951D01*
X69638302Y-112801220D01*
X69844078Y-112767458D01*
X70033727Y-112712738D01*
X70197201Y-112637613D01*
X70335471Y-112541403D01*
X70449507Y-112423428D01*
X70540276Y-112283005D01*
X70608749Y-112119454D01*
X70611114Y-112111120D01*
X70621237Y-112066007D01*
X70636726Y-111988438D01*
X70657450Y-111879159D01*
X70683278Y-111738914D01*
X70714079Y-111568450D01*
X70749720Y-111368512D01*
X70790072Y-111139845D01*
X70835003Y-110883195D01*
X70884382Y-110599307D01*
X70938077Y-110288927D01*
X70995958Y-109952800D01*
X71057892Y-109591672D01*
X71123750Y-109206288D01*
X71193400Y-108797394D01*
X71247007Y-108482308D01*
X71301581Y-108161743D01*
X71354662Y-107850162D01*
X71405950Y-107549312D01*
X71455146Y-107260941D01*
X71501951Y-106986798D01*
X71546065Y-106728629D01*
X71587191Y-106488184D01*
X71625027Y-106267210D01*
X71659276Y-106067456D01*
X71689638Y-105890669D01*
X71715814Y-105738597D01*
X71737505Y-105612989D01*
X71754411Y-105515592D01*
X71766234Y-105448154D01*
X71772675Y-105412424D01*
X71785463Y-105331652D01*
X71798924Y-105204083D01*
X71807798Y-105063198D01*
X71812018Y-104916810D01*
X71811518Y-104772732D01*
X71806230Y-104638780D01*
X71796089Y-104522766D01*
X71781028Y-104432504D01*
X71769008Y-104385313D01*
X71707088Y-104214856D01*
X71620732Y-104065545D01*
X71509350Y-103936972D01*
X71372348Y-103828730D01*
X71209135Y-103740414D01*
X71019120Y-103671616D01*
X70801710Y-103621930D01*
X70556313Y-103590949D01*
X70536664Y-103589958D01*
X70479258Y-103588712D01*
X70390687Y-103587823D01*
X70272638Y-103587285D01*
X70126797Y-103587091D01*
X69954849Y-103587235D01*
X69758481Y-103587710D01*
X69539378Y-103588511D01*
X69299225Y-103589629D01*
X69039710Y-103591060D01*
X68762517Y-103592795D01*
X68469332Y-103594830D01*
X68161842Y-103597157D01*
X67841732Y-103599770D01*
X67510689Y-103602662D01*
X67317102Y-103604399D01*
X66955997Y-103607579D01*
X66626380Y-103610385D01*
X66326626Y-103612818D01*
X66055108Y-103614881D01*
X65810200Y-103616575D01*
X65590273Y-103617901D01*
X65393703Y-103618861D01*
X65218861Y-103619457D01*
X65064121Y-103619690D01*
X64927857Y-103619561D01*
X64808442Y-103619073D01*
X64704249Y-103618226D01*
X64613651Y-103617023D01*
X64535021Y-103615464D01*
X64466733Y-103613552D01*
X64407161Y-103611288D01*
X64354676Y-103608673D01*
X64307653Y-103605709D01*
X64128582Y-103596679D01*
X63876132Y-103598285D01*
X63650677Y-103619043D01*
X63451319Y-103659372D01*
X63277158Y-103719697D01*
X63127296Y-103800438D01*
X63000834Y-103902019D01*
X62896873Y-104024860D01*
X62814515Y-104169385D01*
X62752860Y-104336016D01*
X62752412Y-104337699D01*
X62746091Y-104368215D01*
X62734414Y-104430279D01*
X62717670Y-104522223D01*
X62696150Y-104642379D01*
X62670145Y-104789079D01*
X62639945Y-104960655D01*
X62605841Y-105155437D01*
X62568122Y-105371759D01*
X62527080Y-105607952D01*
X62483004Y-105862347D01*
X62436186Y-106133277D01*
X62386915Y-106419073D01*
X62335482Y-106718067D01*
X62282178Y-107028591D01*
X62227292Y-107348976D01*
X62171116Y-107677555D01*
X61616158Y-110926786D01*
X61615361Y-111240681D01*
X60627085Y-111240681D01*
X60626041Y-111156754D01*
X60633749Y-110858917D01*
X61196102Y-107558368D01*
X61210226Y-107475494D01*
X61266548Y-107145458D01*
X61321581Y-106823672D01*
X61375032Y-106511816D01*
X61426609Y-106211571D01*
X61476020Y-105924618D01*
X61522973Y-105652636D01*
X61567174Y-105397306D01*
X61608333Y-105160310D01*
X61646156Y-104943326D01*
X61680353Y-104748036D01*
X61710629Y-104576121D01*
X61736694Y-104429260D01*
X61758254Y-104309134D01*
X61775018Y-104217423D01*
X61786694Y-104155809D01*
X61792989Y-104125971D01*
X61801192Y-104095444D01*
X61887114Y-103841279D01*
X61998335Y-103609576D01*
X62134320Y-103400815D01*
X62294532Y-103215471D01*
X62478437Y-103054024D01*
X62685498Y-102916951D01*
X62915181Y-102804728D01*
X63166950Y-102717835D01*
X63440268Y-102656749D01*
X63597903Y-102633368D01*
X63769775Y-102616529D01*
X63945753Y-102609247D01*
X64135424Y-102611152D01*
X64348373Y-102621876D01*
X64361649Y-102622725D01*
X64416463Y-102625723D01*
X64478791Y-102628313D01*
X64550394Y-102630494D01*
X64633033Y-102632266D01*
X64728470Y-102633630D01*
X64838465Y-102634584D01*
X64964780Y-102635129D01*
X65109176Y-102635264D01*
X65273414Y-102634990D01*
X65459256Y-102634306D01*
X65668462Y-102633212D01*
X65902794Y-102631707D01*
X66164014Y-102629793D01*
X66453882Y-102627467D01*
X66774159Y-102624731D01*
X67126607Y-102621584D01*
X67312040Y-102619896D01*
X67704662Y-102616306D01*
X68065510Y-102613012D01*
X68396081Y-102610033D01*
X68697870Y-102607389D01*
X68972371Y-102605100D01*
X69221079Y-102603187D01*
X69445490Y-102601669D01*
X69647099Y-102600567D01*
X69827401Y-102599901D01*
X69987891Y-102599690D01*
X70130063Y-102599955D01*
X70255414Y-102600715D01*
X70365437Y-102601992D01*
X70461629Y-102603805D01*
X70545484Y-102606173D01*
X70618498Y-102609118D01*
X70682165Y-102612659D01*
X70737980Y-102616816D01*
X70787439Y-102621610D01*
X70832036Y-102627060D01*
X70873267Y-102633186D01*
X70912627Y-102640009D01*
X70951611Y-102647548D01*
X70991714Y-102655824D01*
X71034430Y-102664857D01*
X71081256Y-102674666D01*
X71279672Y-102723134D01*
X71540731Y-102812617D01*
X71779646Y-102926283D01*
X71995569Y-103063400D01*
X72187650Y-103223231D01*
X72355040Y-103405044D01*
X72496891Y-103608103D01*
X72612352Y-103831676D01*
X72700576Y-104075026D01*
X72721605Y-104151941D01*
X72771760Y-104407080D01*
X72798372Y-104682321D01*
X72800773Y-104916810D01*
X72801362Y-104974304D01*
G37*
G36*
X52338730Y-106053798D02*
G01*
X52318315Y-106287659D01*
X52272972Y-106506704D01*
X52271692Y-106511405D01*
X52268458Y-106524486D01*
X52265456Y-106539412D01*
X52262675Y-106557418D01*
X52260108Y-106579736D01*
X52257745Y-106607603D01*
X52255577Y-106642252D01*
X52253595Y-106684916D01*
X52251790Y-106736831D01*
X52250152Y-106799231D01*
X52248673Y-106873349D01*
X52247344Y-106960421D01*
X52246155Y-107061679D01*
X52245097Y-107178359D01*
X52244162Y-107311695D01*
X52243340Y-107462920D01*
X52242623Y-107633270D01*
X52242000Y-107823978D01*
X52241463Y-108036278D01*
X52241003Y-108271405D01*
X52240612Y-108530592D01*
X52240278Y-108815075D01*
X52239995Y-109126087D01*
X52239752Y-109464863D01*
X52239540Y-109832636D01*
X52239351Y-110230641D01*
X52239176Y-110660112D01*
X52239004Y-111122284D01*
X52238896Y-111478628D01*
X52238826Y-111858963D01*
X52238805Y-112229125D01*
X52238831Y-112587715D01*
X52238902Y-112933336D01*
X52239017Y-113264591D01*
X52239175Y-113580082D01*
X52239373Y-113878410D01*
X52239612Y-114158179D01*
X52239888Y-114417990D01*
X52240201Y-114656446D01*
X52240548Y-114872149D01*
X52240930Y-115063701D01*
X52241343Y-115229705D01*
X52241787Y-115368764D01*
X52242260Y-115479478D01*
X52242761Y-115560451D01*
X52243287Y-115610285D01*
X52243838Y-115627582D01*
X52244076Y-115627769D01*
X52263960Y-115634706D01*
X52309782Y-115647988D01*
X52374999Y-115665782D01*
X52453068Y-115686253D01*
X52514744Y-115703134D01*
X52630247Y-115738308D01*
X52748241Y-115777786D01*
X52850969Y-115815788D01*
X52878438Y-115826817D01*
X53179733Y-115967429D01*
X53469646Y-116138768D01*
X53746984Y-116339294D01*
X54010552Y-116567470D01*
X54259157Y-116821757D01*
X54491605Y-117100616D01*
X54706701Y-117402509D01*
X54903251Y-117725897D01*
X55080062Y-118069242D01*
X55235940Y-118431004D01*
X55369690Y-118809647D01*
X55480119Y-119203630D01*
X55496623Y-119273506D01*
X55506722Y-119316264D01*
X55595331Y-119779748D01*
X55652020Y-120247734D01*
X55676892Y-120717672D01*
X55676635Y-120735277D01*
X55670049Y-121187017D01*
X55631592Y-121653218D01*
X55561624Y-122113727D01*
X55460248Y-122565998D01*
X55327565Y-123007481D01*
X55245881Y-123232734D01*
X55091254Y-123597504D01*
X54916555Y-123942108D01*
X54722978Y-124265439D01*
X54511714Y-124566392D01*
X54283954Y-124843859D01*
X54040892Y-125096735D01*
X53783718Y-125323914D01*
X53513625Y-125524289D01*
X53231805Y-125696755D01*
X52939449Y-125840204D01*
X52637750Y-125953531D01*
X52327900Y-126035630D01*
X52011090Y-126085394D01*
X51818694Y-126099366D01*
X51500024Y-126096067D01*
X51185392Y-126060201D01*
X50876077Y-125992585D01*
X50573361Y-125894038D01*
X50278524Y-125765378D01*
X49992845Y-125607423D01*
X49717606Y-125420991D01*
X49454085Y-125206900D01*
X49203564Y-124965969D01*
X48967322Y-124699015D01*
X48746640Y-124406857D01*
X48542798Y-124090312D01*
X48357076Y-123750200D01*
X48224675Y-123466610D01*
X48065667Y-123059509D01*
X47935111Y-122638416D01*
X47833082Y-122206055D01*
X47759651Y-121765149D01*
X47714891Y-121318423D01*
X47698876Y-120868601D01*
X47702490Y-120741485D01*
X48695072Y-120741485D01*
X48696884Y-120871067D01*
X48700345Y-121008679D01*
X48705260Y-121147850D01*
X48711432Y-121282109D01*
X48718666Y-121404987D01*
X48726766Y-121510012D01*
X48735534Y-121590714D01*
X48740923Y-121629028D01*
X48769035Y-121803188D01*
X48803765Y-121986798D01*
X48842824Y-122169036D01*
X48883926Y-122339078D01*
X48924784Y-122486103D01*
X49040645Y-122827712D01*
X49177118Y-123155096D01*
X49331423Y-123461658D01*
X49502394Y-123746142D01*
X49688866Y-124007295D01*
X49889676Y-124243861D01*
X50103657Y-124454588D01*
X50329646Y-124638220D01*
X50566477Y-124793502D01*
X50812987Y-124919182D01*
X51068009Y-125014003D01*
X51330380Y-125076713D01*
X51411811Y-125087737D01*
X51538923Y-125097134D01*
X51678174Y-125100719D01*
X51818173Y-125098492D01*
X51947524Y-125090454D01*
X52054836Y-125076609D01*
X52184313Y-125048816D01*
X52438033Y-124969008D01*
X52686559Y-124857480D01*
X52928062Y-124715645D01*
X53160709Y-124544917D01*
X53382671Y-124346709D01*
X53592115Y-124122433D01*
X53787211Y-123873504D01*
X53966128Y-123601335D01*
X54049362Y-123456456D01*
X54217740Y-123116967D01*
X54362079Y-122756226D01*
X54481470Y-122376958D01*
X54575004Y-121981890D01*
X54641773Y-121573747D01*
X54650493Y-121494770D01*
X54661232Y-121362058D01*
X54670047Y-121211084D01*
X54676667Y-121050517D01*
X54680820Y-120889025D01*
X54682237Y-120735277D01*
X54680646Y-120597940D01*
X54675776Y-120485684D01*
X54663505Y-120305651D01*
X54397751Y-120414786D01*
X54367504Y-120427137D01*
X53993245Y-120568605D01*
X53619761Y-120689264D01*
X53253741Y-120787121D01*
X52901871Y-120860186D01*
X52849688Y-120869040D01*
X52480468Y-120916784D01*
X52091408Y-120942742D01*
X51687630Y-120947230D01*
X51274254Y-120930563D01*
X50856401Y-120893056D01*
X50439192Y-120835024D01*
X50027748Y-120756783D01*
X49627188Y-120658647D01*
X49582797Y-120646235D01*
X49453494Y-120608162D01*
X49311765Y-120564180D01*
X49166646Y-120517249D01*
X49027172Y-120470324D01*
X48902380Y-120426364D01*
X48801304Y-120388325D01*
X48713497Y-120353600D01*
X48701445Y-120466137D01*
X48697185Y-120532294D01*
X48695107Y-120626404D01*
X48695072Y-120741485D01*
X47702490Y-120741485D01*
X47711677Y-120418409D01*
X47753368Y-119970569D01*
X47824021Y-119527807D01*
X47864817Y-119349807D01*
X48883591Y-119349807D01*
X49140861Y-119450522D01*
X49426840Y-119555926D01*
X49900858Y-119702303D01*
X50379490Y-119815206D01*
X50862206Y-119894497D01*
X50968877Y-119908010D01*
X51058268Y-119918485D01*
X51122401Y-119924481D01*
X51165648Y-119926150D01*
X51192380Y-119923643D01*
X51200750Y-119919897D01*
X52226175Y-119919897D01*
X52228593Y-119933138D01*
X52241882Y-119940682D01*
X52270588Y-119942712D01*
X52319255Y-119939415D01*
X52392430Y-119930978D01*
X52494657Y-119917584D01*
X52527204Y-119913137D01*
X52806240Y-119866810D01*
X53084973Y-119805237D01*
X53368479Y-119726894D01*
X53661832Y-119630256D01*
X53970110Y-119513801D01*
X54298385Y-119376005D01*
X54346591Y-119354374D01*
X54420491Y-119317816D01*
X54462573Y-119290938D01*
X54473240Y-119273506D01*
X54470517Y-119265715D01*
X54459061Y-119228064D01*
X54445165Y-119178182D01*
X54425446Y-119110365D01*
X54379823Y-118975509D01*
X54322317Y-118824476D01*
X54256386Y-118665474D01*
X54185486Y-118506708D01*
X54113075Y-118356385D01*
X54042612Y-118222711D01*
X53992585Y-118135256D01*
X53807904Y-117847486D01*
X53607458Y-117585963D01*
X53392487Y-117351949D01*
X53164230Y-117146706D01*
X52923925Y-116971497D01*
X52672813Y-116827583D01*
X52665055Y-116823732D01*
X52592138Y-116789210D01*
X52513343Y-116754297D01*
X52435983Y-116721967D01*
X52367372Y-116695193D01*
X52314826Y-116676949D01*
X52285657Y-116670206D01*
X52285028Y-116675119D01*
X52287246Y-116706078D01*
X52293141Y-116759207D01*
X52301950Y-116827154D01*
X52308136Y-116873286D01*
X52348639Y-117249838D01*
X52374753Y-117644973D01*
X52386349Y-118048888D01*
X52386251Y-118061789D01*
X52383302Y-118451782D01*
X52365485Y-118843852D01*
X52332771Y-119215297D01*
X52329794Y-119241182D01*
X52317335Y-119341131D01*
X52302354Y-119451783D01*
X52285965Y-119565743D01*
X52269283Y-119675613D01*
X52253422Y-119773996D01*
X52239495Y-119853495D01*
X52228618Y-119906713D01*
X52226175Y-119919897D01*
X51200750Y-119919897D01*
X51206969Y-119917114D01*
X51213787Y-119906713D01*
X51216828Y-119896321D01*
X51226797Y-119851698D01*
X51240212Y-119782869D01*
X51255964Y-119696303D01*
X51272944Y-119598466D01*
X51290042Y-119495828D01*
X51306148Y-119394856D01*
X51320153Y-119302017D01*
X51330947Y-119223780D01*
X51363986Y-118909785D01*
X51388106Y-118493060D01*
X51392528Y-118061789D01*
X51377376Y-117623196D01*
X51342773Y-117184505D01*
X51288842Y-116752942D01*
X51269525Y-116623586D01*
X51156542Y-116652648D01*
X51069801Y-116677171D01*
X50840501Y-116762083D01*
X50610012Y-116875402D01*
X50384596Y-117014194D01*
X50330264Y-117053561D01*
X50231747Y-117132933D01*
X50123093Y-117228095D01*
X50011153Y-117332581D01*
X49902778Y-117439927D01*
X49804821Y-117543669D01*
X49724133Y-117637341D01*
X49610258Y-117786840D01*
X49438613Y-118045582D01*
X49280023Y-118326022D01*
X49138043Y-118621147D01*
X49016225Y-118923947D01*
X48918126Y-119227408D01*
X48883591Y-119349807D01*
X47864817Y-119349807D01*
X47923709Y-119092847D01*
X48052504Y-118668412D01*
X48210480Y-118257228D01*
X48280442Y-118100207D01*
X48455653Y-117754679D01*
X48650511Y-117430008D01*
X48863638Y-117127449D01*
X49093659Y-116848260D01*
X49339199Y-116593696D01*
X49598881Y-116365013D01*
X49871331Y-116163469D01*
X50155172Y-115990319D01*
X50449028Y-115846820D01*
X50751525Y-115734228D01*
X51061285Y-115653799D01*
X51107144Y-115644201D01*
X51169922Y-115630193D01*
X51214441Y-115619136D01*
X51233181Y-115612822D01*
X51233592Y-115606692D01*
X51234330Y-115570179D01*
X51235107Y-115502114D01*
X51235916Y-115404001D01*
X51236752Y-115277345D01*
X51237609Y-115123651D01*
X51238482Y-114944422D01*
X51239366Y-114741164D01*
X51240254Y-114515381D01*
X51241141Y-114268577D01*
X51242023Y-114002258D01*
X51242892Y-113717927D01*
X51243744Y-113417089D01*
X51244572Y-113101248D01*
X51245373Y-112771910D01*
X51246139Y-112430578D01*
X51246866Y-112078757D01*
X51247547Y-111717952D01*
X51254548Y-107830448D01*
X51174672Y-107870924D01*
X51126285Y-107894832D01*
X50924252Y-107980275D01*
X50721939Y-108040830D01*
X50509778Y-108078910D01*
X50278203Y-108096926D01*
X50241322Y-108098067D01*
X50042077Y-108096355D01*
X49860722Y-108079303D01*
X49685975Y-108045395D01*
X49506560Y-107993112D01*
X49343513Y-107938640D01*
X49385345Y-108075332D01*
X49513838Y-108451940D01*
X49685342Y-108864385D01*
X49884569Y-109265465D01*
X50109189Y-109650895D01*
X50356875Y-110016388D01*
X50625298Y-110357660D01*
X50747028Y-110501159D01*
X50747028Y-111176331D01*
X50747000Y-111225970D01*
X50746583Y-111370321D01*
X50745712Y-111502344D01*
X50744443Y-111618439D01*
X50742832Y-111715002D01*
X50740935Y-111788435D01*
X50738809Y-111835135D01*
X50736508Y-111851502D01*
X50725264Y-111846018D01*
X50691227Y-111820363D01*
X50639743Y-111777006D01*
X50574778Y-111719579D01*
X50500301Y-111651709D01*
X50420277Y-111577027D01*
X50338674Y-111499161D01*
X50259459Y-111421741D01*
X50186599Y-111348396D01*
X50040524Y-111194134D01*
X49721391Y-110822101D01*
X49429385Y-110429775D01*
X49164482Y-110017112D01*
X48926658Y-109584067D01*
X48715890Y-109130596D01*
X48532155Y-108656653D01*
X48375429Y-108162194D01*
X48245688Y-107647174D01*
X48214048Y-107497033D01*
X48168912Y-107253488D01*
X48130341Y-107007389D01*
X48098698Y-106763130D01*
X48074347Y-106525102D01*
X48057651Y-106297699D01*
X48048975Y-106085312D01*
X48048878Y-106021727D01*
X49040356Y-106021727D01*
X49048215Y-106102067D01*
X49062723Y-106195895D01*
X49084564Y-106280273D01*
X49117253Y-106367964D01*
X49164307Y-106471733D01*
X49176167Y-106496252D01*
X49216593Y-106572555D01*
X49258294Y-106635770D01*
X49309591Y-106697433D01*
X49378806Y-106769078D01*
X49435004Y-106822313D01*
X49567279Y-106925640D01*
X49709426Y-107004563D01*
X49872070Y-107065464D01*
X49996643Y-107095523D01*
X50180689Y-107112343D01*
X50363746Y-107098480D01*
X50542029Y-107055610D01*
X50711753Y-106985409D01*
X50869132Y-106889551D01*
X51010380Y-106769711D01*
X51131713Y-106627566D01*
X51229344Y-106464790D01*
X51259452Y-106399490D01*
X51309208Y-106258814D01*
X51336802Y-106115289D01*
X51345315Y-105955377D01*
X51343682Y-105881253D01*
X51327051Y-105730313D01*
X51289965Y-105589729D01*
X51229344Y-105445964D01*
X51220593Y-105428470D01*
X51117282Y-105262529D01*
X50988804Y-105118301D01*
X50837380Y-104997587D01*
X50665229Y-104902187D01*
X50474570Y-104833900D01*
X50395264Y-104817811D01*
X50274950Y-104806190D01*
X50146005Y-104804706D01*
X50021781Y-104813397D01*
X49915632Y-104832301D01*
X49866282Y-104846297D01*
X49688906Y-104917389D01*
X49525706Y-105015577D01*
X49380932Y-105137435D01*
X49258837Y-105279534D01*
X49163673Y-105438447D01*
X49136572Y-105497503D01*
X49073135Y-105676659D01*
X49041291Y-105850321D01*
X49040356Y-106021727D01*
X48048878Y-106021727D01*
X48048681Y-105892334D01*
X48057134Y-105723156D01*
X48074698Y-105582171D01*
X48114140Y-105405828D01*
X48196543Y-105161033D01*
X48307556Y-104927093D01*
X48444727Y-104707785D01*
X48605601Y-104506886D01*
X48787723Y-104328173D01*
X48988640Y-104175425D01*
X49079790Y-104117620D01*
X49305868Y-103996336D01*
X49533933Y-103906716D01*
X49768879Y-103847390D01*
X50015600Y-103816987D01*
X50278992Y-103814136D01*
X50383997Y-103819506D01*
X50528924Y-103833435D01*
X50660581Y-103856136D01*
X50791363Y-103889938D01*
X50933668Y-103937172D01*
X50984968Y-103956434D01*
X51218296Y-104065482D01*
X51437289Y-104203138D01*
X51638998Y-104366452D01*
X51820474Y-104552474D01*
X51978766Y-104758256D01*
X52110926Y-104980848D01*
X52214002Y-105217301D01*
X52253991Y-105341479D01*
X52306211Y-105572892D01*
X52334577Y-105812937D01*
X52337033Y-105955377D01*
X52338730Y-106053798D01*
G37*
G36*
X78117199Y-101716429D02*
G01*
X78419327Y-101848141D01*
X78734720Y-101985685D01*
X79062085Y-102128494D01*
X79400125Y-102276004D01*
X79747548Y-102427648D01*
X80103057Y-102582860D01*
X80465359Y-102741074D01*
X80833159Y-102901724D01*
X81205161Y-103064245D01*
X81580072Y-103228070D01*
X81956596Y-103392634D01*
X82333439Y-103557371D01*
X82709306Y-103721714D01*
X83082903Y-103885098D01*
X83452934Y-104046956D01*
X83818106Y-104206724D01*
X84177123Y-104363834D01*
X84528691Y-104517722D01*
X84871514Y-104667820D01*
X85204299Y-104813564D01*
X85525751Y-104954387D01*
X85834575Y-105089724D01*
X86129475Y-105219007D01*
X86409159Y-105341672D01*
X86672330Y-105457153D01*
X86917695Y-105564883D01*
X87143958Y-105664297D01*
X87349825Y-105754829D01*
X87534001Y-105835913D01*
X87695191Y-105906982D01*
X87832101Y-105967471D01*
X87943436Y-106016815D01*
X88027902Y-106054446D01*
X88084203Y-106079800D01*
X88111045Y-106092309D01*
X88170956Y-106129922D01*
X88250128Y-106202534D01*
X88314527Y-106288304D01*
X88355056Y-106376633D01*
X88356038Y-106379925D01*
X88362227Y-106400457D01*
X88367848Y-106420107D01*
X88372689Y-106440144D01*
X88376542Y-106461835D01*
X88379196Y-106486448D01*
X88380440Y-106515251D01*
X88380064Y-106549513D01*
X88377857Y-106590502D01*
X88373610Y-106639484D01*
X88367113Y-106697729D01*
X88358154Y-106766505D01*
X88346523Y-106847079D01*
X88332012Y-106940719D01*
X88314408Y-107048694D01*
X88293502Y-107172271D01*
X88269083Y-107312719D01*
X88240941Y-107471306D01*
X88208867Y-107649299D01*
X88172649Y-107847966D01*
X88132077Y-108068576D01*
X88086941Y-108312397D01*
X88037031Y-108580696D01*
X87982136Y-108874742D01*
X87922047Y-109195802D01*
X87856552Y-109545145D01*
X87785442Y-109924039D01*
X87708506Y-110333752D01*
X87625534Y-110775551D01*
X87624306Y-110782091D01*
X87555906Y-111146291D01*
X87489104Y-111501937D01*
X87424173Y-111847571D01*
X87361389Y-112181735D01*
X87301025Y-112502968D01*
X87243356Y-112809814D01*
X87188656Y-113100813D01*
X87137199Y-113374506D01*
X87089260Y-113629434D01*
X87045114Y-113864139D01*
X87005034Y-114077163D01*
X86969294Y-114267045D01*
X86938170Y-114432328D01*
X86911936Y-114571553D01*
X86890865Y-114683261D01*
X86875233Y-114765994D01*
X86865313Y-114818292D01*
X86861381Y-114838696D01*
X86860652Y-114842193D01*
X86859070Y-114859236D01*
X86865463Y-114873039D01*
X86884746Y-114886172D01*
X86921834Y-114901202D01*
X86977714Y-114919417D01*
X86981641Y-114920697D01*
X87069081Y-114947226D01*
X87169539Y-114978555D01*
X87311507Y-115025332D01*
X87470659Y-115079847D01*
X87639266Y-115139331D01*
X87809600Y-115201016D01*
X87973933Y-115262134D01*
X88124536Y-115319915D01*
X88253682Y-115371592D01*
X88270874Y-115378697D01*
X88686110Y-115565424D01*
X89105631Y-115782478D01*
X89525310Y-116027454D01*
X89941019Y-116297950D01*
X90348631Y-116591561D01*
X90629995Y-116817064D01*
X90935500Y-117096328D01*
X91211528Y-117390121D01*
X91459536Y-117700455D01*
X91680984Y-118029340D01*
X91877327Y-118378789D01*
X92050025Y-118750815D01*
X92200534Y-119147428D01*
X92318147Y-119507680D01*
X92436442Y-119914637D01*
X92533311Y-120305383D01*
X92609855Y-120684418D01*
X92667176Y-121056245D01*
X92668721Y-121068585D01*
X92678993Y-121178166D01*
X92687010Y-121313641D01*
X92692725Y-121467982D01*
X92696093Y-121634161D01*
X92697065Y-121805151D01*
X92695597Y-121973923D01*
X92691640Y-122133450D01*
X92685864Y-122260921D01*
X92685149Y-122276705D01*
X92676076Y-122396659D01*
X92636669Y-122689188D01*
X92574502Y-122969434D01*
X92489171Y-123228997D01*
X92379130Y-123471258D01*
X92242839Y-123699594D01*
X92078752Y-123917386D01*
X91885327Y-124128012D01*
X91753078Y-124252889D01*
X91526672Y-124434916D01*
X91289191Y-124586509D01*
X91037194Y-124709495D01*
X90767239Y-124805703D01*
X90475886Y-124876962D01*
X90372548Y-124892364D01*
X90232606Y-124903803D01*
X90077102Y-124908997D01*
X89915459Y-124908021D01*
X89757098Y-124900954D01*
X89611445Y-124887872D01*
X89487920Y-124868853D01*
X89304366Y-124825488D01*
X89020462Y-124731294D01*
X88752396Y-124608466D01*
X88501831Y-124458644D01*
X88270429Y-124283462D01*
X88059855Y-124084557D01*
X87871770Y-123863568D01*
X87707837Y-123622130D01*
X87569720Y-123361881D01*
X87459080Y-123084457D01*
X87377582Y-122791495D01*
X87376356Y-122785889D01*
X87360392Y-122697157D01*
X87348372Y-122594391D01*
X87339680Y-122470978D01*
X87333702Y-122320307D01*
X87332859Y-122222348D01*
X88316990Y-122222348D01*
X88330247Y-122449804D01*
X88374780Y-122674085D01*
X88450445Y-122892368D01*
X88557097Y-123101832D01*
X88694591Y-123299654D01*
X88797013Y-123415633D01*
X88969362Y-123569203D01*
X89162033Y-123697562D01*
X89371941Y-123799041D01*
X89596001Y-123871971D01*
X89831130Y-123914683D01*
X89861381Y-123917985D01*
X89930737Y-123924699D01*
X89986158Y-123928904D01*
X90017770Y-123929801D01*
X90220977Y-123909411D01*
X90438966Y-123865886D01*
X90637875Y-123799355D01*
X90822506Y-123707778D01*
X90997664Y-123589117D01*
X91168152Y-123441330D01*
X91279159Y-123325354D01*
X91420532Y-123139842D01*
X91530687Y-122941195D01*
X91609862Y-122728860D01*
X91658293Y-122502286D01*
X91676219Y-122260921D01*
X91673202Y-122107334D01*
X91655209Y-121939517D01*
X91619084Y-121781753D01*
X91562261Y-121623357D01*
X91482171Y-121453643D01*
X91480752Y-121450907D01*
X91360355Y-121255502D01*
X91213403Y-121079057D01*
X91042951Y-120923999D01*
X90852054Y-120792753D01*
X90643767Y-120687743D01*
X90421144Y-120611394D01*
X90392388Y-120603847D01*
X90323956Y-120587858D01*
X90260239Y-120577171D01*
X90191578Y-120570757D01*
X90108319Y-120567586D01*
X90000802Y-120566631D01*
X89922707Y-120567109D01*
X89801520Y-120571802D01*
X89697754Y-120582989D01*
X89600892Y-120602502D01*
X89500415Y-120632175D01*
X89385806Y-120673842D01*
X89356004Y-120685782D01*
X89180861Y-120773076D01*
X89009429Y-120885888D01*
X88849259Y-121018100D01*
X88707905Y-121163592D01*
X88592917Y-121316247D01*
X88579618Y-121337215D01*
X88466323Y-121549150D01*
X88384883Y-121769199D01*
X88335154Y-121994539D01*
X88316990Y-122222348D01*
X87332859Y-122222348D01*
X87332120Y-122136512D01*
X87340997Y-121949065D01*
X87362479Y-121775188D01*
X87397850Y-121604874D01*
X87448398Y-121428115D01*
X87475563Y-121347516D01*
X87590067Y-121073971D01*
X87732439Y-120817580D01*
X87900668Y-120580039D01*
X88092743Y-120363040D01*
X88306654Y-120168277D01*
X88540389Y-119997445D01*
X88791939Y-119852237D01*
X89059293Y-119734348D01*
X89340439Y-119645471D01*
X89633369Y-119587301D01*
X89689720Y-119581039D01*
X89803037Y-119574648D01*
X89934494Y-119572840D01*
X90075429Y-119575297D01*
X90217181Y-119581700D01*
X90351088Y-119591731D01*
X90468489Y-119605071D01*
X90560722Y-119621402D01*
X90688452Y-119653630D01*
X90963425Y-119744042D01*
X91223335Y-119860508D01*
X91414722Y-119958427D01*
X91389477Y-119871064D01*
X91334234Y-119688433D01*
X91208906Y-119328939D01*
X91068776Y-118997165D01*
X90912136Y-118690463D01*
X90737279Y-118406186D01*
X90542495Y-118141685D01*
X90326077Y-117894312D01*
X90086316Y-117661417D01*
X89821503Y-117440354D01*
X89507171Y-117206662D01*
X89078688Y-116920308D01*
X88640017Y-116662650D01*
X88194169Y-116435429D01*
X87744156Y-116240383D01*
X87720715Y-116231161D01*
X87612263Y-116189486D01*
X87494016Y-116145410D01*
X87370137Y-116100354D01*
X87244784Y-116055740D01*
X87122120Y-116012989D01*
X87006303Y-115973523D01*
X86901495Y-115938764D01*
X86811856Y-115910134D01*
X86741547Y-115889054D01*
X86694728Y-115876946D01*
X86675560Y-115875231D01*
X86675527Y-115875278D01*
X86671338Y-115893687D01*
X86661188Y-115943960D01*
X86645348Y-116024655D01*
X86624093Y-116134330D01*
X86597697Y-116271540D01*
X86566433Y-116434843D01*
X86530575Y-116622796D01*
X86490396Y-116833956D01*
X86446172Y-117066880D01*
X86398175Y-117320124D01*
X86346678Y-117592246D01*
X86291957Y-117881803D01*
X86234284Y-118187351D01*
X86173933Y-118507448D01*
X86111178Y-118840651D01*
X86046293Y-119185516D01*
X85979551Y-119540601D01*
X85911227Y-119904462D01*
X85879022Y-120076008D01*
X85791429Y-120542129D01*
X85709807Y-120975726D01*
X85634036Y-121377429D01*
X85563994Y-121747870D01*
X85499559Y-122087678D01*
X85440610Y-122397484D01*
X85387024Y-122677917D01*
X85338680Y-122929608D01*
X85295457Y-123153188D01*
X85266153Y-123303521D01*
X85257232Y-123349285D01*
X85223884Y-123518532D01*
X85195292Y-123661558D01*
X85171333Y-123778992D01*
X85151887Y-123871466D01*
X85136830Y-123939610D01*
X85126042Y-123984054D01*
X85119401Y-124005428D01*
X85059409Y-124099163D01*
X84968982Y-124183621D01*
X84853273Y-124252282D01*
X84757917Y-124296993D01*
X80923314Y-124292566D01*
X80566588Y-124292116D01*
X80193733Y-124291566D01*
X79823589Y-124290942D01*
X79458237Y-124290249D01*
X79099759Y-124289495D01*
X78750236Y-124288685D01*
X78411751Y-124287826D01*
X78086384Y-124286925D01*
X77776218Y-124285987D01*
X77483333Y-124285018D01*
X77209812Y-124284026D01*
X76957735Y-124283016D01*
X76729186Y-124281995D01*
X76526244Y-124280969D01*
X76350992Y-124279944D01*
X76205512Y-124278927D01*
X76091884Y-124277923D01*
X75095057Y-124267708D01*
X75095057Y-124561107D01*
X75097841Y-124698193D01*
X75111913Y-124919900D01*
X75136856Y-125156261D01*
X75171536Y-125401877D01*
X75214820Y-125651351D01*
X75265574Y-125899285D01*
X75322665Y-126140280D01*
X75384961Y-126368939D01*
X75451327Y-126579864D01*
X75520631Y-126767657D01*
X75591739Y-126926920D01*
X75598675Y-126940479D01*
X75624648Y-126989755D01*
X75664004Y-127063321D01*
X75714725Y-127157447D01*
X75774795Y-127268406D01*
X75842197Y-127392470D01*
X75914916Y-127525909D01*
X75990934Y-127664996D01*
X76044214Y-127762576D01*
X76170431Y-127996154D01*
X76280864Y-128204653D01*
X76376830Y-128390908D01*
X76459643Y-128557755D01*
X76530618Y-128708030D01*
X76591070Y-128844568D01*
X76642315Y-128970204D01*
X76685668Y-129087774D01*
X76722444Y-129200113D01*
X76753958Y-129310056D01*
X76758195Y-129326091D01*
X76774986Y-129396469D01*
X76786396Y-129462014D01*
X76793467Y-129532413D01*
X76797241Y-129617353D01*
X76798759Y-129726519D01*
X76798946Y-129786620D01*
X76797916Y-129876507D01*
X76794392Y-129945292D01*
X76787539Y-130001300D01*
X76776524Y-130052855D01*
X76760513Y-130108283D01*
X76746229Y-130151614D01*
X76663548Y-130342776D01*
X76552823Y-130519828D01*
X76413328Y-130683434D01*
X76244339Y-130834258D01*
X76045134Y-130972965D01*
X75814986Y-131100221D01*
X75553174Y-131216689D01*
X75482093Y-131244729D01*
X75069121Y-131390268D01*
X74662868Y-131503320D01*
X74261937Y-131584230D01*
X73864931Y-131633342D01*
X73748480Y-131641908D01*
X73383955Y-131652542D01*
X73026754Y-131638677D01*
X72679708Y-131600907D01*
X72345654Y-131539825D01*
X72027423Y-131456025D01*
X71727852Y-131350101D01*
X71449773Y-131222646D01*
X71196021Y-131074254D01*
X71168779Y-131056422D01*
X71115968Y-131022672D01*
X71077624Y-130999311D01*
X71060615Y-130990581D01*
X71055539Y-130988040D01*
X71028816Y-130969205D01*
X70985342Y-130936017D01*
X70931470Y-130893262D01*
X70918342Y-130882606D01*
X70715835Y-130699312D01*
X70538329Y-130501575D01*
X70387608Y-130292175D01*
X70265459Y-130073889D01*
X70173668Y-129849494D01*
X70114022Y-129621770D01*
X70096355Y-129484975D01*
X70090512Y-129323551D01*
X70097494Y-129157670D01*
X70116762Y-128999495D01*
X70147777Y-128861188D01*
X70222500Y-128649798D01*
X70324344Y-128444464D01*
X70452825Y-128253080D01*
X70611574Y-128069447D01*
X70647245Y-128032944D01*
X70758508Y-127927828D01*
X70866621Y-127841686D01*
X70982293Y-127766562D01*
X71116233Y-127694498D01*
X71151613Y-127677420D01*
X71252304Y-127632574D01*
X71373831Y-127582245D01*
X71508787Y-127529186D01*
X71649766Y-127476148D01*
X71789361Y-127425885D01*
X71920167Y-127381150D01*
X72034777Y-127344695D01*
X72125786Y-127319273D01*
X72274906Y-127285830D01*
X72568023Y-127237637D01*
X72887284Y-127206391D01*
X73233352Y-127192073D01*
X73606888Y-127194663D01*
X74008557Y-127214142D01*
X74439018Y-127250490D01*
X74497293Y-127256179D01*
X74581701Y-127263736D01*
X74649912Y-127268992D01*
X74696076Y-127271514D01*
X74714346Y-127270869D01*
X74713297Y-127263882D01*
X74701676Y-127230719D01*
X74679640Y-127175288D01*
X74649363Y-127102989D01*
X74613016Y-127019217D01*
X74547211Y-126865748D01*
X74433018Y-126577373D01*
X74332043Y-126292395D01*
X74246941Y-126018519D01*
X74180367Y-125763450D01*
X74166235Y-125700522D01*
X74128216Y-125508511D01*
X74095434Y-125308733D01*
X74068618Y-125107906D01*
X74048497Y-124912750D01*
X74035798Y-124729982D01*
X74031252Y-124566323D01*
X74035586Y-124428490D01*
X74047122Y-124271542D01*
X72369587Y-124269574D01*
X72352317Y-124269553D01*
X72099888Y-124269131D01*
X71845829Y-124268496D01*
X71593696Y-124267669D01*
X71347045Y-124266671D01*
X71109433Y-124265520D01*
X70884417Y-124264238D01*
X70675553Y-124262845D01*
X70486397Y-124261360D01*
X70320506Y-124259804D01*
X70181437Y-124258197D01*
X70072746Y-124256559D01*
X69453441Y-124245512D01*
X68197863Y-123663239D01*
X68104594Y-123619988D01*
X67914248Y-123531735D01*
X67733712Y-123448051D01*
X67565316Y-123370015D01*
X67411391Y-123298706D01*
X67274267Y-123235202D01*
X67156275Y-123180584D01*
X67059745Y-123135930D01*
X66987006Y-123102319D01*
X66940391Y-123080830D01*
X66922229Y-123072543D01*
X66908065Y-123084327D01*
X66887294Y-123127961D01*
X66860392Y-123202113D01*
X66827809Y-123305443D01*
X66789993Y-123436609D01*
X66747395Y-123594270D01*
X66743814Y-123607949D01*
X66707049Y-123759165D01*
X66679345Y-123899100D01*
X66659645Y-124036755D01*
X66646893Y-124181132D01*
X66640031Y-124341230D01*
X66638003Y-124526051D01*
X66638289Y-124622714D01*
X66639913Y-124735893D01*
X66643618Y-124834253D01*
X66650123Y-124927451D01*
X66660148Y-125025139D01*
X66674412Y-125136975D01*
X66693634Y-125272611D01*
X66711142Y-125389326D01*
X66754138Y-125646318D01*
X66800596Y-125881959D01*
X66852346Y-126105097D01*
X66911217Y-126324582D01*
X66926475Y-126377697D01*
X66952490Y-126465964D01*
X66977484Y-126545944D01*
X67003044Y-126621089D01*
X67030759Y-126694850D01*
X67062215Y-126770681D01*
X67099000Y-126852032D01*
X67142702Y-126942355D01*
X67194910Y-127045104D01*
X67257209Y-127163729D01*
X67331189Y-127301682D01*
X67418437Y-127462416D01*
X67520540Y-127649383D01*
X67565010Y-127730840D01*
X67699617Y-127979687D01*
X67817975Y-128202782D01*
X67921097Y-128402638D01*
X68009996Y-128581769D01*
X68085685Y-128742686D01*
X68149175Y-128887903D01*
X68201479Y-129019933D01*
X68243611Y-129141289D01*
X68276582Y-129254484D01*
X68301406Y-129362031D01*
X68319094Y-129466443D01*
X68330660Y-129570233D01*
X68337116Y-129675913D01*
X68338230Y-129705250D01*
X68340735Y-129800470D01*
X68339873Y-129873814D01*
X68334980Y-129934792D01*
X68325391Y-129992910D01*
X68310441Y-130057677D01*
X68273749Y-130180566D01*
X68195758Y-130359431D01*
X68090833Y-130525205D01*
X67957300Y-130680018D01*
X67793487Y-130826001D01*
X67597721Y-130965282D01*
X67485758Y-131031765D01*
X67318409Y-131117284D01*
X67128024Y-131202249D01*
X66920598Y-131284444D01*
X66702125Y-131361654D01*
X66478597Y-131431661D01*
X66256008Y-131492249D01*
X66040352Y-131541202D01*
X65890883Y-131570057D01*
X65741180Y-131595249D01*
X65599782Y-131614119D01*
X65458259Y-131627446D01*
X65308180Y-131636008D01*
X65141114Y-131640582D01*
X64948631Y-131641948D01*
X64745857Y-131639870D01*
X64510266Y-131630551D01*
X64295632Y-131612849D01*
X64095031Y-131585789D01*
X63901543Y-131548392D01*
X63708244Y-131499683D01*
X63508213Y-131438684D01*
X63436302Y-131414238D01*
X63149473Y-131298982D01*
X62878263Y-131161297D01*
X62626628Y-131003602D01*
X62398525Y-130828314D01*
X62197911Y-130637854D01*
X62160171Y-130596797D01*
X61997828Y-130395115D01*
X61861778Y-130181912D01*
X61754556Y-129961576D01*
X61678695Y-129738495D01*
X61671399Y-129710544D01*
X61655566Y-129642357D01*
X61645004Y-129578767D01*
X61638706Y-129510146D01*
X61635665Y-129426868D01*
X61634875Y-129319305D01*
X61634987Y-129271973D01*
X61636553Y-129175718D01*
X61640780Y-129099652D01*
X61648698Y-129034028D01*
X61661337Y-128969101D01*
X61679728Y-128895123D01*
X61708173Y-128799109D01*
X61797550Y-128576821D01*
X61915416Y-128364500D01*
X62057959Y-128168479D01*
X62221368Y-127995093D01*
X62221609Y-127994869D01*
X62306939Y-127919227D01*
X62391512Y-127852375D01*
X62480096Y-127791725D01*
X62577460Y-127734687D01*
X62688373Y-127678673D01*
X62817605Y-127621093D01*
X62969925Y-127559357D01*
X63150101Y-127490878D01*
X63159904Y-127487236D01*
X63289591Y-127439349D01*
X63393643Y-127401700D01*
X63477704Y-127372443D01*
X63547423Y-127349734D01*
X63608445Y-127331730D01*
X63666418Y-127316586D01*
X63726988Y-127302458D01*
X63732359Y-127301263D01*
X63999592Y-127252109D01*
X64291588Y-127217749D01*
X64609317Y-127198167D01*
X64953747Y-127193351D01*
X65325850Y-127203287D01*
X65726594Y-127227959D01*
X66156949Y-127267355D01*
X66270878Y-127279312D01*
X66172057Y-127060698D01*
X66028859Y-126726007D01*
X65892625Y-126360245D01*
X65781184Y-126000452D01*
X65692533Y-125640087D01*
X65624670Y-125272611D01*
X65622176Y-125256466D01*
X65610550Y-125175417D01*
X65601692Y-125099463D01*
X65595251Y-125022098D01*
X65590876Y-124936820D01*
X65588215Y-124837125D01*
X65586916Y-124716510D01*
X65586629Y-124568470D01*
X65586632Y-124564656D01*
X65587155Y-124415717D01*
X65588725Y-124294000D01*
X65591695Y-124192950D01*
X65596419Y-124106012D01*
X65603251Y-124026632D01*
X65612544Y-123948256D01*
X65624654Y-123864328D01*
X65632745Y-123813485D01*
X65692050Y-123509839D01*
X65770872Y-123196148D01*
X65866112Y-122884985D01*
X65882304Y-122835670D01*
X65907284Y-122754884D01*
X65925761Y-122688733D01*
X65936163Y-122643016D01*
X65936921Y-122623530D01*
X65932802Y-122621366D01*
X65902030Y-122606628D01*
X65842278Y-122578523D01*
X65754780Y-122537623D01*
X65640769Y-122484499D01*
X65501482Y-122419724D01*
X65338152Y-122343869D01*
X65152013Y-122257506D01*
X64944299Y-122161206D01*
X64716246Y-122055542D01*
X64469087Y-121941084D01*
X64204058Y-121818405D01*
X63922391Y-121688076D01*
X63625322Y-121550670D01*
X63314085Y-121406756D01*
X62989915Y-121256909D01*
X62654045Y-121101698D01*
X62307710Y-120941696D01*
X61952145Y-120777474D01*
X61588583Y-120609605D01*
X61428517Y-120535706D01*
X61066769Y-120368688D01*
X60712937Y-120205317D01*
X60368295Y-120046181D01*
X60034113Y-119891867D01*
X59711663Y-119742962D01*
X59402218Y-119600054D01*
X59107050Y-119463731D01*
X58827429Y-119334580D01*
X58564628Y-119213189D01*
X58319919Y-119100144D01*
X58094574Y-118996035D01*
X57889864Y-118901448D01*
X57707061Y-118816970D01*
X57547438Y-118743190D01*
X57412266Y-118680694D01*
X57302816Y-118630071D01*
X57220362Y-118591907D01*
X57166174Y-118566791D01*
X57141524Y-118555310D01*
X57069226Y-118516352D01*
X56962849Y-118434501D01*
X56895867Y-118350938D01*
X59065821Y-118350938D01*
X59068992Y-118352562D01*
X59097988Y-118366373D01*
X59155458Y-118393311D01*
X59239757Y-118432617D01*
X59349238Y-118483528D01*
X59482255Y-118545286D01*
X59637160Y-118617130D01*
X59812308Y-118698298D01*
X60006052Y-118788031D01*
X60216745Y-118885569D01*
X60442742Y-118990151D01*
X60682395Y-119101016D01*
X60934058Y-119217404D01*
X61196085Y-119338556D01*
X61466828Y-119463709D01*
X61744643Y-119592104D01*
X62027881Y-119722981D01*
X62314897Y-119855579D01*
X62604044Y-119989137D01*
X62893676Y-120122896D01*
X63182146Y-120256095D01*
X63467807Y-120387973D01*
X63749014Y-120517770D01*
X64024119Y-120644726D01*
X64291477Y-120768080D01*
X64549440Y-120887071D01*
X64796362Y-121000940D01*
X65030597Y-121108926D01*
X65250498Y-121210269D01*
X65454419Y-121304207D01*
X65640714Y-121389981D01*
X65807735Y-121466831D01*
X65953836Y-121533996D01*
X66077371Y-121590714D01*
X66176693Y-121636228D01*
X66250156Y-121669774D01*
X66296114Y-121690594D01*
X66312919Y-121697927D01*
X66321383Y-121690914D01*
X66342086Y-121658252D01*
X66370895Y-121604244D01*
X66405111Y-121534714D01*
X66442038Y-121455484D01*
X66478980Y-121372378D01*
X66513240Y-121291222D01*
X66542120Y-121217837D01*
X66562924Y-121158049D01*
X66609003Y-121026917D01*
X66664330Y-120910601D01*
X66726355Y-120821821D01*
X66797452Y-120757247D01*
X66879997Y-120713550D01*
X66906918Y-120704410D01*
X67010937Y-120686498D01*
X67126184Y-120688269D01*
X67245259Y-120707642D01*
X67360764Y-120742534D01*
X67465301Y-120790864D01*
X67551471Y-120850550D01*
X67611876Y-120919509D01*
X67640484Y-120984411D01*
X67658746Y-121081286D01*
X67658326Y-121188296D01*
X67638485Y-121295012D01*
X67631372Y-121318769D01*
X67593177Y-121429265D01*
X67539890Y-121562055D01*
X67470595Y-121719330D01*
X67384376Y-121903282D01*
X67363950Y-121945954D01*
X67328032Y-122021460D01*
X67299233Y-122082625D01*
X67280091Y-122124041D01*
X67273147Y-122140298D01*
X67274768Y-122141311D01*
X67299334Y-122153426D01*
X67351650Y-122178290D01*
X67429395Y-122214823D01*
X67530247Y-122261946D01*
X67651883Y-122318577D01*
X67791981Y-122383636D01*
X67948218Y-122456045D01*
X68118274Y-122534721D01*
X68299825Y-122618586D01*
X68490548Y-122706559D01*
X69707950Y-123267691D01*
X71958982Y-123279763D01*
X74210014Y-123291834D01*
X74246325Y-123166625D01*
X74334123Y-122882841D01*
X74446829Y-122556208D01*
X74575106Y-122216823D01*
X74716192Y-121871965D01*
X74867327Y-121528915D01*
X74868474Y-121526405D01*
X74914192Y-121424416D01*
X74956716Y-121326134D01*
X74993237Y-121238310D01*
X75020944Y-121167696D01*
X75037029Y-121121043D01*
X75061782Y-121045397D01*
X75124345Y-120912975D01*
X75202844Y-120810351D01*
X75297067Y-120737666D01*
X75406799Y-120695061D01*
X75531829Y-120682675D01*
X75671945Y-120700651D01*
X75757749Y-120723051D01*
X75892535Y-120775441D01*
X75996872Y-120842346D01*
X76071017Y-120924012D01*
X76115228Y-121020681D01*
X76129765Y-121132598D01*
X76129618Y-121142238D01*
X76123328Y-121204144D01*
X76106966Y-121277812D01*
X76079435Y-121366208D01*
X76039633Y-121472298D01*
X75986462Y-121599049D01*
X75918823Y-121749427D01*
X75835617Y-121926398D01*
X75831818Y-121934357D01*
X75777661Y-122048671D01*
X75722506Y-122166517D01*
X75670297Y-122279375D01*
X75624976Y-122378724D01*
X75590488Y-122456045D01*
X75561654Y-122524351D01*
X75524673Y-122616518D01*
X75484591Y-122720035D01*
X75443651Y-122828781D01*
X75404097Y-122936632D01*
X75368171Y-123037465D01*
X75338115Y-123125158D01*
X75316172Y-123193587D01*
X75304585Y-123236630D01*
X75295547Y-123281822D01*
X76913238Y-123293105D01*
X77003122Y-123293712D01*
X77265269Y-123295289D01*
X77554288Y-123296783D01*
X77865037Y-123298179D01*
X78192371Y-123299461D01*
X78531149Y-123300614D01*
X78876226Y-123301623D01*
X79222460Y-123302472D01*
X79564708Y-123303145D01*
X79897826Y-123303626D01*
X80216671Y-123303902D01*
X80516100Y-123303955D01*
X82501270Y-123303521D01*
X78743020Y-121419339D01*
X78517370Y-121306213D01*
X78163744Y-121128932D01*
X77810231Y-120951716D01*
X77458720Y-120775510D01*
X77111100Y-120601262D01*
X76769260Y-120429917D01*
X76435088Y-120262423D01*
X76110474Y-120099726D01*
X75797306Y-119942773D01*
X75497474Y-119792510D01*
X75212865Y-119649884D01*
X74945370Y-119515842D01*
X74696876Y-119391330D01*
X74469273Y-119277296D01*
X74264450Y-119174684D01*
X74084295Y-119084443D01*
X73930697Y-119007518D01*
X73805545Y-118944857D01*
X72626320Y-118354557D01*
X65830929Y-118343576D01*
X65285949Y-118342718D01*
X64692907Y-118341843D01*
X64132839Y-118341083D01*
X63605231Y-118340438D01*
X63109570Y-118339910D01*
X62645344Y-118339499D01*
X62212039Y-118339205D01*
X61809143Y-118339030D01*
X61436141Y-118338972D01*
X61092522Y-118339034D01*
X60777772Y-118339216D01*
X60491378Y-118339518D01*
X60232828Y-118339941D01*
X60001607Y-118340485D01*
X59797203Y-118341152D01*
X59619104Y-118341940D01*
X59466795Y-118342852D01*
X59339764Y-118343887D01*
X59237498Y-118345047D01*
X59159484Y-118346331D01*
X59105208Y-118347740D01*
X59074158Y-118349276D01*
X59065821Y-118350938D01*
X56895867Y-118350938D01*
X56885274Y-118337723D01*
X56837737Y-118227754D01*
X56821476Y-118106331D01*
X56822619Y-118091950D01*
X56829865Y-118041510D01*
X56843649Y-117959185D01*
X56863806Y-117845834D01*
X56890172Y-117702316D01*
X56922585Y-117529490D01*
X56958065Y-117343008D01*
X57963887Y-117343008D01*
X57964017Y-117343023D01*
X57983736Y-117343233D01*
X58036203Y-117343496D01*
X58120321Y-117343809D01*
X58234993Y-117344172D01*
X58379124Y-117344580D01*
X58551617Y-117345033D01*
X58751375Y-117345528D01*
X58977301Y-117346062D01*
X59228300Y-117346633D01*
X59503276Y-117347240D01*
X59801130Y-117347879D01*
X60120768Y-117348548D01*
X60461092Y-117349246D01*
X60821006Y-117349969D01*
X61199414Y-117350717D01*
X61595219Y-117351485D01*
X62007324Y-117352273D01*
X62434634Y-117353077D01*
X62876052Y-117353896D01*
X63330481Y-117354727D01*
X63796825Y-117355568D01*
X64273987Y-117356417D01*
X64760871Y-117357271D01*
X65256380Y-117358128D01*
X65353684Y-117358295D01*
X65940809Y-117359301D01*
X66495096Y-117360242D01*
X67017493Y-117361117D01*
X67508944Y-117361921D01*
X67970396Y-117362654D01*
X68402795Y-117363312D01*
X68807085Y-117363893D01*
X69184214Y-117364395D01*
X69535128Y-117364814D01*
X69860771Y-117365148D01*
X70162089Y-117365396D01*
X70440030Y-117365553D01*
X70695538Y-117365618D01*
X70929559Y-117365589D01*
X71143039Y-117365461D01*
X71336925Y-117365234D01*
X71512161Y-117364905D01*
X71669694Y-117364471D01*
X71810469Y-117363929D01*
X71935433Y-117363277D01*
X72045532Y-117362512D01*
X72141710Y-117361632D01*
X72224914Y-117360635D01*
X72296090Y-117359518D01*
X72356184Y-117358277D01*
X72406142Y-117356912D01*
X72446908Y-117355418D01*
X72479431Y-117353795D01*
X72504654Y-117352038D01*
X72523524Y-117350146D01*
X72536986Y-117348116D01*
X72545988Y-117345946D01*
X72551474Y-117343632D01*
X72554390Y-117341173D01*
X72555683Y-117338566D01*
X72555688Y-117338550D01*
X72559659Y-117318357D01*
X72569234Y-117266132D01*
X72584191Y-117183132D01*
X72604308Y-117070617D01*
X72629366Y-116929845D01*
X72659144Y-116762076D01*
X72693420Y-116568567D01*
X72731974Y-116350578D01*
X72774585Y-116109367D01*
X72797618Y-115978865D01*
X81794952Y-115978865D01*
X81802158Y-116096107D01*
X81834935Y-116208779D01*
X81892075Y-116311309D01*
X81972370Y-116398125D01*
X82074614Y-116463655D01*
X82103793Y-116475863D01*
X82205067Y-116501675D01*
X82311679Y-116508658D01*
X82407958Y-116495323D01*
X82433884Y-116486431D01*
X82494032Y-116460466D01*
X82566428Y-116424847D01*
X82640616Y-116384553D01*
X82692610Y-116355360D01*
X82869646Y-116262679D01*
X83057982Y-116172864D01*
X83244856Y-116091815D01*
X83417502Y-116025432D01*
X83576157Y-115970042D01*
X83792526Y-115897879D01*
X83986955Y-115838161D01*
X84164783Y-115789847D01*
X84331348Y-115751896D01*
X84491989Y-115723265D01*
X84652046Y-115702912D01*
X84816857Y-115689797D01*
X84991761Y-115682876D01*
X85182098Y-115681109D01*
X85183766Y-115681113D01*
X85347068Y-115683064D01*
X85496978Y-115688591D01*
X85641209Y-115698488D01*
X85787476Y-115713548D01*
X85943495Y-115734564D01*
X86116979Y-115762329D01*
X86315644Y-115797636D01*
X86336892Y-115801521D01*
X86437528Y-115819246D01*
X86525517Y-115833657D01*
X86595690Y-115843983D01*
X86642877Y-115849451D01*
X86661908Y-115849293D01*
X86661976Y-115849213D01*
X86667316Y-115830224D01*
X86677737Y-115783239D01*
X86692234Y-115713490D01*
X86709797Y-115626210D01*
X86729422Y-115526630D01*
X86750099Y-115419983D01*
X86770823Y-115311500D01*
X86790586Y-115206413D01*
X86808381Y-115109955D01*
X86823201Y-115027358D01*
X86834038Y-114963853D01*
X86839887Y-114924672D01*
X86840467Y-114919417D01*
X86840028Y-114905606D01*
X86832781Y-114894374D01*
X86814301Y-114884266D01*
X86780158Y-114873827D01*
X86725925Y-114861604D01*
X86647175Y-114846141D01*
X86539480Y-114825984D01*
X86433126Y-114806544D01*
X86226620Y-114771319D01*
X86040297Y-114743714D01*
X85865632Y-114722776D01*
X85694099Y-114707551D01*
X85517170Y-114697088D01*
X85326320Y-114690433D01*
X85063847Y-114687768D01*
X84778307Y-114696149D01*
X84508973Y-114718138D01*
X84247319Y-114754972D01*
X83984821Y-114807891D01*
X83712954Y-114878132D01*
X83423194Y-114966935D01*
X83242183Y-115027683D01*
X83029678Y-115104420D01*
X82834802Y-115181917D01*
X82648602Y-115263777D01*
X82462124Y-115353604D01*
X82439021Y-115365219D01*
X82276358Y-115449611D01*
X82140607Y-115524995D01*
X82032980Y-115590636D01*
X81954690Y-115645800D01*
X81906949Y-115689753D01*
X81862077Y-115752960D01*
X81814522Y-115862625D01*
X81794952Y-115978865D01*
X72797618Y-115978865D01*
X72821033Y-115846193D01*
X72871095Y-115562315D01*
X72924553Y-115258992D01*
X72981184Y-114937482D01*
X73040768Y-114599044D01*
X73103085Y-114244936D01*
X73167913Y-113876418D01*
X73235031Y-113494749D01*
X73304220Y-113101186D01*
X73375257Y-112696989D01*
X73447922Y-112283416D01*
X73521995Y-111861726D01*
X73597254Y-111433178D01*
X73673479Y-110999031D01*
X73750449Y-110560543D01*
X73827943Y-110118974D01*
X73905741Y-109675581D01*
X73983621Y-109231623D01*
X74061362Y-108788360D01*
X74138745Y-108347050D01*
X74215547Y-107908951D01*
X74291549Y-107475323D01*
X74366529Y-107047424D01*
X74440267Y-106626514D01*
X74512541Y-106213849D01*
X74583132Y-105810691D01*
X74651818Y-105418296D01*
X74718378Y-105037924D01*
X74782592Y-104670834D01*
X74844239Y-104318284D01*
X74903097Y-103981533D01*
X74958947Y-103661840D01*
X75011567Y-103360464D01*
X75060737Y-103078662D01*
X75106235Y-102817695D01*
X75147842Y-102578821D01*
X75185335Y-102363298D01*
X75218495Y-102172385D01*
X75247100Y-102007341D01*
X75270930Y-101869425D01*
X75289764Y-101759895D01*
X75303381Y-101680011D01*
X75311560Y-101631030D01*
X75314080Y-101614212D01*
X75313682Y-101614149D01*
X75291816Y-101613803D01*
X75237561Y-101613649D01*
X75152270Y-101613679D01*
X75037297Y-101613887D01*
X74893995Y-101614265D01*
X74723718Y-101614806D01*
X74527819Y-101615503D01*
X74307653Y-101616348D01*
X74064571Y-101617334D01*
X73799929Y-101618455D01*
X73515079Y-101619702D01*
X73211375Y-101621069D01*
X72890171Y-101622548D01*
X72552820Y-101624132D01*
X72200675Y-101625814D01*
X71835091Y-101627586D01*
X71457421Y-101629443D01*
X71069017Y-101631375D01*
X70671235Y-101633376D01*
X70265427Y-101635439D01*
X69852947Y-101637557D01*
X69435149Y-101639722D01*
X69013385Y-101641927D01*
X68589010Y-101644165D01*
X68163377Y-101646428D01*
X67737840Y-101648710D01*
X67313752Y-101651003D01*
X66892467Y-101653301D01*
X66475337Y-101655594D01*
X66063718Y-101657878D01*
X65658962Y-101660144D01*
X65262423Y-101662384D01*
X64875454Y-101664593D01*
X64499409Y-101666762D01*
X64135642Y-101668885D01*
X63785506Y-101670954D01*
X63450354Y-101672962D01*
X63131541Y-101674901D01*
X62830419Y-101676765D01*
X62548342Y-101678547D01*
X62286664Y-101680238D01*
X62046739Y-101681832D01*
X61829919Y-101683322D01*
X61637558Y-101684700D01*
X61471011Y-101685959D01*
X61331630Y-101687093D01*
X61220769Y-101688093D01*
X61139781Y-101688952D01*
X61090020Y-101689664D01*
X61072840Y-101690221D01*
X61072776Y-101690408D01*
X61068537Y-101710330D01*
X61057972Y-101762154D01*
X61041330Y-101844629D01*
X61018860Y-101956500D01*
X60990812Y-102096513D01*
X60957434Y-102263416D01*
X60918974Y-102455954D01*
X60875684Y-102672874D01*
X60827810Y-102912923D01*
X60775602Y-103174847D01*
X60719309Y-103457392D01*
X60659181Y-103759304D01*
X60595465Y-104079331D01*
X60528412Y-104416218D01*
X60458269Y-104768713D01*
X60385287Y-105135560D01*
X60309713Y-105515508D01*
X60231798Y-105907302D01*
X60151789Y-106309689D01*
X60069937Y-106721415D01*
X59986489Y-107141226D01*
X59901695Y-107567870D01*
X59815804Y-108000091D01*
X59729065Y-108436638D01*
X59641727Y-108876256D01*
X59554039Y-109317692D01*
X59466250Y-109759692D01*
X59378608Y-110201002D01*
X59291363Y-110640370D01*
X59204764Y-111076541D01*
X59119060Y-111508262D01*
X59034499Y-111934279D01*
X58951332Y-112353339D01*
X58869806Y-112764188D01*
X58790170Y-113165572D01*
X58712675Y-113556239D01*
X58637568Y-113934934D01*
X58565098Y-114300404D01*
X58495516Y-114651395D01*
X58429068Y-114986654D01*
X58366006Y-115304927D01*
X58306577Y-115604961D01*
X58251031Y-115885501D01*
X58199616Y-116145296D01*
X58152582Y-116383090D01*
X58110177Y-116597630D01*
X58072651Y-116787663D01*
X58040253Y-116951935D01*
X58013231Y-117089193D01*
X57991834Y-117198183D01*
X57976312Y-117277651D01*
X57966913Y-117326344D01*
X57963887Y-117343008D01*
X56958065Y-117343008D01*
X56960879Y-117328215D01*
X57004891Y-117099350D01*
X57054458Y-116843755D01*
X57109415Y-116562288D01*
X57169598Y-116255809D01*
X57234844Y-115925176D01*
X57304988Y-115571249D01*
X57307962Y-115556273D01*
X57363814Y-115274671D01*
X57417711Y-115002310D01*
X57469293Y-114741038D01*
X57518200Y-114492705D01*
X57564071Y-114259159D01*
X57606547Y-114042251D01*
X57645267Y-113843828D01*
X57679871Y-113665741D01*
X57709999Y-113509838D01*
X57735291Y-113377969D01*
X57755387Y-113271982D01*
X57769926Y-113193727D01*
X57778548Y-113145053D01*
X57780894Y-113127809D01*
X57779402Y-113127363D01*
X57754658Y-113130727D01*
X57704993Y-113141738D01*
X57636675Y-113158919D01*
X57555966Y-113180795D01*
X57128761Y-113286881D01*
X56663846Y-113375017D01*
X56176554Y-113441084D01*
X56148001Y-113444058D01*
X56006389Y-113455116D01*
X55840074Y-113463319D01*
X55656369Y-113468671D01*
X55462590Y-113471170D01*
X55266051Y-113470819D01*
X55074068Y-113467617D01*
X54893954Y-113461566D01*
X54733026Y-113452666D01*
X54598598Y-113440918D01*
X54328949Y-113406255D01*
X54011201Y-113353955D01*
X53697007Y-113290465D01*
X53393890Y-113217468D01*
X53109370Y-113136648D01*
X52850969Y-113049689D01*
X52740682Y-113009056D01*
X52736199Y-112470790D01*
X52735546Y-112384016D01*
X52734947Y-112246837D01*
X52735232Y-112139144D01*
X52736495Y-112058050D01*
X52738827Y-112000664D01*
X52742321Y-111964097D01*
X52747070Y-111945461D01*
X52753167Y-111941866D01*
X53023507Y-112052042D01*
X53453360Y-112198475D01*
X53897223Y-112316344D01*
X54351024Y-112404619D01*
X54810689Y-112462270D01*
X54876775Y-112467150D01*
X54995454Y-112472661D01*
X55134883Y-112476384D01*
X55287306Y-112478323D01*
X55444971Y-112478485D01*
X55600122Y-112476874D01*
X55745004Y-112473496D01*
X55871864Y-112468357D01*
X55972947Y-112461461D01*
X56099232Y-112448883D01*
X56551120Y-112386036D01*
X56997948Y-112296537D01*
X57429683Y-112182308D01*
X57444092Y-112177978D01*
X57555837Y-112143338D01*
X57665811Y-112107549D01*
X57768893Y-112072438D01*
X57859966Y-112039831D01*
X57933910Y-112011554D01*
X57985606Y-111989435D01*
X58009935Y-111975298D01*
X58009948Y-111975283D01*
X58014276Y-111957380D01*
X58024945Y-111907440D01*
X58041707Y-111826699D01*
X58064315Y-111716393D01*
X58092520Y-111577758D01*
X58126077Y-111412029D01*
X58164736Y-111220442D01*
X58208251Y-111004234D01*
X58256374Y-110764640D01*
X58308858Y-110502896D01*
X58365455Y-110220238D01*
X58425918Y-109917902D01*
X58489999Y-109597125D01*
X58557451Y-109259141D01*
X58628026Y-108905186D01*
X58701477Y-108536498D01*
X58777557Y-108154311D01*
X58856017Y-107759861D01*
X58936611Y-107354385D01*
X59019091Y-106939118D01*
X59103210Y-106515297D01*
X59143900Y-106310266D01*
X59232516Y-105864146D01*
X59318786Y-105430388D01*
X59402487Y-105010092D01*
X59483397Y-104604362D01*
X59561293Y-104214299D01*
X59635955Y-103841003D01*
X59707158Y-103485578D01*
X59774682Y-103149124D01*
X59838304Y-102832743D01*
X59897802Y-102537537D01*
X59952953Y-102264608D01*
X60003536Y-102015056D01*
X60049328Y-101789984D01*
X60090108Y-101590494D01*
X60125652Y-101417686D01*
X60155739Y-101272663D01*
X60180147Y-101156527D01*
X60198653Y-101070378D01*
X60211035Y-101015319D01*
X60217071Y-100992451D01*
X60234211Y-100958217D01*
X60299068Y-100869013D01*
X60383219Y-100791557D01*
X60476079Y-100736314D01*
X60562593Y-100698779D01*
X68079092Y-100658450D01*
X68350511Y-100656997D01*
X68964111Y-100653739D01*
X69544885Y-100650696D01*
X70093611Y-100647866D01*
X70611068Y-100645247D01*
X71098031Y-100642837D01*
X71555280Y-100640634D01*
X71983592Y-100638636D01*
X72383743Y-100636841D01*
X72756512Y-100635247D01*
X73102677Y-100633851D01*
X73423014Y-100632653D01*
X73718302Y-100631649D01*
X73989317Y-100630837D01*
X74236838Y-100630217D01*
X74461642Y-100629785D01*
X74664507Y-100629539D01*
X74846209Y-100629478D01*
X75007527Y-100629600D01*
X75149239Y-100629902D01*
X75272121Y-100630383D01*
X75376952Y-100631040D01*
X75464509Y-100631871D01*
X75535569Y-100632874D01*
X75590910Y-100634048D01*
X75631309Y-100635391D01*
X75657545Y-100636899D01*
X75670394Y-100638572D01*
X75705557Y-100650864D01*
X75770168Y-100681274D01*
X75831583Y-100717766D01*
X75871055Y-100742139D01*
X75933436Y-100773497D01*
X75985839Y-100792198D01*
X75997666Y-100796774D01*
X76039618Y-100814361D01*
X76110373Y-100844570D01*
X76208635Y-100886837D01*
X76333109Y-100940595D01*
X76482502Y-101005278D01*
X76655518Y-101080321D01*
X76850862Y-101165157D01*
X77067240Y-101259220D01*
X77303358Y-101361945D01*
X77557920Y-101472765D01*
X77829632Y-101591115D01*
X77882634Y-101614212D01*
X78117199Y-101716429D01*
G37*
%TD*%
%LPC*%
D14*
%TO.C,J204*%
X96340000Y-133500000D03*
D15*
X93800000Y-133500000D03*
X91260000Y-133500000D03*
%TD*%
D14*
%TO.C,J201*%
X95200000Y-123810000D03*
D15*
X95200000Y-126350000D03*
X95200000Y-128890000D03*
%TD*%
D14*
%TO.C,J402*%
X97182400Y-94274800D03*
D15*
X94642400Y-94274800D03*
X92102400Y-94274800D03*
%TD*%
D14*
%TO.C,J203*%
X119100000Y-118190000D03*
D15*
X116560000Y-118190000D03*
X114020000Y-118190000D03*
X111480000Y-118190000D03*
X108940000Y-118190000D03*
X106400000Y-118190000D03*
X103860000Y-118190000D03*
X101320000Y-118190000D03*
X98780000Y-118190000D03*
%TD*%
D14*
%TO.C,J401*%
X82374200Y-133467000D03*
D15*
X84914200Y-133467000D03*
X87454200Y-133467000D03*
%TD*%
D16*
%TO.C,J702*%
X57290000Y-94690000D03*
D17*
X57290000Y-97190000D03*
X57290000Y-99190000D03*
X57290000Y-101690000D03*
D18*
X54580000Y-91620000D03*
X54580000Y-104760000D03*
%TD*%
D19*
%TO.C,SW701*%
X47862500Y-133200000D03*
D17*
X50402500Y-133200000D03*
X52942500Y-133200000D03*
X55482500Y-133200000D03*
X58022500Y-133200000D03*
X60562500Y-133200000D03*
X60562500Y-125580000D03*
X58022500Y-125580000D03*
X55482500Y-125580000D03*
X52942500Y-125580000D03*
X50402500Y-125580000D03*
X47862500Y-125580000D03*
%TD*%
D14*
%TO.C,J202*%
X82390000Y-129490000D03*
D15*
X84930000Y-129490000D03*
X87470000Y-129490000D03*
X90010000Y-129490000D03*
%TD*%
D20*
%TO.C,J703*%
X68210000Y-132620000D03*
X73990000Y-132620000D03*
D21*
X66780000Y-132120000D03*
D22*
X66780000Y-136300000D03*
X75420000Y-136300000D03*
D21*
X75420000Y-132120000D03*
%TD*%
D23*
%TO.C,J701*%
X46700000Y-112450000D03*
X46700000Y-116950000D03*
D24*
X48800000Y-118200000D03*
X48800000Y-115700000D03*
X48800000Y-113700000D03*
X48800000Y-111200000D03*
D25*
X46700000Y-109000000D03*
X46700000Y-120400000D03*
%TD*%
%LPD*%
M02*
