%TF.GenerationSoftware,KiCad,Pcbnew,9.0.7*%
%TF.CreationDate,2026-04-20T16:26:58-04:00*%
%TF.ProjectId,main,6d61696e-2e6b-4696-9361-645f70636258,rev?*%
%TF.SameCoordinates,Original*%
%TF.FileFunction,Soldermask,Bot*%
%TF.FilePolarity,Negative*%
%FSLAX46Y46*%
G04 Gerber Fmt 4.6, Leading zero omitted, Abs format (unit mm)*
G04 Created by KiCad (PCBNEW 9.0.7) date 2026-04-20 16:26:58*
%MOMM*%
%LPD*%
G01*
G04 APERTURE LIST*
G04 Aperture macros list*
%AMRoundRect*
0 Rectangle with rounded corners*
0 $1 Rounding radius*
0 $2 $3 $4 $5 $6 $7 $8 $9 X,Y pos of 4 corners*
0 Add a 4 corners polygon primitive as box body*
4,1,4,$2,$3,$4,$5,$6,$7,$8,$9,$2,$3,0*
0 Add four circle primitives for the rounded corners*
1,1,$1+$1,$2,$3*
1,1,$1+$1,$4,$5*
1,1,$1+$1,$6,$7*
1,1,$1+$1,$8,$9*
0 Add four rect primitives between the rounded corners*
20,1,$1+$1,$2,$3,$4,$5,0*
20,1,$1+$1,$4,$5,$6,$7,0*
20,1,$1+$1,$6,$7,$8,$9,0*
20,1,$1+$1,$8,$9,$2,$3,0*%
G04 Aperture macros list end*
%ADD10R,1.700000X1.700000*%
%ADD11C,1.700000*%
%ADD12R,1.600000X1.600000*%
%ADD13C,1.600000*%
%ADD14C,3.000000*%
%ADD15RoundRect,0.250000X0.550000X-0.550000X0.550000X0.550000X-0.550000X0.550000X-0.550000X-0.550000X0*%
%ADD16C,0.650000*%
%ADD17O,1.050000X2.100000*%
%ADD18O,1.000000X2.000000*%
%ADD19C,1.100000*%
%ADD20C,1.400000*%
%ADD21O,3.500000X1.800000*%
G04 APERTURE END LIST*
D10*
%TO.C,J204*%
X96340000Y-133500000D03*
D11*
X93800000Y-133500000D03*
X91260000Y-133500000D03*
%TD*%
D10*
%TO.C,J201*%
X95200000Y-123810000D03*
D11*
X95200000Y-126350000D03*
X95200000Y-128890000D03*
%TD*%
D10*
%TO.C,J402*%
X97182400Y-94274800D03*
D11*
X94642400Y-94274800D03*
X92102400Y-94274800D03*
%TD*%
D10*
%TO.C,J203*%
X119100000Y-118190000D03*
D11*
X116560000Y-118190000D03*
X114020000Y-118190000D03*
X111480000Y-118190000D03*
X108940000Y-118190000D03*
X106400000Y-118190000D03*
X103860000Y-118190000D03*
X101320000Y-118190000D03*
X98780000Y-118190000D03*
%TD*%
D10*
%TO.C,J401*%
X82374200Y-133467000D03*
D11*
X84914200Y-133467000D03*
X87454200Y-133467000D03*
%TD*%
D12*
%TO.C,J702*%
X57290000Y-94690000D03*
D13*
X57290000Y-97190000D03*
X57290000Y-99190000D03*
X57290000Y-101690000D03*
D14*
X54580000Y-91620000D03*
X54580000Y-104760000D03*
%TD*%
D15*
%TO.C,SW701*%
X47862500Y-133200000D03*
D13*
X50402500Y-133200000D03*
X52942500Y-133200000D03*
X55482500Y-133200000D03*
X58022500Y-133200000D03*
X60562500Y-133200000D03*
X60562500Y-125580000D03*
X58022500Y-125580000D03*
X55482500Y-125580000D03*
X52942500Y-125580000D03*
X50402500Y-125580000D03*
X47862500Y-125580000D03*
%TD*%
D10*
%TO.C,J202*%
X82390000Y-129490000D03*
D11*
X84930000Y-129490000D03*
X87470000Y-129490000D03*
X90010000Y-129490000D03*
%TD*%
D16*
%TO.C,J703*%
X68210000Y-132620000D03*
X73990000Y-132620000D03*
D17*
X66780000Y-132120000D03*
D18*
X66780000Y-136300000D03*
X75420000Y-136300000D03*
D17*
X75420000Y-132120000D03*
%TD*%
D19*
%TO.C,J701*%
X46700000Y-112450000D03*
X46700000Y-116950000D03*
D20*
X48800000Y-118200000D03*
X48800000Y-115700000D03*
X48800000Y-113700000D03*
X48800000Y-111200000D03*
D21*
X46700000Y-109000000D03*
X46700000Y-120400000D03*
%TD*%
M02*
