%TF.GenerationSoftware,KiCad,Pcbnew,9.0.7*%
%TF.CreationDate,2026-04-20T16:26:58-04:00*%
%TF.ProjectId,main,6d61696e-2e6b-4696-9361-645f70636258,rev?*%
%TF.SameCoordinates,Original*%
%TF.FileFunction,Soldermask,Top*%
%TF.FilePolarity,Negative*%
%FSLAX46Y46*%
G04 Gerber Fmt 4.6, Leading zero omitted, Abs format (unit mm)*
G04 Created by KiCad (PCBNEW 9.0.7) date 2026-04-20 16:26:58*
%MOMM*%
%LPD*%
G01*
G04 APERTURE LIST*
G04 Aperture macros list*
%AMRoundRect*
0 Rectangle with rounded corners*
0 $1 Rounding radius*
0 $2 $3 $4 $5 $6 $7 $8 $9 X,Y pos of 4 corners*
0 Add a 4 corners polygon primitive as box body*
4,1,4,$2,$3,$4,$5,$6,$7,$8,$9,$2,$3,0*
0 Add four circle primitives for the rounded corners*
1,1,$1+$1,$2,$3*
1,1,$1+$1,$4,$5*
1,1,$1+$1,$6,$7*
1,1,$1+$1,$8,$9*
0 Add four rect primitives between the rounded corners*
20,1,$1+$1,$2,$3,$4,$5,0*
20,1,$1+$1,$4,$5,$6,$7,0*
20,1,$1+$1,$6,$7,$8,$9,0*
20,1,$1+$1,$8,$9,$2,$3,0*%
%AMFreePoly0*
4,1,23,0.500000,-0.750000,0.000000,-0.750000,0.000000,-0.745722,-0.065263,-0.745722,-0.191342,-0.711940,-0.304381,-0.646677,-0.396677,-0.554381,-0.461940,-0.441342,-0.495722,-0.315263,-0.495722,-0.250000,-0.500000,-0.250000,-0.500000,0.250000,-0.495722,0.250000,-0.495722,0.315263,-0.461940,0.441342,-0.396677,0.554381,-0.304381,0.646677,-0.191342,0.711940,-0.065263,0.745722,0.000000,0.745722,
0.000000,0.750000,0.500000,0.750000,0.500000,-0.750000,0.500000,-0.750000,$1*%
%AMFreePoly1*
4,1,23,0.000000,0.745722,0.065263,0.745722,0.191342,0.711940,0.304381,0.646677,0.396677,0.554381,0.461940,0.441342,0.495722,0.315263,0.495722,0.250000,0.500000,0.250000,0.500000,-0.250000,0.495722,-0.250000,0.495722,-0.315263,0.461940,-0.441342,0.396677,-0.554381,0.304381,-0.646677,0.191342,-0.711940,0.065263,-0.745722,0.000000,-0.745722,0.000000,-0.750000,-0.500000,-0.750000,
-0.500000,0.750000,0.000000,0.750000,0.000000,0.745722,0.000000,0.745722,$1*%
G04 Aperture macros list end*
%ADD10C,0.010000*%
%ADD11RoundRect,0.135000X-0.135000X-0.185000X0.135000X-0.185000X0.135000X0.185000X-0.135000X0.185000X0*%
%ADD12RoundRect,0.140000X0.170000X-0.140000X0.170000X0.140000X-0.170000X0.140000X-0.170000X-0.140000X0*%
%ADD13RoundRect,0.135000X0.185000X-0.135000X0.185000X0.135000X-0.185000X0.135000X-0.185000X-0.135000X0*%
%ADD14RoundRect,0.225000X-0.250000X0.225000X-0.250000X-0.225000X0.250000X-0.225000X0.250000X0.225000X0*%
%ADD15C,0.200000*%
%ADD16R,3.000000X2.800000*%
%ADD17RoundRect,0.243750X-0.456250X0.243750X-0.456250X-0.243750X0.456250X-0.243750X0.456250X0.243750X0*%
%ADD18RoundRect,0.135000X0.135000X0.185000X-0.135000X0.185000X-0.135000X-0.185000X0.135000X-0.185000X0*%
%ADD19RoundRect,0.375000X0.375000X-0.625000X0.375000X0.625000X-0.375000X0.625000X-0.375000X-0.625000X0*%
%ADD20RoundRect,0.500000X1.400000X-0.500000X1.400000X0.500000X-1.400000X0.500000X-1.400000X-0.500000X0*%
%ADD21RoundRect,0.225000X-0.225000X-0.250000X0.225000X-0.250000X0.225000X0.250000X-0.225000X0.250000X0*%
%ADD22RoundRect,0.140000X0.140000X0.170000X-0.140000X0.170000X-0.140000X-0.170000X0.140000X-0.170000X0*%
%ADD23RoundRect,0.140000X-0.140000X-0.170000X0.140000X-0.170000X0.140000X0.170000X-0.140000X0.170000X0*%
%ADD24RoundRect,0.243750X0.243750X0.456250X-0.243750X0.456250X-0.243750X-0.456250X0.243750X-0.456250X0*%
%ADD25RoundRect,0.102000X-0.625000X0.500000X-0.625000X-0.500000X0.625000X-0.500000X0.625000X0.500000X0*%
%ADD26RoundRect,0.102000X-0.500000X0.500000X-0.500000X-0.500000X0.500000X-0.500000X0.500000X0.500000X0*%
%ADD27RoundRect,0.102000X-0.625000X0.250000X-0.625000X-0.250000X0.625000X-0.250000X0.625000X0.250000X0*%
%ADD28R,1.700000X1.700000*%
%ADD29C,1.700000*%
%ADD30RoundRect,0.225000X0.250000X-0.225000X0.250000X0.225000X-0.250000X0.225000X-0.250000X-0.225000X0*%
%ADD31RoundRect,0.250000X-0.475000X0.250000X-0.475000X-0.250000X0.475000X-0.250000X0.475000X0.250000X0*%
%ADD32RoundRect,0.135000X-0.185000X0.135000X-0.185000X-0.135000X0.185000X-0.135000X0.185000X0.135000X0*%
%ADD33RoundRect,0.218750X-0.256250X0.218750X-0.256250X-0.218750X0.256250X-0.218750X0.256250X0.218750X0*%
%ADD34C,1.000000*%
%ADD35RoundRect,0.250000X-0.250000X-0.475000X0.250000X-0.475000X0.250000X0.475000X-0.250000X0.475000X0*%
%ADD36FreePoly0,270.000000*%
%ADD37FreePoly1,270.000000*%
%ADD38RoundRect,0.225000X0.225000X0.250000X-0.225000X0.250000X-0.225000X-0.250000X0.225000X-0.250000X0*%
%ADD39R,0.875000X0.775000*%
%ADD40R,0.900000X1.700000*%
%ADD41RoundRect,0.075000X-0.650000X-0.075000X0.650000X-0.075000X0.650000X0.075000X-0.650000X0.075000X0*%
%ADD42R,0.900000X0.970000*%
%ADD43R,0.600000X1.200000*%
%ADD44RoundRect,0.150000X-0.650000X-0.150000X0.650000X-0.150000X0.650000X0.150000X-0.650000X0.150000X0*%
%ADD45R,0.180000X0.875000*%
%ADD46R,0.875000X0.180000*%
%ADD47R,3.400000X3.400000*%
%ADD48RoundRect,0.140000X-0.170000X0.140000X-0.170000X-0.140000X0.170000X-0.140000X0.170000X0.140000X0*%
%ADD49R,1.600000X1.600000*%
%ADD50C,1.600000*%
%ADD51C,3.000000*%
%ADD52RoundRect,0.250000X0.550000X-0.550000X0.550000X0.550000X-0.550000X0.550000X-0.550000X-0.550000X0*%
%ADD53RoundRect,0.250000X0.850000X-0.375000X0.850000X0.375000X-0.850000X0.375000X-0.850000X-0.375000X0*%
%ADD54RoundRect,0.243750X-0.243750X-0.456250X0.243750X-0.456250X0.243750X0.456250X-0.243750X0.456250X0*%
%ADD55RoundRect,0.212500X0.212500X-0.287500X0.212500X0.287500X-0.212500X0.287500X-0.212500X-0.287500X0*%
%ADD56FreePoly0,90.000000*%
%ADD57FreePoly1,90.000000*%
%ADD58RoundRect,0.218750X0.256250X-0.218750X0.256250X0.218750X-0.256250X0.218750X-0.256250X-0.218750X0*%
%ADD59RoundRect,0.050000X0.350000X0.050000X-0.350000X0.050000X-0.350000X-0.050000X0.350000X-0.050000X0*%
%ADD60RoundRect,0.050000X0.050000X0.350000X-0.050000X0.350000X-0.050000X-0.350000X0.050000X-0.350000X0*%
%ADD61R,4.600000X4.600000*%
%ADD62R,0.203200X0.762000*%
%ADD63R,0.762000X0.203200*%
%ADD64RoundRect,0.250000X0.250000X0.475000X-0.250000X0.475000X-0.250000X-0.475000X0.250000X-0.475000X0*%
%ADD65R,0.775000X0.875000*%
%ADD66FreePoly0,0.000000*%
%ADD67FreePoly1,0.000000*%
%ADD68RoundRect,0.125000X0.125000X-0.250000X0.125000X0.250000X-0.125000X0.250000X-0.125000X-0.250000X0*%
%ADD69R,4.300000X3.400000*%
%ADD70C,0.650000*%
%ADD71R,0.580000X1.150000*%
%ADD72R,0.280000X1.150000*%
%ADD73O,1.050000X2.100000*%
%ADD74O,1.000000X2.000000*%
%ADD75C,1.100000*%
%ADD76C,1.400000*%
%ADD77O,3.500000X1.800000*%
%ADD78R,1.000000X0.500000*%
%ADD79R,1.600000X1.000000*%
G04 APERTURE END LIST*
%TO.C,JP104*%
G36*
X90566400Y-119235000D02*
G01*
X89066400Y-119235000D01*
X89066400Y-119535000D01*
X90566400Y-119535000D01*
X90566400Y-119235000D01*
G37*
%TO.C,JP106*%
G36*
X85334000Y-119235000D02*
G01*
X83834000Y-119235000D01*
X83834000Y-119535000D01*
X85334000Y-119535000D01*
X85334000Y-119235000D01*
G37*
%TO.C,JP103*%
G36*
X87950200Y-119235000D02*
G01*
X86450200Y-119235000D01*
X86450200Y-119535000D01*
X87950200Y-119535000D01*
X87950200Y-119235000D01*
G37*
%TO.C,JP105*%
G36*
X93182600Y-119235000D02*
G01*
X91682600Y-119235000D01*
X91682600Y-119535000D01*
X93182600Y-119535000D01*
X93182600Y-119235000D01*
G37*
%TO.C,JP101*%
G36*
X101919404Y-105600596D02*
G01*
X103419404Y-105600596D01*
X103419404Y-105300596D01*
X101919404Y-105300596D01*
X101919404Y-105600596D01*
G37*
D10*
%TO.C,U302*%
X116250000Y-104145000D02*
X115750000Y-104145000D01*
X115750000Y-103895000D01*
X116250000Y-103895000D01*
X116250000Y-104145000D01*
G36*
X116250000Y-104145000D02*
G01*
X115750000Y-104145000D01*
X115750000Y-103895000D01*
X116250000Y-103895000D01*
X116250000Y-104145000D01*
G37*
X116250000Y-104645000D02*
X115750000Y-104645000D01*
X115750000Y-104395000D01*
X116250000Y-104395000D01*
X116250000Y-104645000D01*
G36*
X116250000Y-104645000D02*
G01*
X115750000Y-104645000D01*
X115750000Y-104395000D01*
X116250000Y-104395000D01*
X116250000Y-104645000D01*
G37*
X116250000Y-105145000D02*
X115750000Y-105145000D01*
X115750000Y-104895000D01*
X116250000Y-104895000D01*
X116250000Y-105145000D01*
G36*
X116250000Y-105145000D02*
G01*
X115750000Y-105145000D01*
X115750000Y-104895000D01*
X116250000Y-104895000D01*
X116250000Y-105145000D01*
G37*
X117150000Y-104145000D02*
X116650000Y-104145000D01*
X116650000Y-103895000D01*
X117150000Y-103895000D01*
X117150000Y-104145000D01*
G36*
X117150000Y-104145000D02*
G01*
X116650000Y-104145000D01*
X116650000Y-103895000D01*
X117150000Y-103895000D01*
X117150000Y-104145000D01*
G37*
X117150000Y-104645000D02*
X116650000Y-104645000D01*
X116650000Y-104395000D01*
X117150000Y-104395000D01*
X117150000Y-104645000D01*
G36*
X117150000Y-104645000D02*
G01*
X116650000Y-104645000D01*
X116650000Y-104395000D01*
X117150000Y-104395000D01*
X117150000Y-104645000D01*
G37*
X117150000Y-105145000D02*
X116650000Y-105145000D01*
X116650000Y-104895000D01*
X117150000Y-104895000D01*
X117150000Y-105145000D01*
G36*
X117150000Y-105145000D02*
G01*
X116650000Y-105145000D01*
X116650000Y-104895000D01*
X117150000Y-104895000D01*
X117150000Y-105145000D01*
G37*
%TO.C,JP107*%
G36*
X117400000Y-112720000D02*
G01*
X117700000Y-112720000D01*
X117700000Y-114220000D01*
X117400000Y-114220000D01*
X117400000Y-112720000D01*
G37*
%TO.C,JP102*%
G36*
X113700000Y-113320000D02*
G01*
X114000000Y-113320000D01*
X114000000Y-114820000D01*
X113700000Y-114820000D01*
X113700000Y-113320000D01*
G37*
%TD*%
D11*
%TO.C,R405*%
X68790000Y-108000000D03*
X69810000Y-108000000D03*
%TD*%
D12*
%TO.C,R702*%
X53700000Y-120160000D03*
X53700000Y-119200000D03*
%TD*%
D13*
%TO.C,C407*%
X82600000Y-114310000D03*
X82600000Y-113290000D03*
%TD*%
D14*
%TO.C,C201*%
X114250000Y-134865000D03*
X114250000Y-136415000D03*
%TD*%
D15*
%TO.C,U201*%
X110600000Y-131090000D03*
X109000000Y-131090000D03*
X108600000Y-131090000D03*
X108200000Y-131090000D03*
X107800000Y-131090000D03*
X107400000Y-131090000D03*
X107000000Y-131090000D03*
X106600000Y-131090000D03*
X106200000Y-131090000D03*
X111600000Y-126890000D03*
X105200000Y-126890000D03*
X111200000Y-126690000D03*
X111600000Y-126490000D03*
X105200000Y-126490000D03*
X111200000Y-126290000D03*
X111600000Y-126090000D03*
X105200000Y-126090000D03*
X111200000Y-125890000D03*
X111600000Y-125690000D03*
X105200000Y-125690000D03*
X111200000Y-125490000D03*
X111600000Y-125290000D03*
X105200000Y-125290000D03*
X111200000Y-125090000D03*
X110800000Y-125090000D03*
X110400000Y-125090000D03*
X110000000Y-125090000D03*
X109600000Y-125090000D03*
X109200000Y-125090000D03*
X108800000Y-125090000D03*
X108400000Y-125090000D03*
X108000000Y-125090000D03*
X107600000Y-125090000D03*
X107200000Y-125090000D03*
X106800000Y-125090000D03*
X106400000Y-125090000D03*
X106000000Y-125090000D03*
X105600000Y-125090000D03*
X111000000Y-124690000D03*
X110600000Y-124690000D03*
X110200000Y-124690000D03*
X109800000Y-124690000D03*
X109400000Y-124690000D03*
X109000000Y-124690000D03*
X108600000Y-124690000D03*
X108200000Y-124690000D03*
X107800000Y-124690000D03*
X107400000Y-124690000D03*
X107000000Y-124690000D03*
X106600000Y-124690000D03*
X106200000Y-124690000D03*
X105800000Y-124690000D03*
X111200000Y-130690000D03*
X110800000Y-130690000D03*
X110400000Y-130690000D03*
X110000000Y-130690000D03*
X109600000Y-130690000D03*
X109200000Y-130690000D03*
X108800000Y-130690000D03*
X108400000Y-130690000D03*
X108000000Y-130690000D03*
X107600000Y-130690000D03*
X107200000Y-130690000D03*
X106800000Y-130690000D03*
X106400000Y-130690000D03*
X106000000Y-130690000D03*
X105600000Y-130690000D03*
X111600000Y-130490000D03*
X105200000Y-130490000D03*
X111200000Y-130290000D03*
X111600000Y-130090000D03*
X105200000Y-130090000D03*
D16*
X108200000Y-127890000D03*
D15*
X111200000Y-129890000D03*
X111600000Y-129690000D03*
X105200000Y-129690000D03*
X111200000Y-129490000D03*
X111600000Y-129290000D03*
X105200000Y-129290000D03*
X111200000Y-129090000D03*
X111600000Y-128890000D03*
X105200000Y-128890000D03*
X111200000Y-128690000D03*
X111600000Y-128490000D03*
X105200000Y-128490000D03*
X111200000Y-128290000D03*
X111600000Y-128090000D03*
X105200000Y-128090000D03*
X111200000Y-127890000D03*
X111600000Y-127690000D03*
X105200000Y-127690000D03*
X111200000Y-127490000D03*
X111600000Y-127290000D03*
X105200000Y-127290000D03*
X111200000Y-127090000D03*
%TD*%
D17*
%TO.C,D402*%
X81300000Y-93562500D03*
X81300000Y-95437500D03*
%TD*%
D18*
%TO.C,R201*%
X114960000Y-133490000D03*
X113940000Y-133490000D03*
%TD*%
D19*
%TO.C,U401*%
X65600000Y-126850000D03*
X67900000Y-126850000D03*
D20*
X67900000Y-120550000D03*
D19*
X70200000Y-126850000D03*
%TD*%
D21*
%TO.C,C302*%
X117025000Y-97970000D03*
X118575000Y-97970000D03*
%TD*%
D22*
%TO.C,C212*%
X114330000Y-126140000D03*
X113370000Y-126140000D03*
%TD*%
D13*
%TO.C,R102*%
X88500000Y-114410000D03*
X88500000Y-113390000D03*
%TD*%
D14*
%TO.C,C308*%
X102600000Y-108295000D03*
X102600000Y-109845000D03*
%TD*%
D12*
%TO.C,C208*%
X107300000Y-133870000D03*
X107300000Y-132910000D03*
%TD*%
D23*
%TO.C,C203*%
X102470000Y-133440000D03*
X103430000Y-133440000D03*
%TD*%
%TO.C,R705*%
X73020000Y-129055000D03*
X73980000Y-129055000D03*
%TD*%
D24*
%TO.C,D401*%
X71037500Y-94590000D03*
X69162500Y-94590000D03*
%TD*%
D22*
%TO.C,C214*%
X114330000Y-125190000D03*
X113370000Y-125190000D03*
%TD*%
D25*
%TO.C,A301*%
X129425000Y-115500000D03*
D26*
X130300000Y-109500000D03*
D27*
X131175000Y-114250000D03*
X129425000Y-114250000D03*
%TD*%
D28*
%TO.C,J204*%
X96340000Y-133500000D03*
D29*
X93800000Y-133500000D03*
X91260000Y-133500000D03*
%TD*%
D11*
%TO.C,R406*%
X75290000Y-100100000D03*
X76310000Y-100100000D03*
%TD*%
%TO.C,C402*%
X68324000Y-109200000D03*
X69344000Y-109200000D03*
%TD*%
%TO.C,R401*%
X89625801Y-101916289D03*
X90645801Y-101916289D03*
%TD*%
D13*
%TO.C,R101*%
X87301800Y-114395600D03*
X87301800Y-113375600D03*
%TD*%
%TO.C,R410*%
X81300000Y-97910000D03*
X81300000Y-96890000D03*
%TD*%
D22*
%TO.C,C204*%
X105980000Y-133440000D03*
X105020000Y-133440000D03*
%TD*%
D30*
%TO.C,C314*%
X111850000Y-99645000D03*
X111850000Y-98095000D03*
%TD*%
D31*
%TO.C,C306*%
X114850000Y-109370000D03*
X114850000Y-111270000D03*
%TD*%
D32*
%TO.C,R305*%
X113300000Y-109810000D03*
X113300000Y-110830000D03*
%TD*%
D12*
%TO.C,C215*%
X103400000Y-130770000D03*
X103400000Y-129810000D03*
%TD*%
D32*
%TO.C,C417*%
X73306400Y-103948200D03*
X73306400Y-104968200D03*
%TD*%
D28*
%TO.C,J201*%
X95200000Y-123810000D03*
D29*
X95200000Y-126350000D03*
X95200000Y-128890000D03*
%TD*%
D33*
%TO.C,L301*%
X123900000Y-115412500D03*
X123900000Y-116987500D03*
%TD*%
D34*
%TO.C,TP101*%
X90400000Y-115100000D03*
%TD*%
D18*
%TO.C,C401*%
X67441000Y-128844200D03*
X66421000Y-128844200D03*
%TD*%
D35*
%TO.C,C304*%
X115500000Y-99820000D03*
X117400000Y-99820000D03*
%TD*%
D13*
%TO.C,C405*%
X80200000Y-115220000D03*
X80200000Y-114200000D03*
%TD*%
D36*
%TO.C,JP104*%
X89816400Y-118735000D03*
D37*
X89816400Y-120035000D03*
%TD*%
D30*
%TO.C,C307*%
X113700000Y-99645000D03*
X113700000Y-98095000D03*
%TD*%
D38*
%TO.C,C313*%
X105975000Y-108370000D03*
X104425000Y-108370000D03*
%TD*%
D39*
%TO.C,X301*%
X109237000Y-94713000D03*
X107963000Y-94713000D03*
X107963000Y-95687000D03*
X109237000Y-95687000D03*
%TD*%
D22*
%TO.C,C210*%
X114480000Y-130540000D03*
X113520000Y-130540000D03*
%TD*%
D36*
%TO.C,JP106*%
X84584000Y-118735000D03*
D37*
X84584000Y-120035000D03*
%TD*%
D22*
%TO.C,R706*%
X69380000Y-128855000D03*
X68420000Y-128855000D03*
%TD*%
D36*
%TO.C,JP103*%
X87200200Y-118735000D03*
D37*
X87200200Y-120035000D03*
%TD*%
D38*
%TO.C,C317*%
X106625000Y-104420000D03*
X105075000Y-104420000D03*
%TD*%
D23*
%TO.C,C213*%
X102370000Y-128690000D03*
X103330000Y-128690000D03*
%TD*%
D40*
%TO.C,S401*%
X95990000Y-101700000D03*
X92590000Y-101700000D03*
%TD*%
D13*
%TO.C,R409*%
X84300000Y-99710000D03*
X84300000Y-98690000D03*
%TD*%
D30*
%TO.C,C310*%
X108150000Y-99995000D03*
X108150000Y-98445000D03*
%TD*%
D28*
%TO.C,J402*%
X97182400Y-94274800D03*
D29*
X94642400Y-94274800D03*
X92102400Y-94274800D03*
%TD*%
D28*
%TO.C,J203*%
X119100000Y-118190000D03*
D29*
X116560000Y-118190000D03*
X114020000Y-118190000D03*
X111480000Y-118190000D03*
X108940000Y-118190000D03*
X106400000Y-118190000D03*
X103860000Y-118190000D03*
X101320000Y-118190000D03*
X98780000Y-118190000D03*
%TD*%
D41*
%TO.C,U701*%
X62123900Y-104100000D03*
X62123900Y-104600000D03*
X62123900Y-105100000D03*
X62123900Y-105600000D03*
X62123900Y-106100000D03*
X66523900Y-106100000D03*
X66523900Y-105600000D03*
X66523900Y-105100000D03*
X66523900Y-104600000D03*
X66523900Y-104100000D03*
%TD*%
D32*
%TO.C,R302*%
X110150000Y-109610000D03*
X110150000Y-110630000D03*
%TD*%
D42*
%TO.C,L202*%
X109665000Y-135140000D03*
X108095000Y-135140000D03*
%TD*%
D18*
%TO.C,R301*%
X106460000Y-105620000D03*
X105440000Y-105620000D03*
%TD*%
D32*
%TO.C,C409*%
X86000000Y-103380000D03*
X86000000Y-104400000D03*
%TD*%
D28*
%TO.C,J401*%
X82374200Y-133467000D03*
D29*
X84914200Y-133467000D03*
X87454200Y-133467000D03*
%TD*%
D43*
%TO.C,X202*%
X114650000Y-127490000D03*
X113450000Y-127490000D03*
%TD*%
D30*
%TO.C,C309*%
X110300000Y-99720000D03*
X110300000Y-98170000D03*
%TD*%
D44*
%TO.C,U301*%
X117000000Y-109470000D03*
X117000000Y-110420000D03*
X117000000Y-111370000D03*
X119300000Y-111370000D03*
X119300000Y-109470000D03*
%TD*%
D42*
%TO.C,L201*%
X105085000Y-134640000D03*
X103515000Y-134640000D03*
%TD*%
D45*
%TO.C,U403*%
X78000000Y-111400000D03*
X78400000Y-111400000D03*
X78800000Y-111400000D03*
X79200000Y-111400000D03*
X79600000Y-111400000D03*
X80000000Y-111400000D03*
X80400000Y-111400000D03*
X80800000Y-111400000D03*
X81200000Y-111400000D03*
X81600000Y-111400000D03*
X82000000Y-111400000D03*
X82400000Y-111400000D03*
X82800000Y-111400000D03*
X83200000Y-111400000D03*
X83600000Y-111400000D03*
D46*
X84300000Y-110700000D03*
X84300000Y-110300000D03*
X84300000Y-109900000D03*
X84300000Y-109500000D03*
X84300000Y-109100000D03*
X84300000Y-108700000D03*
X84300000Y-108300000D03*
X84300000Y-107900000D03*
X84300000Y-107500000D03*
X84300000Y-107100000D03*
X84300000Y-106700000D03*
X84300000Y-106300000D03*
X84300000Y-105900000D03*
X84300000Y-105500000D03*
X84300000Y-105100000D03*
D45*
X83600000Y-104400000D03*
X83200000Y-104400000D03*
X82800000Y-104400000D03*
X82400000Y-104400000D03*
X82000000Y-104400000D03*
X81600000Y-104400000D03*
X81200000Y-104400000D03*
X80800000Y-104400000D03*
X80400000Y-104400000D03*
X80000000Y-104400000D03*
X79600000Y-104400000D03*
X79200000Y-104400000D03*
X78800000Y-104400000D03*
X78400000Y-104400000D03*
X78000000Y-104400000D03*
D46*
X77300000Y-105100000D03*
X77300000Y-105500000D03*
X77300000Y-105900000D03*
X77300000Y-106300000D03*
X77300000Y-106700000D03*
X77300000Y-107100000D03*
X77300000Y-107500000D03*
X77300000Y-107900000D03*
X77300000Y-108300000D03*
X77300000Y-108700000D03*
X77300000Y-109100000D03*
X77300000Y-109500000D03*
X77300000Y-109900000D03*
X77300000Y-110300000D03*
X77300000Y-110700000D03*
D47*
X80800000Y-107900000D03*
%TD*%
D18*
%TO.C,R202*%
X103460000Y-127240000D03*
X102440000Y-127240000D03*
%TD*%
D48*
%TO.C,C216*%
X108650000Y-121960000D03*
X108650000Y-122920000D03*
%TD*%
D49*
%TO.C,J702*%
X57290000Y-94690000D03*
D50*
X57290000Y-97190000D03*
X57290000Y-99190000D03*
X57290000Y-101690000D03*
D51*
X54580000Y-91620000D03*
X54580000Y-104760000D03*
%TD*%
D23*
%TO.C,C206*%
X108970000Y-133890000D03*
X109930000Y-133890000D03*
%TD*%
%TO.C,C207*%
X108970000Y-132940000D03*
X109930000Y-132940000D03*
%TD*%
D11*
%TO.C,C410*%
X74590000Y-108100000D03*
X75610000Y-108100000D03*
%TD*%
D40*
%TO.C,S402*%
X78200000Y-119600000D03*
X74800000Y-119600000D03*
%TD*%
D23*
%TO.C,C702*%
X61440000Y-113800000D03*
X62400000Y-113800000D03*
%TD*%
D32*
%TO.C,C412*%
X74551000Y-103922800D03*
X74551000Y-104942800D03*
%TD*%
D52*
%TO.C,SW701*%
X47862500Y-133200000D03*
D50*
X50402500Y-133200000D03*
X52942500Y-133200000D03*
X55482500Y-133200000D03*
X58022500Y-133200000D03*
X60562500Y-133200000D03*
X60562500Y-125580000D03*
X58022500Y-125580000D03*
X55482500Y-125580000D03*
X52942500Y-125580000D03*
X50402500Y-125580000D03*
X47862500Y-125580000D03*
%TD*%
D18*
%TO.C,R403*%
X70173900Y-96164800D03*
X69153900Y-96164800D03*
%TD*%
D32*
%TO.C,C408*%
X81650000Y-101240000D03*
X81650000Y-102260000D03*
%TD*%
D53*
%TO.C,L304*%
X104900000Y-102695000D03*
X104900000Y-100545000D03*
%TD*%
D18*
%TO.C,C414*%
X76210000Y-101400000D03*
X75190000Y-101400000D03*
%TD*%
D54*
%TO.C,D201*%
X98112500Y-127590000D03*
X99987500Y-127590000D03*
%TD*%
D36*
%TO.C,JP105*%
X92432600Y-118735000D03*
D37*
X92432600Y-120035000D03*
%TD*%
D55*
%TO.C,X401*%
X90475000Y-111640000D03*
X90475000Y-109940000D03*
X89125000Y-109940000D03*
X89125000Y-111640000D03*
%TD*%
D56*
%TO.C,JP101*%
X102669404Y-106100596D03*
D57*
X102669404Y-104800596D03*
%TD*%
D58*
%TO.C,L302*%
X123000000Y-113975000D03*
X123000000Y-112400000D03*
%TD*%
D12*
%TO.C,C209*%
X111550000Y-135570000D03*
X111550000Y-134610000D03*
%TD*%
D23*
%TO.C,C211*%
X105569600Y-122926000D03*
X106529600Y-122926000D03*
%TD*%
D11*
%TO.C,C403*%
X67490000Y-118800000D03*
X68510000Y-118800000D03*
%TD*%
D31*
%TO.C,C316*%
X102400000Y-100850000D03*
X102400000Y-102750000D03*
%TD*%
D21*
%TO.C,C301*%
X115475000Y-101720000D03*
X117025000Y-101720000D03*
%TD*%
D12*
%TO.C,R701*%
X52400000Y-120080000D03*
X52400000Y-119120000D03*
%TD*%
D14*
%TO.C,C202*%
X112750000Y-134865000D03*
X112750000Y-136415000D03*
%TD*%
D11*
%TO.C,C404*%
X76657971Y-113429331D03*
X77677971Y-113429331D03*
%TD*%
D13*
%TO.C,R402*%
X73400000Y-120410000D03*
X73400000Y-119390000D03*
%TD*%
%TO.C,R408*%
X85700000Y-99610000D03*
X85700000Y-98590000D03*
%TD*%
D48*
%TO.C,C217*%
X110600000Y-121960000D03*
X110600000Y-122920000D03*
%TD*%
D28*
%TO.C,J202*%
X82390000Y-129490000D03*
D29*
X84930000Y-129490000D03*
X87470000Y-129490000D03*
X90010000Y-129490000D03*
%TD*%
D59*
%TO.C,U303*%
X114050000Y-107370000D03*
X114050000Y-106970000D03*
X114050000Y-106570000D03*
X114050000Y-106170000D03*
X114050000Y-105770000D03*
X114050000Y-105370000D03*
X114050000Y-104970000D03*
X114050000Y-104570000D03*
X114050000Y-104170000D03*
X114050000Y-103770000D03*
X114050000Y-103370000D03*
X114050000Y-102970000D03*
D60*
X113300000Y-102220000D03*
X112900000Y-102220000D03*
X112500000Y-102220000D03*
X112100000Y-102220000D03*
X111700000Y-102220000D03*
X111300000Y-102220000D03*
X110900000Y-102220000D03*
X110500000Y-102220000D03*
X110100000Y-102220000D03*
X109700000Y-102220000D03*
X109300000Y-102220000D03*
X108900000Y-102220000D03*
D59*
X108150000Y-102970000D03*
X108150000Y-103370000D03*
X108150000Y-103770000D03*
X108150000Y-104170000D03*
X108150000Y-104570000D03*
X108150000Y-104970000D03*
X108150000Y-105370000D03*
X108150000Y-105770000D03*
X108150000Y-106170000D03*
X108150000Y-106570000D03*
X108150000Y-106970000D03*
X108150000Y-107370000D03*
D60*
X108900000Y-108120000D03*
X109300000Y-108120000D03*
X109700000Y-108120000D03*
X110100000Y-108120000D03*
X110500000Y-108120000D03*
X110900000Y-108120000D03*
X111300000Y-108120000D03*
X111700000Y-108120000D03*
X112100000Y-108120000D03*
X112500000Y-108120000D03*
X112900000Y-108120000D03*
X113300000Y-108120000D03*
D61*
X111100000Y-105170000D03*
%TD*%
D62*
%TO.C,M701*%
X64523700Y-112600000D03*
X64923700Y-112600000D03*
D63*
X65600000Y-112476099D03*
X65600000Y-112076100D03*
X65600000Y-111676100D03*
X65600000Y-111276101D03*
D62*
X64923700Y-111152200D03*
X64523700Y-111152200D03*
D63*
X63847400Y-111276101D03*
X63847400Y-111676100D03*
X63847400Y-112076100D03*
X63847400Y-112476099D03*
%TD*%
D21*
%TO.C,C312*%
X115675000Y-107720000D03*
X117225000Y-107720000D03*
%TD*%
D32*
%TO.C,C415*%
X80600000Y-101090000D03*
X80600000Y-102110000D03*
%TD*%
D12*
%TO.C,R703*%
X54900000Y-120160000D03*
X54900000Y-119200000D03*
%TD*%
D64*
%TO.C,C305*%
X117650000Y-96200000D03*
X115750000Y-96200000D03*
%TD*%
D14*
%TO.C,C311*%
X105900000Y-96394784D03*
X105900000Y-97944784D03*
%TD*%
D11*
%TO.C,C411*%
X77080000Y-102500000D03*
X78100000Y-102500000D03*
%TD*%
D48*
%TO.C,C205*%
X102450000Y-129810000D03*
X102450000Y-130770000D03*
%TD*%
D18*
%TO.C,C406*%
X87010000Y-109450000D03*
X85990000Y-109450000D03*
%TD*%
%TO.C,C416*%
X88320000Y-108100000D03*
X87300000Y-108100000D03*
%TD*%
D13*
%TO.C,R407*%
X87100000Y-99910000D03*
X87100000Y-98890000D03*
%TD*%
D32*
%TO.C,R303*%
X111150000Y-109610000D03*
X111150000Y-110630000D03*
%TD*%
D65*
%TO.C,X201*%
X100187000Y-132737000D03*
X100187000Y-131463000D03*
X99213000Y-131463000D03*
X99213000Y-132737000D03*
%TD*%
D32*
%TO.C,R304*%
X112300000Y-109810000D03*
X112300000Y-110830000D03*
%TD*%
D66*
%TO.C,JP107*%
X116900000Y-113470000D03*
D67*
X118200000Y-113470000D03*
%TD*%
D66*
%TO.C,JP102*%
X113200000Y-114070000D03*
D67*
X114500000Y-114070000D03*
%TD*%
D38*
%TO.C,C318*%
X104150000Y-96469784D03*
X102600000Y-96469784D03*
%TD*%
D68*
%TO.C,U402*%
X69330000Y-115800000D03*
X70600000Y-115800000D03*
X71870000Y-115800000D03*
X73140000Y-115800000D03*
X73140000Y-110400000D03*
X71870000Y-110400000D03*
X70600000Y-110400000D03*
X69330000Y-110400000D03*
D69*
X71235000Y-113100000D03*
%TD*%
D70*
%TO.C,J703*%
X68210000Y-132620000D03*
X73990000Y-132620000D03*
D71*
X67900000Y-131545000D03*
X68700000Y-131545000D03*
D72*
X69850000Y-131545000D03*
X70850000Y-131545000D03*
X71350000Y-131545000D03*
X72350000Y-131545000D03*
D71*
X74300000Y-131545000D03*
X73500000Y-131545000D03*
D72*
X72850000Y-131545000D03*
X71850000Y-131545000D03*
X70350000Y-131545000D03*
X69350000Y-131545000D03*
D73*
X66780000Y-132120000D03*
D74*
X66780000Y-136300000D03*
X75420000Y-136300000D03*
D73*
X75420000Y-132120000D03*
%TD*%
D58*
%TO.C,L303*%
X123000000Y-110887500D03*
X123000000Y-109312500D03*
%TD*%
D11*
%TO.C,R404*%
X68790000Y-106800000D03*
X69810000Y-106800000D03*
%TD*%
D38*
%TO.C,C303*%
X105875000Y-110270000D03*
X104325000Y-110270000D03*
%TD*%
D32*
%TO.C,C413*%
X79400000Y-101380000D03*
X79400000Y-102400000D03*
%TD*%
D22*
%TO.C,C701*%
X68580000Y-103000000D03*
X67620000Y-103000000D03*
%TD*%
D75*
%TO.C,J701*%
X46700000Y-112450000D03*
X46700000Y-116950000D03*
D76*
X48800000Y-118200000D03*
X48800000Y-115700000D03*
X48800000Y-113700000D03*
X48800000Y-111200000D03*
D77*
X46700000Y-109000000D03*
X46700000Y-120400000D03*
%TD*%
D78*
%TO.C,D403*%
X96850000Y-111000000D03*
X94750000Y-111000000D03*
X96850000Y-110200000D03*
X94750000Y-110200000D03*
%TD*%
D12*
%TO.C,R704*%
X56870000Y-120160000D03*
X56870000Y-119200000D03*
%TD*%
D64*
%TO.C,C315*%
X104300000Y-98307284D03*
X102400000Y-98307284D03*
%TD*%
D79*
%TO.C,L401*%
X71400000Y-105589688D03*
X71400000Y-103589688D03*
%TD*%
M02*
