M48
; DRILL file {KiCad 9.0.7} date 2026-04-20T16:27:08-0400
; FORMAT={-:-/ absolute / metric / decimal}
; #@! TF.CreationDate,2026-04-20T16:27:08-04:00
; #@! TF.GenerationSoftware,Kicad,Pcbnew,9.0.7
; #@! TF.FileFunction,Plated,1,4,PTH
FMAT,2
METRIC
; #@! TA.AperFunction,Plated,PTH,ViaDrill
T1C0.305
; #@! TA.AperFunction,Plated,PTH,ComponentDrill
T2C0.600
; #@! TA.AperFunction,Plated,PTH,ComponentDrill
T3C0.800
; #@! TA.AperFunction,Plated,PTH,ComponentDrill
T4C0.920
; #@! TA.AperFunction,Plated,PTH,ComponentDrill
T5C1.000
; #@! TA.AperFunction,Plated,PTH,ComponentDrill
T6C2.300
%
G90
G05
T1
X51.5Y-118.7
X52.6Y-118.2
X53.7Y-118.2
X54.905Y-118.262
X55.7Y-130.21
X55.9Y-117.3
X56.805Y-118.262
X59.9Y-102.8
X60.4Y-104.1
X61.6Y-113.0
X62.899Y-110.185
X63.0Y-126.2
X63.399Y-113.585
X63.408Y-105.022
X63.5Y-104.1
X64.152Y-108.625
X64.3Y-124.8
X64.4Y-127.9
X64.635Y-109.463
X64.7Y-130.0
X64.8Y-106.1
X64.899Y-104.301
X65.024Y-102.676
X65.3Y-120.7
X65.6Y-118.6
X66.094Y-114.599
X66.6Y-117.0
X66.6Y-129.9
X66.724Y-102.776
X66.9Y-124.1
X67.0Y-122.4
X67.6Y-108.39
X67.7Y-125.0
X68.1Y-112.6
X68.3Y-111.6
X68.4Y-122.5
X68.906Y-129.641
X69.2Y-125.1
X69.5Y-103.1
X69.5Y-122.4
X69.6Y-118.8
X70.2Y-108.99
X70.6Y-128.7
X71.109Y-96.343
X72.409Y-94.943
X73.127Y-117.133
X73.218Y-103.09
X73.653Y-108.1
X73.904Y-121.17
X73.983Y-103.069
X74.715Y-106.485
X75.842Y-104.668
X76.0Y-112.8
X76.235Y-102.5
X76.9Y-119.8
X78.5Y-100.69
X79.42Y-107.88
X80.0Y-112.79
X80.15Y-116.3
X80.508Y-102.9
X80.76Y-106.5
X80.8Y-107.89
X80.82Y-109.04
X81.15Y-100.2
X81.3Y-92.15
X82.182Y-117.072
X82.2Y-107.87
X82.3Y-125.79
X82.613Y-115.484
X83.1Y-125.681
X83.7Y-113.4
X83.9Y-117.19
X84.345Y-114.921
X84.4Y-97.5
X85.95Y-108.008
X86.0Y-102.4
X86.5Y-98.1
X87.229Y-115.328
X87.85Y-109.45
X88.0Y-102.89
X88.216Y-106.187
X88.3Y-98.8
X88.521Y-115.306
X89.029Y-103.901
X89.1Y-108.15
X89.236Y-106.308
X89.6Y-112.79
X89.7Y-116.5
X89.799Y-105.5
X90.395Y-104.985
X91.6Y-109.89
X92.687Y-122.134
X94.2Y-99.2
X94.4Y-98.0
X96.0Y-103.3
X96.85Y-109.1
X96.999Y-127.789
X97.25Y-101.7
X98.5Y-133.9
X100.6Y-122.59
X100.8Y-103.1
X101.2Y-131.7
X101.5Y-129.1
X101.6Y-130.45
X101.6Y-133.44
X101.83Y-121.96
X102.2Y-111.17
X102.4Y-99.7
X102.612Y-95.295
X102.9Y-131.6
X103.222Y-121.726
X103.3Y-111.4
X103.475Y-95.27
X103.8Y-125.14
X104.0Y-104.07
X104.243Y-128.935
X104.25Y-133.44
X104.385Y-121.791
X104.467Y-130.55
X104.5Y-106.87
X104.5Y-111.37
X104.7Y-105.57
X105.163Y-123.745
X105.208Y-97.267
X105.4Y-107.429
X105.799Y-106.766
X105.827Y-125.891
X105.9Y-95.1
X105.9Y-122.2
X106.194Y-123.808
X106.373Y-130.13
X106.374Y-128.86
X106.668Y-125.932
X106.9Y-94.6
X107.0Y-109.57
X107.33Y-130.05
X107.435Y-125.736
X107.571Y-119.522
X107.573Y-123.867
X107.8Y-131.89
X107.811Y-97.28
X108.133Y-134.122
X108.165Y-125.956
X108.2Y-127.89
X108.245Y-120.598
X108.877Y-127.735
X108.9Y-121.1
X109.1Y-96.6
X109.283Y-125.86
X109.395Y-123.759
X109.699Y-129.322
X109.891Y-115.189
X110.0Y-103.98
X110.0Y-106.28
X110.03Y-125.706
X110.235Y-127.915
X110.279Y-126.579
X110.5Y-96.97
X110.5Y-111.913
X110.543Y-129.136
X110.634Y-121.264
X110.665Y-123.766
X110.726Y-133.415
X110.901Y-115.372
X111.09Y-111.398
X111.1Y-105.17
X111.55Y-136.54
X111.7Y-112.565
X111.835Y-122.128
X111.9Y-116.475
X112.0Y-100.7
X112.1Y-106.18
X112.2Y-133.79
X112.3Y-97.17
X112.3Y-103.98
X112.45Y-130.54
X112.56Y-126.95
X112.601Y-111.67
X112.611Y-125.885
X113.1Y-123.7
X113.4Y-112.07
X113.5Y-135.6
X113.71Y-116.475
X114.0Y-97.17
X114.1Y-124.4
X114.2Y-108.4
X115.282Y-105.051
X115.3Y-125.69
X115.3Y-130.54
X115.3Y-134.6
X115.304Y-104.256
X115.6Y-94.5
X115.6Y-98.1
X115.6Y-112.2
X116.0Y-103.07
X116.0Y-108.7
X116.2Y-138.2
X116.665Y-115.435
X116.95Y-106.07
X117.6Y-106.57
X118.0Y-103.6
X118.0Y-105.4
X118.097Y-115.603
X118.5Y-100.07
X118.5Y-110.37
X118.6Y-101.77
X118.9Y-99.37
X119.0Y-95.87
X119.3Y-108.3
X119.4Y-103.6
X119.4Y-105.4
X120.8Y-103.6
X120.8Y-105.4
X122.0Y-106.1
X122.0Y-108.9
X122.1Y-107.511
X122.1Y-110.289
X122.1Y-111.7
X122.1Y-113.1
X122.1Y-114.5
X122.3Y-103.8
X122.4Y-115.8
X123.3Y-104.8
X123.3Y-116.4
X123.9Y-105.989
X123.9Y-107.389
X123.9Y-110.2
X123.9Y-111.6
X123.9Y-113.0
X123.9Y-118.6
X123.932Y-113.9
X124.0Y-108.8
X124.338Y-116.338
X124.5Y-114.4
T3
X47.862Y-125.58
X47.862Y-133.2
X50.402Y-125.58
X50.402Y-133.2
X52.942Y-125.58
X52.942Y-133.2
X55.482Y-125.58
X55.482Y-133.2
X58.023Y-125.58
X58.023Y-133.2
X60.562Y-125.58
X60.562Y-133.2
T4
X48.8Y-111.2
X48.8Y-113.7
X48.8Y-115.7
X48.8Y-118.2
X57.29Y-94.69
X57.29Y-97.19
X57.29Y-99.19
X57.29Y-101.69
T5
X82.374Y-133.467
X82.39Y-129.49
X84.914Y-133.467
X84.93Y-129.49
X87.454Y-133.467
X87.47Y-129.49
X90.01Y-129.49
X91.26Y-133.5
X92.102Y-94.275
X93.8Y-133.5
X94.642Y-94.275
X95.2Y-123.81
X95.2Y-126.35
X95.2Y-128.89
X96.34Y-133.5
X97.182Y-94.275
X98.78Y-118.19
X101.32Y-118.19
X103.86Y-118.19
X106.4Y-118.19
X108.94Y-118.19
X111.48Y-118.19
X114.02Y-118.19
X116.56Y-118.19
X119.1Y-118.19
T6
X54.58Y-91.62
X54.58Y-104.76
T2
X66.78Y-131.57G85X66.78Y-132.67
G05
X66.78Y-135.9G85X66.78Y-136.7
G05
X75.42Y-131.57G85X75.42Y-132.67
G05
X75.42Y-135.9G85X75.42Y-136.7
G05
T5
X47.45Y-109.0G85X45.95Y-109.0
G05
X47.45Y-120.4G85X45.95Y-120.4
G05
M30
