%TF.GenerationSoftware,KiCad,Pcbnew,9.0.7*%
%TF.CreationDate,2026-03-09T23:45:54-04:00*%
%TF.ProjectId,RP2350Adev,52503233-3530-4416-9465-762e6b696361,rev?*%
%TF.SameCoordinates,Original*%
%TF.FileFunction,Legend,Top*%
%TF.FilePolarity,Positive*%
%FSLAX46Y46*%
G04 Gerber Fmt 4.6, Leading zero omitted, Abs format (unit mm)*
G04 Created by KiCad (PCBNEW 9.0.7) date 2026-03-09 23:45:54*
%MOMM*%
%LPD*%
G01*
G04 APERTURE LIST*
%ADD10C,0.150000*%
%ADD11C,0.100000*%
%ADD12C,0.120000*%
%ADD13C,0.250000*%
%ADD14C,0.152400*%
%ADD15C,0.200000*%
%ADD16C,0.210000*%
%ADD17C,0.282752*%
G04 APERTURE END LIST*
D10*
X168789160Y-110899337D02*
X169055826Y-110899337D01*
X169170112Y-111318385D02*
X168789160Y-111318385D01*
X168789160Y-111318385D02*
X168789160Y-110518385D01*
X168789160Y-110518385D02*
X169170112Y-110518385D01*
X169855827Y-111280290D02*
X169779636Y-111318385D01*
X169779636Y-111318385D02*
X169627255Y-111318385D01*
X169627255Y-111318385D02*
X169551065Y-111280290D01*
X169551065Y-111280290D02*
X169512970Y-111242194D01*
X169512970Y-111242194D02*
X169474874Y-111166004D01*
X169474874Y-111166004D02*
X169474874Y-110937432D01*
X169474874Y-110937432D02*
X169512970Y-110861242D01*
X169512970Y-110861242D02*
X169551065Y-110823147D01*
X169551065Y-110823147D02*
X169627255Y-110785051D01*
X169627255Y-110785051D02*
X169779636Y-110785051D01*
X169779636Y-110785051D02*
X169855827Y-110823147D01*
X170312969Y-111318385D02*
X170236779Y-111280290D01*
X170236779Y-111280290D02*
X170198684Y-111204099D01*
X170198684Y-111204099D02*
X170198684Y-110518385D01*
X170922494Y-111280290D02*
X170846303Y-111318385D01*
X170846303Y-111318385D02*
X170693922Y-111318385D01*
X170693922Y-111318385D02*
X170617732Y-111280290D01*
X170617732Y-111280290D02*
X170579636Y-111204099D01*
X170579636Y-111204099D02*
X170579636Y-110899337D01*
X170579636Y-110899337D02*
X170617732Y-110823147D01*
X170617732Y-110823147D02*
X170693922Y-110785051D01*
X170693922Y-110785051D02*
X170846303Y-110785051D01*
X170846303Y-110785051D02*
X170922494Y-110823147D01*
X170922494Y-110823147D02*
X170960589Y-110899337D01*
X170960589Y-110899337D02*
X170960589Y-110975528D01*
X170960589Y-110975528D02*
X170579636Y-111051718D01*
X171646303Y-111280290D02*
X171570112Y-111318385D01*
X171570112Y-111318385D02*
X171417731Y-111318385D01*
X171417731Y-111318385D02*
X171341541Y-111280290D01*
X171341541Y-111280290D02*
X171303446Y-111242194D01*
X171303446Y-111242194D02*
X171265350Y-111166004D01*
X171265350Y-111166004D02*
X171265350Y-110937432D01*
X171265350Y-110937432D02*
X171303446Y-110861242D01*
X171303446Y-110861242D02*
X171341541Y-110823147D01*
X171341541Y-110823147D02*
X171417731Y-110785051D01*
X171417731Y-110785051D02*
X171570112Y-110785051D01*
X171570112Y-110785051D02*
X171646303Y-110823147D01*
X171874874Y-110785051D02*
X172179636Y-110785051D01*
X171989160Y-110518385D02*
X171989160Y-111204099D01*
X171989160Y-111204099D02*
X172027255Y-111280290D01*
X172027255Y-111280290D02*
X172103445Y-111318385D01*
X172103445Y-111318385D02*
X172179636Y-111318385D01*
X172446303Y-111318385D02*
X172446303Y-110785051D01*
X172446303Y-110937432D02*
X172484398Y-110861242D01*
X172484398Y-110861242D02*
X172522493Y-110823147D01*
X172522493Y-110823147D02*
X172598684Y-110785051D01*
X172598684Y-110785051D02*
X172674874Y-110785051D01*
X173055826Y-111318385D02*
X172979636Y-111280290D01*
X172979636Y-111280290D02*
X172941541Y-111242194D01*
X172941541Y-111242194D02*
X172903445Y-111166004D01*
X172903445Y-111166004D02*
X172903445Y-110937432D01*
X172903445Y-110937432D02*
X172941541Y-110861242D01*
X172941541Y-110861242D02*
X172979636Y-110823147D01*
X172979636Y-110823147D02*
X173055826Y-110785051D01*
X173055826Y-110785051D02*
X173170112Y-110785051D01*
X173170112Y-110785051D02*
X173246303Y-110823147D01*
X173246303Y-110823147D02*
X173284398Y-110861242D01*
X173284398Y-110861242D02*
X173322493Y-110937432D01*
X173322493Y-110937432D02*
X173322493Y-111166004D01*
X173322493Y-111166004D02*
X173284398Y-111242194D01*
X173284398Y-111242194D02*
X173246303Y-111280290D01*
X173246303Y-111280290D02*
X173170112Y-111318385D01*
X173170112Y-111318385D02*
X173055826Y-111318385D01*
X173665351Y-110785051D02*
X173665351Y-111318385D01*
X173665351Y-110861242D02*
X173703446Y-110823147D01*
X173703446Y-110823147D02*
X173779636Y-110785051D01*
X173779636Y-110785051D02*
X173893922Y-110785051D01*
X173893922Y-110785051D02*
X173970113Y-110823147D01*
X173970113Y-110823147D02*
X174008208Y-110899337D01*
X174008208Y-110899337D02*
X174008208Y-111318385D01*
X174389161Y-111318385D02*
X174389161Y-110785051D01*
X174389161Y-110518385D02*
X174351065Y-110556480D01*
X174351065Y-110556480D02*
X174389161Y-110594575D01*
X174389161Y-110594575D02*
X174427256Y-110556480D01*
X174427256Y-110556480D02*
X174389161Y-110518385D01*
X174389161Y-110518385D02*
X174389161Y-110594575D01*
X175112970Y-111280290D02*
X175036779Y-111318385D01*
X175036779Y-111318385D02*
X174884398Y-111318385D01*
X174884398Y-111318385D02*
X174808208Y-111280290D01*
X174808208Y-111280290D02*
X174770113Y-111242194D01*
X174770113Y-111242194D02*
X174732017Y-111166004D01*
X174732017Y-111166004D02*
X174732017Y-110937432D01*
X174732017Y-110937432D02*
X174770113Y-110861242D01*
X174770113Y-110861242D02*
X174808208Y-110823147D01*
X174808208Y-110823147D02*
X174884398Y-110785051D01*
X174884398Y-110785051D02*
X175036779Y-110785051D01*
X175036779Y-110785051D02*
X175112970Y-110823147D01*
X175417731Y-111280290D02*
X175493922Y-111318385D01*
X175493922Y-111318385D02*
X175646303Y-111318385D01*
X175646303Y-111318385D02*
X175722493Y-111280290D01*
X175722493Y-111280290D02*
X175760589Y-111204099D01*
X175760589Y-111204099D02*
X175760589Y-111166004D01*
X175760589Y-111166004D02*
X175722493Y-111089813D01*
X175722493Y-111089813D02*
X175646303Y-111051718D01*
X175646303Y-111051718D02*
X175532017Y-111051718D01*
X175532017Y-111051718D02*
X175455827Y-111013623D01*
X175455827Y-111013623D02*
X175417731Y-110937432D01*
X175417731Y-110937432D02*
X175417731Y-110899337D01*
X175417731Y-110899337D02*
X175455827Y-110823147D01*
X175455827Y-110823147D02*
X175532017Y-110785051D01*
X175532017Y-110785051D02*
X175646303Y-110785051D01*
X175646303Y-110785051D02*
X175722493Y-110823147D01*
X176674874Y-111280290D02*
X176789160Y-111318385D01*
X176789160Y-111318385D02*
X176979636Y-111318385D01*
X176979636Y-111318385D02*
X177055827Y-111280290D01*
X177055827Y-111280290D02*
X177093922Y-111242194D01*
X177093922Y-111242194D02*
X177132017Y-111166004D01*
X177132017Y-111166004D02*
X177132017Y-111089813D01*
X177132017Y-111089813D02*
X177093922Y-111013623D01*
X177093922Y-111013623D02*
X177055827Y-110975528D01*
X177055827Y-110975528D02*
X176979636Y-110937432D01*
X176979636Y-110937432D02*
X176827255Y-110899337D01*
X176827255Y-110899337D02*
X176751065Y-110861242D01*
X176751065Y-110861242D02*
X176712970Y-110823147D01*
X176712970Y-110823147D02*
X176674874Y-110746956D01*
X176674874Y-110746956D02*
X176674874Y-110670766D01*
X176674874Y-110670766D02*
X176712970Y-110594575D01*
X176712970Y-110594575D02*
X176751065Y-110556480D01*
X176751065Y-110556480D02*
X176827255Y-110518385D01*
X176827255Y-110518385D02*
X177017732Y-110518385D01*
X177017732Y-110518385D02*
X177132017Y-110556480D01*
X177474875Y-110785051D02*
X177474875Y-111585051D01*
X177474875Y-110823147D02*
X177551065Y-110785051D01*
X177551065Y-110785051D02*
X177703446Y-110785051D01*
X177703446Y-110785051D02*
X177779637Y-110823147D01*
X177779637Y-110823147D02*
X177817732Y-110861242D01*
X177817732Y-110861242D02*
X177855827Y-110937432D01*
X177855827Y-110937432D02*
X177855827Y-111166004D01*
X177855827Y-111166004D02*
X177817732Y-111242194D01*
X177817732Y-111242194D02*
X177779637Y-111280290D01*
X177779637Y-111280290D02*
X177703446Y-111318385D01*
X177703446Y-111318385D02*
X177551065Y-111318385D01*
X177551065Y-111318385D02*
X177474875Y-111280290D01*
X178198685Y-111318385D02*
X178198685Y-110785051D01*
X178198685Y-110937432D02*
X178236780Y-110861242D01*
X178236780Y-110861242D02*
X178274875Y-110823147D01*
X178274875Y-110823147D02*
X178351066Y-110785051D01*
X178351066Y-110785051D02*
X178427256Y-110785051D01*
X178693923Y-111318385D02*
X178693923Y-110785051D01*
X178693923Y-110518385D02*
X178655827Y-110556480D01*
X178655827Y-110556480D02*
X178693923Y-110594575D01*
X178693923Y-110594575D02*
X178732018Y-110556480D01*
X178732018Y-110556480D02*
X178693923Y-110518385D01*
X178693923Y-110518385D02*
X178693923Y-110594575D01*
X179074875Y-110785051D02*
X179074875Y-111318385D01*
X179074875Y-110861242D02*
X179112970Y-110823147D01*
X179112970Y-110823147D02*
X179189160Y-110785051D01*
X179189160Y-110785051D02*
X179303446Y-110785051D01*
X179303446Y-110785051D02*
X179379637Y-110823147D01*
X179379637Y-110823147D02*
X179417732Y-110899337D01*
X179417732Y-110899337D02*
X179417732Y-111318385D01*
X180141542Y-110785051D02*
X180141542Y-111432670D01*
X180141542Y-111432670D02*
X180103447Y-111508861D01*
X180103447Y-111508861D02*
X180065351Y-111546956D01*
X180065351Y-111546956D02*
X179989161Y-111585051D01*
X179989161Y-111585051D02*
X179874875Y-111585051D01*
X179874875Y-111585051D02*
X179798685Y-111546956D01*
X180141542Y-111280290D02*
X180065351Y-111318385D01*
X180065351Y-111318385D02*
X179912970Y-111318385D01*
X179912970Y-111318385D02*
X179836780Y-111280290D01*
X179836780Y-111280290D02*
X179798685Y-111242194D01*
X179798685Y-111242194D02*
X179760589Y-111166004D01*
X179760589Y-111166004D02*
X179760589Y-110937432D01*
X179760589Y-110937432D02*
X179798685Y-110861242D01*
X179798685Y-110861242D02*
X179836780Y-110823147D01*
X179836780Y-110823147D02*
X179912970Y-110785051D01*
X179912970Y-110785051D02*
X180065351Y-110785051D01*
X180065351Y-110785051D02*
X180141542Y-110823147D01*
X181093923Y-110594575D02*
X181132019Y-110556480D01*
X181132019Y-110556480D02*
X181208209Y-110518385D01*
X181208209Y-110518385D02*
X181398685Y-110518385D01*
X181398685Y-110518385D02*
X181474876Y-110556480D01*
X181474876Y-110556480D02*
X181512971Y-110594575D01*
X181512971Y-110594575D02*
X181551066Y-110670766D01*
X181551066Y-110670766D02*
X181551066Y-110746956D01*
X181551066Y-110746956D02*
X181512971Y-110861242D01*
X181512971Y-110861242D02*
X181055828Y-111318385D01*
X181055828Y-111318385D02*
X181551066Y-111318385D01*
X182046305Y-110518385D02*
X182122495Y-110518385D01*
X182122495Y-110518385D02*
X182198686Y-110556480D01*
X182198686Y-110556480D02*
X182236781Y-110594575D01*
X182236781Y-110594575D02*
X182274876Y-110670766D01*
X182274876Y-110670766D02*
X182312971Y-110823147D01*
X182312971Y-110823147D02*
X182312971Y-111013623D01*
X182312971Y-111013623D02*
X182274876Y-111166004D01*
X182274876Y-111166004D02*
X182236781Y-111242194D01*
X182236781Y-111242194D02*
X182198686Y-111280290D01*
X182198686Y-111280290D02*
X182122495Y-111318385D01*
X182122495Y-111318385D02*
X182046305Y-111318385D01*
X182046305Y-111318385D02*
X181970114Y-111280290D01*
X181970114Y-111280290D02*
X181932019Y-111242194D01*
X181932019Y-111242194D02*
X181893924Y-111166004D01*
X181893924Y-111166004D02*
X181855828Y-111013623D01*
X181855828Y-111013623D02*
X181855828Y-110823147D01*
X181855828Y-110823147D02*
X181893924Y-110670766D01*
X181893924Y-110670766D02*
X181932019Y-110594575D01*
X181932019Y-110594575D02*
X181970114Y-110556480D01*
X181970114Y-110556480D02*
X182046305Y-110518385D01*
X182617733Y-110594575D02*
X182655829Y-110556480D01*
X182655829Y-110556480D02*
X182732019Y-110518385D01*
X182732019Y-110518385D02*
X182922495Y-110518385D01*
X182922495Y-110518385D02*
X182998686Y-110556480D01*
X182998686Y-110556480D02*
X183036781Y-110594575D01*
X183036781Y-110594575D02*
X183074876Y-110670766D01*
X183074876Y-110670766D02*
X183074876Y-110746956D01*
X183074876Y-110746956D02*
X183036781Y-110861242D01*
X183036781Y-110861242D02*
X182579638Y-111318385D01*
X182579638Y-111318385D02*
X183074876Y-111318385D01*
X183760591Y-110518385D02*
X183608210Y-110518385D01*
X183608210Y-110518385D02*
X183532019Y-110556480D01*
X183532019Y-110556480D02*
X183493924Y-110594575D01*
X183493924Y-110594575D02*
X183417734Y-110708861D01*
X183417734Y-110708861D02*
X183379638Y-110861242D01*
X183379638Y-110861242D02*
X183379638Y-111166004D01*
X183379638Y-111166004D02*
X183417734Y-111242194D01*
X183417734Y-111242194D02*
X183455829Y-111280290D01*
X183455829Y-111280290D02*
X183532019Y-111318385D01*
X183532019Y-111318385D02*
X183684400Y-111318385D01*
X183684400Y-111318385D02*
X183760591Y-111280290D01*
X183760591Y-111280290D02*
X183798686Y-111242194D01*
X183798686Y-111242194D02*
X183836781Y-111166004D01*
X183836781Y-111166004D02*
X183836781Y-110975528D01*
X183836781Y-110975528D02*
X183798686Y-110899337D01*
X183798686Y-110899337D02*
X183760591Y-110861242D01*
X183760591Y-110861242D02*
X183684400Y-110823147D01*
X183684400Y-110823147D02*
X183532019Y-110823147D01*
X183532019Y-110823147D02*
X183455829Y-110861242D01*
X183455829Y-110861242D02*
X183417734Y-110899337D01*
X183417734Y-110899337D02*
X183379638Y-110975528D01*
X169246303Y-112606340D02*
X168979636Y-112225387D01*
X168789160Y-112606340D02*
X168789160Y-111806340D01*
X168789160Y-111806340D02*
X169093922Y-111806340D01*
X169093922Y-111806340D02*
X169170112Y-111844435D01*
X169170112Y-111844435D02*
X169208207Y-111882530D01*
X169208207Y-111882530D02*
X169246303Y-111958721D01*
X169246303Y-111958721D02*
X169246303Y-112073006D01*
X169246303Y-112073006D02*
X169208207Y-112149197D01*
X169208207Y-112149197D02*
X169170112Y-112187292D01*
X169170112Y-112187292D02*
X169093922Y-112225387D01*
X169093922Y-112225387D02*
X168789160Y-112225387D01*
X169589160Y-112606340D02*
X169589160Y-111806340D01*
X169589160Y-111806340D02*
X169893922Y-111806340D01*
X169893922Y-111806340D02*
X169970112Y-111844435D01*
X169970112Y-111844435D02*
X170008207Y-111882530D01*
X170008207Y-111882530D02*
X170046303Y-111958721D01*
X170046303Y-111958721D02*
X170046303Y-112073006D01*
X170046303Y-112073006D02*
X170008207Y-112149197D01*
X170008207Y-112149197D02*
X169970112Y-112187292D01*
X169970112Y-112187292D02*
X169893922Y-112225387D01*
X169893922Y-112225387D02*
X169589160Y-112225387D01*
X170351064Y-111882530D02*
X170389160Y-111844435D01*
X170389160Y-111844435D02*
X170465350Y-111806340D01*
X170465350Y-111806340D02*
X170655826Y-111806340D01*
X170655826Y-111806340D02*
X170732017Y-111844435D01*
X170732017Y-111844435D02*
X170770112Y-111882530D01*
X170770112Y-111882530D02*
X170808207Y-111958721D01*
X170808207Y-111958721D02*
X170808207Y-112034911D01*
X170808207Y-112034911D02*
X170770112Y-112149197D01*
X170770112Y-112149197D02*
X170312969Y-112606340D01*
X170312969Y-112606340D02*
X170808207Y-112606340D01*
X171074874Y-111806340D02*
X171570112Y-111806340D01*
X171570112Y-111806340D02*
X171303446Y-112111102D01*
X171303446Y-112111102D02*
X171417731Y-112111102D01*
X171417731Y-112111102D02*
X171493922Y-112149197D01*
X171493922Y-112149197D02*
X171532017Y-112187292D01*
X171532017Y-112187292D02*
X171570112Y-112263483D01*
X171570112Y-112263483D02*
X171570112Y-112453959D01*
X171570112Y-112453959D02*
X171532017Y-112530149D01*
X171532017Y-112530149D02*
X171493922Y-112568245D01*
X171493922Y-112568245D02*
X171417731Y-112606340D01*
X171417731Y-112606340D02*
X171189160Y-112606340D01*
X171189160Y-112606340D02*
X171112969Y-112568245D01*
X171112969Y-112568245D02*
X171074874Y-112530149D01*
X172293922Y-111806340D02*
X171912970Y-111806340D01*
X171912970Y-111806340D02*
X171874874Y-112187292D01*
X171874874Y-112187292D02*
X171912970Y-112149197D01*
X171912970Y-112149197D02*
X171989160Y-112111102D01*
X171989160Y-112111102D02*
X172179636Y-112111102D01*
X172179636Y-112111102D02*
X172255827Y-112149197D01*
X172255827Y-112149197D02*
X172293922Y-112187292D01*
X172293922Y-112187292D02*
X172332017Y-112263483D01*
X172332017Y-112263483D02*
X172332017Y-112453959D01*
X172332017Y-112453959D02*
X172293922Y-112530149D01*
X172293922Y-112530149D02*
X172255827Y-112568245D01*
X172255827Y-112568245D02*
X172179636Y-112606340D01*
X172179636Y-112606340D02*
X171989160Y-112606340D01*
X171989160Y-112606340D02*
X171912970Y-112568245D01*
X171912970Y-112568245D02*
X171874874Y-112530149D01*
X172827256Y-111806340D02*
X172903446Y-111806340D01*
X172903446Y-111806340D02*
X172979637Y-111844435D01*
X172979637Y-111844435D02*
X173017732Y-111882530D01*
X173017732Y-111882530D02*
X173055827Y-111958721D01*
X173055827Y-111958721D02*
X173093922Y-112111102D01*
X173093922Y-112111102D02*
X173093922Y-112301578D01*
X173093922Y-112301578D02*
X173055827Y-112453959D01*
X173055827Y-112453959D02*
X173017732Y-112530149D01*
X173017732Y-112530149D02*
X172979637Y-112568245D01*
X172979637Y-112568245D02*
X172903446Y-112606340D01*
X172903446Y-112606340D02*
X172827256Y-112606340D01*
X172827256Y-112606340D02*
X172751065Y-112568245D01*
X172751065Y-112568245D02*
X172712970Y-112530149D01*
X172712970Y-112530149D02*
X172674875Y-112453959D01*
X172674875Y-112453959D02*
X172636779Y-112301578D01*
X172636779Y-112301578D02*
X172636779Y-112111102D01*
X172636779Y-112111102D02*
X172674875Y-111958721D01*
X172674875Y-111958721D02*
X172712970Y-111882530D01*
X172712970Y-111882530D02*
X172751065Y-111844435D01*
X172751065Y-111844435D02*
X172827256Y-111806340D01*
X173398684Y-112377768D02*
X173779637Y-112377768D01*
X173322494Y-112606340D02*
X173589161Y-111806340D01*
X173589161Y-111806340D02*
X173855827Y-112606340D01*
X174465351Y-112606340D02*
X174465351Y-111806340D01*
X174465351Y-112568245D02*
X174389160Y-112606340D01*
X174389160Y-112606340D02*
X174236779Y-112606340D01*
X174236779Y-112606340D02*
X174160589Y-112568245D01*
X174160589Y-112568245D02*
X174122494Y-112530149D01*
X174122494Y-112530149D02*
X174084398Y-112453959D01*
X174084398Y-112453959D02*
X174084398Y-112225387D01*
X174084398Y-112225387D02*
X174122494Y-112149197D01*
X174122494Y-112149197D02*
X174160589Y-112111102D01*
X174160589Y-112111102D02*
X174236779Y-112073006D01*
X174236779Y-112073006D02*
X174389160Y-112073006D01*
X174389160Y-112073006D02*
X174465351Y-112111102D01*
X175151066Y-112568245D02*
X175074875Y-112606340D01*
X175074875Y-112606340D02*
X174922494Y-112606340D01*
X174922494Y-112606340D02*
X174846304Y-112568245D01*
X174846304Y-112568245D02*
X174808208Y-112492054D01*
X174808208Y-112492054D02*
X174808208Y-112187292D01*
X174808208Y-112187292D02*
X174846304Y-112111102D01*
X174846304Y-112111102D02*
X174922494Y-112073006D01*
X174922494Y-112073006D02*
X175074875Y-112073006D01*
X175074875Y-112073006D02*
X175151066Y-112111102D01*
X175151066Y-112111102D02*
X175189161Y-112187292D01*
X175189161Y-112187292D02*
X175189161Y-112263483D01*
X175189161Y-112263483D02*
X174808208Y-112339673D01*
X175455827Y-112073006D02*
X175646303Y-112606340D01*
X175646303Y-112606340D02*
X175836780Y-112073006D01*
X177017732Y-112187292D02*
X177132018Y-112225387D01*
X177132018Y-112225387D02*
X177170113Y-112263483D01*
X177170113Y-112263483D02*
X177208209Y-112339673D01*
X177208209Y-112339673D02*
X177208209Y-112453959D01*
X177208209Y-112453959D02*
X177170113Y-112530149D01*
X177170113Y-112530149D02*
X177132018Y-112568245D01*
X177132018Y-112568245D02*
X177055828Y-112606340D01*
X177055828Y-112606340D02*
X176751066Y-112606340D01*
X176751066Y-112606340D02*
X176751066Y-111806340D01*
X176751066Y-111806340D02*
X177017732Y-111806340D01*
X177017732Y-111806340D02*
X177093923Y-111844435D01*
X177093923Y-111844435D02*
X177132018Y-111882530D01*
X177132018Y-111882530D02*
X177170113Y-111958721D01*
X177170113Y-111958721D02*
X177170113Y-112034911D01*
X177170113Y-112034911D02*
X177132018Y-112111102D01*
X177132018Y-112111102D02*
X177093923Y-112149197D01*
X177093923Y-112149197D02*
X177017732Y-112187292D01*
X177017732Y-112187292D02*
X176751066Y-112187292D01*
X177665351Y-112606340D02*
X177589161Y-112568245D01*
X177589161Y-112568245D02*
X177551066Y-112530149D01*
X177551066Y-112530149D02*
X177512970Y-112453959D01*
X177512970Y-112453959D02*
X177512970Y-112225387D01*
X177512970Y-112225387D02*
X177551066Y-112149197D01*
X177551066Y-112149197D02*
X177589161Y-112111102D01*
X177589161Y-112111102D02*
X177665351Y-112073006D01*
X177665351Y-112073006D02*
X177779637Y-112073006D01*
X177779637Y-112073006D02*
X177855828Y-112111102D01*
X177855828Y-112111102D02*
X177893923Y-112149197D01*
X177893923Y-112149197D02*
X177932018Y-112225387D01*
X177932018Y-112225387D02*
X177932018Y-112453959D01*
X177932018Y-112453959D02*
X177893923Y-112530149D01*
X177893923Y-112530149D02*
X177855828Y-112568245D01*
X177855828Y-112568245D02*
X177779637Y-112606340D01*
X177779637Y-112606340D02*
X177665351Y-112606340D01*
X178617733Y-112606340D02*
X178617733Y-112187292D01*
X178617733Y-112187292D02*
X178579638Y-112111102D01*
X178579638Y-112111102D02*
X178503447Y-112073006D01*
X178503447Y-112073006D02*
X178351066Y-112073006D01*
X178351066Y-112073006D02*
X178274876Y-112111102D01*
X178617733Y-112568245D02*
X178541542Y-112606340D01*
X178541542Y-112606340D02*
X178351066Y-112606340D01*
X178351066Y-112606340D02*
X178274876Y-112568245D01*
X178274876Y-112568245D02*
X178236780Y-112492054D01*
X178236780Y-112492054D02*
X178236780Y-112415864D01*
X178236780Y-112415864D02*
X178274876Y-112339673D01*
X178274876Y-112339673D02*
X178351066Y-112301578D01*
X178351066Y-112301578D02*
X178541542Y-112301578D01*
X178541542Y-112301578D02*
X178617733Y-112263483D01*
X178998686Y-112606340D02*
X178998686Y-112073006D01*
X178998686Y-112225387D02*
X179036781Y-112149197D01*
X179036781Y-112149197D02*
X179074876Y-112111102D01*
X179074876Y-112111102D02*
X179151067Y-112073006D01*
X179151067Y-112073006D02*
X179227257Y-112073006D01*
X179836781Y-112606340D02*
X179836781Y-111806340D01*
X179836781Y-112568245D02*
X179760590Y-112606340D01*
X179760590Y-112606340D02*
X179608209Y-112606340D01*
X179608209Y-112606340D02*
X179532019Y-112568245D01*
X179532019Y-112568245D02*
X179493924Y-112530149D01*
X179493924Y-112530149D02*
X179455828Y-112453959D01*
X179455828Y-112453959D02*
X179455828Y-112225387D01*
X179455828Y-112225387D02*
X179493924Y-112149197D01*
X179493924Y-112149197D02*
X179532019Y-112111102D01*
X179532019Y-112111102D02*
X179608209Y-112073006D01*
X179608209Y-112073006D02*
X179760590Y-112073006D01*
X179760590Y-112073006D02*
X179836781Y-112111102D01*
X180751067Y-112073006D02*
X180941543Y-112606340D01*
X180941543Y-112606340D02*
X181132020Y-112073006D01*
X181855829Y-112606340D02*
X181398686Y-112606340D01*
X181627258Y-112606340D02*
X181627258Y-111806340D01*
X181627258Y-111806340D02*
X181551067Y-111920625D01*
X181551067Y-111920625D02*
X181474877Y-111996816D01*
X181474877Y-111996816D02*
X181398686Y-112034911D01*
X168674874Y-113094295D02*
X169132017Y-113094295D01*
X168903445Y-113894295D02*
X168903445Y-113094295D01*
X169398684Y-113894295D02*
X169398684Y-113360961D01*
X169398684Y-113513342D02*
X169436779Y-113437152D01*
X169436779Y-113437152D02*
X169474874Y-113399057D01*
X169474874Y-113399057D02*
X169551065Y-113360961D01*
X169551065Y-113360961D02*
X169627255Y-113360961D01*
X169893922Y-113894295D02*
X169893922Y-113360961D01*
X169893922Y-113094295D02*
X169855826Y-113132390D01*
X169855826Y-113132390D02*
X169893922Y-113170485D01*
X169893922Y-113170485D02*
X169932017Y-113132390D01*
X169932017Y-113132390D02*
X169893922Y-113094295D01*
X169893922Y-113094295D02*
X169893922Y-113170485D01*
X170274874Y-113360961D02*
X170274874Y-113894295D01*
X170274874Y-113437152D02*
X170312969Y-113399057D01*
X170312969Y-113399057D02*
X170389159Y-113360961D01*
X170389159Y-113360961D02*
X170503445Y-113360961D01*
X170503445Y-113360961D02*
X170579636Y-113399057D01*
X170579636Y-113399057D02*
X170617731Y-113475247D01*
X170617731Y-113475247D02*
X170617731Y-113894295D01*
X170998684Y-113894295D02*
X170998684Y-113360961D01*
X170998684Y-113094295D02*
X170960588Y-113132390D01*
X170960588Y-113132390D02*
X170998684Y-113170485D01*
X170998684Y-113170485D02*
X171036779Y-113132390D01*
X171036779Y-113132390D02*
X170998684Y-113094295D01*
X170998684Y-113094295D02*
X170998684Y-113170485D01*
X171265350Y-113360961D02*
X171570112Y-113360961D01*
X171379636Y-113094295D02*
X171379636Y-113780009D01*
X171379636Y-113780009D02*
X171417731Y-113856200D01*
X171417731Y-113856200D02*
X171493921Y-113894295D01*
X171493921Y-113894295D02*
X171570112Y-113894295D01*
X171760588Y-113360961D02*
X171951064Y-113894295D01*
X172141541Y-113360961D02*
X171951064Y-113894295D01*
X171951064Y-113894295D02*
X171874874Y-114084771D01*
X171874874Y-114084771D02*
X171836779Y-114122866D01*
X171836779Y-114122866D02*
X171760588Y-114160961D01*
X173436779Y-113894295D02*
X173055827Y-113894295D01*
X173055827Y-113894295D02*
X173055827Y-113094295D01*
X174008208Y-113856200D02*
X173932017Y-113894295D01*
X173932017Y-113894295D02*
X173779636Y-113894295D01*
X173779636Y-113894295D02*
X173703446Y-113856200D01*
X173703446Y-113856200D02*
X173665350Y-113780009D01*
X173665350Y-113780009D02*
X173665350Y-113475247D01*
X173665350Y-113475247D02*
X173703446Y-113399057D01*
X173703446Y-113399057D02*
X173779636Y-113360961D01*
X173779636Y-113360961D02*
X173932017Y-113360961D01*
X173932017Y-113360961D02*
X174008208Y-113399057D01*
X174008208Y-113399057D02*
X174046303Y-113475247D01*
X174046303Y-113475247D02*
X174046303Y-113551438D01*
X174046303Y-113551438D02*
X173665350Y-113627628D01*
X174693922Y-113856200D02*
X174617731Y-113894295D01*
X174617731Y-113894295D02*
X174465350Y-113894295D01*
X174465350Y-113894295D02*
X174389160Y-113856200D01*
X174389160Y-113856200D02*
X174351064Y-113780009D01*
X174351064Y-113780009D02*
X174351064Y-113475247D01*
X174351064Y-113475247D02*
X174389160Y-113399057D01*
X174389160Y-113399057D02*
X174465350Y-113360961D01*
X174465350Y-113360961D02*
X174617731Y-113360961D01*
X174617731Y-113360961D02*
X174693922Y-113399057D01*
X174693922Y-113399057D02*
X174732017Y-113475247D01*
X174732017Y-113475247D02*
X174732017Y-113551438D01*
X174732017Y-113551438D02*
X174351064Y-113627628D01*
X174907200Y-73761904D02*
X174954819Y-73619047D01*
X174954819Y-73619047D02*
X174954819Y-73380952D01*
X174954819Y-73380952D02*
X174907200Y-73285714D01*
X174907200Y-73285714D02*
X174859580Y-73238095D01*
X174859580Y-73238095D02*
X174764342Y-73190476D01*
X174764342Y-73190476D02*
X174669104Y-73190476D01*
X174669104Y-73190476D02*
X174573866Y-73238095D01*
X174573866Y-73238095D02*
X174526247Y-73285714D01*
X174526247Y-73285714D02*
X174478628Y-73380952D01*
X174478628Y-73380952D02*
X174431009Y-73571428D01*
X174431009Y-73571428D02*
X174383390Y-73666666D01*
X174383390Y-73666666D02*
X174335771Y-73714285D01*
X174335771Y-73714285D02*
X174240533Y-73761904D01*
X174240533Y-73761904D02*
X174145295Y-73761904D01*
X174145295Y-73761904D02*
X174050057Y-73714285D01*
X174050057Y-73714285D02*
X174002438Y-73666666D01*
X174002438Y-73666666D02*
X173954819Y-73571428D01*
X173954819Y-73571428D02*
X173954819Y-73333333D01*
X173954819Y-73333333D02*
X174002438Y-73190476D01*
X174050057Y-72809523D02*
X174002438Y-72761904D01*
X174002438Y-72761904D02*
X173954819Y-72666666D01*
X173954819Y-72666666D02*
X173954819Y-72428571D01*
X173954819Y-72428571D02*
X174002438Y-72333333D01*
X174002438Y-72333333D02*
X174050057Y-72285714D01*
X174050057Y-72285714D02*
X174145295Y-72238095D01*
X174145295Y-72238095D02*
X174240533Y-72238095D01*
X174240533Y-72238095D02*
X174383390Y-72285714D01*
X174383390Y-72285714D02*
X174954819Y-72857142D01*
X174954819Y-72857142D02*
X174954819Y-72238095D01*
X179666666Y-106454819D02*
X179666666Y-107169104D01*
X179666666Y-107169104D02*
X179619047Y-107311961D01*
X179619047Y-107311961D02*
X179523809Y-107407200D01*
X179523809Y-107407200D02*
X179380952Y-107454819D01*
X179380952Y-107454819D02*
X179285714Y-107454819D01*
X180047619Y-106454819D02*
X180666666Y-106454819D01*
X180666666Y-106454819D02*
X180333333Y-106835771D01*
X180333333Y-106835771D02*
X180476190Y-106835771D01*
X180476190Y-106835771D02*
X180571428Y-106883390D01*
X180571428Y-106883390D02*
X180619047Y-106931009D01*
X180619047Y-106931009D02*
X180666666Y-107026247D01*
X180666666Y-107026247D02*
X180666666Y-107264342D01*
X180666666Y-107264342D02*
X180619047Y-107359580D01*
X180619047Y-107359580D02*
X180571428Y-107407200D01*
X180571428Y-107407200D02*
X180476190Y-107454819D01*
X180476190Y-107454819D02*
X180190476Y-107454819D01*
X180190476Y-107454819D02*
X180095238Y-107407200D01*
X180095238Y-107407200D02*
X180047619Y-107359580D01*
X171261905Y-62454819D02*
X171261905Y-61454819D01*
X171261905Y-61454819D02*
X171500000Y-61454819D01*
X171500000Y-61454819D02*
X171642857Y-61502438D01*
X171642857Y-61502438D02*
X171738095Y-61597676D01*
X171738095Y-61597676D02*
X171785714Y-61692914D01*
X171785714Y-61692914D02*
X171833333Y-61883390D01*
X171833333Y-61883390D02*
X171833333Y-62026247D01*
X171833333Y-62026247D02*
X171785714Y-62216723D01*
X171785714Y-62216723D02*
X171738095Y-62311961D01*
X171738095Y-62311961D02*
X171642857Y-62407200D01*
X171642857Y-62407200D02*
X171500000Y-62454819D01*
X171500000Y-62454819D02*
X171261905Y-62454819D01*
X172166667Y-61454819D02*
X172785714Y-61454819D01*
X172785714Y-61454819D02*
X172452381Y-61835771D01*
X172452381Y-61835771D02*
X172595238Y-61835771D01*
X172595238Y-61835771D02*
X172690476Y-61883390D01*
X172690476Y-61883390D02*
X172738095Y-61931009D01*
X172738095Y-61931009D02*
X172785714Y-62026247D01*
X172785714Y-62026247D02*
X172785714Y-62264342D01*
X172785714Y-62264342D02*
X172738095Y-62359580D01*
X172738095Y-62359580D02*
X172690476Y-62407200D01*
X172690476Y-62407200D02*
X172595238Y-62454819D01*
X172595238Y-62454819D02*
X172309524Y-62454819D01*
X172309524Y-62454819D02*
X172214286Y-62407200D01*
X172214286Y-62407200D02*
X172166667Y-62359580D01*
D11*
X187143645Y-79201993D02*
X186667455Y-79201993D01*
X186667455Y-79201993D02*
X186667455Y-78201993D01*
X188000788Y-79201993D02*
X187429360Y-79201993D01*
X187715074Y-79201993D02*
X187715074Y-78201993D01*
X187715074Y-78201993D02*
X187619836Y-78344850D01*
X187619836Y-78344850D02*
X187524598Y-78440088D01*
X187524598Y-78440088D02*
X187429360Y-78487707D01*
D10*
X175749474Y-63610188D02*
X175749474Y-64938872D01*
X175749474Y-64938872D02*
X175827632Y-65095188D01*
X175827632Y-65095188D02*
X175905790Y-65173346D01*
X175905790Y-65173346D02*
X176062105Y-65251503D01*
X176062105Y-65251503D02*
X176374737Y-65251503D01*
X176374737Y-65251503D02*
X176531052Y-65173346D01*
X176531052Y-65173346D02*
X176609210Y-65095188D01*
X176609210Y-65095188D02*
X176687368Y-64938872D01*
X176687368Y-64938872D02*
X176687368Y-63610188D01*
X177312631Y-63610188D02*
X178328683Y-63610188D01*
X178328683Y-63610188D02*
X177781578Y-64235451D01*
X177781578Y-64235451D02*
X178016052Y-64235451D01*
X178016052Y-64235451D02*
X178172368Y-64313609D01*
X178172368Y-64313609D02*
X178250525Y-64391767D01*
X178250525Y-64391767D02*
X178328683Y-64548083D01*
X178328683Y-64548083D02*
X178328683Y-64938872D01*
X178328683Y-64938872D02*
X178250525Y-65095188D01*
X178250525Y-65095188D02*
X178172368Y-65173346D01*
X178172368Y-65173346D02*
X178016052Y-65251503D01*
X178016052Y-65251503D02*
X177547105Y-65251503D01*
X177547105Y-65251503D02*
X177390789Y-65173346D01*
X177390789Y-65173346D02*
X177312631Y-65095188D01*
X187738095Y-106907200D02*
X187880952Y-106954819D01*
X187880952Y-106954819D02*
X188119047Y-106954819D01*
X188119047Y-106954819D02*
X188214285Y-106907200D01*
X188214285Y-106907200D02*
X188261904Y-106859580D01*
X188261904Y-106859580D02*
X188309523Y-106764342D01*
X188309523Y-106764342D02*
X188309523Y-106669104D01*
X188309523Y-106669104D02*
X188261904Y-106573866D01*
X188261904Y-106573866D02*
X188214285Y-106526247D01*
X188214285Y-106526247D02*
X188119047Y-106478628D01*
X188119047Y-106478628D02*
X187928571Y-106431009D01*
X187928571Y-106431009D02*
X187833333Y-106383390D01*
X187833333Y-106383390D02*
X187785714Y-106335771D01*
X187785714Y-106335771D02*
X187738095Y-106240533D01*
X187738095Y-106240533D02*
X187738095Y-106145295D01*
X187738095Y-106145295D02*
X187785714Y-106050057D01*
X187785714Y-106050057D02*
X187833333Y-106002438D01*
X187833333Y-106002438D02*
X187928571Y-105954819D01*
X187928571Y-105954819D02*
X188166666Y-105954819D01*
X188166666Y-105954819D02*
X188309523Y-106002438D01*
X189261904Y-106954819D02*
X188690476Y-106954819D01*
X188976190Y-106954819D02*
X188976190Y-105954819D01*
X188976190Y-105954819D02*
X188880952Y-106097676D01*
X188880952Y-106097676D02*
X188785714Y-106192914D01*
X188785714Y-106192914D02*
X188690476Y-106240533D01*
X184666666Y-63954819D02*
X184666666Y-64669104D01*
X184666666Y-64669104D02*
X184619047Y-64811961D01*
X184619047Y-64811961D02*
X184523809Y-64907200D01*
X184523809Y-64907200D02*
X184380952Y-64954819D01*
X184380952Y-64954819D02*
X184285714Y-64954819D01*
X185666666Y-64954819D02*
X185095238Y-64954819D01*
X185380952Y-64954819D02*
X185380952Y-63954819D01*
X185380952Y-63954819D02*
X185285714Y-64097676D01*
X185285714Y-64097676D02*
X185190476Y-64192914D01*
X185190476Y-64192914D02*
X185095238Y-64240533D01*
X196261905Y-88454819D02*
X196261905Y-87454819D01*
X196261905Y-87454819D02*
X196500000Y-87454819D01*
X196500000Y-87454819D02*
X196642857Y-87502438D01*
X196642857Y-87502438D02*
X196738095Y-87597676D01*
X196738095Y-87597676D02*
X196785714Y-87692914D01*
X196785714Y-87692914D02*
X196833333Y-87883390D01*
X196833333Y-87883390D02*
X196833333Y-88026247D01*
X196833333Y-88026247D02*
X196785714Y-88216723D01*
X196785714Y-88216723D02*
X196738095Y-88311961D01*
X196738095Y-88311961D02*
X196642857Y-88407200D01*
X196642857Y-88407200D02*
X196500000Y-88454819D01*
X196500000Y-88454819D02*
X196261905Y-88454819D01*
X197785714Y-88454819D02*
X197214286Y-88454819D01*
X197500000Y-88454819D02*
X197500000Y-87454819D01*
X197500000Y-87454819D02*
X197404762Y-87597676D01*
X197404762Y-87597676D02*
X197309524Y-87692914D01*
X197309524Y-87692914D02*
X197214286Y-87740533D01*
X172738095Y-78454819D02*
X172738095Y-79264342D01*
X172738095Y-79264342D02*
X172785714Y-79359580D01*
X172785714Y-79359580D02*
X172833333Y-79407200D01*
X172833333Y-79407200D02*
X172928571Y-79454819D01*
X172928571Y-79454819D02*
X173119047Y-79454819D01*
X173119047Y-79454819D02*
X173214285Y-79407200D01*
X173214285Y-79407200D02*
X173261904Y-79359580D01*
X173261904Y-79359580D02*
X173309523Y-79264342D01*
X173309523Y-79264342D02*
X173309523Y-78454819D01*
X174309523Y-79454819D02*
X173738095Y-79454819D01*
X174023809Y-79454819D02*
X174023809Y-78454819D01*
X174023809Y-78454819D02*
X173928571Y-78597676D01*
X173928571Y-78597676D02*
X173833333Y-78692914D01*
X173833333Y-78692914D02*
X173738095Y-78740533D01*
X203166666Y-61554819D02*
X203166666Y-62269104D01*
X203166666Y-62269104D02*
X203119047Y-62411961D01*
X203119047Y-62411961D02*
X203023809Y-62507200D01*
X203023809Y-62507200D02*
X202880952Y-62554819D01*
X202880952Y-62554819D02*
X202785714Y-62554819D01*
X204071428Y-61888152D02*
X204071428Y-62554819D01*
X203833333Y-61507200D02*
X203595238Y-62221485D01*
X203595238Y-62221485D02*
X204214285Y-62221485D01*
X180690476Y-100454819D02*
X181357142Y-101454819D01*
X181357142Y-100454819D02*
X180690476Y-101454819D01*
X182261904Y-101454819D02*
X181690476Y-101454819D01*
X181976190Y-101454819D02*
X181976190Y-100454819D01*
X181976190Y-100454819D02*
X181880952Y-100597676D01*
X181880952Y-100597676D02*
X181785714Y-100692914D01*
X181785714Y-100692914D02*
X181690476Y-100740533D01*
X196761905Y-97604819D02*
X196761905Y-96604819D01*
X196761905Y-96604819D02*
X197000000Y-96604819D01*
X197000000Y-96604819D02*
X197142857Y-96652438D01*
X197142857Y-96652438D02*
X197238095Y-96747676D01*
X197238095Y-96747676D02*
X197285714Y-96842914D01*
X197285714Y-96842914D02*
X197333333Y-97033390D01*
X197333333Y-97033390D02*
X197333333Y-97176247D01*
X197333333Y-97176247D02*
X197285714Y-97366723D01*
X197285714Y-97366723D02*
X197238095Y-97461961D01*
X197238095Y-97461961D02*
X197142857Y-97557200D01*
X197142857Y-97557200D02*
X197000000Y-97604819D01*
X197000000Y-97604819D02*
X196761905Y-97604819D01*
X197714286Y-96700057D02*
X197761905Y-96652438D01*
X197761905Y-96652438D02*
X197857143Y-96604819D01*
X197857143Y-96604819D02*
X198095238Y-96604819D01*
X198095238Y-96604819D02*
X198190476Y-96652438D01*
X198190476Y-96652438D02*
X198238095Y-96700057D01*
X198238095Y-96700057D02*
X198285714Y-96795295D01*
X198285714Y-96795295D02*
X198285714Y-96890533D01*
X198285714Y-96890533D02*
X198238095Y-97033390D01*
X198238095Y-97033390D02*
X197666667Y-97604819D01*
X197666667Y-97604819D02*
X198285714Y-97604819D01*
X175728095Y-84954819D02*
X175728095Y-85764342D01*
X175728095Y-85764342D02*
X175775714Y-85859580D01*
X175775714Y-85859580D02*
X175823333Y-85907200D01*
X175823333Y-85907200D02*
X175918571Y-85954819D01*
X175918571Y-85954819D02*
X176109047Y-85954819D01*
X176109047Y-85954819D02*
X176204285Y-85907200D01*
X176204285Y-85907200D02*
X176251904Y-85859580D01*
X176251904Y-85859580D02*
X176299523Y-85764342D01*
X176299523Y-85764342D02*
X176299523Y-84954819D01*
X176728095Y-85050057D02*
X176775714Y-85002438D01*
X176775714Y-85002438D02*
X176870952Y-84954819D01*
X176870952Y-84954819D02*
X177109047Y-84954819D01*
X177109047Y-84954819D02*
X177204285Y-85002438D01*
X177204285Y-85002438D02*
X177251904Y-85050057D01*
X177251904Y-85050057D02*
X177299523Y-85145295D01*
X177299523Y-85145295D02*
X177299523Y-85240533D01*
X177299523Y-85240533D02*
X177251904Y-85383390D01*
X177251904Y-85383390D02*
X176680476Y-85954819D01*
X176680476Y-85954819D02*
X177299523Y-85954819D01*
X164166666Y-61574819D02*
X164166666Y-62289104D01*
X164166666Y-62289104D02*
X164119047Y-62431961D01*
X164119047Y-62431961D02*
X164023809Y-62527200D01*
X164023809Y-62527200D02*
X163880952Y-62574819D01*
X163880952Y-62574819D02*
X163785714Y-62574819D01*
X164595238Y-61670057D02*
X164642857Y-61622438D01*
X164642857Y-61622438D02*
X164738095Y-61574819D01*
X164738095Y-61574819D02*
X164976190Y-61574819D01*
X164976190Y-61574819D02*
X165071428Y-61622438D01*
X165071428Y-61622438D02*
X165119047Y-61670057D01*
X165119047Y-61670057D02*
X165166666Y-61765295D01*
X165166666Y-61765295D02*
X165166666Y-61860533D01*
X165166666Y-61860533D02*
X165119047Y-62003390D01*
X165119047Y-62003390D02*
X164547619Y-62574819D01*
X164547619Y-62574819D02*
X165166666Y-62574819D01*
D12*
%TO.C,C7*%
X188158641Y-95080000D02*
X187851359Y-95080000D01*
X188158641Y-94320000D02*
X187851359Y-94320000D01*
%TO.C,S2*%
X173100000Y-71350000D02*
X173100000Y-74650000D01*
X173100000Y-74650000D02*
X173400000Y-74650000D01*
X173400000Y-71350000D02*
X173100000Y-71350000D01*
X175600000Y-71350000D02*
X175900000Y-71350000D01*
X175900000Y-71350000D02*
X175900000Y-74650000D01*
X175900000Y-74650000D02*
X175600000Y-74650000D01*
%TO.C,C8*%
X190303641Y-89970000D02*
X189996359Y-89970000D01*
X190303641Y-90730000D02*
X189996359Y-90730000D01*
%TO.C,J3*%
X182065000Y-107745000D02*
X182065000Y-107000000D01*
X182800000Y-107745000D02*
X182065000Y-107745000D01*
X183535000Y-106255000D02*
X185410000Y-106255000D01*
X183535000Y-106314435D02*
X183535000Y-106255000D01*
X183535000Y-107745000D02*
X183535000Y-107685565D01*
X183535000Y-107745000D02*
X185410000Y-107745000D01*
X185410000Y-106589970D02*
X185410000Y-106255000D01*
X185410000Y-107745000D02*
X185410000Y-107410030D01*
%TO.C,C11*%
X187463953Y-82864574D02*
X187156671Y-82864574D01*
X187463953Y-83624574D02*
X187156671Y-83624574D01*
%TO.C,R1*%
X189603711Y-98682160D02*
X189603711Y-98989442D01*
X190363711Y-98682160D02*
X190363711Y-98989442D01*
%TO.C,C3*%
X187463641Y-81620000D02*
X187156359Y-81620000D01*
X187463641Y-82380000D02*
X187156359Y-82380000D01*
%TO.C,D3*%
X171000000Y-64960000D02*
X173685000Y-64960000D01*
X173685000Y-63040000D02*
X171000000Y-63040000D01*
X173685000Y-64960000D02*
X173685000Y-63040000D01*
%TO.C,R11*%
X194346359Y-89689181D02*
X194653641Y-89689181D01*
X194346359Y-90449181D02*
X194653641Y-90449181D01*
%TO.C,R12*%
X169620000Y-67663641D02*
X169620000Y-67356359D01*
X170380000Y-67663641D02*
X170380000Y-67356359D01*
%TO.C,C16*%
X178346359Y-70120000D02*
X178653641Y-70120000D01*
X178346359Y-70880000D02*
X178653641Y-70880000D01*
D11*
%TO.C,L1*%
X187710312Y-79444574D02*
X186910312Y-79444574D01*
X187710312Y-81044574D02*
X186910312Y-81044574D01*
D13*
X185435312Y-80244574D02*
G75*
G02*
X185185312Y-80244574I-125000J0D01*
G01*
X185185312Y-80244574D02*
G75*
G02*
X185435312Y-80244574I125000J0D01*
G01*
D12*
%TO.C,R7*%
X191604514Y-84260377D02*
X191604514Y-84567659D01*
X192364514Y-84260377D02*
X192364514Y-84567659D01*
D14*
%TO.C,U3*%
X176542800Y-69549400D02*
X177889000Y-69549400D01*
X177889000Y-66450600D02*
X176542800Y-66450600D01*
X177889000Y-67390400D02*
X177889000Y-66450600D01*
X177889000Y-69549400D02*
X177889000Y-68609600D01*
D12*
%TO.C,S1*%
X188800000Y-101340000D02*
X189100000Y-101340000D01*
X188800000Y-104640000D02*
X188800000Y-101340000D01*
X189100000Y-104640000D02*
X188800000Y-104640000D01*
X191300000Y-104640000D02*
X191600000Y-104640000D01*
X191600000Y-101340000D02*
X191300000Y-101340000D01*
X191600000Y-104640000D02*
X191600000Y-101340000D01*
D15*
%TO.C,J1*%
X180640000Y-61720000D02*
X180640000Y-63000000D01*
X180640000Y-67120000D02*
X180640000Y-65620000D01*
X189580000Y-61720000D02*
X180640000Y-61720000D01*
X189580000Y-63000000D02*
X189580000Y-61720000D01*
X189580000Y-67120000D02*
X189580000Y-65620000D01*
D12*
%TO.C,C5*%
X177996359Y-90720000D02*
X178303641Y-90720000D01*
X177996359Y-91480000D02*
X178303641Y-91480000D01*
%TO.C,C4*%
X178090669Y-85714330D02*
X178090669Y-86021612D01*
X178850669Y-85714330D02*
X178850669Y-86021612D01*
%TO.C,R4*%
X186120000Y-73346359D02*
X186120000Y-73653641D01*
X186880000Y-73346359D02*
X186880000Y-73653641D01*
%TO.C,C9*%
X189020000Y-86296359D02*
X189020000Y-86603641D01*
X189780000Y-86296359D02*
X189780000Y-86603641D01*
%TO.C,D1*%
X196500000Y-90960000D02*
X199185000Y-90960000D01*
X199185000Y-89040000D02*
X196500000Y-89040000D01*
X199185000Y-90960000D02*
X199185000Y-89040000D01*
%TO.C,R5*%
X184783562Y-77846359D02*
X184783562Y-78153641D01*
X185543562Y-77846359D02*
X185543562Y-78153641D01*
%TO.C,U1*%
X175740000Y-77315000D02*
X181960000Y-77315000D01*
X175740000Y-77510000D02*
X175740000Y-77315000D01*
X175740000Y-82535000D02*
X175740000Y-82340000D01*
X181960000Y-77315000D02*
X181960000Y-77510000D01*
X181960000Y-82340000D02*
X181960000Y-82535000D01*
X181960000Y-82535000D02*
X175740000Y-82535000D01*
X175510000Y-78015000D02*
X175180000Y-78255000D01*
X175180000Y-77775000D01*
X175510000Y-78015000D01*
G36*
X175510000Y-78015000D02*
G01*
X175180000Y-78255000D01*
X175180000Y-77775000D01*
X175510000Y-78015000D01*
G37*
%TO.C,J4*%
X202120000Y-63100000D02*
X203500000Y-63100000D01*
X202120000Y-64480000D02*
X202120000Y-63100000D01*
X202120000Y-65750000D02*
X202120000Y-114120000D01*
X202120000Y-65750000D02*
X204880000Y-65750000D01*
X202120000Y-114120000D02*
X204880000Y-114120000D01*
X204880000Y-65750000D02*
X204880000Y-114120000D01*
%TO.C,X1*%
X177750000Y-100800000D02*
X177750000Y-101200000D01*
X178700000Y-100000000D02*
X179300000Y-100000000D01*
X178700000Y-102000000D02*
X179300000Y-102000000D01*
X180250000Y-100800000D02*
X180250000Y-101200000D01*
D16*
X177355000Y-101675000D02*
G75*
G02*
X177145000Y-101675000I-105000J0D01*
G01*
X177145000Y-101675000D02*
G75*
G02*
X177355000Y-101675000I105000J0D01*
G01*
D12*
%TO.C,R2*%
X174153641Y-76065011D02*
X173846359Y-76065011D01*
X174153641Y-76825011D02*
X173846359Y-76825011D01*
%TO.C,R6*%
X183420000Y-77846359D02*
X183420000Y-78153641D01*
X184180000Y-77846359D02*
X184180000Y-78153641D01*
%TO.C,R9*%
X192346359Y-94020000D02*
X192653641Y-94020000D01*
X192346359Y-94780000D02*
X192653641Y-94780000D01*
%TO.C,C1*%
X181184161Y-75102428D02*
X181184161Y-75409710D01*
X181944161Y-75102428D02*
X181944161Y-75409710D01*
%TO.C,C6*%
X182070000Y-95353641D02*
X182070000Y-95046359D01*
X182830000Y-95353641D02*
X182830000Y-95046359D01*
%TO.C,C15*%
X190453641Y-88920000D02*
X190146359Y-88920000D01*
X190453641Y-89680000D02*
X190146359Y-89680000D01*
D10*
%TO.C,D2*%
X196500000Y-94650000D02*
X198500000Y-94650000D01*
X196500000Y-96150000D02*
X198500000Y-96150000D01*
X195575000Y-95400000D02*
G75*
G02*
X195425000Y-95400000I-75000J0D01*
G01*
X195425000Y-95400000D02*
G75*
G02*
X195575000Y-95400000I75000J0D01*
G01*
D12*
%TO.C,C10*%
X183420000Y-83646359D02*
X183420000Y-83953641D01*
X184180000Y-83646359D02*
X184180000Y-83953641D01*
%TO.C,U2*%
X180490000Y-86000000D02*
X180490000Y-86500000D01*
X180490000Y-86000000D02*
X180990000Y-86000000D01*
X180490000Y-93000000D02*
X180490000Y-92500000D01*
X180990000Y-93000000D02*
X180490000Y-93000000D01*
X186990000Y-86000000D02*
X187490000Y-86000000D01*
X186990000Y-93000000D02*
X187490000Y-93000000D01*
X187490000Y-86000000D02*
X187490000Y-86500000D01*
X187490000Y-93000000D02*
X187490000Y-92500000D01*
D17*
X180208624Y-85537600D02*
G75*
G02*
X179925872Y-85537600I-141376J0D01*
G01*
X179925872Y-85537600D02*
G75*
G02*
X180208624Y-85537600I141376J0D01*
G01*
D12*
%TO.C,C2*%
X175996359Y-99970000D02*
X176303641Y-99970000D01*
X175996359Y-100730000D02*
X176303641Y-100730000D01*
%TO.C,R3*%
X181194729Y-72346359D02*
X181194729Y-72653641D01*
X181954729Y-72346359D02*
X181954729Y-72653641D01*
%TO.C,C14*%
X183420000Y-96453641D02*
X183420000Y-96146359D01*
X184180000Y-96453641D02*
X184180000Y-96146359D01*
%TO.C,R8*%
X192342760Y-95433872D02*
X192650042Y-95433872D01*
X192342760Y-96193872D02*
X192650042Y-96193872D01*
%TO.C,C12*%
X190020000Y-84563641D02*
X190020000Y-84256359D01*
X190780000Y-84563641D02*
X190780000Y-84256359D01*
%TO.C,J2*%
X163120000Y-63120000D02*
X164500000Y-63120000D01*
X163120000Y-64500000D02*
X163120000Y-63120000D01*
X163120000Y-65770000D02*
X163120000Y-114140000D01*
X163120000Y-65770000D02*
X165880000Y-65770000D01*
X163120000Y-114140000D02*
X165880000Y-114140000D01*
X165880000Y-65770000D02*
X165880000Y-114140000D01*
%TO.C,C13*%
X176896359Y-88470000D02*
X177203641Y-88470000D01*
X176896359Y-89230000D02*
X177203641Y-89230000D01*
%TO.C,R10*%
X192390621Y-92649767D02*
X192697903Y-92649767D01*
X192390621Y-93409767D02*
X192697903Y-93409767D01*
%TO.C,C17*%
X173620000Y-67655647D02*
X173620000Y-67348365D01*
X174380000Y-67655647D02*
X174380000Y-67348365D01*
%TD*%
M02*
