%TF.GenerationSoftware,KiCad,Pcbnew,9.0.7*%
%TF.CreationDate,2026-03-09T23:45:54-04:00*%
%TF.ProjectId,RP2350Adev,52503233-3530-4416-9465-762e6b696361,rev?*%
%TF.SameCoordinates,Original*%
%TF.FileFunction,Paste,Top*%
%TF.FilePolarity,Positive*%
%FSLAX46Y46*%
G04 Gerber Fmt 4.6, Leading zero omitted, Abs format (unit mm)*
G04 Created by KiCad (PCBNEW 9.0.7) date 2026-03-09 23:45:54*
%MOMM*%
%LPD*%
G01*
G04 APERTURE LIST*
G04 Aperture macros list*
%AMRoundRect*
0 Rectangle with rounded corners*
0 $1 Rounding radius*
0 $2 $3 $4 $5 $6 $7 $8 $9 X,Y pos of 4 corners*
0 Add a 4 corners polygon primitive as box body*
4,1,4,$2,$3,$4,$5,$6,$7,$8,$9,$2,$3,0*
0 Add four circle primitives for the rounded corners*
1,1,$1+$1,$2,$3*
1,1,$1+$1,$4,$5*
1,1,$1+$1,$6,$7*
1,1,$1+$1,$8,$9*
0 Add four rect primitives between the rounded corners*
20,1,$1+$1,$2,$3,$4,$5,0*
20,1,$1+$1,$4,$5,$6,$7,0*
20,1,$1+$1,$6,$7,$8,$9,0*
20,1,$1+$1,$8,$9,$2,$3,0*%
G04 Aperture macros list end*
%ADD10C,0.100000*%
%ADD11RoundRect,0.135000X0.135000X0.185000X-0.135000X0.185000X-0.135000X-0.185000X0.135000X-0.185000X0*%
%ADD12R,1.700000X0.900000*%
%ADD13RoundRect,0.135000X-0.185000X0.135000X-0.185000X-0.135000X0.185000X-0.135000X0.185000X0.135000X0*%
%ADD14RoundRect,0.243750X0.243750X0.456250X-0.243750X0.456250X-0.243750X-0.456250X0.243750X-0.456250X0*%
%ADD15RoundRect,0.135000X-0.135000X-0.185000X0.135000X-0.185000X0.135000X0.185000X-0.135000X0.185000X0*%
%ADD16RoundRect,0.135000X0.185000X-0.135000X0.185000X0.135000X-0.185000X0.135000X-0.185000X-0.135000X0*%
%ADD17R,1.000000X1.600000*%
%ADD18R,1.320800X0.558800*%
%ADD19R,0.580000X1.150000*%
%ADD20R,0.280000X1.150000*%
%ADD21RoundRect,0.250000X-0.435000X-0.615000X0.435000X-0.615000X0.435000X0.615000X-0.435000X0.615000X0*%
%ADD22RoundRect,0.125000X-0.250000X-0.125000X0.250000X-0.125000X0.250000X0.125000X-0.250000X0.125000X0*%
%ADD23RoundRect,0.212500X-0.287500X-0.212500X0.287500X-0.212500X0.287500X0.212500X-0.287500X0.212500X0*%
%ADD24R,1.000000X0.500000*%
%ADD25R,0.875000X0.180000*%
%ADD26R,0.180000X0.875000*%
G04 APERTURE END LIST*
%TO.C,U2*%
D10*
X182390000Y-87900000D02*
X183790000Y-87900000D01*
X183790000Y-89300000D01*
X182390000Y-89300000D01*
X182390000Y-87900000D01*
G36*
X182390000Y-87900000D02*
G01*
X183790000Y-87900000D01*
X183790000Y-89300000D01*
X182390000Y-89300000D01*
X182390000Y-87900000D01*
G37*
X182390000Y-89700000D02*
X183790000Y-89700000D01*
X183790000Y-91100000D01*
X182390000Y-91100000D01*
X182390000Y-89700000D01*
G36*
X182390000Y-89700000D02*
G01*
X183790000Y-89700000D01*
X183790000Y-91100000D01*
X182390000Y-91100000D01*
X182390000Y-89700000D01*
G37*
X184190000Y-87900000D02*
X185590000Y-87900000D01*
X185590000Y-89300000D01*
X184190000Y-89300000D01*
X184190000Y-87900000D01*
G36*
X184190000Y-87900000D02*
G01*
X185590000Y-87900000D01*
X185590000Y-89300000D01*
X184190000Y-89300000D01*
X184190000Y-87900000D01*
G37*
X184190000Y-89700000D02*
X185590000Y-89700000D01*
X185590000Y-91100000D01*
X184190000Y-91100000D01*
X184190000Y-89700000D01*
G36*
X184190000Y-89700000D02*
G01*
X185590000Y-89700000D01*
X185590000Y-91100000D01*
X184190000Y-91100000D01*
X184190000Y-89700000D01*
G37*
%TD*%
D11*
%TO.C,C7*%
X187495000Y-94700000D03*
X188515000Y-94700000D03*
%TD*%
D12*
%TO.C,S2*%
X174500000Y-71300000D03*
X174500000Y-74700000D03*
%TD*%
D11*
%TO.C,C8*%
X190660000Y-90350000D03*
X189640000Y-90350000D03*
%TD*%
%TO.C,C11*%
X187820312Y-83244574D03*
X186800312Y-83244574D03*
%TD*%
D13*
%TO.C,R1*%
X189983711Y-98325801D03*
X189983711Y-99345801D03*
%TD*%
D11*
%TO.C,C3*%
X187820000Y-82000000D03*
X186800000Y-82000000D03*
%TD*%
D14*
%TO.C,D3*%
X172937500Y-64000000D03*
X171062500Y-64000000D03*
%TD*%
D15*
%TO.C,R11*%
X193990000Y-90069181D03*
X195010000Y-90069181D03*
%TD*%
D16*
%TO.C,R12*%
X170000000Y-68020000D03*
X170000000Y-67000000D03*
%TD*%
D15*
%TO.C,C16*%
X177990000Y-70500000D03*
X179010000Y-70500000D03*
%TD*%
D17*
%TO.C,L1*%
X186310312Y-80244574D03*
X188310312Y-80244574D03*
%TD*%
D13*
%TO.C,R7*%
X191984514Y-83904018D03*
X191984514Y-84924018D03*
%TD*%
D18*
%TO.C,U3*%
X175806200Y-67060200D03*
X175806200Y-68939800D03*
X178193800Y-68000000D03*
%TD*%
D12*
%TO.C,S1*%
X190200000Y-104690000D03*
X190200000Y-101290000D03*
%TD*%
D19*
%TO.C,J1*%
X188310000Y-69075000D03*
X187510000Y-69075000D03*
D20*
X186360000Y-69075000D03*
X185360000Y-69075000D03*
X184860000Y-69075000D03*
X183860000Y-69075000D03*
D19*
X181910000Y-69075000D03*
X182710000Y-69075000D03*
D20*
X183360000Y-69075000D03*
X184360000Y-69075000D03*
X185860000Y-69075000D03*
X186860000Y-69075000D03*
%TD*%
D15*
%TO.C,C5*%
X177640000Y-91100000D03*
X178660000Y-91100000D03*
%TD*%
D13*
%TO.C,C4*%
X178470669Y-85357971D03*
X178470669Y-86377971D03*
%TD*%
%TO.C,R4*%
X186500000Y-72990000D03*
X186500000Y-74010000D03*
%TD*%
%TO.C,C9*%
X189400000Y-85940000D03*
X189400000Y-86960000D03*
%TD*%
D14*
%TO.C,D1*%
X198437500Y-90000000D03*
X196562500Y-90000000D03*
%TD*%
D13*
%TO.C,R5*%
X185163562Y-77490000D03*
X185163562Y-78510000D03*
%TD*%
D21*
%TO.C,U1*%
X178000000Y-78850000D03*
X178000000Y-81000000D03*
X179700000Y-78850000D03*
X179700000Y-81000000D03*
D22*
X176150000Y-78020000D03*
X176150000Y-79290000D03*
X176150000Y-80560000D03*
X176150000Y-81830000D03*
X181550000Y-81830000D03*
X181550000Y-80560000D03*
X181550000Y-79290000D03*
X181550000Y-78020000D03*
%TD*%
D23*
%TO.C,X1*%
X178150000Y-101675000D03*
X179850000Y-101675000D03*
X179850000Y-100325000D03*
X178150000Y-100325000D03*
%TD*%
D11*
%TO.C,R2*%
X174510000Y-76445011D03*
X173490000Y-76445011D03*
%TD*%
D13*
%TO.C,R6*%
X183800000Y-77490000D03*
X183800000Y-78510000D03*
%TD*%
D15*
%TO.C,R9*%
X191990000Y-94400000D03*
X193010000Y-94400000D03*
%TD*%
D13*
%TO.C,C1*%
X181564161Y-74746069D03*
X181564161Y-75766069D03*
%TD*%
D16*
%TO.C,C6*%
X182450000Y-95710000D03*
X182450000Y-94690000D03*
%TD*%
D11*
%TO.C,C15*%
X190810000Y-89300000D03*
X189790000Y-89300000D03*
%TD*%
D24*
%TO.C,D2*%
X196450000Y-95000000D03*
X198550000Y-95000000D03*
X196450000Y-95800000D03*
X198550000Y-95800000D03*
%TD*%
D13*
%TO.C,C10*%
X183800000Y-83290000D03*
X183800000Y-84310000D03*
%TD*%
D25*
%TO.C,U2*%
X180490000Y-86700000D03*
X180490000Y-87100000D03*
X180490000Y-87500000D03*
X180490000Y-87900000D03*
X180490000Y-88300000D03*
X180490000Y-88700000D03*
X180490000Y-89100000D03*
X180490000Y-89500000D03*
X180490000Y-89900000D03*
X180490000Y-90300000D03*
X180490000Y-90700000D03*
X180490000Y-91100000D03*
X180490000Y-91500000D03*
X180490000Y-91900000D03*
X180490000Y-92300000D03*
D26*
X181190000Y-93000000D03*
X181590000Y-93000000D03*
X181990000Y-93000000D03*
X182390000Y-93000000D03*
X182790000Y-93000000D03*
X183190000Y-93000000D03*
X183590000Y-93000000D03*
X183990000Y-93000000D03*
X184390000Y-93000000D03*
X184790000Y-93000000D03*
X185190000Y-93000000D03*
X185590000Y-93000000D03*
X185990000Y-93000000D03*
X186390000Y-93000000D03*
X186790000Y-93000000D03*
D25*
X187490000Y-92300000D03*
X187490000Y-91900000D03*
X187490000Y-91500000D03*
X187490000Y-91100000D03*
X187490000Y-90700000D03*
X187490000Y-90300000D03*
X187490000Y-89900000D03*
X187490000Y-89500000D03*
X187490000Y-89100000D03*
X187490000Y-88700000D03*
X187490000Y-88300000D03*
X187490000Y-87900000D03*
X187490000Y-87500000D03*
X187490000Y-87100000D03*
X187490000Y-86700000D03*
D26*
X186790000Y-86000000D03*
X186390000Y-86000000D03*
X185990000Y-86000000D03*
X185590000Y-86000000D03*
X185190000Y-86000000D03*
X184790000Y-86000000D03*
X184390000Y-86000000D03*
X183990000Y-86000000D03*
X183590000Y-86000000D03*
X183190000Y-86000000D03*
X182790000Y-86000000D03*
X182390000Y-86000000D03*
X181990000Y-86000000D03*
X181590000Y-86000000D03*
X181190000Y-86000000D03*
%TD*%
D15*
%TO.C,C2*%
X175640000Y-100350000D03*
X176660000Y-100350000D03*
%TD*%
D13*
%TO.C,R3*%
X181574729Y-71990000D03*
X181574729Y-73010000D03*
%TD*%
D16*
%TO.C,C14*%
X183800000Y-96810000D03*
X183800000Y-95790000D03*
%TD*%
D15*
%TO.C,R8*%
X191986401Y-95813872D03*
X193006401Y-95813872D03*
%TD*%
D16*
%TO.C,C12*%
X190400000Y-84920000D03*
X190400000Y-83900000D03*
%TD*%
D15*
%TO.C,C13*%
X176540000Y-88850000D03*
X177560000Y-88850000D03*
%TD*%
%TO.C,R10*%
X192034262Y-93029767D03*
X193054262Y-93029767D03*
%TD*%
D16*
%TO.C,C17*%
X174000000Y-68012006D03*
X174000000Y-66992006D03*
%TD*%
M02*
