%TF.GenerationSoftware,KiCad,Pcbnew,9.0.7*%
%TF.CreationDate,2026-03-09T23:45:54-04:00*%
%TF.ProjectId,RP2350Adev,52503233-3530-4416-9465-762e6b696361,rev?*%
%TF.SameCoordinates,Original*%
%TF.FileFunction,Copper,L1,Top*%
%TF.FilePolarity,Positive*%
%FSLAX46Y46*%
G04 Gerber Fmt 4.6, Leading zero omitted, Abs format (unit mm)*
G04 Created by KiCad (PCBNEW 9.0.7) date 2026-03-09 23:45:54*
%MOMM*%
%LPD*%
G01*
G04 APERTURE LIST*
G04 Aperture macros list*
%AMRoundRect*
0 Rectangle with rounded corners*
0 $1 Rounding radius*
0 $2 $3 $4 $5 $6 $7 $8 $9 X,Y pos of 4 corners*
0 Add a 4 corners polygon primitive as box body*
4,1,4,$2,$3,$4,$5,$6,$7,$8,$9,$2,$3,0*
0 Add four circle primitives for the rounded corners*
1,1,$1+$1,$2,$3*
1,1,$1+$1,$4,$5*
1,1,$1+$1,$6,$7*
1,1,$1+$1,$8,$9*
0 Add four rect primitives between the rounded corners*
20,1,$1+$1,$2,$3,$4,$5,0*
20,1,$1+$1,$4,$5,$6,$7,0*
20,1,$1+$1,$6,$7,$8,$9,0*
20,1,$1+$1,$8,$9,$2,$3,0*%
G04 Aperture macros list end*
%TA.AperFunction,SMDPad,CuDef*%
%ADD10RoundRect,0.135000X0.135000X0.185000X-0.135000X0.185000X-0.135000X-0.185000X0.135000X-0.185000X0*%
%TD*%
%TA.AperFunction,SMDPad,CuDef*%
%ADD11R,1.700000X0.900000*%
%TD*%
%TA.AperFunction,ComponentPad*%
%ADD12R,0.850000X0.850000*%
%TD*%
%TA.AperFunction,ComponentPad*%
%ADD13C,0.850000*%
%TD*%
%TA.AperFunction,SMDPad,CuDef*%
%ADD14RoundRect,0.135000X-0.185000X0.135000X-0.185000X-0.135000X0.185000X-0.135000X0.185000X0.135000X0*%
%TD*%
%TA.AperFunction,SMDPad,CuDef*%
%ADD15RoundRect,0.243750X0.243750X0.456250X-0.243750X0.456250X-0.243750X-0.456250X0.243750X-0.456250X0*%
%TD*%
%TA.AperFunction,SMDPad,CuDef*%
%ADD16RoundRect,0.135000X-0.135000X-0.185000X0.135000X-0.185000X0.135000X0.185000X-0.135000X0.185000X0*%
%TD*%
%TA.AperFunction,SMDPad,CuDef*%
%ADD17RoundRect,0.135000X0.185000X-0.135000X0.185000X0.135000X-0.185000X0.135000X-0.185000X-0.135000X0*%
%TD*%
%TA.AperFunction,SMDPad,CuDef*%
%ADD18R,1.000000X1.600000*%
%TD*%
%TA.AperFunction,SMDPad,CuDef*%
%ADD19R,1.320800X0.558800*%
%TD*%
%TA.AperFunction,SMDPad,CuDef*%
%ADD20R,0.580000X1.150000*%
%TD*%
%TA.AperFunction,SMDPad,CuDef*%
%ADD21R,0.280000X1.150000*%
%TD*%
%TA.AperFunction,ComponentPad*%
%ADD22O,1.050000X2.100000*%
%TD*%
%TA.AperFunction,ComponentPad*%
%ADD23O,1.000000X2.000000*%
%TD*%
%TA.AperFunction,SMDPad,CuDef*%
%ADD24RoundRect,0.125000X-0.250000X-0.125000X0.250000X-0.125000X0.250000X0.125000X-0.250000X0.125000X0*%
%TD*%
%TA.AperFunction,HeatsinkPad*%
%ADD25R,3.400000X4.300000*%
%TD*%
%TA.AperFunction,ComponentPad*%
%ADD26R,1.700000X1.700000*%
%TD*%
%TA.AperFunction,ComponentPad*%
%ADD27C,1.700000*%
%TD*%
%TA.AperFunction,SMDPad,CuDef*%
%ADD28RoundRect,0.212500X-0.287500X-0.212500X0.287500X-0.212500X0.287500X0.212500X-0.287500X0.212500X0*%
%TD*%
%TA.AperFunction,SMDPad,CuDef*%
%ADD29R,1.000000X0.500000*%
%TD*%
%TA.AperFunction,SMDPad,CuDef*%
%ADD30R,0.875000X0.180000*%
%TD*%
%TA.AperFunction,SMDPad,CuDef*%
%ADD31R,0.180000X0.875000*%
%TD*%
%TA.AperFunction,SMDPad,CuDef*%
%ADD32R,3.400000X3.400000*%
%TD*%
%TA.AperFunction,ViaPad*%
%ADD33C,0.609600*%
%TD*%
%TA.AperFunction,Conductor*%
%ADD34C,0.152400*%
%TD*%
%TA.AperFunction,Conductor*%
%ADD35C,0.304800*%
%TD*%
%TA.AperFunction,Conductor*%
%ADD36C,0.508000*%
%TD*%
G04 APERTURE END LIST*
D10*
%TO.P,C7,2*%
%TO.N,+3V3*%
X187495000Y-94700000D03*
%TO.P,C7,1*%
%TO.N,GND*%
X188515000Y-94700000D03*
%TD*%
D11*
%TO.P,S2,1,1*%
%TO.N,GND*%
X174500000Y-71300000D03*
%TO.P,S2,2,2*%
%TO.N,/BOOT*%
X174500000Y-74700000D03*
%TD*%
D10*
%TO.P,C8,1*%
%TO.N,GND*%
X190660000Y-90350000D03*
%TO.P,C8,2*%
%TO.N,+3V3*%
X189640000Y-90350000D03*
%TD*%
D12*
%TO.P,J3,1,Pin_1*%
%TO.N,/SWCLK*%
X182800000Y-107000000D03*
D13*
%TO.P,J3,2,Pin_2*%
%TO.N,GND*%
X183800000Y-107000000D03*
%TO.P,J3,3,Pin_3*%
%TO.N,/SWDIO*%
X184800000Y-107000000D03*
%TD*%
D10*
%TO.P,C11,1*%
%TO.N,GND*%
X187820312Y-83244574D03*
%TO.P,C11,2*%
%TO.N,+3V3*%
X186800312Y-83244574D03*
%TD*%
D14*
%TO.P,R1,1*%
%TO.N,+3V3*%
X189983711Y-98325801D03*
%TO.P,R1,2*%
%TO.N,/RUN*%
X189983711Y-99345801D03*
%TD*%
D10*
%TO.P,C3,1*%
%TO.N,GND*%
X187820000Y-82000000D03*
%TO.P,C3,2*%
%TO.N,+1V1*%
X186800000Y-82000000D03*
%TD*%
D15*
%TO.P,D3,1,K*%
%TO.N,GND*%
X172937500Y-64000000D03*
%TO.P,D3,2,A*%
%TO.N,Net-(D3-A)*%
X171062500Y-64000000D03*
%TD*%
D16*
%TO.P,R11,1*%
%TO.N,/GPIO25*%
X193990000Y-90069181D03*
%TO.P,R11,2*%
%TO.N,Net-(D1-A)*%
X195010000Y-90069181D03*
%TD*%
D17*
%TO.P,R12,1*%
%TO.N,+3V3*%
X170000000Y-68020000D03*
%TO.P,R12,2*%
%TO.N,Net-(D3-A)*%
X170000000Y-67000000D03*
%TD*%
D16*
%TO.P,C16,1*%
%TO.N,GND*%
X177990000Y-70500000D03*
%TO.P,C16,2*%
%TO.N,+5V*%
X179010000Y-70500000D03*
%TD*%
D18*
%TO.P,L1,1*%
%TO.N,+1V1*%
X186310312Y-80244574D03*
%TO.P,L1,2*%
%TO.N,Net-(U2-VREG_LX)*%
X188310312Y-80244574D03*
%TD*%
D14*
%TO.P,R7,1*%
%TO.N,Net-(U2-VREG_AVDD)*%
X191984514Y-83904018D03*
%TO.P,R7,2*%
%TO.N,+3V3*%
X191984514Y-84924018D03*
%TD*%
D19*
%TO.P,U3,1,GND*%
%TO.N,GND*%
X175806200Y-67060200D03*
%TO.P,U3,2,VOUT*%
%TO.N,+3V3*%
X175806200Y-68939800D03*
%TO.P,U3,3,VIN*%
%TO.N,+5V*%
X178193800Y-68000000D03*
%TD*%
D11*
%TO.P,S1,1,1*%
%TO.N,GND*%
X190200000Y-104690000D03*
%TO.P,S1,2,2*%
%TO.N,/RUN*%
X190200000Y-101290000D03*
%TD*%
D20*
%TO.P,J1,A1B12,GND*%
%TO.N,GND*%
X188310000Y-69075000D03*
%TO.P,J1,A4B9,VBUS*%
%TO.N,+5V*%
X187510000Y-69075000D03*
D21*
%TO.P,J1,A5,CC1*%
%TO.N,Net-(J1-CC1)*%
X186360000Y-69075000D03*
%TO.P,J1,A6,D+*%
%TO.N,Net-(J1-D+-PadA6)*%
X185360000Y-69075000D03*
%TO.P,J1,A7,D-*%
%TO.N,Net-(J1-D--PadA7)*%
X184860000Y-69075000D03*
%TO.P,J1,A8,SBU1*%
%TO.N,unconnected-(J1-SBU1-PadA8)*%
X183860000Y-69075000D03*
D20*
%TO.P,J1,B1A12,GND*%
%TO.N,GND*%
X181910000Y-69075000D03*
%TO.P,J1,B4A9,VBUS*%
%TO.N,+5V*%
X182710000Y-69075000D03*
D21*
%TO.P,J1,B5,CC2*%
%TO.N,Net-(J1-CC2)*%
X183360000Y-69075000D03*
%TO.P,J1,B6,D+*%
%TO.N,Net-(J1-D+-PadA6)*%
X184360000Y-69075000D03*
%TO.P,J1,B7,D-*%
%TO.N,Net-(J1-D--PadA7)*%
X185860000Y-69075000D03*
%TO.P,J1,B8,SBU2*%
%TO.N,unconnected-(J1-SBU2-PadB8)*%
X186860000Y-69075000D03*
D22*
%TO.P,J1,S1,SHELL*%
%TO.N,GND*%
X189430000Y-68500000D03*
D23*
%TO.P,J1,S2,SHELL*%
X189430000Y-64320000D03*
%TO.P,J1,S3,SHELL*%
X180790000Y-64320000D03*
D22*
%TO.P,J1,S4,SHELL*%
X180790000Y-68500000D03*
%TD*%
D16*
%TO.P,C5,1*%
%TO.N,GND*%
X177640000Y-91100000D03*
%TO.P,C5,2*%
%TO.N,+3V3*%
X178660000Y-91100000D03*
%TD*%
D14*
%TO.P,C4,1*%
%TO.N,GND*%
X178470669Y-85357971D03*
%TO.P,C4,2*%
%TO.N,+3V3*%
X178470669Y-86377971D03*
%TD*%
%TO.P,R4,1*%
%TO.N,Net-(J1-CC1)*%
X186500000Y-72990000D03*
%TO.P,R4,2*%
%TO.N,GND*%
X186500000Y-74010000D03*
%TD*%
%TO.P,C9,1*%
%TO.N,GND*%
X189400000Y-85940000D03*
%TO.P,C9,2*%
%TO.N,+3V3*%
X189400000Y-86960000D03*
%TD*%
D15*
%TO.P,D1,1,K*%
%TO.N,GND*%
X198437500Y-90000000D03*
%TO.P,D1,2,A*%
%TO.N,Net-(D1-A)*%
X196562500Y-90000000D03*
%TD*%
D14*
%TO.P,R5,1*%
%TO.N,Net-(J1-D--PadA7)*%
X185163562Y-77490000D03*
%TO.P,R5,2*%
%TO.N,Net-(U2-USB_D-)*%
X185163562Y-78510000D03*
%TD*%
D24*
%TO.P,U1,1,~{CS}*%
%TO.N,/BOOT*%
X176150000Y-78020000D03*
%TO.P,U1,2,DO/IO1*%
%TO.N,Net-(U1-DO{slash}IO1)*%
X176150000Y-79290000D03*
%TO.P,U1,3,~{WP}/IO2*%
%TO.N,Net-(U1-~{WP}{slash}IO2)*%
X176150000Y-80560000D03*
%TO.P,U1,4,GND*%
%TO.N,GND*%
X176150000Y-81830000D03*
%TO.P,U1,5,DI/IO0*%
%TO.N,Net-(U1-DI{slash}IO0)*%
X181550000Y-81830000D03*
%TO.P,U1,6,SCK*%
%TO.N,Net-(U1-SCK)*%
X181550000Y-80560000D03*
%TO.P,U1,7,~{HOLD}/IO3*%
%TO.N,Net-(U1-~{HOLD}{slash}IO3)*%
X181550000Y-79290000D03*
%TO.P,U1,8,VDD*%
%TO.N,+3V3*%
X181550000Y-78020000D03*
D25*
%TO.P,U1,9,EP*%
%TO.N,GND*%
X178850000Y-79925000D03*
%TD*%
D26*
%TO.P,J4,1,Pin_1*%
%TO.N,+5V*%
X203500000Y-64480000D03*
D27*
%TO.P,J4,2,Pin_2*%
%TO.N,GND*%
X203500000Y-67020000D03*
%TO.P,J4,3,Pin_3*%
%TO.N,+3V3*%
X203500000Y-69560000D03*
%TO.P,J4,4,Pin_4*%
%TO.N,/BOOT*%
X203500000Y-72100000D03*
%TO.P,J4,5,Pin_5*%
%TO.N,/GPIO29*%
X203500000Y-74640000D03*
%TO.P,J4,6,Pin_6*%
%TO.N,/GPIO28*%
X203500000Y-77180000D03*
%TO.P,J4,7,Pin_7*%
%TO.N,/GPIO27*%
X203500000Y-79720000D03*
%TO.P,J4,8,Pin_8*%
%TO.N,GND*%
X203500000Y-82260000D03*
%TO.P,J4,9,Pin_9*%
%TO.N,/GPIO26*%
X203500000Y-84800000D03*
%TO.P,J4,10,Pin_10*%
%TO.N,/GPIO23*%
X203500000Y-87340000D03*
%TO.P,J4,11,Pin_11*%
%TO.N,/RUN*%
X203500000Y-89880000D03*
%TO.P,J4,12,Pin_12*%
%TO.N,/GPIO22*%
X203500000Y-92420000D03*
%TO.P,J4,13,Pin_13*%
%TO.N,GND*%
X203500000Y-94960000D03*
%TO.P,J4,14,Pin_14*%
%TO.N,/GPIO21*%
X203500000Y-97500000D03*
%TO.P,J4,15,Pin_15*%
%TO.N,/GPIO20*%
X203500000Y-100040000D03*
%TO.P,J4,16,Pin_16*%
%TO.N,/GPIO19*%
X203500000Y-102580000D03*
%TO.P,J4,17,Pin_17*%
%TO.N,/GPIO18*%
X203500000Y-105120000D03*
%TO.P,J4,18,Pin_18*%
%TO.N,GND*%
X203500000Y-107660000D03*
%TO.P,J4,19,Pin_19*%
%TO.N,/GPIO17*%
X203500000Y-110200000D03*
%TO.P,J4,20,Pin_20*%
%TO.N,/GPIO16*%
X203500000Y-112740000D03*
%TD*%
D28*
%TO.P,X1,1,ENA*%
%TO.N,unconnected-(X1-ENA-Pad1)*%
X178150000Y-101675000D03*
%TO.P,X1,2,GND*%
%TO.N,GND*%
X179850000Y-101675000D03*
%TO.P,X1,3,OUT*%
%TO.N,Net-(U2-XIN)*%
X179850000Y-100325000D03*
%TO.P,X1,4,VS*%
%TO.N,+3V3*%
X178150000Y-100325000D03*
%TD*%
D10*
%TO.P,R2,1*%
%TO.N,+3V3*%
X174510000Y-76445011D03*
%TO.P,R2,2*%
%TO.N,/BOOT*%
X173490000Y-76445011D03*
%TD*%
D14*
%TO.P,R6,1*%
%TO.N,Net-(J1-D+-PadA6)*%
X183800000Y-77490000D03*
%TO.P,R6,2*%
%TO.N,Net-(U2-USB_D+)*%
X183800000Y-78510000D03*
%TD*%
D16*
%TO.P,R9,1*%
%TO.N,/GPIO23*%
X191990000Y-94400000D03*
%TO.P,R9,2*%
%TO.N,Net-(D2-Pad2)*%
X193010000Y-94400000D03*
%TD*%
D14*
%TO.P,C1,1*%
%TO.N,GND*%
X181564161Y-74746069D03*
%TO.P,C1,2*%
%TO.N,+3V3*%
X181564161Y-75766069D03*
%TD*%
D17*
%TO.P,C6,1*%
%TO.N,GND*%
X182450000Y-95710000D03*
%TO.P,C6,2*%
%TO.N,+3V3*%
X182450000Y-94690000D03*
%TD*%
D10*
%TO.P,C15,1*%
%TO.N,GND*%
X190810000Y-89300000D03*
%TO.P,C15,2*%
%TO.N,+1V1*%
X189790000Y-89300000D03*
%TD*%
D29*
%TO.P,D2,1*%
%TO.N,Net-(D2-Pad1)*%
X196450000Y-95000000D03*
%TO.P,D2,2*%
%TO.N,Net-(D2-Pad2)*%
X198550000Y-95000000D03*
%TO.P,D2,3*%
%TO.N,+3V3*%
X196450000Y-95800000D03*
%TO.P,D2,4*%
%TO.N,Net-(D2-Pad4)*%
X198550000Y-95800000D03*
%TD*%
D14*
%TO.P,C10,1*%
%TO.N,GND*%
X183800000Y-83290000D03*
%TO.P,C10,2*%
%TO.N,+3V3*%
X183800000Y-84310000D03*
%TD*%
D30*
%TO.P,U2,1,IOVDD*%
%TO.N,+3V3*%
X180490000Y-86700000D03*
%TO.P,U2,2,GPIO0*%
%TO.N,/GPIO0*%
X180490000Y-87100000D03*
%TO.P,U2,3,GPIO1*%
%TO.N,/GPIO1*%
X180490000Y-87500000D03*
%TO.P,U2,4,GPIO2*%
%TO.N,/GPIO2*%
X180490000Y-87900000D03*
%TO.P,U2,5,GPIO3*%
%TO.N,/GPIO3*%
X180490000Y-88300000D03*
%TO.P,U2,6,DVDD*%
%TO.N,+1V1*%
X180490000Y-88700000D03*
%TO.P,U2,7,GPIO4*%
%TO.N,/GPIO4*%
X180490000Y-89100000D03*
%TO.P,U2,8,GPIO5*%
%TO.N,/GPIO5*%
X180490000Y-89500000D03*
%TO.P,U2,9,GPIO6*%
%TO.N,/GPIO6*%
X180490000Y-89900000D03*
%TO.P,U2,10,GPIO7*%
%TO.N,/GPIO7*%
X180490000Y-90300000D03*
%TO.P,U2,11,IOVDD*%
%TO.N,+3V3*%
X180490000Y-90700000D03*
%TO.P,U2,12,GPIO8*%
%TO.N,/GPIO8*%
X180490000Y-91100000D03*
%TO.P,U2,13,GPIO9*%
%TO.N,/GPIO9*%
X180490000Y-91500000D03*
%TO.P,U2,14,GPIO10*%
%TO.N,/GPIO10*%
X180490000Y-91900000D03*
%TO.P,U2,15,GPIO11*%
%TO.N,/GPIO11*%
X180490000Y-92300000D03*
D31*
%TO.P,U2,16,GPIO12*%
%TO.N,/GPIO12*%
X181190000Y-93000000D03*
%TO.P,U2,17,GPIO13*%
%TO.N,/GPIO13*%
X181590000Y-93000000D03*
%TO.P,U2,18,GPIO14*%
%TO.N,/GPIO14*%
X181990000Y-93000000D03*
%TO.P,U2,19,GPIO15*%
%TO.N,/GPIO15*%
X182390000Y-93000000D03*
%TO.P,U2,20,IOVDD*%
%TO.N,+3V3*%
X182790000Y-93000000D03*
%TO.P,U2,21,XIN*%
%TO.N,Net-(U2-XIN)*%
X183190000Y-93000000D03*
%TO.P,U2,22,XOUT*%
%TO.N,unconnected-(U2-XOUT-Pad22)*%
X183590000Y-93000000D03*
%TO.P,U2,23,DVDD*%
%TO.N,+1V1*%
X183990000Y-93000000D03*
%TO.P,U2,24,SWCLK*%
%TO.N,/SWCLK*%
X184390000Y-93000000D03*
%TO.P,U2,25,SWDIO*%
%TO.N,/SWDIO*%
X184790000Y-93000000D03*
%TO.P,U2,26,RUN*%
%TO.N,/RUN*%
X185190000Y-93000000D03*
%TO.P,U2,27,GPIO16*%
%TO.N,/GPIO16*%
X185590000Y-93000000D03*
%TO.P,U2,28,GPIO17*%
%TO.N,/GPIO17*%
X185990000Y-93000000D03*
%TO.P,U2,29,GPIO18*%
%TO.N,/GPIO18*%
X186390000Y-93000000D03*
%TO.P,U2,30,IOVDD*%
%TO.N,+3V3*%
X186790000Y-93000000D03*
D30*
%TO.P,U2,31,GPIO19*%
%TO.N,/GPIO19*%
X187490000Y-92300000D03*
%TO.P,U2,32,GPIO20*%
%TO.N,/GPIO20*%
X187490000Y-91900000D03*
%TO.P,U2,33,GPIO21*%
%TO.N,/GPIO21*%
X187490000Y-91500000D03*
%TO.P,U2,34,GPIO22*%
%TO.N,/GPIO22*%
X187490000Y-91100000D03*
%TO.P,U2,35,GPIO23*%
%TO.N,/GPIO23*%
X187490000Y-90700000D03*
%TO.P,U2,36,GPIO24*%
%TO.N,/GPIO24*%
X187490000Y-90300000D03*
%TO.P,U2,37,GPIO25*%
%TO.N,/GPIO25*%
X187490000Y-89900000D03*
%TO.P,U2,38,IOVDD*%
%TO.N,+3V3*%
X187490000Y-89500000D03*
%TO.P,U2,39,DVDD*%
%TO.N,+1V1*%
X187490000Y-89100000D03*
%TO.P,U2,40,GPIO26/ADC0*%
%TO.N,/GPIO26*%
X187490000Y-88700000D03*
%TO.P,U2,41,GPIO27/ADC1*%
%TO.N,/GPIO27*%
X187490000Y-88300000D03*
%TO.P,U2,42,GPIO28/ADC2*%
%TO.N,/GPIO28*%
X187490000Y-87900000D03*
%TO.P,U2,43,GPIO29/ADC3*%
%TO.N,/GPIO29*%
X187490000Y-87500000D03*
%TO.P,U2,44,ADC_AVDD*%
%TO.N,+3V3*%
X187490000Y-87100000D03*
%TO.P,U2,45,IOVDD*%
X187490000Y-86700000D03*
D31*
%TO.P,U2,46,VREG_AVDD*%
%TO.N,Net-(U2-VREG_AVDD)*%
X186790000Y-86000000D03*
%TO.P,U2,47,VREG_PGND*%
%TO.N,GND*%
X186390000Y-86000000D03*
%TO.P,U2,48,VREG_LX*%
%TO.N,Net-(U2-VREG_LX)*%
X185990000Y-86000000D03*
%TO.P,U2,49,VREG_VIN*%
%TO.N,+3V3*%
X185590000Y-86000000D03*
%TO.P,U2,50,VREG_FB*%
%TO.N,+1V1*%
X185190000Y-86000000D03*
%TO.P,U2,51,USB_D-*%
%TO.N,Net-(U2-USB_D-)*%
X184790000Y-86000000D03*
%TO.P,U2,52,USB_D+*%
%TO.N,Net-(U2-USB_D+)*%
X184390000Y-86000000D03*
%TO.P,U2,53,USB_OTP_VDD*%
%TO.N,+3V3*%
X183990000Y-86000000D03*
%TO.P,U2,54,QSPI_IOVDD*%
X183590000Y-86000000D03*
%TO.P,U2,55,QSPI_SD3*%
%TO.N,Net-(U1-~{HOLD}{slash}IO3)*%
X183190000Y-86000000D03*
%TO.P,U2,56,QSPI_SCLK*%
%TO.N,Net-(U1-SCK)*%
X182790000Y-86000000D03*
%TO.P,U2,57,QSPI_SD0*%
%TO.N,Net-(U1-DI{slash}IO0)*%
X182390000Y-86000000D03*
%TO.P,U2,58,QSPI_SD2*%
%TO.N,Net-(U1-~{WP}{slash}IO2)*%
X181990000Y-86000000D03*
%TO.P,U2,59,QSPI_SD1*%
%TO.N,Net-(U1-DO{slash}IO1)*%
X181590000Y-86000000D03*
%TO.P,U2,60,~{QSPI_CS}*%
%TO.N,/BOOT*%
X181190000Y-86000000D03*
D32*
%TO.P,U2,61,GND*%
%TO.N,GND*%
X183990000Y-89500000D03*
%TD*%
D16*
%TO.P,C2,1*%
%TO.N,GND*%
X175640000Y-100350000D03*
%TO.P,C2,2*%
%TO.N,+3V3*%
X176660000Y-100350000D03*
%TD*%
D14*
%TO.P,R3,1*%
%TO.N,Net-(J1-CC2)*%
X181574729Y-71990000D03*
%TO.P,R3,2*%
%TO.N,GND*%
X181574729Y-73010000D03*
%TD*%
D17*
%TO.P,C14,1*%
%TO.N,GND*%
X183800000Y-96810000D03*
%TO.P,C14,2*%
%TO.N,+1V1*%
X183800000Y-95790000D03*
%TD*%
D16*
%TO.P,R8,1*%
%TO.N,/GPIO22*%
X191986401Y-95813872D03*
%TO.P,R8,2*%
%TO.N,Net-(D2-Pad1)*%
X193006401Y-95813872D03*
%TD*%
D17*
%TO.P,C12,1*%
%TO.N,GND*%
X190400000Y-84920000D03*
%TO.P,C12,2*%
%TO.N,Net-(U2-VREG_AVDD)*%
X190400000Y-83900000D03*
%TD*%
D26*
%TO.P,J2,1,Pin_1*%
%TO.N,/GPIO0*%
X164500000Y-64500000D03*
D27*
%TO.P,J2,2,Pin_2*%
%TO.N,/GPIO1*%
X164500000Y-67040000D03*
%TO.P,J2,3,Pin_3*%
%TO.N,GND*%
X164500000Y-69580000D03*
%TO.P,J2,4,Pin_4*%
%TO.N,/GPIO2*%
X164500000Y-72120000D03*
%TO.P,J2,5,Pin_5*%
%TO.N,/GPIO3*%
X164500000Y-74660000D03*
%TO.P,J2,6,Pin_6*%
%TO.N,/GPIO4*%
X164500000Y-77200000D03*
%TO.P,J2,7,Pin_7*%
%TO.N,/GPIO5*%
X164500000Y-79740000D03*
%TO.P,J2,8,Pin_8*%
%TO.N,GND*%
X164500000Y-82280000D03*
%TO.P,J2,9,Pin_9*%
%TO.N,/GPIO6*%
X164500000Y-84820000D03*
%TO.P,J2,10,Pin_10*%
%TO.N,/GPIO7*%
X164500000Y-87360000D03*
%TO.P,J2,11,Pin_11*%
%TO.N,/GPIO8*%
X164500000Y-89900000D03*
%TO.P,J2,12,Pin_12*%
%TO.N,/GPIO9*%
X164500000Y-92440000D03*
%TO.P,J2,13,Pin_13*%
%TO.N,GND*%
X164500000Y-94980000D03*
%TO.P,J2,14,Pin_14*%
%TO.N,/GPIO10*%
X164500000Y-97520000D03*
%TO.P,J2,15,Pin_15*%
%TO.N,/GPIO11*%
X164500000Y-100060000D03*
%TO.P,J2,16,Pin_16*%
%TO.N,/GPIO12*%
X164500000Y-102600000D03*
%TO.P,J2,17,Pin_17*%
%TO.N,/GPIO13*%
X164500000Y-105140000D03*
%TO.P,J2,18,Pin_18*%
%TO.N,GND*%
X164500000Y-107680000D03*
%TO.P,J2,19,Pin_19*%
%TO.N,/GPIO14*%
X164500000Y-110220000D03*
%TO.P,J2,20,Pin_20*%
%TO.N,/GPIO15*%
X164500000Y-112760000D03*
%TD*%
D16*
%TO.P,C13,1*%
%TO.N,GND*%
X176540000Y-88850000D03*
%TO.P,C13,2*%
%TO.N,+1V1*%
X177560000Y-88850000D03*
%TD*%
%TO.P,R10,1*%
%TO.N,/GPIO24*%
X192034262Y-93029767D03*
%TO.P,R10,2*%
%TO.N,Net-(D2-Pad4)*%
X193054262Y-93029767D03*
%TD*%
D17*
%TO.P,C17,1*%
%TO.N,+3V3*%
X174000000Y-68012006D03*
%TO.P,C17,2*%
%TO.N,GND*%
X174000000Y-66992006D03*
%TD*%
D33*
%TO.N,GND*%
X181950000Y-99850000D03*
%TO.N,+1V1*%
X189000000Y-89208000D03*
%TO.N,GND*%
X189400000Y-84934513D03*
X188831456Y-82682726D03*
X187232370Y-84542196D03*
X199750000Y-90000000D03*
X189500000Y-94700000D03*
X186500000Y-75000000D03*
X174500000Y-70150000D03*
X184010000Y-89500000D03*
X182450000Y-96550000D03*
X185400000Y-89460000D03*
X182500000Y-100500000D03*
X174767051Y-81826589D03*
X174300000Y-100350000D03*
X174500000Y-64000000D03*
X183750000Y-97800000D03*
X178470669Y-84496876D03*
X184030000Y-90900000D03*
X188810209Y-81917826D03*
X175600000Y-88850000D03*
X174500000Y-65500000D03*
X181574729Y-74000000D03*
X177990000Y-71490000D03*
X184020000Y-88120000D03*
X182860000Y-89520000D03*
X175500000Y-65500000D03*
X191700000Y-89850000D03*
X190200000Y-105950000D03*
X183800000Y-82353447D03*
%TO.N,+3V3*%
X200000000Y-70500000D03*
X198500000Y-72000000D03*
X191700000Y-98490000D03*
X194500000Y-97000000D03*
%TO.N,+1V1*%
X183892000Y-94650000D03*
X178800000Y-88808525D03*
X185414709Y-83414709D03*
%TO.N,+5V*%
X191000000Y-66500000D03*
X179000000Y-66510000D03*
%TO.N,/BOOT*%
X183839949Y-76012051D03*
X185500000Y-76000000D03*
%TO.N,/GPIO23*%
X194927500Y-93408000D03*
X195927500Y-92400000D03*
%TO.N,/GPIO22*%
X200427500Y-93900000D03*
X198419500Y-93908000D03*
%TO.N,/RUN*%
X196000000Y-98500000D03*
X188000000Y-97000000D03*
X194000000Y-100000000D03*
X185657931Y-96957870D03*
%TO.N,GND*%
X176800000Y-91100000D03*
%TD*%
D34*
%TO.N,GND*%
X183800000Y-96810000D02*
X183800000Y-97750000D01*
X183800000Y-97750000D02*
X183750000Y-97800000D01*
X174500000Y-71300000D02*
X174500000Y-70150000D01*
X199750000Y-90000000D02*
X198437500Y-90000000D01*
X190668959Y-90341041D02*
X190660000Y-90350000D01*
X191208959Y-90341041D02*
X190668959Y-90341041D01*
X191700000Y-89850000D02*
X191208959Y-90341041D01*
X191700000Y-89850000D02*
X191200000Y-89350000D01*
X190860000Y-89350000D02*
X190810000Y-89300000D01*
X191200000Y-89350000D02*
X190860000Y-89350000D01*
X189500000Y-94700000D02*
X188315000Y-94700000D01*
X190200000Y-104690000D02*
X190200000Y-105950000D01*
X182450000Y-96550000D02*
X182450000Y-95710000D01*
X176584300Y-88850000D02*
X176606767Y-88872467D01*
X175600000Y-88850000D02*
X176584300Y-88850000D01*
X177640398Y-91100000D02*
X176800000Y-91100000D01*
%TO.N,/GPIO28*%
X200280400Y-80399600D02*
X203500000Y-77180000D01*
X193876545Y-87900000D02*
X200280400Y-81496145D01*
X200280400Y-81496145D02*
X200280400Y-80399600D01*
X193600000Y-87900000D02*
X193876545Y-87900000D01*
X187500000Y-87900000D02*
X193750000Y-87900000D01*
D35*
%TO.N,+3V3*%
X198500000Y-78408532D02*
X191984514Y-84924018D01*
X198500000Y-72000000D02*
X198500000Y-78408532D01*
X189908532Y-87000000D02*
X187600000Y-87000000D01*
X191984514Y-84924018D02*
X189908532Y-87000000D01*
D34*
%TO.N,Net-(U2-VREG_AVDD)*%
X188910000Y-83900000D02*
X188900000Y-83900000D01*
X188900000Y-83900000D02*
X186800000Y-86000000D01*
%TO.N,GND*%
X190385487Y-84934513D02*
X189400000Y-84934513D01*
X190400000Y-84920000D02*
X190385487Y-84934513D01*
X189400000Y-84934513D02*
X189400000Y-85965487D01*
D35*
%TO.N,+3V3*%
X183800000Y-84310000D02*
X183800000Y-85800000D01*
D34*
%TO.N,+1V1*%
X189092000Y-89300000D02*
X189790000Y-89300000D01*
X189000000Y-89208000D02*
X189092000Y-89300000D01*
%TO.N,GND*%
X191160000Y-89300000D02*
X190810000Y-89300000D01*
D35*
%TO.N,+3V3*%
X188000000Y-89500000D02*
X186500000Y-89500000D01*
X188217900Y-89529600D02*
X188029600Y-89529600D01*
X188217900Y-89543400D02*
X188217900Y-89529600D01*
X188029600Y-89529600D02*
X188000000Y-89500000D01*
X188237608Y-89543400D02*
X188217900Y-89543400D01*
X189605995Y-90384005D02*
X189078214Y-90384005D01*
X189078214Y-90384005D02*
X188237608Y-89543400D01*
X189640000Y-90350000D02*
X189605995Y-90384005D01*
D34*
%TO.N,/GPIO25*%
X193644965Y-90069181D02*
X193990000Y-90069181D01*
X190236446Y-92050000D02*
X191664146Y-92050000D01*
X188721614Y-90535168D02*
X189345247Y-91158800D01*
X188721614Y-90531714D02*
X188721614Y-90535168D01*
X187500000Y-89900000D02*
X188089900Y-89900000D01*
X188089900Y-89900000D02*
X188721614Y-90531714D01*
X189345247Y-91158800D02*
X190236446Y-92050000D01*
X191664146Y-92050000D02*
X193644965Y-90069181D01*
%TO.N,/GPIO24*%
X192004495Y-93000000D02*
X192034262Y-93029767D01*
X190789900Y-93000000D02*
X192004495Y-93000000D01*
X189229101Y-91439200D02*
X190789900Y-93000000D01*
X188089900Y-90300000D02*
X189229101Y-91439200D01*
X187500000Y-90300000D02*
X188089900Y-90300000D01*
%TO.N,/GPIO23*%
X191793355Y-94400000D02*
X191990000Y-94400000D01*
X188093355Y-90700000D02*
X191793355Y-94400000D01*
X187500000Y-90700000D02*
X188093355Y-90700000D01*
D35*
%TO.N,+3V3*%
X176685000Y-100325000D02*
X176660000Y-100350000D01*
X178150000Y-100325000D02*
X176685000Y-100325000D01*
X178150000Y-98990000D02*
X178150000Y-100325000D01*
X182450000Y-94690000D02*
X178150000Y-98990000D01*
D34*
%TO.N,+1V1*%
X183990000Y-94552000D02*
X183892000Y-94650000D01*
X183990000Y-93000000D02*
X183990000Y-94552000D01*
X183892000Y-95698000D02*
X183800000Y-95790000D01*
X183892000Y-94650000D02*
X183892000Y-95698000D01*
D35*
%TO.N,+3V3*%
X182790000Y-94350000D02*
X182450000Y-94690000D01*
X182790000Y-93000000D02*
X182790000Y-94350000D01*
D34*
%TO.N,/GPIO12*%
X171820000Y-95000000D02*
X164500000Y-102320000D01*
X179600000Y-95000000D02*
X171820000Y-95000000D01*
X181200000Y-93400000D02*
X179600000Y-95000000D01*
X181200000Y-93000000D02*
X181200000Y-93400000D01*
%TO.N,/GPIO13*%
X168000000Y-102500000D02*
X165640000Y-104860000D01*
X165640000Y-104860000D02*
X164500000Y-104860000D01*
X168000000Y-100500000D02*
X168000000Y-102500000D01*
X179600000Y-95500000D02*
X173000000Y-95500000D01*
X173000000Y-95500000D02*
X168000000Y-100500000D01*
X181600000Y-93500000D02*
X179600000Y-95500000D01*
X181600000Y-93000000D02*
X181600000Y-93500000D01*
D35*
%TO.N,+3V3*%
X179350000Y-91100000D02*
X178660000Y-91100000D01*
X180490000Y-90700000D02*
X179750000Y-90700000D01*
X179750000Y-90700000D02*
X179350000Y-91100000D01*
D34*
%TO.N,/GPIO8*%
X179103454Y-92000000D02*
X176813444Y-92000000D01*
X180003454Y-91100000D02*
X179103454Y-92000000D01*
X180500000Y-91100000D02*
X180003454Y-91100000D01*
X174089368Y-92000000D02*
X166880000Y-92000000D01*
X174520038Y-92009000D02*
X174098368Y-92009000D01*
X174529038Y-92000000D02*
X174520038Y-92009000D01*
X174098368Y-92009000D02*
X174089368Y-92000000D01*
X177150000Y-92000000D02*
X174529038Y-92000000D01*
X166880000Y-92000000D02*
X164500000Y-89620000D01*
%TO.N,/GPIO9*%
X164840000Y-92500000D02*
X164500000Y-92160000D01*
X179000000Y-92500000D02*
X164840000Y-92500000D01*
X180500000Y-91500000D02*
X180000000Y-91500000D01*
X180000000Y-91500000D02*
X179000000Y-92500000D01*
%TO.N,/GPIO10*%
X168240000Y-93500000D02*
X164500000Y-97240000D01*
X178450000Y-93500000D02*
X168240000Y-93500000D01*
X180050000Y-91900000D02*
X178450000Y-93500000D01*
X180490000Y-91900000D02*
X180050000Y-91900000D01*
%TO.N,+1V1*%
X177601475Y-88808525D02*
X177560000Y-88850000D01*
X178800000Y-88808525D02*
X177601475Y-88808525D01*
X180394200Y-88805800D02*
X180500000Y-88700000D01*
X179858300Y-88805800D02*
X180394200Y-88805800D01*
X179858300Y-88808525D02*
X179858300Y-88805800D01*
X178800000Y-88808525D02*
X179858300Y-88808525D01*
%TO.N,/GPIO5*%
X166460000Y-79460000D02*
X164500000Y-79460000D01*
X166500000Y-84500000D02*
X166500000Y-79500000D01*
X171939200Y-89939200D02*
X166500000Y-84500000D01*
X176773399Y-89939200D02*
X171939200Y-89939200D01*
X166500000Y-79500000D02*
X166460000Y-79460000D01*
X176929999Y-89782601D02*
X176773399Y-89939200D01*
X179300000Y-89500000D02*
X179017400Y-89782600D01*
X179017400Y-89782600D02*
X176929999Y-89782601D01*
X180490000Y-89500000D02*
X179300000Y-89500000D01*
%TO.N,/GPIO4*%
X179303455Y-89100000D02*
X180490000Y-89100000D01*
X176813853Y-89502201D02*
X178901255Y-89502200D01*
X176657254Y-89658800D02*
X176813853Y-89502201D01*
X178901255Y-89502200D02*
X179303455Y-89100000D01*
X173158800Y-89658800D02*
X176657254Y-89658800D01*
X167000000Y-83500000D02*
X173158800Y-89658800D01*
X167000000Y-78500000D02*
X167000000Y-83500000D01*
X164500000Y-76920000D02*
X165420000Y-76920000D01*
X165420000Y-76920000D02*
X167000000Y-78500000D01*
%TO.N,/GPIO26*%
X198096546Y-84800000D02*
X203500000Y-84800000D01*
X194196546Y-88700000D02*
X198096546Y-84800000D01*
X187500000Y-88700000D02*
X194196546Y-88700000D01*
%TO.N,/GPIO18*%
X186400000Y-95904309D02*
X186400000Y-93000000D01*
X187000000Y-96504309D02*
X186400000Y-95904309D01*
X187000000Y-108000000D02*
X187000000Y-96504309D01*
X200620000Y-108000000D02*
X187000000Y-108000000D01*
X203500000Y-105120000D02*
X200620000Y-108000000D01*
%TO.N,/GPIO17*%
X187000000Y-110000000D02*
X203300000Y-110000000D01*
X186719600Y-109719600D02*
X187000000Y-110000000D01*
X186719600Y-96620456D02*
X186719600Y-109719600D01*
X186000000Y-95900856D02*
X186719600Y-96620456D01*
X186000000Y-93000000D02*
X186000000Y-95900856D01*
X203300000Y-110000000D02*
X203500000Y-110200000D01*
%TO.N,/GPIO16*%
X186439200Y-96736601D02*
X186439200Y-110939200D01*
X186439200Y-110939200D02*
X188240000Y-112740000D01*
X185590000Y-95887401D02*
X186439200Y-96736601D01*
X188240000Y-112740000D02*
X203500000Y-112740000D01*
X185590000Y-93000000D02*
X185590000Y-95887401D01*
X185600000Y-93000000D02*
X185590000Y-93000000D01*
%TO.N,GND*%
X188810209Y-81917826D02*
X188810209Y-82661479D01*
X183800000Y-83290000D02*
X183800000Y-82353447D01*
X187820312Y-83244574D02*
X188269608Y-83244574D01*
X188728035Y-82000000D02*
X188810209Y-81917826D01*
X181574729Y-74000000D02*
X181574729Y-74735501D01*
X178470669Y-84496876D02*
X178465831Y-84492038D01*
X186400000Y-85374566D02*
X187232370Y-84542196D01*
X181574729Y-74735501D02*
X181564161Y-74746069D01*
D35*
X188855000Y-69075000D02*
X189430000Y-68500000D01*
D34*
X183800000Y-82353447D02*
X183799934Y-82353381D01*
X174767051Y-81826589D02*
X174770462Y-81830000D01*
D35*
X188310000Y-69075000D02*
X188855000Y-69075000D01*
D34*
X178000000Y-71500000D02*
X177990000Y-71490000D01*
X177990000Y-70500000D02*
X177990000Y-71490000D01*
D35*
X181365000Y-69075000D02*
X180790000Y-68500000D01*
D34*
X178470669Y-85357971D02*
X178470669Y-84496876D01*
X181574729Y-73010000D02*
X181574729Y-74000000D01*
X186500000Y-75000000D02*
X186500000Y-74010000D01*
X187820000Y-82000000D02*
X188728035Y-82000000D01*
X176150000Y-81830000D02*
X174770462Y-81830000D01*
X188810209Y-82661479D02*
X188831456Y-82682726D01*
D35*
X181910000Y-69075000D02*
X181365000Y-69075000D01*
D34*
X174000000Y-66992006D02*
X174007994Y-66992006D01*
X188269608Y-83244574D02*
X188831456Y-82682726D01*
X186400000Y-86000000D02*
X186400000Y-85374566D01*
D35*
%TO.N,+3V3*%
X186000000Y-87000000D02*
X187200000Y-87000000D01*
X186770400Y-92282100D02*
X186488300Y-92000000D01*
X175806200Y-68939800D02*
X174000000Y-68939800D01*
X185600000Y-86600000D02*
X186000000Y-87000000D01*
X177000000Y-76000000D02*
X176554989Y-76445011D01*
X186530313Y-83244574D02*
X185600000Y-84174887D01*
X186770400Y-92770400D02*
X186770400Y-92282100D01*
X187500000Y-86900000D02*
X187600000Y-87000000D01*
X200000000Y-70500000D02*
X202560000Y-70500000D01*
X189983711Y-96483711D02*
X189983711Y-98325801D01*
X191700000Y-98490000D02*
X190147910Y-98490000D01*
X186800312Y-83244574D02*
X186530313Y-83244574D01*
X181564161Y-75766069D02*
X177233931Y-75766069D01*
X187600000Y-87000000D02*
X187500000Y-87100000D01*
X202560000Y-70500000D02*
X203500000Y-69560000D01*
X186800000Y-92800000D02*
X186770400Y-92770400D01*
X186800000Y-95800000D02*
X187000000Y-96000000D01*
X180500000Y-86700000D02*
X178792698Y-86700000D01*
X174000000Y-68939800D02*
X170060200Y-68939800D01*
X180529600Y-86729600D02*
X181229600Y-86729600D01*
X170000000Y-68020000D02*
X170000000Y-68879600D01*
X194500000Y-97000000D02*
X195250000Y-97000000D01*
X190147910Y-98490000D02*
X189983711Y-98325801D01*
X186800000Y-95000000D02*
X186800000Y-95800000D01*
D36*
X181564161Y-78005839D02*
X181550000Y-78020000D01*
D35*
X176554989Y-76445011D02*
X174510000Y-76445011D01*
X195250000Y-97000000D02*
X196450000Y-95800000D01*
X180500000Y-86700000D02*
X180529600Y-86729600D01*
X170000000Y-69000000D02*
X170060200Y-68939800D01*
X183600000Y-86900000D02*
X184000000Y-86500000D01*
X186800000Y-95000000D02*
X186800000Y-93000000D01*
X178792698Y-86700000D02*
X178470669Y-86377971D01*
X183800000Y-85800000D02*
X184000000Y-86000000D01*
X181229600Y-86729600D02*
X181500000Y-87000000D01*
X174000000Y-68012006D02*
X174000000Y-68939800D01*
X185600000Y-86000000D02*
X185600000Y-86600000D01*
X189500000Y-96000000D02*
X189983711Y-96483711D01*
X184000000Y-86500000D02*
X184000000Y-86000000D01*
X170000000Y-68879600D02*
X170060200Y-68939800D01*
X187200000Y-87000000D02*
X187500000Y-86700000D01*
X187295000Y-94700000D02*
X186805000Y-94700000D01*
X175806200Y-69306200D02*
X177000000Y-70500000D01*
X181564161Y-75766069D02*
X181564161Y-78005839D01*
X186488300Y-92000000D02*
X186000000Y-92000000D01*
X183600000Y-86000000D02*
X183600000Y-86900000D01*
X183800000Y-85800000D02*
X183600000Y-86000000D01*
X187000000Y-96000000D02*
X189500000Y-96000000D01*
X187500000Y-86700000D02*
X187500000Y-86900000D01*
X177233931Y-75766069D02*
X177000000Y-76000000D01*
X186800000Y-93000000D02*
X186800000Y-92800000D01*
X177000000Y-70500000D02*
X177000000Y-76000000D01*
X175806200Y-68939800D02*
X175806200Y-69306200D01*
X185600000Y-84174887D02*
X185600000Y-86000000D01*
D34*
%TO.N,+1V1*%
X186310312Y-80244574D02*
X185710312Y-80844574D01*
X185710312Y-83119106D02*
X185414709Y-83414709D01*
X185710312Y-80844574D02*
X185710312Y-82244574D01*
X185710312Y-82244574D02*
X185710312Y-83119106D01*
X185200000Y-83629418D02*
X185200000Y-86000000D01*
X186800000Y-82000000D02*
X185954886Y-82000000D01*
X185414709Y-83414709D02*
X185200000Y-83629418D01*
X185954886Y-82000000D02*
X185710312Y-82244574D01*
%TO.N,Net-(U2-VREG_AVDD)*%
X188910000Y-83900000D02*
X190400000Y-83900000D01*
X190400000Y-83900000D02*
X191980496Y-83900000D01*
D36*
%TO.N,+5V*%
X187510000Y-69075000D02*
X187510000Y-69904000D01*
X191000000Y-68000000D02*
X191000000Y-66500000D01*
X191000000Y-70500000D02*
X191000000Y-68000000D01*
X179000000Y-66510000D02*
X179000000Y-70500000D01*
X191000000Y-68000000D02*
X194520000Y-64480000D01*
X188106000Y-70500000D02*
X191000000Y-70500000D01*
X187510000Y-69904000D02*
X188106000Y-70500000D01*
X179000000Y-70500000D02*
X182114000Y-70500000D01*
X194520000Y-64480000D02*
X203500000Y-64480000D01*
X179000000Y-68000000D02*
X178193800Y-68000000D01*
X182710000Y-69904000D02*
X182710000Y-69075000D01*
X182114000Y-70500000D02*
X182710000Y-69904000D01*
D34*
%TO.N,Net-(D1-A)*%
X196493319Y-90069181D02*
X196562500Y-90000000D01*
X195010000Y-90069181D02*
X196493319Y-90069181D01*
%TO.N,Net-(D2-Pad2)*%
X198927500Y-93400000D02*
X195927500Y-93400000D01*
X198550000Y-95000000D02*
X198927500Y-94622500D01*
X195927500Y-93400000D02*
X194927500Y-94400000D01*
X194927500Y-94400000D02*
X193010000Y-94400000D01*
X198927500Y-94622500D02*
X198927500Y-93400000D01*
%TO.N,Net-(D2-Pad1)*%
X193596128Y-95813872D02*
X194410000Y-95000000D01*
X193006401Y-95813872D02*
X193596128Y-95813872D01*
X194410000Y-95000000D02*
X196450000Y-95000000D01*
%TO.N,Net-(D2-Pad4)*%
X198550000Y-95800000D02*
X199202400Y-95800000D01*
X195716665Y-92909000D02*
X195707665Y-92900000D01*
X198927500Y-92900000D02*
X196147335Y-92900000D01*
X193184029Y-92900000D02*
X193054262Y-93029767D01*
X199202400Y-95800000D02*
X199279600Y-95722800D01*
X195707665Y-92900000D02*
X193184029Y-92900000D01*
X196147335Y-92900000D02*
X196138335Y-92909000D01*
X199279600Y-93252100D02*
X198927500Y-92900000D01*
X199279600Y-95722800D02*
X199279600Y-93252100D01*
X196138335Y-92909000D02*
X195716665Y-92909000D01*
%TO.N,Net-(D3-A)*%
X170000000Y-67000000D02*
X170000000Y-65062500D01*
X170000000Y-65062500D02*
X171062500Y-64000000D01*
%TO.N,Net-(J1-D+-PadA6)*%
X185500000Y-68000000D02*
X185500000Y-68935000D01*
X184360000Y-69075000D02*
X184360000Y-76930000D01*
X184360000Y-69075000D02*
X184360000Y-68140000D01*
X184360000Y-76930000D02*
X183800000Y-77490000D01*
X184360000Y-68140000D02*
X184500000Y-68000000D01*
X185500000Y-68935000D02*
X185360000Y-69075000D01*
X184500000Y-68000000D02*
X185500000Y-68000000D01*
%TO.N,Net-(J1-CC1)*%
X186360000Y-69802400D02*
X186360000Y-69075000D01*
X186360000Y-69870000D02*
X186500000Y-70010000D01*
X186500000Y-70010000D02*
X186500000Y-72990000D01*
X186360000Y-69075000D02*
X186360000Y-69870000D01*
%TO.N,Net-(J1-CC2)*%
X181574729Y-71990000D02*
X183360000Y-70204729D01*
X183360000Y-70204729D02*
X183360000Y-69075000D01*
%TO.N,Net-(J1-D--PadA7)*%
X185163562Y-77490000D02*
X184860000Y-77186438D01*
X184860000Y-77186438D02*
X184860000Y-71000000D01*
X185860000Y-70000000D02*
X184860000Y-71000000D01*
X184860000Y-71000000D02*
X184860000Y-69075000D01*
X185860000Y-69075000D02*
X185860000Y-70000000D01*
%TO.N,/GPIO14*%
X169000000Y-105440000D02*
X164500000Y-109940000D01*
X182000000Y-93535047D02*
X181894200Y-93640847D01*
X182000000Y-93000000D02*
X182000000Y-93535047D01*
X169000000Y-101500000D02*
X169000000Y-105440000D01*
X181894200Y-93640847D02*
X181894200Y-93641700D01*
X174500000Y-96000000D02*
X169000000Y-101500000D01*
X181894200Y-93641700D02*
X181893347Y-93641700D01*
X179535047Y-96000000D02*
X174500000Y-96000000D01*
X181893347Y-93641700D02*
X179535047Y-96000000D01*
%TO.N,/GPIO7*%
X179300000Y-90300000D02*
X179256600Y-90343400D01*
X173396546Y-91000000D02*
X168420000Y-91000000D01*
X180500000Y-90300000D02*
X179300000Y-90300000D01*
X168420000Y-91000000D02*
X164500000Y-87080000D01*
X179256600Y-90343400D02*
X177162291Y-90343400D01*
X177005691Y-90500000D02*
X173896546Y-90500000D01*
X177162291Y-90343400D02*
X177005691Y-90500000D01*
X173896546Y-90500000D02*
X173396546Y-91000000D01*
%TO.N,/GPIO15*%
X182289893Y-93641700D02*
X179389793Y-96541800D01*
X175958200Y-96541800D02*
X171500000Y-101000000D01*
X182294200Y-93641700D02*
X182289893Y-93641700D01*
X182400000Y-93531593D02*
X182294200Y-93637393D01*
X179389793Y-96541800D02*
X175958200Y-96541800D01*
X182400000Y-93000000D02*
X182400000Y-93531593D01*
X171500000Y-101000000D02*
X171500000Y-105480000D01*
X182294200Y-93637393D02*
X182294200Y-93641700D01*
X171500000Y-105480000D02*
X164500000Y-112480000D01*
%TO.N,/GPIO1*%
X174000000Y-87500000D02*
X169000000Y-82500000D01*
X180500000Y-87500000D02*
X174000000Y-87500000D01*
X169000000Y-71260000D02*
X164500000Y-66760000D01*
X169000000Y-82500000D02*
X169000000Y-71260000D01*
%TO.N,/GPIO0*%
X166500000Y-67000000D02*
X166500000Y-64220000D01*
X166500000Y-64220000D02*
X164500000Y-64220000D01*
X169500000Y-82000000D02*
X169500000Y-70000000D01*
X180500000Y-87100000D02*
X174600000Y-87100000D01*
X174600000Y-87100000D02*
X169500000Y-82000000D01*
X169500000Y-70000000D02*
X166500000Y-67000000D01*
%TO.N,/GPIO11*%
X180500000Y-92300000D02*
X179019600Y-93780400D01*
X179019600Y-93780400D02*
X170779600Y-93780400D01*
X170779600Y-93780400D02*
X164500000Y-100060000D01*
%TO.N,/GPIO3*%
X172800000Y-88300000D02*
X168000000Y-83500000D01*
X180500000Y-88300000D02*
X172800000Y-88300000D01*
X168000000Y-77880000D02*
X164500000Y-74380000D01*
X168000000Y-83500000D02*
X168000000Y-77880000D01*
%TO.N,/GPIO6*%
X173780400Y-90219600D02*
X173500000Y-90500000D01*
X173500000Y-90500000D02*
X170460000Y-90500000D01*
X177046145Y-90063000D02*
X176889546Y-90219599D01*
X176889546Y-90219599D02*
X173780400Y-90219600D01*
X179133547Y-90062999D02*
X177046145Y-90063000D01*
X180500000Y-89900000D02*
X179296546Y-89900000D01*
X170460000Y-90500000D02*
X164500000Y-84540000D01*
X179296546Y-89900000D02*
X179133547Y-90062999D01*
%TO.N,/GPIO2*%
X173400000Y-87900000D02*
X168500000Y-83000000D01*
X180500000Y-87900000D02*
X173400000Y-87900000D01*
X168500000Y-83000000D02*
X168500000Y-75840000D01*
X168500000Y-75840000D02*
X164500000Y-71840000D01*
%TO.N,/SWDIO*%
X184800000Y-93000000D02*
X184800000Y-107000000D01*
%TO.N,/SWCLK*%
X182800000Y-107000000D02*
X184400000Y-105400000D01*
X184400000Y-105400000D02*
X184400000Y-93000000D01*
%TO.N,/BOOT*%
X174500000Y-74700000D02*
X174500000Y-75638370D01*
X173693359Y-76445011D02*
X173490000Y-76445011D01*
X194000000Y-71500000D02*
X198280165Y-71500000D01*
X183000000Y-78689736D02*
X180754200Y-78689736D01*
X174500000Y-75638370D02*
X173693359Y-76445011D01*
X175835000Y-78335000D02*
X174335000Y-78335000D01*
X181000000Y-83560800D02*
X173560800Y-83560800D01*
X198719835Y-71500000D02*
X202900000Y-71500000D01*
X173560800Y-83560800D02*
X173439200Y-83439200D01*
X189500000Y-76000000D02*
X194000000Y-71500000D01*
X173439200Y-83439200D02*
X173439200Y-80730800D01*
X176599200Y-77570800D02*
X176150000Y-78020000D01*
X173439200Y-80730800D02*
X176150000Y-78020000D01*
X180754200Y-77570800D02*
X176599200Y-77570800D01*
X173490000Y-77490000D02*
X173490000Y-76445011D01*
X181200000Y-83760800D02*
X181000000Y-83560800D01*
X183000000Y-76852000D02*
X183000000Y-78689736D01*
X180754200Y-78689736D02*
X180754200Y-77570800D01*
X198710835Y-71491000D02*
X198719835Y-71500000D01*
X198280165Y-71500000D02*
X198289165Y-71491000D01*
X181200000Y-86000000D02*
X181200000Y-83760800D01*
X198289165Y-71491000D02*
X198710835Y-71491000D01*
X176150000Y-78020000D02*
X175835000Y-78335000D01*
X183839949Y-76012051D02*
X183000000Y-76852000D01*
X202900000Y-71500000D02*
X203500000Y-72100000D01*
X185500000Y-76000000D02*
X189500000Y-76000000D01*
X174335000Y-78335000D02*
X173490000Y-77490000D01*
%TO.N,/GPIO19*%
X193000000Y-97500000D02*
X198080000Y-102580000D01*
X198080000Y-102580000D02*
X203500000Y-102580000D01*
X187500000Y-92300000D02*
X187847500Y-92300000D01*
X187847500Y-92300000D02*
X190500000Y-94952500D01*
X190500000Y-94952500D02*
X190500000Y-97500000D01*
X190500000Y-97500000D02*
X193000000Y-97500000D01*
%TO.N,/GPIO20*%
X203500000Y-100040000D02*
X196040000Y-100040000D01*
X196040000Y-100040000D02*
X193092649Y-97092649D01*
X190780400Y-94836354D02*
X188141700Y-92197654D01*
X193092649Y-97092649D02*
X190780400Y-97092649D01*
X188141700Y-92197654D02*
X188141700Y-91951800D01*
X188141700Y-91951800D02*
X188089900Y-91900000D01*
X190780400Y-97092649D02*
X190780400Y-94836354D01*
X188089900Y-91900000D02*
X187500000Y-91900000D01*
%TO.N,/GPIO27*%
X194200000Y-88300000D02*
X203040000Y-79460000D01*
X187500000Y-88300000D02*
X194200000Y-88300000D01*
%TO.N,/GPIO23*%
X194927500Y-93408000D02*
X194895300Y-93408000D01*
X198440000Y-92400000D02*
X203500000Y-87340000D01*
X194895300Y-93408000D02*
X194427500Y-93875800D01*
X195927500Y-92400000D02*
X198440000Y-92400000D01*
X192514200Y-93875800D02*
X191990000Y-94400000D01*
X194427500Y-93875800D02*
X192514200Y-93875800D01*
%TO.N,/GPIO22*%
X191341200Y-94354754D02*
X188996809Y-92010363D01*
X195745800Y-94719600D02*
X195745800Y-94545800D01*
X188996809Y-92010363D02*
X188996809Y-92000000D01*
X191677500Y-95150000D02*
X191341200Y-94813700D01*
X188996809Y-92000000D02*
X188096809Y-91100000D01*
X194293855Y-94719600D02*
X195745800Y-94719600D01*
X198427500Y-93900000D02*
X198419500Y-93908000D01*
X191677500Y-95150000D02*
X193863454Y-95150000D01*
X188096809Y-91100000D02*
X187500000Y-91100000D01*
X191341200Y-94813700D02*
X191341200Y-94354754D01*
X196391600Y-93900000D02*
X198427500Y-93900000D01*
X191986401Y-95458901D02*
X191677500Y-95150000D01*
X193863454Y-95150000D02*
X194293855Y-94719600D01*
X200427500Y-93900000D02*
X202020000Y-93900000D01*
X202020000Y-93900000D02*
X203500000Y-92420000D01*
X195745800Y-94545800D02*
X196391600Y-93900000D01*
X191986401Y-95813872D02*
X191986401Y-95458901D01*
%TO.N,/GPIO29*%
X200000000Y-81380000D02*
X200000000Y-78140000D01*
X200000000Y-78140000D02*
X203500000Y-74640000D01*
X187524200Y-87524200D02*
X193855800Y-87524200D01*
X193855800Y-87524200D02*
X200000000Y-81380000D01*
X187500000Y-87500000D02*
X187524200Y-87524200D01*
%TO.N,/RUN*%
X188000000Y-97000000D02*
X188000000Y-97790000D01*
X199500000Y-92500000D02*
X200880000Y-92500000D01*
X197000000Y-97500000D02*
X198500000Y-97500000D01*
X185200000Y-93000000D02*
X185200000Y-96499939D01*
X196000000Y-98500000D02*
X197000000Y-97500000D01*
X188000000Y-97790000D02*
X189200000Y-98990000D01*
X200880000Y-92500000D02*
X203500000Y-89880000D01*
X185200000Y-96499939D02*
X185657931Y-96957870D01*
X190200000Y-101290000D02*
X192710000Y-101290000D01*
X199560000Y-92560000D02*
X199500000Y-92500000D01*
X199560000Y-96440000D02*
X199560000Y-92560000D01*
X189983711Y-99345801D02*
X189555801Y-99345801D01*
X198500000Y-97500000D02*
X199560000Y-96440000D01*
X192710000Y-101290000D02*
X194000000Y-100000000D01*
X189555801Y-99345801D02*
X189200000Y-98990000D01*
X190000000Y-99500000D02*
X190000000Y-101290000D01*
%TO.N,/GPIO21*%
X196000000Y-99500000D02*
X201500000Y-99500000D01*
X193219600Y-96719600D02*
X196000000Y-99500000D01*
X188089900Y-91500000D02*
X191060800Y-94470900D01*
X191060800Y-94470900D02*
X191060800Y-96719600D01*
X191060800Y-96719600D02*
X193219600Y-96719600D01*
X201500000Y-99500000D02*
X203500000Y-97500000D01*
X187500000Y-91500000D02*
X188089900Y-91500000D01*
%TO.N,Net-(U2-VREG_LX)*%
X188522416Y-80032470D02*
X188310312Y-80244574D01*
X188331612Y-84000000D02*
X189489112Y-82842500D01*
X186000000Y-86000000D02*
X186000000Y-84513274D01*
X189480837Y-82834225D02*
X189480837Y-80032470D01*
X186000000Y-84513274D02*
X186513274Y-84000000D01*
X189480837Y-80032470D02*
X188522416Y-80032470D01*
X189489112Y-82842500D02*
X189480837Y-82834225D01*
X186513274Y-84000000D02*
X188331612Y-84000000D01*
%TO.N,Net-(U2-USB_D-)*%
X185163562Y-78510000D02*
X184800000Y-78873562D01*
X184800000Y-78873562D02*
X184800000Y-86000000D01*
%TO.N,Net-(U2-USB_D+)*%
X183800000Y-78510000D02*
X184400000Y-79110000D01*
X184400000Y-79110000D02*
X184400000Y-86000000D01*
%TO.N,Net-(U1-DO{slash}IO1)*%
X181600000Y-86000000D02*
X181600000Y-83400000D01*
X181480400Y-83280400D02*
X173883855Y-83280400D01*
X173719600Y-80883855D02*
X175313455Y-79290000D01*
X175313455Y-79290000D02*
X176150000Y-79290000D01*
X173883855Y-83280400D02*
X173719600Y-83116145D01*
X181600000Y-83400000D02*
X181480400Y-83280400D01*
X173719600Y-83116145D02*
X173719600Y-80883855D01*
%TO.N,Net-(U1-DI{slash}IO0)*%
X181550000Y-81830000D02*
X181550000Y-82079999D01*
X181550000Y-82079999D02*
X182400000Y-82929999D01*
X182400000Y-82929999D02*
X182400000Y-86000000D01*
%TO.N,Net-(U1-~{HOLD}{slash}IO3)*%
X182290000Y-79290000D02*
X183000000Y-80000000D01*
X182976991Y-82596447D02*
X183200000Y-82819456D01*
X183200000Y-82819456D02*
X183200000Y-86000000D01*
X183000000Y-80000000D02*
X182976991Y-80023009D01*
X182976991Y-80023009D02*
X182976991Y-82596447D01*
X181550000Y-79290000D02*
X182290000Y-79290000D01*
%TO.N,Net-(U1-~{WP}{slash}IO2)*%
X176150000Y-80560000D02*
X174440000Y-80560000D01*
X174440000Y-80560000D02*
X174000000Y-81000000D01*
X174000000Y-83000000D02*
X182000000Y-83000000D01*
X174000000Y-81000000D02*
X174000000Y-83000000D01*
X182000000Y-83000000D02*
X182000000Y-86000000D01*
%TO.N,Net-(U1-SCK)*%
X182671191Y-81000000D02*
X182671191Y-82723114D01*
X182671191Y-82723114D02*
X182800000Y-82851922D01*
X182231191Y-80560000D02*
X182671191Y-81000000D01*
X181550000Y-80560000D02*
X182231191Y-80560000D01*
X182800000Y-82851922D02*
X182800000Y-86000000D01*
%TO.N,Net-(U2-XIN)*%
X183200000Y-93000000D02*
X183200000Y-96975000D01*
X183200000Y-96975000D02*
X179850000Y-100325000D01*
%TO.N,+1V1*%
X189000000Y-89208000D02*
X188892000Y-89100000D01*
X188892000Y-89100000D02*
X187500000Y-89100000D01*
%TD*%
%TA.AperFunction,Conductor*%
%TO.N,GND*%
G36*
X176943039Y-61519685D02*
G01*
X176988794Y-61572489D01*
X177000000Y-61624000D01*
X177000000Y-66307800D01*
X176980315Y-66374839D01*
X176927511Y-66420594D01*
X176858353Y-66430538D01*
X176801689Y-66407067D01*
X176708688Y-66337446D01*
X176708686Y-66337445D01*
X176573979Y-66287203D01*
X176573972Y-66287201D01*
X176514444Y-66280800D01*
X176056200Y-66280800D01*
X176056200Y-66936200D01*
X176036515Y-67003239D01*
X175983711Y-67048994D01*
X175932200Y-67060200D01*
X175806200Y-67060200D01*
X175806200Y-67186200D01*
X175786515Y-67253239D01*
X175733711Y-67298994D01*
X175682200Y-67310200D01*
X174635356Y-67310200D01*
X174568317Y-67290515D01*
X174547675Y-67273881D01*
X174515800Y-67242006D01*
X173187155Y-67242006D01*
X173216616Y-67343412D01*
X173216416Y-67413281D01*
X173178473Y-67471951D01*
X173114835Y-67500794D01*
X173097539Y-67502006D01*
X172551509Y-67502006D01*
X172484470Y-67482321D01*
X172463652Y-67465512D01*
X172036143Y-67036288D01*
X172021546Y-67009428D01*
X172005023Y-66983717D01*
X172004105Y-66977333D01*
X172002781Y-66974897D01*
X172000000Y-66948782D01*
X172000000Y-66742006D01*
X173187156Y-66742006D01*
X173750000Y-66742006D01*
X174250000Y-66742006D01*
X174830444Y-66742006D01*
X174897483Y-66761691D01*
X174918125Y-66778325D01*
X174950000Y-66810200D01*
X175556200Y-66810200D01*
X175556200Y-66280800D01*
X175097955Y-66280800D01*
X175038427Y-66287201D01*
X175038420Y-66287203D01*
X174903713Y-66337445D01*
X174903710Y-66337447D01*
X174795145Y-66418719D01*
X174729680Y-66443136D01*
X174661407Y-66428284D01*
X174633153Y-66407133D01*
X174577294Y-66351274D01*
X174577285Y-66351267D01*
X174439191Y-66269599D01*
X174439188Y-66269598D01*
X174285130Y-66224840D01*
X174250000Y-66222074D01*
X174250000Y-66742006D01*
X173750000Y-66742006D01*
X173750000Y-66222074D01*
X173749999Y-66222074D01*
X173714869Y-66224840D01*
X173714868Y-66224840D01*
X173560811Y-66269598D01*
X173560808Y-66269599D01*
X173422714Y-66351267D01*
X173422705Y-66351274D01*
X173309268Y-66464711D01*
X173309261Y-66464720D01*
X173227595Y-66602811D01*
X173187156Y-66742006D01*
X172000000Y-66742006D01*
X172000000Y-65113683D01*
X172019685Y-65046644D01*
X172072489Y-65000889D01*
X172141647Y-64990945D01*
X172205203Y-65019970D01*
X172211681Y-65026002D01*
X172229308Y-65043629D01*
X172377285Y-65134903D01*
X172377290Y-65134905D01*
X172542326Y-65189592D01*
X172644184Y-65199999D01*
X172644197Y-65200000D01*
X172687500Y-65200000D01*
X173187500Y-65200000D01*
X173230803Y-65200000D01*
X173230815Y-65199999D01*
X173332673Y-65189592D01*
X173497709Y-65134905D01*
X173497714Y-65134903D01*
X173645691Y-65043629D01*
X173768629Y-64920691D01*
X173859903Y-64772714D01*
X173859905Y-64772709D01*
X173914592Y-64607673D01*
X173924999Y-64505815D01*
X173925000Y-64505802D01*
X173925000Y-64250000D01*
X173187500Y-64250000D01*
X173187500Y-65200000D01*
X172687500Y-65200000D01*
X172687500Y-63750000D01*
X173187500Y-63750000D01*
X173925000Y-63750000D01*
X173925000Y-63494197D01*
X173924999Y-63494184D01*
X173914592Y-63392326D01*
X173859905Y-63227290D01*
X173859903Y-63227285D01*
X173768629Y-63079308D01*
X173645691Y-62956370D01*
X173497714Y-62865096D01*
X173497709Y-62865094D01*
X173332673Y-62810407D01*
X173230815Y-62800000D01*
X173187500Y-62800000D01*
X173187500Y-63750000D01*
X172687500Y-63750000D01*
X172687500Y-62800000D01*
X172644184Y-62800000D01*
X172542326Y-62810407D01*
X172377290Y-62865094D01*
X172377285Y-62865096D01*
X172229308Y-62956370D01*
X172211681Y-62973998D01*
X172150358Y-63007483D01*
X172080666Y-63002499D01*
X172024733Y-62960627D01*
X172000316Y-62895163D01*
X172000000Y-62886317D01*
X172000000Y-61624000D01*
X172019685Y-61556961D01*
X172072489Y-61511206D01*
X172124000Y-61500000D01*
X176876000Y-61500000D01*
X176943039Y-61519685D01*
G37*
%TD.AperFunction*%
%TD*%
%TA.AperFunction,Conductor*%
%TO.N,+3V3*%
G36*
X183895540Y-86519685D02*
G01*
X183939901Y-86569539D01*
X183985223Y-86662245D01*
X183985223Y-86662246D01*
X184075253Y-86752276D01*
X184075256Y-86752278D01*
X184184863Y-86805861D01*
X184189639Y-86808196D01*
X184263794Y-86819000D01*
X184263800Y-86819000D01*
X184516204Y-86819000D01*
X184516206Y-86819000D01*
X184572128Y-86810852D01*
X184607872Y-86810852D01*
X184663794Y-86819000D01*
X184663796Y-86819000D01*
X184916204Y-86819000D01*
X184916206Y-86819000D01*
X184972128Y-86810852D01*
X185007872Y-86810852D01*
X185063794Y-86819000D01*
X185063796Y-86819000D01*
X185316200Y-86819000D01*
X185316206Y-86819000D01*
X185390361Y-86808196D01*
X185447553Y-86780236D01*
X185504743Y-86752278D01*
X185513107Y-86746307D01*
X185514395Y-86748111D01*
X185563629Y-86721221D01*
X185633322Y-86726198D01*
X185666175Y-86747311D01*
X185666893Y-86746307D01*
X185675256Y-86752278D01*
X185784863Y-86805861D01*
X185789639Y-86808196D01*
X185863794Y-86819000D01*
X185863800Y-86819000D01*
X186116204Y-86819000D01*
X186116206Y-86819000D01*
X186172128Y-86810852D01*
X186207872Y-86810852D01*
X186263794Y-86819000D01*
X186263796Y-86819000D01*
X186516204Y-86819000D01*
X186516206Y-86819000D01*
X186572128Y-86810852D01*
X186607872Y-86810852D01*
X186663794Y-86819000D01*
X186663796Y-86819000D01*
X186856797Y-86819000D01*
X186923836Y-86838685D01*
X186969591Y-86891489D01*
X186979535Y-86960647D01*
X186950510Y-87024203D01*
X186911258Y-87054400D01*
X186827754Y-87095223D01*
X186827753Y-87095223D01*
X186737723Y-87185253D01*
X186737721Y-87185256D01*
X186681805Y-87299635D01*
X186681804Y-87299637D01*
X186681804Y-87299639D01*
X186671000Y-87373794D01*
X186671000Y-87626206D01*
X186673569Y-87643843D01*
X186679146Y-87682126D01*
X186679146Y-87717874D01*
X186671000Y-87773796D01*
X186671000Y-88026203D01*
X186679146Y-88082126D01*
X186679146Y-88117874D01*
X186671000Y-88173796D01*
X186671000Y-88426203D01*
X186679146Y-88482126D01*
X186679146Y-88517874D01*
X186671000Y-88573796D01*
X186671000Y-88826203D01*
X186679146Y-88882126D01*
X186679146Y-88917874D01*
X186672914Y-88960654D01*
X186671000Y-88973794D01*
X186671000Y-89226206D01*
X186681804Y-89300361D01*
X186681804Y-89300362D01*
X186681805Y-89300364D01*
X186737721Y-89414743D01*
X186743693Y-89423107D01*
X186741889Y-89424394D01*
X186768781Y-89473642D01*
X186763797Y-89543334D01*
X186742689Y-89576176D01*
X186743693Y-89576893D01*
X186737721Y-89585256D01*
X186681805Y-89699635D01*
X186681804Y-89699637D01*
X186681804Y-89699639D01*
X186671000Y-89773794D01*
X186671000Y-89773799D01*
X186671000Y-90026203D01*
X186679146Y-90082126D01*
X186679146Y-90117874D01*
X186671000Y-90173796D01*
X186671000Y-90426203D01*
X186679146Y-90482126D01*
X186679146Y-90517874D01*
X186671000Y-90573796D01*
X186671000Y-90826203D01*
X186679146Y-90882126D01*
X186679146Y-90917874D01*
X186671000Y-90973796D01*
X186671000Y-91226203D01*
X186679146Y-91282126D01*
X186679146Y-91317874D01*
X186671000Y-91373796D01*
X186671000Y-91626203D01*
X186679146Y-91682126D01*
X186679146Y-91717874D01*
X186671000Y-91773796D01*
X186671000Y-92026203D01*
X186673424Y-92042845D01*
X186663608Y-92112022D01*
X186617951Y-92164910D01*
X186550948Y-92184719D01*
X186532845Y-92183424D01*
X186525756Y-92182391D01*
X186516206Y-92181000D01*
X186263794Y-92181000D01*
X186250654Y-92182914D01*
X186207874Y-92189146D01*
X186172126Y-92189146D01*
X186129345Y-92182914D01*
X186116206Y-92181000D01*
X185863794Y-92181000D01*
X185850654Y-92182914D01*
X185807874Y-92189146D01*
X185772126Y-92189146D01*
X185729345Y-92182914D01*
X185716206Y-92181000D01*
X185463794Y-92181000D01*
X185450654Y-92182914D01*
X185407874Y-92189146D01*
X185372126Y-92189146D01*
X185329345Y-92182914D01*
X185316206Y-92181000D01*
X185063794Y-92181000D01*
X185050654Y-92182914D01*
X185007874Y-92189146D01*
X184972126Y-92189146D01*
X184929345Y-92182914D01*
X184916206Y-92181000D01*
X184663794Y-92181000D01*
X184650654Y-92182914D01*
X184607874Y-92189146D01*
X184572126Y-92189146D01*
X184529345Y-92182914D01*
X184516206Y-92181000D01*
X184263794Y-92181000D01*
X184250654Y-92182914D01*
X184207874Y-92189146D01*
X184172126Y-92189146D01*
X184129345Y-92182914D01*
X184116206Y-92181000D01*
X183863794Y-92181000D01*
X183850654Y-92182914D01*
X183807874Y-92189146D01*
X183772126Y-92189146D01*
X183729345Y-92182914D01*
X183716206Y-92181000D01*
X183463794Y-92181000D01*
X183450654Y-92182914D01*
X183407874Y-92189146D01*
X183372126Y-92189146D01*
X183329345Y-92182914D01*
X183316206Y-92181000D01*
X183063794Y-92181000D01*
X182989639Y-92191804D01*
X182989637Y-92191804D01*
X182989635Y-92191805D01*
X182875256Y-92247721D01*
X182866893Y-92253693D01*
X182865605Y-92251889D01*
X182816358Y-92278781D01*
X182746666Y-92273797D01*
X182713823Y-92252689D01*
X182713107Y-92253693D01*
X182704743Y-92247721D01*
X182590364Y-92191805D01*
X182590362Y-92191804D01*
X182590361Y-92191804D01*
X182516206Y-92181000D01*
X182263794Y-92181000D01*
X182250654Y-92182914D01*
X182207874Y-92189146D01*
X182172126Y-92189146D01*
X182129345Y-92182914D01*
X182116206Y-92181000D01*
X181863794Y-92181000D01*
X181850654Y-92182914D01*
X181807874Y-92189146D01*
X181772126Y-92189146D01*
X181729345Y-92182914D01*
X181716206Y-92181000D01*
X181463794Y-92181000D01*
X181459482Y-92181628D01*
X181447153Y-92183424D01*
X181377976Y-92173608D01*
X181325088Y-92127950D01*
X181305280Y-92060947D01*
X181306576Y-92042845D01*
X181309000Y-92026206D01*
X181309000Y-91773794D01*
X181300852Y-91717871D01*
X181300852Y-91682126D01*
X181309000Y-91626206D01*
X181309000Y-91373794D01*
X181300852Y-91317871D01*
X181300852Y-91282126D01*
X181309000Y-91226206D01*
X181309000Y-90973794D01*
X181298196Y-90899639D01*
X181289634Y-90882126D01*
X181242278Y-90785256D01*
X181236307Y-90776893D01*
X181238111Y-90775604D01*
X181211221Y-90726371D01*
X181216198Y-90656678D01*
X181237311Y-90623824D01*
X181236307Y-90623107D01*
X181242278Y-90614743D01*
X181289634Y-90517874D01*
X181298196Y-90500361D01*
X181309000Y-90426206D01*
X181309000Y-90173794D01*
X181300852Y-90117871D01*
X181300852Y-90082126D01*
X181309000Y-90026206D01*
X181309000Y-89773794D01*
X181300852Y-89717871D01*
X181300852Y-89682128D01*
X181309000Y-89626206D01*
X181309000Y-89373794D01*
X181300852Y-89317871D01*
X181300852Y-89282128D01*
X181309000Y-89226206D01*
X181309000Y-88973794D01*
X181300852Y-88917871D01*
X181300852Y-88882126D01*
X181309000Y-88826206D01*
X181309000Y-88573794D01*
X181300852Y-88517871D01*
X181300852Y-88482126D01*
X181309000Y-88426206D01*
X181309000Y-88173794D01*
X181300852Y-88117871D01*
X181300852Y-88082126D01*
X181309000Y-88026206D01*
X181309000Y-87773794D01*
X181307543Y-87763794D01*
X181908500Y-87763794D01*
X181908500Y-91236206D01*
X181919304Y-91310361D01*
X181919304Y-91310362D01*
X181919305Y-91310364D01*
X181975221Y-91424743D01*
X181975223Y-91424746D01*
X182065253Y-91514776D01*
X182065256Y-91514778D01*
X182174863Y-91568361D01*
X182179639Y-91570696D01*
X182253794Y-91581500D01*
X183938274Y-91581500D01*
X183962405Y-91586300D01*
X184097595Y-91586300D01*
X184121726Y-91581500D01*
X185726206Y-91581500D01*
X185800361Y-91570696D01*
X185857553Y-91542736D01*
X185914743Y-91514778D01*
X185914746Y-91514776D01*
X186004776Y-91424746D01*
X186004778Y-91424743D01*
X186057023Y-91317874D01*
X186060696Y-91310361D01*
X186071500Y-91236206D01*
X186071500Y-89614210D01*
X186073883Y-89590017D01*
X186074831Y-89585254D01*
X186086300Y-89527595D01*
X186086300Y-89392405D01*
X186073883Y-89329980D01*
X186071500Y-89305788D01*
X186071500Y-87763799D01*
X186071500Y-87763794D01*
X186060696Y-87689639D01*
X186036227Y-87639587D01*
X186004778Y-87575256D01*
X186004776Y-87575253D01*
X185914746Y-87485223D01*
X185914743Y-87485221D01*
X185800364Y-87429305D01*
X185800362Y-87429304D01*
X185800361Y-87429304D01*
X185726206Y-87418500D01*
X182253794Y-87418500D01*
X182179639Y-87429304D01*
X182179637Y-87429304D01*
X182179635Y-87429305D01*
X182065256Y-87485221D01*
X182065253Y-87485223D01*
X181975223Y-87575253D01*
X181975221Y-87575256D01*
X181919305Y-87689635D01*
X181919304Y-87689637D01*
X181919304Y-87689639D01*
X181908500Y-87763794D01*
X181307543Y-87763794D01*
X181300852Y-87717871D01*
X181300852Y-87682126D01*
X181309000Y-87626206D01*
X181309000Y-87373794D01*
X181300852Y-87317871D01*
X181300852Y-87282128D01*
X181309000Y-87226206D01*
X181309000Y-86973794D01*
X181306576Y-86957157D01*
X181316389Y-86887981D01*
X181362044Y-86835091D01*
X181429046Y-86815280D01*
X181447155Y-86816575D01*
X181463794Y-86819000D01*
X181463795Y-86819000D01*
X181716204Y-86819000D01*
X181716206Y-86819000D01*
X181772128Y-86810852D01*
X181807872Y-86810852D01*
X181863794Y-86819000D01*
X181863796Y-86819000D01*
X182116204Y-86819000D01*
X182116206Y-86819000D01*
X182172128Y-86810852D01*
X182207872Y-86810852D01*
X182263794Y-86819000D01*
X182263796Y-86819000D01*
X182516204Y-86819000D01*
X182516206Y-86819000D01*
X182572128Y-86810852D01*
X182607872Y-86810852D01*
X182663794Y-86819000D01*
X182663796Y-86819000D01*
X182916204Y-86819000D01*
X182916206Y-86819000D01*
X182972128Y-86810852D01*
X183007872Y-86810852D01*
X183063794Y-86819000D01*
X183063796Y-86819000D01*
X183316200Y-86819000D01*
X183316206Y-86819000D01*
X183390361Y-86808196D01*
X183447553Y-86780236D01*
X183504743Y-86752278D01*
X183504746Y-86752276D01*
X183594776Y-86662246D01*
X183594776Y-86662245D01*
X183640099Y-86569539D01*
X183651044Y-86557559D01*
X183657786Y-86542797D01*
X183674126Y-86532295D01*
X183687227Y-86517957D01*
X183703522Y-86513404D01*
X183716564Y-86505023D01*
X183751499Y-86500000D01*
X183828501Y-86500000D01*
X183895540Y-86519685D01*
G37*
%TD.AperFunction*%
%TD*%
%TA.AperFunction,Conductor*%
%TO.N,+3V3*%
G36*
X169100499Y-67500057D02*
G01*
X169167526Y-67519780D01*
X169213251Y-67572610D01*
X169223155Y-67641774D01*
X169219504Y-67658651D01*
X169187155Y-67769999D01*
X169187155Y-67770000D01*
X170812845Y-67770000D01*
X170812844Y-67769999D01*
X170780795Y-67659683D01*
X170780994Y-67589813D01*
X170818936Y-67531143D01*
X170882575Y-67502300D01*
X170899928Y-67501088D01*
X171902724Y-67501663D01*
X171969747Y-67521385D01*
X171990502Y-67538155D01*
X172189809Y-67738261D01*
X172189816Y-67738267D01*
X172220857Y-67766233D01*
X172220860Y-67766235D01*
X172241666Y-67783034D01*
X172266310Y-67801364D01*
X172375577Y-67853164D01*
X172410937Y-67863547D01*
X172469713Y-67901321D01*
X172498738Y-67964877D01*
X172500000Y-67982523D01*
X172500000Y-70500000D01*
X172500000Y-71000000D01*
X172500000Y-82500000D01*
X173500000Y-84000000D01*
X177748057Y-84000000D01*
X177815096Y-84019685D01*
X177860851Y-84072489D01*
X177870795Y-84141647D01*
X177862618Y-84171453D01*
X177810743Y-84296689D01*
X177810741Y-84296697D01*
X177784369Y-84429276D01*
X177784369Y-84564475D01*
X177810741Y-84697054D01*
X177810743Y-84697062D01*
X177863194Y-84823690D01*
X177870663Y-84893160D01*
X177847438Y-84946067D01*
X177831224Y-84967447D01*
X177831222Y-84967452D01*
X177779138Y-85099526D01*
X177779136Y-85099534D01*
X177769169Y-85182534D01*
X177769169Y-85533407D01*
X177779136Y-85616407D01*
X177779137Y-85616411D01*
X177815782Y-85709336D01*
X177822063Y-85778922D01*
X177789726Y-85840858D01*
X177788111Y-85842503D01*
X177779938Y-85850676D01*
X177779929Y-85850687D01*
X177698264Y-85988776D01*
X177657825Y-86127971D01*
X179283513Y-86127971D01*
X179283513Y-86127970D01*
X179243074Y-85988777D01*
X179161407Y-85850685D01*
X179161400Y-85850676D01*
X179153229Y-85842505D01*
X179119744Y-85781182D01*
X179124728Y-85711490D01*
X179125527Y-85709406D01*
X179162201Y-85616410D01*
X179172169Y-85533407D01*
X179172169Y-85182535D01*
X179162201Y-85099532D01*
X179110114Y-84967449D01*
X179110113Y-84967448D01*
X179110113Y-84967447D01*
X179093901Y-84946069D01*
X179069077Y-84880758D01*
X179078143Y-84823690D01*
X179078857Y-84821964D01*
X179078860Y-84821961D01*
X179130595Y-84697062D01*
X179156969Y-84564471D01*
X179156969Y-84429281D01*
X179156969Y-84429278D01*
X179156968Y-84429276D01*
X179130596Y-84296697D01*
X179130595Y-84296690D01*
X179078860Y-84171791D01*
X179078720Y-84171453D01*
X179071251Y-84101983D01*
X179102526Y-84039504D01*
X179162615Y-84003852D01*
X179193281Y-84000000D01*
X179378372Y-84000000D01*
X179445411Y-84019685D01*
X179491166Y-84072489D01*
X179502349Y-84121605D01*
X179541381Y-86141972D01*
X179540596Y-86144846D01*
X179541603Y-86153475D01*
X179553250Y-86756321D01*
X179534864Y-86823728D01*
X179482954Y-86870494D01*
X179429273Y-86882716D01*
X179374656Y-86882716D01*
X179307617Y-86863031D01*
X179261862Y-86810227D01*
X179251918Y-86741069D01*
X179255580Y-86724121D01*
X179283513Y-86627971D01*
X177657824Y-86627971D01*
X177685758Y-86724121D01*
X177685559Y-86793991D01*
X177647617Y-86852661D01*
X177583978Y-86881504D01*
X177566682Y-86882716D01*
X175105795Y-86882716D01*
X175038756Y-86863031D01*
X175019653Y-86847910D01*
X170037858Y-82036562D01*
X170003311Y-81975831D01*
X170000000Y-81947368D01*
X170000000Y-70000000D01*
X168270000Y-68270000D01*
X169187156Y-68270000D01*
X169227595Y-68409194D01*
X169309261Y-68547285D01*
X169309268Y-68547294D01*
X169422705Y-68660731D01*
X169422714Y-68660738D01*
X169560808Y-68742406D01*
X169560811Y-68742407D01*
X169714871Y-68787166D01*
X169714877Y-68787167D01*
X169750000Y-68789931D01*
X169750000Y-68789930D01*
X170250000Y-68789930D01*
X170285122Y-68787167D01*
X170285128Y-68787166D01*
X170439188Y-68742407D01*
X170439191Y-68742406D01*
X170577285Y-68660738D01*
X170577294Y-68660731D01*
X170690731Y-68547294D01*
X170690738Y-68547285D01*
X170772404Y-68409194D01*
X170812844Y-68270000D01*
X170250000Y-68270000D01*
X170250000Y-68789930D01*
X169750000Y-68789930D01*
X169750000Y-68270000D01*
X169187156Y-68270000D01*
X168270000Y-68270000D01*
X167711681Y-67711681D01*
X167678196Y-67650358D01*
X167683180Y-67580666D01*
X167725052Y-67524733D01*
X167790516Y-67500316D01*
X167799362Y-67500000D01*
X168999999Y-67500000D01*
X169000095Y-67500000D01*
X169100499Y-67500057D01*
G37*
%TD.AperFunction*%
%TD*%
%TA.AperFunction,Conductor*%
%TO.N,+3V3*%
G36*
X201493039Y-72119685D02*
G01*
X201538794Y-72172489D01*
X201550000Y-72224000D01*
X201550000Y-76250562D01*
X201530315Y-76317601D01*
X201513681Y-76338243D01*
X199827310Y-78024613D01*
X199827308Y-78024615D01*
X199796301Y-78099477D01*
X199796300Y-78099482D01*
X199796300Y-79864594D01*
X199776615Y-79931633D01*
X199771007Y-79939647D01*
X195393227Y-85697094D01*
X195382201Y-85709722D01*
X193807744Y-87284181D01*
X193746421Y-87317666D01*
X193720063Y-87320500D01*
X191081728Y-87320500D01*
X191076427Y-87320387D01*
X190714723Y-87304909D01*
X190648586Y-87282376D01*
X190605131Y-87227664D01*
X190596096Y-87185237D01*
X190545908Y-85709722D01*
X190545419Y-85695330D01*
X190562813Y-85627662D01*
X190614031Y-85580139D01*
X190654560Y-85568002D01*
X190708439Y-85561532D01*
X190840522Y-85509445D01*
X190953654Y-85423654D01*
X191024005Y-85330881D01*
X191080196Y-85289360D01*
X191149917Y-85284808D01*
X191211031Y-85318672D01*
X191229540Y-85342687D01*
X191293775Y-85451303D01*
X191293782Y-85451312D01*
X191407219Y-85564749D01*
X191407228Y-85564756D01*
X191545322Y-85646424D01*
X191545325Y-85646425D01*
X191699385Y-85691184D01*
X191699391Y-85691185D01*
X191734514Y-85693949D01*
X191734514Y-85693948D01*
X192234514Y-85693948D01*
X192269636Y-85691185D01*
X192269642Y-85691184D01*
X192423702Y-85646425D01*
X192423705Y-85646424D01*
X192561799Y-85564756D01*
X192561808Y-85564749D01*
X192675245Y-85451312D01*
X192675252Y-85451303D01*
X192756918Y-85313212D01*
X192797358Y-85174018D01*
X192234514Y-85174018D01*
X192234514Y-85693948D01*
X191734514Y-85693948D01*
X191734514Y-85048018D01*
X191754199Y-84980979D01*
X191807003Y-84935224D01*
X191858514Y-84924018D01*
X191984514Y-84924018D01*
X191984514Y-84798018D01*
X192004199Y-84730979D01*
X192057003Y-84685224D01*
X192108514Y-84674018D01*
X192797358Y-84674018D01*
X192756918Y-84534823D01*
X192675252Y-84396732D01*
X192675245Y-84396723D01*
X192667074Y-84388552D01*
X192633589Y-84327229D01*
X192638573Y-84257537D01*
X192639372Y-84255453D01*
X192676046Y-84162457D01*
X192686014Y-84079454D01*
X192686014Y-83728582D01*
X192676046Y-83645579D01*
X192623959Y-83513496D01*
X192623958Y-83513495D01*
X192623958Y-83513494D01*
X192538168Y-83400363D01*
X192425037Y-83314573D01*
X192292950Y-83262485D01*
X192209950Y-83252518D01*
X191759078Y-83252518D01*
X191676077Y-83262485D01*
X191676076Y-83262485D01*
X191543990Y-83314573D01*
X191430859Y-83400363D01*
X191345068Y-83513496D01*
X191345067Y-83513498D01*
X191308403Y-83606472D01*
X191265498Y-83661616D01*
X191199590Y-83684809D01*
X191131605Y-83668688D01*
X191083129Y-83618371D01*
X191077698Y-83606482D01*
X191039445Y-83509478D01*
X191039444Y-83509477D01*
X191039444Y-83509476D01*
X190953654Y-83396345D01*
X190840523Y-83310555D01*
X190708436Y-83258467D01*
X190658148Y-83252428D01*
X190593934Y-83224890D01*
X190554802Y-83167007D01*
X190549032Y-83124395D01*
X190550000Y-83100009D01*
X190550000Y-77147583D01*
X190569685Y-77080544D01*
X190581832Y-77064631D01*
X195013057Y-72141048D01*
X195072535Y-72104387D01*
X195105225Y-72100000D01*
X201426000Y-72100000D01*
X201493039Y-72119685D01*
G37*
%TD.AperFunction*%
%TD*%
%TA.AperFunction,Conductor*%
%TO.N,GND*%
G36*
X183993039Y-96829685D02*
G01*
X184038794Y-96882489D01*
X184050000Y-96934000D01*
X184050000Y-97579930D01*
X184062571Y-97578941D01*
X184130948Y-97593305D01*
X184180705Y-97642357D01*
X184196300Y-97702559D01*
X184196300Y-105264262D01*
X184176615Y-105331301D01*
X184159981Y-105351943D01*
X183354650Y-106157273D01*
X183293327Y-106190758D01*
X183265693Y-106192726D01*
X183265693Y-106193500D01*
X183261206Y-106193500D01*
X182338794Y-106193500D01*
X182264639Y-106204304D01*
X182264637Y-106204304D01*
X182264635Y-106204305D01*
X182150256Y-106260221D01*
X182150253Y-106260223D01*
X182060223Y-106350253D01*
X182060221Y-106350256D01*
X182004305Y-106464635D01*
X182004304Y-106464637D01*
X182004304Y-106464639D01*
X181993500Y-106538794D01*
X181993500Y-107461206D01*
X182004304Y-107535361D01*
X182004304Y-107535362D01*
X182004305Y-107535364D01*
X182060221Y-107649743D01*
X182060223Y-107649746D01*
X182150253Y-107739776D01*
X182150256Y-107739778D01*
X182256774Y-107791851D01*
X182264639Y-107795696D01*
X182338794Y-107806500D01*
X182338800Y-107806500D01*
X183261202Y-107806500D01*
X183261206Y-107806500D01*
X183280488Y-107803690D01*
X183349660Y-107813501D01*
X183356826Y-107817040D01*
X183361854Y-107819728D01*
X183530182Y-107889451D01*
X183530194Y-107889454D01*
X183708890Y-107924999D01*
X183708894Y-107925000D01*
X183891106Y-107925000D01*
X183891109Y-107924999D01*
X184069805Y-107889454D01*
X184069817Y-107889451D01*
X184238145Y-107819728D01*
X184238157Y-107819721D01*
X184276286Y-107794245D01*
X184342963Y-107773367D01*
X184410343Y-107791851D01*
X184457034Y-107843830D01*
X184469164Y-107895530D01*
X184498156Y-109874183D01*
X184479455Y-109941504D01*
X184427327Y-109988028D01*
X184374169Y-110000000D01*
X173624000Y-110000000D01*
X173556961Y-109980315D01*
X173511206Y-109927511D01*
X173500000Y-109876000D01*
X173500000Y-102557942D01*
X179320607Y-102557942D01*
X179417437Y-102590029D01*
X179417444Y-102590030D01*
X179515025Y-102599999D01*
X180184965Y-102599999D01*
X180184981Y-102599998D01*
X180282558Y-102590030D01*
X180282559Y-102590029D01*
X180379390Y-102557943D01*
X180379390Y-102557942D01*
X179850001Y-102028552D01*
X179850000Y-102028552D01*
X179320607Y-102557942D01*
X173500000Y-102557942D01*
X173500000Y-100600000D01*
X174870069Y-100600000D01*
X174872832Y-100635122D01*
X174872833Y-100635128D01*
X174917592Y-100789188D01*
X174917593Y-100789191D01*
X174999261Y-100927285D01*
X174999268Y-100927294D01*
X175112705Y-101040731D01*
X175112714Y-101040738D01*
X175250805Y-101122404D01*
X175390000Y-101162844D01*
X175390000Y-100600000D01*
X174870069Y-100600000D01*
X173500000Y-100600000D01*
X173500000Y-99621766D01*
X173519685Y-99554727D01*
X173572489Y-99508972D01*
X173621743Y-99497786D01*
X174997609Y-99472770D01*
X175064993Y-99491233D01*
X175111700Y-99543197D01*
X175122899Y-99612163D01*
X175095035Y-99676236D01*
X175087543Y-99684431D01*
X174999265Y-99772709D01*
X174999261Y-99772714D01*
X174917593Y-99910808D01*
X174917592Y-99910811D01*
X174872833Y-100064871D01*
X174872832Y-100064877D01*
X174870069Y-100100000D01*
X175516000Y-100100000D01*
X175583039Y-100119685D01*
X175628794Y-100172489D01*
X175640000Y-100224000D01*
X175640000Y-100350000D01*
X175766000Y-100350000D01*
X175833039Y-100369685D01*
X175878794Y-100422489D01*
X175890000Y-100474000D01*
X175890000Y-101162843D01*
X176029192Y-101122405D01*
X176036343Y-101118176D01*
X176104066Y-101100989D01*
X176170330Y-101123145D01*
X176186912Y-101136983D01*
X176199999Y-101149999D01*
X176200000Y-101149998D01*
X176200000Y-101150000D01*
X177173196Y-101116051D01*
X177240877Y-101133386D01*
X177288445Y-101184562D01*
X177300793Y-101253332D01*
X177292077Y-101287426D01*
X177283789Y-101307434D01*
X177283789Y-101307435D01*
X177268500Y-101423557D01*
X177268500Y-101926434D01*
X177281944Y-102028552D01*
X177283789Y-102042565D01*
X177343642Y-102187063D01*
X177438854Y-102311146D01*
X177562937Y-102406358D01*
X177707435Y-102466211D01*
X177823565Y-102481500D01*
X178476434Y-102481499D01*
X178592565Y-102466211D01*
X178737063Y-102406358D01*
X178861146Y-102311146D01*
X178888225Y-102275854D01*
X178899014Y-102266927D01*
X178908666Y-102262780D01*
X179496449Y-101674999D01*
X180203552Y-101674999D01*
X180203552Y-101675000D01*
X180761535Y-102232983D01*
X180761536Y-102232983D01*
X180787638Y-102190667D01*
X180787639Y-102190665D01*
X180840029Y-102032561D01*
X180849999Y-101934980D01*
X180849999Y-101415034D01*
X180849998Y-101415018D01*
X180840029Y-101317437D01*
X180787639Y-101159335D01*
X180787637Y-101159331D01*
X180761536Y-101117015D01*
X180761535Y-101117014D01*
X180203552Y-101674999D01*
X179496449Y-101674999D01*
X179635491Y-101535957D01*
X179673224Y-101498224D01*
X180003629Y-101167818D01*
X180064952Y-101134333D01*
X180091308Y-101131499D01*
X180176434Y-101131499D01*
X180176435Y-101131499D01*
X180188536Y-101129905D01*
X180292565Y-101116211D01*
X180437063Y-101056358D01*
X180561146Y-100961146D01*
X180656358Y-100837063D01*
X180716211Y-100692565D01*
X180731500Y-100576435D01*
X180731499Y-100073566D01*
X180716211Y-99957435D01*
X180686241Y-99885083D01*
X180678773Y-99815614D01*
X180710048Y-99753135D01*
X180713065Y-99750008D01*
X183029846Y-97433228D01*
X183091166Y-97399746D01*
X183160858Y-97404730D01*
X183205205Y-97433231D01*
X183222705Y-97450731D01*
X183222714Y-97450738D01*
X183360808Y-97532406D01*
X183360811Y-97532407D01*
X183514871Y-97577166D01*
X183514877Y-97577167D01*
X183550000Y-97579931D01*
X183550000Y-96934000D01*
X183569685Y-96866961D01*
X183622489Y-96821206D01*
X183674000Y-96810000D01*
X183926000Y-96810000D01*
X183993039Y-96829685D01*
G37*
%TD.AperFunction*%
%TD*%
M02*
