%TF.GenerationSoftware,KiCad,Pcbnew,9.0.7*%
%TF.CreationDate,2026-03-09T23:45:54-04:00*%
%TF.ProjectId,RP2350Adev,52503233-3530-4416-9465-762e6b696361,rev?*%
%TF.SameCoordinates,Original*%
%TF.FileFunction,Soldermask,Top*%
%TF.FilePolarity,Negative*%
%FSLAX46Y46*%
G04 Gerber Fmt 4.6, Leading zero omitted, Abs format (unit mm)*
G04 Created by KiCad (PCBNEW 9.0.7) date 2026-03-09 23:45:54*
%MOMM*%
%LPD*%
G01*
G04 APERTURE LIST*
G04 APERTURE END LIST*
G36*
X164746742Y-111946601D02*
G01*
X164900687Y-112010367D01*
X165039234Y-112102941D01*
X165157059Y-112220766D01*
X165249633Y-112359313D01*
X165313399Y-112513258D01*
X165345907Y-112676685D01*
X165345907Y-112843315D01*
X165313399Y-113006742D01*
X165249633Y-113160687D01*
X165157059Y-113299234D01*
X165039234Y-113417059D01*
X164900687Y-113509633D01*
X164746742Y-113573399D01*
X164583315Y-113605907D01*
X164416685Y-113605907D01*
X164253258Y-113573399D01*
X164099313Y-113509633D01*
X163960766Y-113417059D01*
X163842941Y-113299234D01*
X163750367Y-113160687D01*
X163686601Y-113006742D01*
X163654093Y-112843315D01*
X163654093Y-112676685D01*
X163686601Y-112513258D01*
X163750367Y-112359313D01*
X163842941Y-112220766D01*
X163960766Y-112102941D01*
X164099313Y-112010367D01*
X164253258Y-111946601D01*
X164416685Y-111914093D01*
X164583315Y-111914093D01*
X164746742Y-111946601D01*
G37*
G36*
X203746742Y-111926601D02*
G01*
X203900687Y-111990367D01*
X204039234Y-112082941D01*
X204157059Y-112200766D01*
X204249633Y-112339313D01*
X204313399Y-112493258D01*
X204345907Y-112656685D01*
X204345907Y-112823315D01*
X204313399Y-112986742D01*
X204249633Y-113140687D01*
X204157059Y-113279234D01*
X204039234Y-113397059D01*
X203900687Y-113489633D01*
X203746742Y-113553399D01*
X203583315Y-113585907D01*
X203416685Y-113585907D01*
X203253258Y-113553399D01*
X203099313Y-113489633D01*
X202960766Y-113397059D01*
X202842941Y-113279234D01*
X202750367Y-113140687D01*
X202686601Y-112986742D01*
X202654093Y-112823315D01*
X202654093Y-112656685D01*
X202686601Y-112493258D01*
X202750367Y-112339313D01*
X202842941Y-112200766D01*
X202960766Y-112082941D01*
X203099313Y-111990367D01*
X203253258Y-111926601D01*
X203416685Y-111894093D01*
X203583315Y-111894093D01*
X203746742Y-111926601D01*
G37*
G36*
X164746742Y-109406601D02*
G01*
X164900687Y-109470367D01*
X165039234Y-109562941D01*
X165157059Y-109680766D01*
X165249633Y-109819313D01*
X165313399Y-109973258D01*
X165345907Y-110136685D01*
X165345907Y-110303315D01*
X165313399Y-110466742D01*
X165249633Y-110620687D01*
X165157059Y-110759234D01*
X165039234Y-110877059D01*
X164900687Y-110969633D01*
X164746742Y-111033399D01*
X164583315Y-111065907D01*
X164416685Y-111065907D01*
X164253258Y-111033399D01*
X164099313Y-110969633D01*
X163960766Y-110877059D01*
X163842941Y-110759234D01*
X163750367Y-110620687D01*
X163686601Y-110466742D01*
X163654093Y-110303315D01*
X163654093Y-110136685D01*
X163686601Y-109973258D01*
X163750367Y-109819313D01*
X163842941Y-109680766D01*
X163960766Y-109562941D01*
X164099313Y-109470367D01*
X164253258Y-109406601D01*
X164416685Y-109374093D01*
X164583315Y-109374093D01*
X164746742Y-109406601D01*
G37*
G36*
X203746742Y-109386601D02*
G01*
X203900687Y-109450367D01*
X204039234Y-109542941D01*
X204157059Y-109660766D01*
X204249633Y-109799313D01*
X204313399Y-109953258D01*
X204345907Y-110116685D01*
X204345907Y-110283315D01*
X204313399Y-110446742D01*
X204249633Y-110600687D01*
X204157059Y-110739234D01*
X204039234Y-110857059D01*
X203900687Y-110949633D01*
X203746742Y-111013399D01*
X203583315Y-111045907D01*
X203416685Y-111045907D01*
X203253258Y-111013399D01*
X203099313Y-110949633D01*
X202960766Y-110857059D01*
X202842941Y-110739234D01*
X202750367Y-110600687D01*
X202686601Y-110446742D01*
X202654093Y-110283315D01*
X202654093Y-110116685D01*
X202686601Y-109953258D01*
X202750367Y-109799313D01*
X202842941Y-109660766D01*
X202960766Y-109542941D01*
X203099313Y-109450367D01*
X203253258Y-109386601D01*
X203416685Y-109354093D01*
X203583315Y-109354093D01*
X203746742Y-109386601D01*
G37*
G36*
X164746742Y-106866601D02*
G01*
X164900687Y-106930367D01*
X165039234Y-107022941D01*
X165157059Y-107140766D01*
X165249633Y-107279313D01*
X165313399Y-107433258D01*
X165345907Y-107596685D01*
X165345907Y-107763315D01*
X165313399Y-107926742D01*
X165249633Y-108080687D01*
X165157059Y-108219234D01*
X165039234Y-108337059D01*
X164900687Y-108429633D01*
X164746742Y-108493399D01*
X164583315Y-108525907D01*
X164416685Y-108525907D01*
X164253258Y-108493399D01*
X164099313Y-108429633D01*
X163960766Y-108337059D01*
X163842941Y-108219234D01*
X163750367Y-108080687D01*
X163686601Y-107926742D01*
X163654093Y-107763315D01*
X163654093Y-107596685D01*
X163686601Y-107433258D01*
X163750367Y-107279313D01*
X163842941Y-107140766D01*
X163960766Y-107022941D01*
X164099313Y-106930367D01*
X164253258Y-106866601D01*
X164416685Y-106834093D01*
X164583315Y-106834093D01*
X164746742Y-106866601D01*
G37*
G36*
X203746742Y-106846601D02*
G01*
X203900687Y-106910367D01*
X204039234Y-107002941D01*
X204157059Y-107120766D01*
X204249633Y-107259313D01*
X204313399Y-107413258D01*
X204345907Y-107576685D01*
X204345907Y-107743315D01*
X204313399Y-107906742D01*
X204249633Y-108060687D01*
X204157059Y-108199234D01*
X204039234Y-108317059D01*
X203900687Y-108409633D01*
X203746742Y-108473399D01*
X203583315Y-108505907D01*
X203416685Y-108505907D01*
X203253258Y-108473399D01*
X203099313Y-108409633D01*
X202960766Y-108317059D01*
X202842941Y-108199234D01*
X202750367Y-108060687D01*
X202686601Y-107906742D01*
X202654093Y-107743315D01*
X202654093Y-107576685D01*
X202686601Y-107413258D01*
X202750367Y-107259313D01*
X202842941Y-107120766D01*
X202960766Y-107002941D01*
X203099313Y-106910367D01*
X203253258Y-106846601D01*
X203416685Y-106814093D01*
X203583315Y-106814093D01*
X203746742Y-106846601D01*
G37*
G36*
X183225000Y-107425000D02*
G01*
X182375000Y-107425000D01*
X182375000Y-106575000D01*
X183225000Y-106575000D01*
X183225000Y-107425000D01*
G37*
G36*
X183962640Y-106607351D02*
G01*
X184058724Y-106662825D01*
X184137175Y-106741276D01*
X184192649Y-106837360D01*
X184221364Y-106944526D01*
X184221364Y-107055474D01*
X184192649Y-107162640D01*
X184137175Y-107258724D01*
X184058724Y-107337175D01*
X183962640Y-107392649D01*
X183855474Y-107421364D01*
X183744526Y-107421364D01*
X183637360Y-107392649D01*
X183541276Y-107337175D01*
X183462825Y-107258724D01*
X183407351Y-107162640D01*
X183378636Y-107055474D01*
X183378636Y-106944526D01*
X183407351Y-106837360D01*
X183462825Y-106741276D01*
X183541276Y-106662825D01*
X183637360Y-106607351D01*
X183744526Y-106578636D01*
X183855474Y-106578636D01*
X183962640Y-106607351D01*
G37*
G36*
X184962640Y-106607351D02*
G01*
X185058724Y-106662825D01*
X185137175Y-106741276D01*
X185192649Y-106837360D01*
X185221364Y-106944526D01*
X185221364Y-107055474D01*
X185192649Y-107162640D01*
X185137175Y-107258724D01*
X185058724Y-107337175D01*
X184962640Y-107392649D01*
X184855474Y-107421364D01*
X184744526Y-107421364D01*
X184637360Y-107392649D01*
X184541276Y-107337175D01*
X184462825Y-107258724D01*
X184407351Y-107162640D01*
X184378636Y-107055474D01*
X184378636Y-106944526D01*
X184407351Y-106837360D01*
X184462825Y-106741276D01*
X184541276Y-106662825D01*
X184637360Y-106607351D01*
X184744526Y-106578636D01*
X184855474Y-106578636D01*
X184962640Y-106607351D01*
G37*
G36*
X164746742Y-104326601D02*
G01*
X164900687Y-104390367D01*
X165039234Y-104482941D01*
X165157059Y-104600766D01*
X165249633Y-104739313D01*
X165313399Y-104893258D01*
X165345907Y-105056685D01*
X165345907Y-105223315D01*
X165313399Y-105386742D01*
X165249633Y-105540687D01*
X165157059Y-105679234D01*
X165039234Y-105797059D01*
X164900687Y-105889633D01*
X164746742Y-105953399D01*
X164583315Y-105985907D01*
X164416685Y-105985907D01*
X164253258Y-105953399D01*
X164099313Y-105889633D01*
X163960766Y-105797059D01*
X163842941Y-105679234D01*
X163750367Y-105540687D01*
X163686601Y-105386742D01*
X163654093Y-105223315D01*
X163654093Y-105056685D01*
X163686601Y-104893258D01*
X163750367Y-104739313D01*
X163842941Y-104600766D01*
X163960766Y-104482941D01*
X164099313Y-104390367D01*
X164253258Y-104326601D01*
X164416685Y-104294093D01*
X164583315Y-104294093D01*
X164746742Y-104326601D01*
G37*
G36*
X203746742Y-104306601D02*
G01*
X203900687Y-104370367D01*
X204039234Y-104462941D01*
X204157059Y-104580766D01*
X204249633Y-104719313D01*
X204313399Y-104873258D01*
X204345907Y-105036685D01*
X204345907Y-105203315D01*
X204313399Y-105366742D01*
X204249633Y-105520687D01*
X204157059Y-105659234D01*
X204039234Y-105777059D01*
X203900687Y-105869633D01*
X203746742Y-105933399D01*
X203583315Y-105965907D01*
X203416685Y-105965907D01*
X203253258Y-105933399D01*
X203099313Y-105869633D01*
X202960766Y-105777059D01*
X202842941Y-105659234D01*
X202750367Y-105520687D01*
X202686601Y-105366742D01*
X202654093Y-105203315D01*
X202654093Y-105036685D01*
X202686601Y-104873258D01*
X202750367Y-104719313D01*
X202842941Y-104580766D01*
X202960766Y-104462941D01*
X203099313Y-104370367D01*
X203253258Y-104306601D01*
X203416685Y-104274093D01*
X203583315Y-104274093D01*
X203746742Y-104306601D01*
G37*
G36*
X191050000Y-105140000D02*
G01*
X189350000Y-105140000D01*
X189350000Y-104240000D01*
X191050000Y-104240000D01*
X191050000Y-105140000D01*
G37*
G36*
X164746742Y-101786601D02*
G01*
X164900687Y-101850367D01*
X165039234Y-101942941D01*
X165157059Y-102060766D01*
X165249633Y-102199313D01*
X165313399Y-102353258D01*
X165345907Y-102516685D01*
X165345907Y-102683315D01*
X165313399Y-102846742D01*
X165249633Y-103000687D01*
X165157059Y-103139234D01*
X165039234Y-103257059D01*
X164900687Y-103349633D01*
X164746742Y-103413399D01*
X164583315Y-103445907D01*
X164416685Y-103445907D01*
X164253258Y-103413399D01*
X164099313Y-103349633D01*
X163960766Y-103257059D01*
X163842941Y-103139234D01*
X163750367Y-103000687D01*
X163686601Y-102846742D01*
X163654093Y-102683315D01*
X163654093Y-102516685D01*
X163686601Y-102353258D01*
X163750367Y-102199313D01*
X163842941Y-102060766D01*
X163960766Y-101942941D01*
X164099313Y-101850367D01*
X164253258Y-101786601D01*
X164416685Y-101754093D01*
X164583315Y-101754093D01*
X164746742Y-101786601D01*
G37*
G36*
X203746742Y-101766601D02*
G01*
X203900687Y-101830367D01*
X204039234Y-101922941D01*
X204157059Y-102040766D01*
X204249633Y-102179313D01*
X204313399Y-102333258D01*
X204345907Y-102496685D01*
X204345907Y-102663315D01*
X204313399Y-102826742D01*
X204249633Y-102980687D01*
X204157059Y-103119234D01*
X204039234Y-103237059D01*
X203900687Y-103329633D01*
X203746742Y-103393399D01*
X203583315Y-103425907D01*
X203416685Y-103425907D01*
X203253258Y-103393399D01*
X203099313Y-103329633D01*
X202960766Y-103237059D01*
X202842941Y-103119234D01*
X202750367Y-102980687D01*
X202686601Y-102826742D01*
X202654093Y-102663315D01*
X202654093Y-102496685D01*
X202686601Y-102333258D01*
X202750367Y-102179313D01*
X202842941Y-102040766D01*
X202960766Y-101922941D01*
X203099313Y-101830367D01*
X203253258Y-101766601D01*
X203416685Y-101734093D01*
X203583315Y-101734093D01*
X203746742Y-101766601D01*
G37*
G36*
X178518820Y-101266176D02*
G01*
X178587760Y-101312240D01*
X178633824Y-101381180D01*
X178650000Y-101462500D01*
X178650000Y-101887500D01*
X178633824Y-101968820D01*
X178587760Y-102037760D01*
X178518820Y-102083824D01*
X178437500Y-102100000D01*
X177862500Y-102100000D01*
X177781180Y-102083824D01*
X177712240Y-102037760D01*
X177666176Y-101968820D01*
X177650000Y-101887500D01*
X177650000Y-101462500D01*
X177666176Y-101381180D01*
X177712240Y-101312240D01*
X177781180Y-101266176D01*
X177862500Y-101250000D01*
X178437500Y-101250000D01*
X178518820Y-101266176D01*
G37*
G36*
X180218820Y-101266176D02*
G01*
X180287760Y-101312240D01*
X180333824Y-101381180D01*
X180350000Y-101462500D01*
X180350000Y-101887500D01*
X180333824Y-101968820D01*
X180287760Y-102037760D01*
X180218820Y-102083824D01*
X180137500Y-102100000D01*
X179562500Y-102100000D01*
X179481180Y-102083824D01*
X179412240Y-102037760D01*
X179366176Y-101968820D01*
X179350000Y-101887500D01*
X179350000Y-101462500D01*
X179366176Y-101381180D01*
X179412240Y-101312240D01*
X179481180Y-101266176D01*
X179562500Y-101250000D01*
X180137500Y-101250000D01*
X180218820Y-101266176D01*
G37*
G36*
X191050000Y-101740000D02*
G01*
X189350000Y-101740000D01*
X189350000Y-100840000D01*
X191050000Y-100840000D01*
X191050000Y-101740000D01*
G37*
G36*
X164746742Y-99246601D02*
G01*
X164900687Y-99310367D01*
X165039234Y-99402941D01*
X165157059Y-99520766D01*
X165249633Y-99659313D01*
X165313399Y-99813258D01*
X165345907Y-99976685D01*
X165345907Y-100143315D01*
X165313399Y-100306742D01*
X165249633Y-100460687D01*
X165157059Y-100599234D01*
X165039234Y-100717059D01*
X164900687Y-100809633D01*
X164746742Y-100873399D01*
X164583315Y-100905907D01*
X164416685Y-100905907D01*
X164253258Y-100873399D01*
X164099313Y-100809633D01*
X163960766Y-100717059D01*
X163842941Y-100599234D01*
X163750367Y-100460687D01*
X163686601Y-100306742D01*
X163654093Y-100143315D01*
X163654093Y-99976685D01*
X163686601Y-99813258D01*
X163750367Y-99659313D01*
X163842941Y-99520766D01*
X163960766Y-99402941D01*
X164099313Y-99310367D01*
X164253258Y-99246601D01*
X164416685Y-99214093D01*
X164583315Y-99214093D01*
X164746742Y-99246601D01*
G37*
G36*
X203746742Y-99226601D02*
G01*
X203900687Y-99290367D01*
X204039234Y-99382941D01*
X204157059Y-99500766D01*
X204249633Y-99639313D01*
X204313399Y-99793258D01*
X204345907Y-99956685D01*
X204345907Y-100123315D01*
X204313399Y-100286742D01*
X204249633Y-100440687D01*
X204157059Y-100579234D01*
X204039234Y-100697059D01*
X203900687Y-100789633D01*
X203746742Y-100853399D01*
X203583315Y-100885907D01*
X203416685Y-100885907D01*
X203253258Y-100853399D01*
X203099313Y-100789633D01*
X202960766Y-100697059D01*
X202842941Y-100579234D01*
X202750367Y-100440687D01*
X202686601Y-100286742D01*
X202654093Y-100123315D01*
X202654093Y-99956685D01*
X202686601Y-99793258D01*
X202750367Y-99639313D01*
X202842941Y-99500766D01*
X202960766Y-99382941D01*
X203099313Y-99290367D01*
X203253258Y-99226601D01*
X203416685Y-99194093D01*
X203583315Y-99194093D01*
X203746742Y-99226601D01*
G37*
G36*
X178518820Y-99916176D02*
G01*
X178587760Y-99962240D01*
X178633824Y-100031180D01*
X178650000Y-100112500D01*
X178650000Y-100537500D01*
X178633824Y-100618820D01*
X178587760Y-100687760D01*
X178518820Y-100733824D01*
X178437500Y-100750000D01*
X177862500Y-100750000D01*
X177781180Y-100733824D01*
X177712240Y-100687760D01*
X177666176Y-100618820D01*
X177650000Y-100537500D01*
X177650000Y-100112500D01*
X177666176Y-100031180D01*
X177712240Y-99962240D01*
X177781180Y-99916176D01*
X177862500Y-99900000D01*
X178437500Y-99900000D01*
X178518820Y-99916176D01*
G37*
G36*
X180218820Y-99916176D02*
G01*
X180287760Y-99962240D01*
X180333824Y-100031180D01*
X180350000Y-100112500D01*
X180350000Y-100537500D01*
X180333824Y-100618820D01*
X180287760Y-100687760D01*
X180218820Y-100733824D01*
X180137500Y-100750000D01*
X179562500Y-100750000D01*
X179481180Y-100733824D01*
X179412240Y-100687760D01*
X179366176Y-100618820D01*
X179350000Y-100537500D01*
X179350000Y-100112500D01*
X179366176Y-100031180D01*
X179412240Y-99962240D01*
X179481180Y-99916176D01*
X179562500Y-99900000D01*
X180137500Y-99900000D01*
X180218820Y-99916176D01*
G37*
G36*
X175826662Y-100040276D02*
G01*
X175870459Y-100069541D01*
X175899724Y-100113338D01*
X175910000Y-100165000D01*
X175910000Y-100535000D01*
X175899724Y-100586662D01*
X175870459Y-100630459D01*
X175826662Y-100659724D01*
X175775000Y-100670000D01*
X175505000Y-100670000D01*
X175453338Y-100659724D01*
X175409541Y-100630459D01*
X175380276Y-100586662D01*
X175370000Y-100535000D01*
X175370000Y-100165000D01*
X175380276Y-100113338D01*
X175409541Y-100069541D01*
X175453338Y-100040276D01*
X175505000Y-100030000D01*
X175775000Y-100030000D01*
X175826662Y-100040276D01*
G37*
G36*
X176846662Y-100040276D02*
G01*
X176890459Y-100069541D01*
X176919724Y-100113338D01*
X176930000Y-100165000D01*
X176930000Y-100535000D01*
X176919724Y-100586662D01*
X176890459Y-100630459D01*
X176846662Y-100659724D01*
X176795000Y-100670000D01*
X176525000Y-100670000D01*
X176473338Y-100659724D01*
X176429541Y-100630459D01*
X176400276Y-100586662D01*
X176390000Y-100535000D01*
X176390000Y-100165000D01*
X176400276Y-100113338D01*
X176429541Y-100069541D01*
X176473338Y-100040276D01*
X176525000Y-100030000D01*
X176795000Y-100030000D01*
X176846662Y-100040276D01*
G37*
G36*
X190220373Y-99086077D02*
G01*
X190264170Y-99115342D01*
X190293435Y-99159139D01*
X190303711Y-99210801D01*
X190303711Y-99480801D01*
X190293435Y-99532463D01*
X190264170Y-99576260D01*
X190220373Y-99605525D01*
X190168711Y-99615801D01*
X189798711Y-99615801D01*
X189747049Y-99605525D01*
X189703252Y-99576260D01*
X189673987Y-99532463D01*
X189663711Y-99480801D01*
X189663711Y-99210801D01*
X189673987Y-99159139D01*
X189703252Y-99115342D01*
X189747049Y-99086077D01*
X189798711Y-99075801D01*
X190168711Y-99075801D01*
X190220373Y-99086077D01*
G37*
G36*
X190220373Y-98066077D02*
G01*
X190264170Y-98095342D01*
X190293435Y-98139139D01*
X190303711Y-98190801D01*
X190303711Y-98460801D01*
X190293435Y-98512463D01*
X190264170Y-98556260D01*
X190220373Y-98585525D01*
X190168711Y-98595801D01*
X189798711Y-98595801D01*
X189747049Y-98585525D01*
X189703252Y-98556260D01*
X189673987Y-98512463D01*
X189663711Y-98460801D01*
X189663711Y-98190801D01*
X189673987Y-98139139D01*
X189703252Y-98095342D01*
X189747049Y-98066077D01*
X189798711Y-98055801D01*
X190168711Y-98055801D01*
X190220373Y-98066077D01*
G37*
G36*
X164746742Y-96706601D02*
G01*
X164900687Y-96770367D01*
X165039234Y-96862941D01*
X165157059Y-96980766D01*
X165249633Y-97119313D01*
X165313399Y-97273258D01*
X165345907Y-97436685D01*
X165345907Y-97603315D01*
X165313399Y-97766742D01*
X165249633Y-97920687D01*
X165157059Y-98059234D01*
X165039234Y-98177059D01*
X164900687Y-98269633D01*
X164746742Y-98333399D01*
X164583315Y-98365907D01*
X164416685Y-98365907D01*
X164253258Y-98333399D01*
X164099313Y-98269633D01*
X163960766Y-98177059D01*
X163842941Y-98059234D01*
X163750367Y-97920687D01*
X163686601Y-97766742D01*
X163654093Y-97603315D01*
X163654093Y-97436685D01*
X163686601Y-97273258D01*
X163750367Y-97119313D01*
X163842941Y-96980766D01*
X163960766Y-96862941D01*
X164099313Y-96770367D01*
X164253258Y-96706601D01*
X164416685Y-96674093D01*
X164583315Y-96674093D01*
X164746742Y-96706601D01*
G37*
G36*
X203746742Y-96686601D02*
G01*
X203900687Y-96750367D01*
X204039234Y-96842941D01*
X204157059Y-96960766D01*
X204249633Y-97099313D01*
X204313399Y-97253258D01*
X204345907Y-97416685D01*
X204345907Y-97583315D01*
X204313399Y-97746742D01*
X204249633Y-97900687D01*
X204157059Y-98039234D01*
X204039234Y-98157059D01*
X203900687Y-98249633D01*
X203746742Y-98313399D01*
X203583315Y-98345907D01*
X203416685Y-98345907D01*
X203253258Y-98313399D01*
X203099313Y-98249633D01*
X202960766Y-98157059D01*
X202842941Y-98039234D01*
X202750367Y-97900687D01*
X202686601Y-97746742D01*
X202654093Y-97583315D01*
X202654093Y-97416685D01*
X202686601Y-97253258D01*
X202750367Y-97099313D01*
X202842941Y-96960766D01*
X202960766Y-96842941D01*
X203099313Y-96750367D01*
X203253258Y-96686601D01*
X203416685Y-96654093D01*
X203583315Y-96654093D01*
X203746742Y-96686601D01*
G37*
G36*
X184036662Y-96550276D02*
G01*
X184080459Y-96579541D01*
X184109724Y-96623338D01*
X184120000Y-96675000D01*
X184120000Y-96945000D01*
X184109724Y-96996662D01*
X184080459Y-97040459D01*
X184036662Y-97069724D01*
X183985000Y-97080000D01*
X183615000Y-97080000D01*
X183563338Y-97069724D01*
X183519541Y-97040459D01*
X183490276Y-96996662D01*
X183480000Y-96945000D01*
X183480000Y-96675000D01*
X183490276Y-96623338D01*
X183519541Y-96579541D01*
X183563338Y-96550276D01*
X183615000Y-96540000D01*
X183985000Y-96540000D01*
X184036662Y-96550276D01*
G37*
G36*
X192173063Y-95504148D02*
G01*
X192216860Y-95533413D01*
X192246125Y-95577210D01*
X192256401Y-95628872D01*
X192256401Y-95998872D01*
X192246125Y-96050534D01*
X192216860Y-96094331D01*
X192173063Y-96123596D01*
X192121401Y-96133872D01*
X191851401Y-96133872D01*
X191799739Y-96123596D01*
X191755942Y-96094331D01*
X191726677Y-96050534D01*
X191716401Y-95998872D01*
X191716401Y-95628872D01*
X191726677Y-95577210D01*
X191755942Y-95533413D01*
X191799739Y-95504148D01*
X191851401Y-95493872D01*
X192121401Y-95493872D01*
X192173063Y-95504148D01*
G37*
G36*
X193193063Y-95504148D02*
G01*
X193236860Y-95533413D01*
X193266125Y-95577210D01*
X193276401Y-95628872D01*
X193276401Y-95998872D01*
X193266125Y-96050534D01*
X193236860Y-96094331D01*
X193193063Y-96123596D01*
X193141401Y-96133872D01*
X192871401Y-96133872D01*
X192819739Y-96123596D01*
X192775942Y-96094331D01*
X192746677Y-96050534D01*
X192736401Y-95998872D01*
X192736401Y-95628872D01*
X192746677Y-95577210D01*
X192775942Y-95533413D01*
X192819739Y-95504148D01*
X192871401Y-95493872D01*
X193141401Y-95493872D01*
X193193063Y-95504148D01*
G37*
G36*
X184036662Y-95530276D02*
G01*
X184080459Y-95559541D01*
X184109724Y-95603338D01*
X184120000Y-95655000D01*
X184120000Y-95925000D01*
X184109724Y-95976662D01*
X184080459Y-96020459D01*
X184036662Y-96049724D01*
X183985000Y-96060000D01*
X183615000Y-96060000D01*
X183563338Y-96049724D01*
X183519541Y-96020459D01*
X183490276Y-95976662D01*
X183480000Y-95925000D01*
X183480000Y-95655000D01*
X183490276Y-95603338D01*
X183519541Y-95559541D01*
X183563338Y-95530276D01*
X183615000Y-95520000D01*
X183985000Y-95520000D01*
X184036662Y-95530276D01*
G37*
G36*
X196950000Y-96050000D02*
G01*
X195950000Y-96050000D01*
X195950000Y-95550000D01*
X196950000Y-95550000D01*
X196950000Y-96050000D01*
G37*
G36*
X199050000Y-96050000D02*
G01*
X198050000Y-96050000D01*
X198050000Y-95550000D01*
X199050000Y-95550000D01*
X199050000Y-96050000D01*
G37*
G36*
X182686662Y-95450276D02*
G01*
X182730459Y-95479541D01*
X182759724Y-95523338D01*
X182770000Y-95575000D01*
X182770000Y-95845000D01*
X182759724Y-95896662D01*
X182730459Y-95940459D01*
X182686662Y-95969724D01*
X182635000Y-95980000D01*
X182265000Y-95980000D01*
X182213338Y-95969724D01*
X182169541Y-95940459D01*
X182140276Y-95896662D01*
X182130000Y-95845000D01*
X182130000Y-95575000D01*
X182140276Y-95523338D01*
X182169541Y-95479541D01*
X182213338Y-95450276D01*
X182265000Y-95440000D01*
X182635000Y-95440000D01*
X182686662Y-95450276D01*
G37*
G36*
X164746742Y-94166601D02*
G01*
X164900687Y-94230367D01*
X165039234Y-94322941D01*
X165157059Y-94440766D01*
X165249633Y-94579313D01*
X165313399Y-94733258D01*
X165345907Y-94896685D01*
X165345907Y-95063315D01*
X165313399Y-95226742D01*
X165249633Y-95380687D01*
X165157059Y-95519234D01*
X165039234Y-95637059D01*
X164900687Y-95729633D01*
X164746742Y-95793399D01*
X164583315Y-95825907D01*
X164416685Y-95825907D01*
X164253258Y-95793399D01*
X164099313Y-95729633D01*
X163960766Y-95637059D01*
X163842941Y-95519234D01*
X163750367Y-95380687D01*
X163686601Y-95226742D01*
X163654093Y-95063315D01*
X163654093Y-94896685D01*
X163686601Y-94733258D01*
X163750367Y-94579313D01*
X163842941Y-94440766D01*
X163960766Y-94322941D01*
X164099313Y-94230367D01*
X164253258Y-94166601D01*
X164416685Y-94134093D01*
X164583315Y-94134093D01*
X164746742Y-94166601D01*
G37*
G36*
X203746742Y-94146601D02*
G01*
X203900687Y-94210367D01*
X204039234Y-94302941D01*
X204157059Y-94420766D01*
X204249633Y-94559313D01*
X204313399Y-94713258D01*
X204345907Y-94876685D01*
X204345907Y-95043315D01*
X204313399Y-95206742D01*
X204249633Y-95360687D01*
X204157059Y-95499234D01*
X204039234Y-95617059D01*
X203900687Y-95709633D01*
X203746742Y-95773399D01*
X203583315Y-95805907D01*
X203416685Y-95805907D01*
X203253258Y-95773399D01*
X203099313Y-95709633D01*
X202960766Y-95617059D01*
X202842941Y-95499234D01*
X202750367Y-95360687D01*
X202686601Y-95206742D01*
X202654093Y-95043315D01*
X202654093Y-94876685D01*
X202686601Y-94713258D01*
X202750367Y-94559313D01*
X202842941Y-94420766D01*
X202960766Y-94302941D01*
X203099313Y-94210367D01*
X203253258Y-94146601D01*
X203416685Y-94114093D01*
X203583315Y-94114093D01*
X203746742Y-94146601D01*
G37*
G36*
X196950000Y-95250000D02*
G01*
X195950000Y-95250000D01*
X195950000Y-94750000D01*
X196950000Y-94750000D01*
X196950000Y-95250000D01*
G37*
G36*
X199050000Y-95250000D02*
G01*
X198050000Y-95250000D01*
X198050000Y-94750000D01*
X199050000Y-94750000D01*
X199050000Y-95250000D01*
G37*
G36*
X187681662Y-94390276D02*
G01*
X187725459Y-94419541D01*
X187754724Y-94463338D01*
X187765000Y-94515000D01*
X187765000Y-94885000D01*
X187754724Y-94936662D01*
X187725459Y-94980459D01*
X187681662Y-95009724D01*
X187630000Y-95020000D01*
X187360000Y-95020000D01*
X187308338Y-95009724D01*
X187264541Y-94980459D01*
X187235276Y-94936662D01*
X187225000Y-94885000D01*
X187225000Y-94515000D01*
X187235276Y-94463338D01*
X187264541Y-94419541D01*
X187308338Y-94390276D01*
X187360000Y-94380000D01*
X187630000Y-94380000D01*
X187681662Y-94390276D01*
G37*
G36*
X188701662Y-94390276D02*
G01*
X188745459Y-94419541D01*
X188774724Y-94463338D01*
X188785000Y-94515000D01*
X188785000Y-94885000D01*
X188774724Y-94936662D01*
X188745459Y-94980459D01*
X188701662Y-95009724D01*
X188650000Y-95020000D01*
X188380000Y-95020000D01*
X188328338Y-95009724D01*
X188284541Y-94980459D01*
X188255276Y-94936662D01*
X188245000Y-94885000D01*
X188245000Y-94515000D01*
X188255276Y-94463338D01*
X188284541Y-94419541D01*
X188328338Y-94390276D01*
X188380000Y-94380000D01*
X188650000Y-94380000D01*
X188701662Y-94390276D01*
G37*
G36*
X182686662Y-94430276D02*
G01*
X182730459Y-94459541D01*
X182759724Y-94503338D01*
X182770000Y-94555000D01*
X182770000Y-94825000D01*
X182759724Y-94876662D01*
X182730459Y-94920459D01*
X182686662Y-94949724D01*
X182635000Y-94960000D01*
X182265000Y-94960000D01*
X182213338Y-94949724D01*
X182169541Y-94920459D01*
X182140276Y-94876662D01*
X182130000Y-94825000D01*
X182130000Y-94555000D01*
X182140276Y-94503338D01*
X182169541Y-94459541D01*
X182213338Y-94430276D01*
X182265000Y-94420000D01*
X182635000Y-94420000D01*
X182686662Y-94430276D01*
G37*
G36*
X192176662Y-94090276D02*
G01*
X192220459Y-94119541D01*
X192249724Y-94163338D01*
X192260000Y-94215000D01*
X192260000Y-94585000D01*
X192249724Y-94636662D01*
X192220459Y-94680459D01*
X192176662Y-94709724D01*
X192125000Y-94720000D01*
X191855000Y-94720000D01*
X191803338Y-94709724D01*
X191759541Y-94680459D01*
X191730276Y-94636662D01*
X191720000Y-94585000D01*
X191720000Y-94215000D01*
X191730276Y-94163338D01*
X191759541Y-94119541D01*
X191803338Y-94090276D01*
X191855000Y-94080000D01*
X192125000Y-94080000D01*
X192176662Y-94090276D01*
G37*
G36*
X193196662Y-94090276D02*
G01*
X193240459Y-94119541D01*
X193269724Y-94163338D01*
X193280000Y-94215000D01*
X193280000Y-94585000D01*
X193269724Y-94636662D01*
X193240459Y-94680459D01*
X193196662Y-94709724D01*
X193145000Y-94720000D01*
X192875000Y-94720000D01*
X192823338Y-94709724D01*
X192779541Y-94680459D01*
X192750276Y-94636662D01*
X192740000Y-94585000D01*
X192740000Y-94215000D01*
X192750276Y-94163338D01*
X192779541Y-94119541D01*
X192823338Y-94090276D01*
X192875000Y-94080000D01*
X193145000Y-94080000D01*
X193196662Y-94090276D01*
G37*
G36*
X181280000Y-93437500D02*
G01*
X181100000Y-93437500D01*
X181100000Y-92562500D01*
X181280000Y-92562500D01*
X181280000Y-93437500D01*
G37*
G36*
X181680000Y-93437500D02*
G01*
X181500000Y-93437500D01*
X181500000Y-92562500D01*
X181680000Y-92562500D01*
X181680000Y-93437500D01*
G37*
G36*
X182080000Y-93437500D02*
G01*
X181900000Y-93437500D01*
X181900000Y-92562500D01*
X182080000Y-92562500D01*
X182080000Y-93437500D01*
G37*
G36*
X182480000Y-93437500D02*
G01*
X182300000Y-93437500D01*
X182300000Y-92562500D01*
X182480000Y-92562500D01*
X182480000Y-93437500D01*
G37*
G36*
X182880000Y-93437500D02*
G01*
X182700000Y-93437500D01*
X182700000Y-92562500D01*
X182880000Y-92562500D01*
X182880000Y-93437500D01*
G37*
G36*
X183280000Y-93437500D02*
G01*
X183100000Y-93437500D01*
X183100000Y-92562500D01*
X183280000Y-92562500D01*
X183280000Y-93437500D01*
G37*
G36*
X183680000Y-93437500D02*
G01*
X183500000Y-93437500D01*
X183500000Y-92562500D01*
X183680000Y-92562500D01*
X183680000Y-93437500D01*
G37*
G36*
X184080000Y-93437500D02*
G01*
X183900000Y-93437500D01*
X183900000Y-92562500D01*
X184080000Y-92562500D01*
X184080000Y-93437500D01*
G37*
G36*
X184480000Y-93437500D02*
G01*
X184300000Y-93437500D01*
X184300000Y-92562500D01*
X184480000Y-92562500D01*
X184480000Y-93437500D01*
G37*
G36*
X184880000Y-93437500D02*
G01*
X184700000Y-93437500D01*
X184700000Y-92562500D01*
X184880000Y-92562500D01*
X184880000Y-93437500D01*
G37*
G36*
X185280000Y-93437500D02*
G01*
X185100000Y-93437500D01*
X185100000Y-92562500D01*
X185280000Y-92562500D01*
X185280000Y-93437500D01*
G37*
G36*
X185680000Y-93437500D02*
G01*
X185500000Y-93437500D01*
X185500000Y-92562500D01*
X185680000Y-92562500D01*
X185680000Y-93437500D01*
G37*
G36*
X186080000Y-93437500D02*
G01*
X185900000Y-93437500D01*
X185900000Y-92562500D01*
X186080000Y-92562500D01*
X186080000Y-93437500D01*
G37*
G36*
X186480000Y-93437500D02*
G01*
X186300000Y-93437500D01*
X186300000Y-92562500D01*
X186480000Y-92562500D01*
X186480000Y-93437500D01*
G37*
G36*
X186880000Y-93437500D02*
G01*
X186700000Y-93437500D01*
X186700000Y-92562500D01*
X186880000Y-92562500D01*
X186880000Y-93437500D01*
G37*
G36*
X192220924Y-92720043D02*
G01*
X192264721Y-92749308D01*
X192293986Y-92793105D01*
X192304262Y-92844767D01*
X192304262Y-93214767D01*
X192293986Y-93266429D01*
X192264721Y-93310226D01*
X192220924Y-93339491D01*
X192169262Y-93349767D01*
X191899262Y-93349767D01*
X191847600Y-93339491D01*
X191803803Y-93310226D01*
X191774538Y-93266429D01*
X191764262Y-93214767D01*
X191764262Y-92844767D01*
X191774538Y-92793105D01*
X191803803Y-92749308D01*
X191847600Y-92720043D01*
X191899262Y-92709767D01*
X192169262Y-92709767D01*
X192220924Y-92720043D01*
G37*
G36*
X193240924Y-92720043D02*
G01*
X193284721Y-92749308D01*
X193313986Y-92793105D01*
X193324262Y-92844767D01*
X193324262Y-93214767D01*
X193313986Y-93266429D01*
X193284721Y-93310226D01*
X193240924Y-93339491D01*
X193189262Y-93349767D01*
X192919262Y-93349767D01*
X192867600Y-93339491D01*
X192823803Y-93310226D01*
X192794538Y-93266429D01*
X192784262Y-93214767D01*
X192784262Y-92844767D01*
X192794538Y-92793105D01*
X192823803Y-92749308D01*
X192867600Y-92720043D01*
X192919262Y-92709767D01*
X193189262Y-92709767D01*
X193240924Y-92720043D01*
G37*
G36*
X164746742Y-91626601D02*
G01*
X164900687Y-91690367D01*
X165039234Y-91782941D01*
X165157059Y-91900766D01*
X165249633Y-92039313D01*
X165313399Y-92193258D01*
X165345907Y-92356685D01*
X165345907Y-92523315D01*
X165313399Y-92686742D01*
X165249633Y-92840687D01*
X165157059Y-92979234D01*
X165039234Y-93097059D01*
X164900687Y-93189633D01*
X164746742Y-93253399D01*
X164583315Y-93285907D01*
X164416685Y-93285907D01*
X164253258Y-93253399D01*
X164099313Y-93189633D01*
X163960766Y-93097059D01*
X163842941Y-92979234D01*
X163750367Y-92840687D01*
X163686601Y-92686742D01*
X163654093Y-92523315D01*
X163654093Y-92356685D01*
X163686601Y-92193258D01*
X163750367Y-92039313D01*
X163842941Y-91900766D01*
X163960766Y-91782941D01*
X164099313Y-91690367D01*
X164253258Y-91626601D01*
X164416685Y-91594093D01*
X164583315Y-91594093D01*
X164746742Y-91626601D01*
G37*
G36*
X203746742Y-91606601D02*
G01*
X203900687Y-91670367D01*
X204039234Y-91762941D01*
X204157059Y-91880766D01*
X204249633Y-92019313D01*
X204313399Y-92173258D01*
X204345907Y-92336685D01*
X204345907Y-92503315D01*
X204313399Y-92666742D01*
X204249633Y-92820687D01*
X204157059Y-92959234D01*
X204039234Y-93077059D01*
X203900687Y-93169633D01*
X203746742Y-93233399D01*
X203583315Y-93265907D01*
X203416685Y-93265907D01*
X203253258Y-93233399D01*
X203099313Y-93169633D01*
X202960766Y-93077059D01*
X202842941Y-92959234D01*
X202750367Y-92820687D01*
X202686601Y-92666742D01*
X202654093Y-92503315D01*
X202654093Y-92336685D01*
X202686601Y-92173258D01*
X202750367Y-92019313D01*
X202842941Y-91880766D01*
X202960766Y-91762941D01*
X203099313Y-91670367D01*
X203253258Y-91606601D01*
X203416685Y-91574093D01*
X203583315Y-91574093D01*
X203746742Y-91606601D01*
G37*
G36*
X180927500Y-92390000D02*
G01*
X180052500Y-92390000D01*
X180052500Y-92210000D01*
X180927500Y-92210000D01*
X180927500Y-92390000D01*
G37*
G36*
X187927500Y-92390000D02*
G01*
X187052500Y-92390000D01*
X187052500Y-92210000D01*
X187927500Y-92210000D01*
X187927500Y-92390000D01*
G37*
G36*
X180927500Y-91990000D02*
G01*
X180052500Y-91990000D01*
X180052500Y-91810000D01*
X180927500Y-91810000D01*
X180927500Y-91990000D01*
G37*
G36*
X187927500Y-91990000D02*
G01*
X187052500Y-91990000D01*
X187052500Y-91810000D01*
X187927500Y-91810000D01*
X187927500Y-91990000D01*
G37*
G36*
X180927500Y-91590000D02*
G01*
X180052500Y-91590000D01*
X180052500Y-91410000D01*
X180927500Y-91410000D01*
X180927500Y-91590000D01*
G37*
G36*
X187927500Y-91590000D02*
G01*
X187052500Y-91590000D01*
X187052500Y-91410000D01*
X187927500Y-91410000D01*
X187927500Y-91590000D01*
G37*
G36*
X177826662Y-90790276D02*
G01*
X177870459Y-90819541D01*
X177899724Y-90863338D01*
X177910000Y-90915000D01*
X177910000Y-91285000D01*
X177899724Y-91336662D01*
X177870459Y-91380459D01*
X177826662Y-91409724D01*
X177775000Y-91420000D01*
X177505000Y-91420000D01*
X177453338Y-91409724D01*
X177409541Y-91380459D01*
X177380276Y-91336662D01*
X177370000Y-91285000D01*
X177370000Y-90915000D01*
X177380276Y-90863338D01*
X177409541Y-90819541D01*
X177453338Y-90790276D01*
X177505000Y-90780000D01*
X177775000Y-90780000D01*
X177826662Y-90790276D01*
G37*
G36*
X178846662Y-90790276D02*
G01*
X178890459Y-90819541D01*
X178919724Y-90863338D01*
X178930000Y-90915000D01*
X178930000Y-91285000D01*
X178919724Y-91336662D01*
X178890459Y-91380459D01*
X178846662Y-91409724D01*
X178795000Y-91420000D01*
X178525000Y-91420000D01*
X178473338Y-91409724D01*
X178429541Y-91380459D01*
X178400276Y-91336662D01*
X178390000Y-91285000D01*
X178390000Y-90915000D01*
X178400276Y-90863338D01*
X178429541Y-90819541D01*
X178473338Y-90790276D01*
X178525000Y-90780000D01*
X178795000Y-90780000D01*
X178846662Y-90790276D01*
G37*
G36*
X185690000Y-91200000D02*
G01*
X182290000Y-91200000D01*
X182290000Y-87800000D01*
X185690000Y-87800000D01*
X185690000Y-91200000D01*
G37*
G36*
X180927500Y-91190000D02*
G01*
X180052500Y-91190000D01*
X180052500Y-91010000D01*
X180927500Y-91010000D01*
X180927500Y-91190000D01*
G37*
G36*
X187927500Y-91190000D02*
G01*
X187052500Y-91190000D01*
X187052500Y-91010000D01*
X187927500Y-91010000D01*
X187927500Y-91190000D01*
G37*
G36*
X180927500Y-90790000D02*
G01*
X180052500Y-90790000D01*
X180052500Y-90610000D01*
X180927500Y-90610000D01*
X180927500Y-90790000D01*
G37*
G36*
X187927500Y-90790000D02*
G01*
X187052500Y-90790000D01*
X187052500Y-90610000D01*
X187927500Y-90610000D01*
X187927500Y-90790000D01*
G37*
G36*
X164746742Y-89086601D02*
G01*
X164900687Y-89150367D01*
X165039234Y-89242941D01*
X165157059Y-89360766D01*
X165249633Y-89499313D01*
X165313399Y-89653258D01*
X165345907Y-89816685D01*
X165345907Y-89983315D01*
X165313399Y-90146742D01*
X165249633Y-90300687D01*
X165157059Y-90439234D01*
X165039234Y-90557059D01*
X164900687Y-90649633D01*
X164746742Y-90713399D01*
X164583315Y-90745907D01*
X164416685Y-90745907D01*
X164253258Y-90713399D01*
X164099313Y-90649633D01*
X163960766Y-90557059D01*
X163842941Y-90439234D01*
X163750367Y-90300687D01*
X163686601Y-90146742D01*
X163654093Y-89983315D01*
X163654093Y-89816685D01*
X163686601Y-89653258D01*
X163750367Y-89499313D01*
X163842941Y-89360766D01*
X163960766Y-89242941D01*
X164099313Y-89150367D01*
X164253258Y-89086601D01*
X164416685Y-89054093D01*
X164583315Y-89054093D01*
X164746742Y-89086601D01*
G37*
G36*
X203746742Y-89066601D02*
G01*
X203900687Y-89130367D01*
X204039234Y-89222941D01*
X204157059Y-89340766D01*
X204249633Y-89479313D01*
X204313399Y-89633258D01*
X204345907Y-89796685D01*
X204345907Y-89963315D01*
X204313399Y-90126742D01*
X204249633Y-90280687D01*
X204157059Y-90419234D01*
X204039234Y-90537059D01*
X203900687Y-90629633D01*
X203746742Y-90693399D01*
X203583315Y-90725907D01*
X203416685Y-90725907D01*
X203253258Y-90693399D01*
X203099313Y-90629633D01*
X202960766Y-90537059D01*
X202842941Y-90419234D01*
X202750367Y-90280687D01*
X202686601Y-90126742D01*
X202654093Y-89963315D01*
X202654093Y-89796685D01*
X202686601Y-89633258D01*
X202750367Y-89479313D01*
X202842941Y-89340766D01*
X202960766Y-89222941D01*
X203099313Y-89130367D01*
X203253258Y-89066601D01*
X203416685Y-89034093D01*
X203583315Y-89034093D01*
X203746742Y-89066601D01*
G37*
G36*
X196810366Y-89300818D02*
G01*
X196860198Y-89306600D01*
X196877222Y-89314117D01*
X196899529Y-89318554D01*
X196923408Y-89334510D01*
X196943506Y-89343384D01*
X196957233Y-89357111D01*
X196978607Y-89371393D01*
X196992888Y-89392766D01*
X197006615Y-89406493D01*
X197015488Y-89426588D01*
X197031446Y-89450471D01*
X197035883Y-89472779D01*
X197043399Y-89489801D01*
X197049178Y-89539621D01*
X197050000Y-89543750D01*
X197050000Y-90456250D01*
X197049178Y-90460378D01*
X197043399Y-90510198D01*
X197035883Y-90527218D01*
X197031446Y-90549529D01*
X197015486Y-90573413D01*
X197006615Y-90593506D01*
X196992890Y-90607230D01*
X196978607Y-90628607D01*
X196957230Y-90642890D01*
X196943506Y-90656615D01*
X196923413Y-90665486D01*
X196899529Y-90681446D01*
X196877218Y-90685883D01*
X196860198Y-90693399D01*
X196810379Y-90699178D01*
X196806250Y-90700000D01*
X196318750Y-90700000D01*
X196314623Y-90699179D01*
X196264801Y-90693399D01*
X196247779Y-90685883D01*
X196225471Y-90681446D01*
X196201588Y-90665488D01*
X196181493Y-90656615D01*
X196167766Y-90642888D01*
X196146393Y-90628607D01*
X196132111Y-90607233D01*
X196118384Y-90593506D01*
X196109510Y-90573408D01*
X196093554Y-90549529D01*
X196089117Y-90527222D01*
X196081600Y-90510198D01*
X196075818Y-90460367D01*
X196075000Y-90456250D01*
X196075000Y-89543750D01*
X196075818Y-89539635D01*
X196081600Y-89489801D01*
X196089117Y-89472775D01*
X196093554Y-89450471D01*
X196109508Y-89426593D01*
X196118384Y-89406493D01*
X196132113Y-89392763D01*
X196146393Y-89371393D01*
X196167763Y-89357113D01*
X196181493Y-89343384D01*
X196201593Y-89334508D01*
X196225471Y-89318554D01*
X196247775Y-89314117D01*
X196264801Y-89306600D01*
X196314634Y-89300818D01*
X196318750Y-89300000D01*
X196806250Y-89300000D01*
X196810366Y-89300818D01*
G37*
G36*
X198685366Y-89300818D02*
G01*
X198735198Y-89306600D01*
X198752222Y-89314117D01*
X198774529Y-89318554D01*
X198798408Y-89334510D01*
X198818506Y-89343384D01*
X198832233Y-89357111D01*
X198853607Y-89371393D01*
X198867888Y-89392766D01*
X198881615Y-89406493D01*
X198890488Y-89426588D01*
X198906446Y-89450471D01*
X198910883Y-89472779D01*
X198918399Y-89489801D01*
X198924178Y-89539621D01*
X198925000Y-89543750D01*
X198925000Y-90456250D01*
X198924178Y-90460378D01*
X198918399Y-90510198D01*
X198910883Y-90527218D01*
X198906446Y-90549529D01*
X198890486Y-90573413D01*
X198881615Y-90593506D01*
X198867890Y-90607230D01*
X198853607Y-90628607D01*
X198832230Y-90642890D01*
X198818506Y-90656615D01*
X198798413Y-90665486D01*
X198774529Y-90681446D01*
X198752218Y-90685883D01*
X198735198Y-90693399D01*
X198685379Y-90699178D01*
X198681250Y-90700000D01*
X198193750Y-90700000D01*
X198189623Y-90699179D01*
X198139801Y-90693399D01*
X198122779Y-90685883D01*
X198100471Y-90681446D01*
X198076588Y-90665488D01*
X198056493Y-90656615D01*
X198042766Y-90642888D01*
X198021393Y-90628607D01*
X198007111Y-90607233D01*
X197993384Y-90593506D01*
X197984510Y-90573408D01*
X197968554Y-90549529D01*
X197964117Y-90527222D01*
X197956600Y-90510198D01*
X197950818Y-90460367D01*
X197950000Y-90456250D01*
X197950000Y-89543750D01*
X197950818Y-89539635D01*
X197956600Y-89489801D01*
X197964117Y-89472775D01*
X197968554Y-89450471D01*
X197984508Y-89426593D01*
X197993384Y-89406493D01*
X198007113Y-89392763D01*
X198021393Y-89371393D01*
X198042763Y-89357113D01*
X198056493Y-89343384D01*
X198076593Y-89334508D01*
X198100471Y-89318554D01*
X198122775Y-89314117D01*
X198139801Y-89306600D01*
X198189634Y-89300818D01*
X198193750Y-89300000D01*
X198681250Y-89300000D01*
X198685366Y-89300818D01*
G37*
G36*
X189826662Y-90040276D02*
G01*
X189870459Y-90069541D01*
X189899724Y-90113338D01*
X189910000Y-90165000D01*
X189910000Y-90535000D01*
X189899724Y-90586662D01*
X189870459Y-90630459D01*
X189826662Y-90659724D01*
X189775000Y-90670000D01*
X189505000Y-90670000D01*
X189453338Y-90659724D01*
X189409541Y-90630459D01*
X189380276Y-90586662D01*
X189370000Y-90535000D01*
X189370000Y-90165000D01*
X189380276Y-90113338D01*
X189409541Y-90069541D01*
X189453338Y-90040276D01*
X189505000Y-90030000D01*
X189775000Y-90030000D01*
X189826662Y-90040276D01*
G37*
G36*
X190846662Y-90040276D02*
G01*
X190890459Y-90069541D01*
X190919724Y-90113338D01*
X190930000Y-90165000D01*
X190930000Y-90535000D01*
X190919724Y-90586662D01*
X190890459Y-90630459D01*
X190846662Y-90659724D01*
X190795000Y-90670000D01*
X190525000Y-90670000D01*
X190473338Y-90659724D01*
X190429541Y-90630459D01*
X190400276Y-90586662D01*
X190390000Y-90535000D01*
X190390000Y-90165000D01*
X190400276Y-90113338D01*
X190429541Y-90069541D01*
X190473338Y-90040276D01*
X190525000Y-90030000D01*
X190795000Y-90030000D01*
X190846662Y-90040276D01*
G37*
G36*
X180927500Y-90390000D02*
G01*
X180052500Y-90390000D01*
X180052500Y-90210000D01*
X180927500Y-90210000D01*
X180927500Y-90390000D01*
G37*
G36*
X187927500Y-90390000D02*
G01*
X187052500Y-90390000D01*
X187052500Y-90210000D01*
X187927500Y-90210000D01*
X187927500Y-90390000D01*
G37*
G36*
X194176662Y-89759457D02*
G01*
X194220459Y-89788722D01*
X194249724Y-89832519D01*
X194260000Y-89884181D01*
X194260000Y-90254181D01*
X194249724Y-90305843D01*
X194220459Y-90349640D01*
X194176662Y-90378905D01*
X194125000Y-90389181D01*
X193855000Y-90389181D01*
X193803338Y-90378905D01*
X193759541Y-90349640D01*
X193730276Y-90305843D01*
X193720000Y-90254181D01*
X193720000Y-89884181D01*
X193730276Y-89832519D01*
X193759541Y-89788722D01*
X193803338Y-89759457D01*
X193855000Y-89749181D01*
X194125000Y-89749181D01*
X194176662Y-89759457D01*
G37*
G36*
X195196662Y-89759457D02*
G01*
X195240459Y-89788722D01*
X195269724Y-89832519D01*
X195280000Y-89884181D01*
X195280000Y-90254181D01*
X195269724Y-90305843D01*
X195240459Y-90349640D01*
X195196662Y-90378905D01*
X195145000Y-90389181D01*
X194875000Y-90389181D01*
X194823338Y-90378905D01*
X194779541Y-90349640D01*
X194750276Y-90305843D01*
X194740000Y-90254181D01*
X194740000Y-89884181D01*
X194750276Y-89832519D01*
X194779541Y-89788722D01*
X194823338Y-89759457D01*
X194875000Y-89749181D01*
X195145000Y-89749181D01*
X195196662Y-89759457D01*
G37*
G36*
X180927500Y-89990000D02*
G01*
X180052500Y-89990000D01*
X180052500Y-89810000D01*
X180927500Y-89810000D01*
X180927500Y-89990000D01*
G37*
G36*
X187927500Y-89990000D02*
G01*
X187052500Y-89990000D01*
X187052500Y-89810000D01*
X187927500Y-89810000D01*
X187927500Y-89990000D01*
G37*
G36*
X189976662Y-88990276D02*
G01*
X190020459Y-89019541D01*
X190049724Y-89063338D01*
X190060000Y-89115000D01*
X190060000Y-89485000D01*
X190049724Y-89536662D01*
X190020459Y-89580459D01*
X189976662Y-89609724D01*
X189925000Y-89620000D01*
X189655000Y-89620000D01*
X189603338Y-89609724D01*
X189559541Y-89580459D01*
X189530276Y-89536662D01*
X189520000Y-89485000D01*
X189520000Y-89115000D01*
X189530276Y-89063338D01*
X189559541Y-89019541D01*
X189603338Y-88990276D01*
X189655000Y-88980000D01*
X189925000Y-88980000D01*
X189976662Y-88990276D01*
G37*
G36*
X190996662Y-88990276D02*
G01*
X191040459Y-89019541D01*
X191069724Y-89063338D01*
X191080000Y-89115000D01*
X191080000Y-89485000D01*
X191069724Y-89536662D01*
X191040459Y-89580459D01*
X190996662Y-89609724D01*
X190945000Y-89620000D01*
X190675000Y-89620000D01*
X190623338Y-89609724D01*
X190579541Y-89580459D01*
X190550276Y-89536662D01*
X190540000Y-89485000D01*
X190540000Y-89115000D01*
X190550276Y-89063338D01*
X190579541Y-89019541D01*
X190623338Y-88990276D01*
X190675000Y-88980000D01*
X190945000Y-88980000D01*
X190996662Y-88990276D01*
G37*
G36*
X180927500Y-89590000D02*
G01*
X180052500Y-89590000D01*
X180052500Y-89410000D01*
X180927500Y-89410000D01*
X180927500Y-89590000D01*
G37*
G36*
X187927500Y-89590000D02*
G01*
X187052500Y-89590000D01*
X187052500Y-89410000D01*
X187927500Y-89410000D01*
X187927500Y-89590000D01*
G37*
G36*
X180927500Y-89190000D02*
G01*
X180052500Y-89190000D01*
X180052500Y-89010000D01*
X180927500Y-89010000D01*
X180927500Y-89190000D01*
G37*
G36*
X187927500Y-89190000D02*
G01*
X187052500Y-89190000D01*
X187052500Y-89010000D01*
X187927500Y-89010000D01*
X187927500Y-89190000D01*
G37*
G36*
X176726662Y-88540276D02*
G01*
X176770459Y-88569541D01*
X176799724Y-88613338D01*
X176810000Y-88665000D01*
X176810000Y-89035000D01*
X176799724Y-89086662D01*
X176770459Y-89130459D01*
X176726662Y-89159724D01*
X176675000Y-89170000D01*
X176405000Y-89170000D01*
X176353338Y-89159724D01*
X176309541Y-89130459D01*
X176280276Y-89086662D01*
X176270000Y-89035000D01*
X176270000Y-88665000D01*
X176280276Y-88613338D01*
X176309541Y-88569541D01*
X176353338Y-88540276D01*
X176405000Y-88530000D01*
X176675000Y-88530000D01*
X176726662Y-88540276D01*
G37*
G36*
X177746662Y-88540276D02*
G01*
X177790459Y-88569541D01*
X177819724Y-88613338D01*
X177830000Y-88665000D01*
X177830000Y-89035000D01*
X177819724Y-89086662D01*
X177790459Y-89130459D01*
X177746662Y-89159724D01*
X177695000Y-89170000D01*
X177425000Y-89170000D01*
X177373338Y-89159724D01*
X177329541Y-89130459D01*
X177300276Y-89086662D01*
X177290000Y-89035000D01*
X177290000Y-88665000D01*
X177300276Y-88613338D01*
X177329541Y-88569541D01*
X177373338Y-88540276D01*
X177425000Y-88530000D01*
X177695000Y-88530000D01*
X177746662Y-88540276D01*
G37*
G36*
X180927500Y-88790000D02*
G01*
X180052500Y-88790000D01*
X180052500Y-88610000D01*
X180927500Y-88610000D01*
X180927500Y-88790000D01*
G37*
G36*
X187927500Y-88790000D02*
G01*
X187052500Y-88790000D01*
X187052500Y-88610000D01*
X187927500Y-88610000D01*
X187927500Y-88790000D01*
G37*
G36*
X180927500Y-88390000D02*
G01*
X180052500Y-88390000D01*
X180052500Y-88210000D01*
X180927500Y-88210000D01*
X180927500Y-88390000D01*
G37*
G36*
X187927500Y-88390000D02*
G01*
X187052500Y-88390000D01*
X187052500Y-88210000D01*
X187927500Y-88210000D01*
X187927500Y-88390000D01*
G37*
G36*
X164746742Y-86546601D02*
G01*
X164900687Y-86610367D01*
X165039234Y-86702941D01*
X165157059Y-86820766D01*
X165249633Y-86959313D01*
X165313399Y-87113258D01*
X165345907Y-87276685D01*
X165345907Y-87443315D01*
X165313399Y-87606742D01*
X165249633Y-87760687D01*
X165157059Y-87899234D01*
X165039234Y-88017059D01*
X164900687Y-88109633D01*
X164746742Y-88173399D01*
X164583315Y-88205907D01*
X164416685Y-88205907D01*
X164253258Y-88173399D01*
X164099313Y-88109633D01*
X163960766Y-88017059D01*
X163842941Y-87899234D01*
X163750367Y-87760687D01*
X163686601Y-87606742D01*
X163654093Y-87443315D01*
X163654093Y-87276685D01*
X163686601Y-87113258D01*
X163750367Y-86959313D01*
X163842941Y-86820766D01*
X163960766Y-86702941D01*
X164099313Y-86610367D01*
X164253258Y-86546601D01*
X164416685Y-86514093D01*
X164583315Y-86514093D01*
X164746742Y-86546601D01*
G37*
G36*
X203746742Y-86526601D02*
G01*
X203900687Y-86590367D01*
X204039234Y-86682941D01*
X204157059Y-86800766D01*
X204249633Y-86939313D01*
X204313399Y-87093258D01*
X204345907Y-87256685D01*
X204345907Y-87423315D01*
X204313399Y-87586742D01*
X204249633Y-87740687D01*
X204157059Y-87879234D01*
X204039234Y-87997059D01*
X203900687Y-88089633D01*
X203746742Y-88153399D01*
X203583315Y-88185907D01*
X203416685Y-88185907D01*
X203253258Y-88153399D01*
X203099313Y-88089633D01*
X202960766Y-87997059D01*
X202842941Y-87879234D01*
X202750367Y-87740687D01*
X202686601Y-87586742D01*
X202654093Y-87423315D01*
X202654093Y-87256685D01*
X202686601Y-87093258D01*
X202750367Y-86939313D01*
X202842941Y-86800766D01*
X202960766Y-86682941D01*
X203099313Y-86590367D01*
X203253258Y-86526601D01*
X203416685Y-86494093D01*
X203583315Y-86494093D01*
X203746742Y-86526601D01*
G37*
G36*
X180927500Y-87990000D02*
G01*
X180052500Y-87990000D01*
X180052500Y-87810000D01*
X180927500Y-87810000D01*
X180927500Y-87990000D01*
G37*
G36*
X187927500Y-87990000D02*
G01*
X187052500Y-87990000D01*
X187052500Y-87810000D01*
X187927500Y-87810000D01*
X187927500Y-87990000D01*
G37*
G36*
X180927500Y-87590000D02*
G01*
X180052500Y-87590000D01*
X180052500Y-87410000D01*
X180927500Y-87410000D01*
X180927500Y-87590000D01*
G37*
G36*
X187927500Y-87590000D02*
G01*
X187052500Y-87590000D01*
X187052500Y-87410000D01*
X187927500Y-87410000D01*
X187927500Y-87590000D01*
G37*
G36*
X189636662Y-86700276D02*
G01*
X189680459Y-86729541D01*
X189709724Y-86773338D01*
X189720000Y-86825000D01*
X189720000Y-87095000D01*
X189709724Y-87146662D01*
X189680459Y-87190459D01*
X189636662Y-87219724D01*
X189585000Y-87230000D01*
X189215000Y-87230000D01*
X189163338Y-87219724D01*
X189119541Y-87190459D01*
X189090276Y-87146662D01*
X189080000Y-87095000D01*
X189080000Y-86825000D01*
X189090276Y-86773338D01*
X189119541Y-86729541D01*
X189163338Y-86700276D01*
X189215000Y-86690000D01*
X189585000Y-86690000D01*
X189636662Y-86700276D01*
G37*
G36*
X180927500Y-87190000D02*
G01*
X180052500Y-87190000D01*
X180052500Y-87010000D01*
X180927500Y-87010000D01*
X180927500Y-87190000D01*
G37*
G36*
X187927500Y-87190000D02*
G01*
X187052500Y-87190000D01*
X187052500Y-87010000D01*
X187927500Y-87010000D01*
X187927500Y-87190000D01*
G37*
G36*
X180927500Y-86790000D02*
G01*
X180052500Y-86790000D01*
X180052500Y-86610000D01*
X180927500Y-86610000D01*
X180927500Y-86790000D01*
G37*
G36*
X187927500Y-86790000D02*
G01*
X187052500Y-86790000D01*
X187052500Y-86610000D01*
X187927500Y-86610000D01*
X187927500Y-86790000D01*
G37*
G36*
X178707331Y-86118247D02*
G01*
X178751128Y-86147512D01*
X178780393Y-86191309D01*
X178790669Y-86242971D01*
X178790669Y-86512971D01*
X178780393Y-86564633D01*
X178751128Y-86608430D01*
X178707331Y-86637695D01*
X178655669Y-86647971D01*
X178285669Y-86647971D01*
X178234007Y-86637695D01*
X178190210Y-86608430D01*
X178160945Y-86564633D01*
X178150669Y-86512971D01*
X178150669Y-86242971D01*
X178160945Y-86191309D01*
X178190210Y-86147512D01*
X178234007Y-86118247D01*
X178285669Y-86107971D01*
X178655669Y-86107971D01*
X178707331Y-86118247D01*
G37*
G36*
X181280000Y-86437500D02*
G01*
X181100000Y-86437500D01*
X181100000Y-85562500D01*
X181280000Y-85562500D01*
X181280000Y-86437500D01*
G37*
G36*
X181680000Y-86437500D02*
G01*
X181500000Y-86437500D01*
X181500000Y-85562500D01*
X181680000Y-85562500D01*
X181680000Y-86437500D01*
G37*
G36*
X182080000Y-86437500D02*
G01*
X181900000Y-86437500D01*
X181900000Y-85562500D01*
X182080000Y-85562500D01*
X182080000Y-86437500D01*
G37*
G36*
X182480000Y-86437500D02*
G01*
X182300000Y-86437500D01*
X182300000Y-85562500D01*
X182480000Y-85562500D01*
X182480000Y-86437500D01*
G37*
G36*
X182880000Y-86437500D02*
G01*
X182700000Y-86437500D01*
X182700000Y-85562500D01*
X182880000Y-85562500D01*
X182880000Y-86437500D01*
G37*
G36*
X183280000Y-86437500D02*
G01*
X183100000Y-86437500D01*
X183100000Y-85562500D01*
X183280000Y-85562500D01*
X183280000Y-86437500D01*
G37*
G36*
X183680000Y-86437500D02*
G01*
X183500000Y-86437500D01*
X183500000Y-85562500D01*
X183680000Y-85562500D01*
X183680000Y-86437500D01*
G37*
G36*
X184080000Y-86437500D02*
G01*
X183900000Y-86437500D01*
X183900000Y-85562500D01*
X184080000Y-85562500D01*
X184080000Y-86437500D01*
G37*
G36*
X184480000Y-86437500D02*
G01*
X184300000Y-86437500D01*
X184300000Y-85562500D01*
X184480000Y-85562500D01*
X184480000Y-86437500D01*
G37*
G36*
X184880000Y-86437500D02*
G01*
X184700000Y-86437500D01*
X184700000Y-85562500D01*
X184880000Y-85562500D01*
X184880000Y-86437500D01*
G37*
G36*
X185280000Y-86437500D02*
G01*
X185100000Y-86437500D01*
X185100000Y-85562500D01*
X185280000Y-85562500D01*
X185280000Y-86437500D01*
G37*
G36*
X185680000Y-86437500D02*
G01*
X185500000Y-86437500D01*
X185500000Y-85562500D01*
X185680000Y-85562500D01*
X185680000Y-86437500D01*
G37*
G36*
X186080000Y-86437500D02*
G01*
X185900000Y-86437500D01*
X185900000Y-85562500D01*
X186080000Y-85562500D01*
X186080000Y-86437500D01*
G37*
G36*
X186480000Y-86437500D02*
G01*
X186300000Y-86437500D01*
X186300000Y-85562500D01*
X186480000Y-85562500D01*
X186480000Y-86437500D01*
G37*
G36*
X186880000Y-86437500D02*
G01*
X186700000Y-86437500D01*
X186700000Y-85562500D01*
X186880000Y-85562500D01*
X186880000Y-86437500D01*
G37*
G36*
X189636662Y-85680276D02*
G01*
X189680459Y-85709541D01*
X189709724Y-85753338D01*
X189720000Y-85805000D01*
X189720000Y-86075000D01*
X189709724Y-86126662D01*
X189680459Y-86170459D01*
X189636662Y-86199724D01*
X189585000Y-86210000D01*
X189215000Y-86210000D01*
X189163338Y-86199724D01*
X189119541Y-86170459D01*
X189090276Y-86126662D01*
X189080000Y-86075000D01*
X189080000Y-85805000D01*
X189090276Y-85753338D01*
X189119541Y-85709541D01*
X189163338Y-85680276D01*
X189215000Y-85670000D01*
X189585000Y-85670000D01*
X189636662Y-85680276D01*
G37*
G36*
X164746742Y-84006601D02*
G01*
X164900687Y-84070367D01*
X165039234Y-84162941D01*
X165157059Y-84280766D01*
X165249633Y-84419313D01*
X165313399Y-84573258D01*
X165345907Y-84736685D01*
X165345907Y-84903315D01*
X165313399Y-85066742D01*
X165249633Y-85220687D01*
X165157059Y-85359234D01*
X165039234Y-85477059D01*
X164900687Y-85569633D01*
X164746742Y-85633399D01*
X164583315Y-85665907D01*
X164416685Y-85665907D01*
X164253258Y-85633399D01*
X164099313Y-85569633D01*
X163960766Y-85477059D01*
X163842941Y-85359234D01*
X163750367Y-85220687D01*
X163686601Y-85066742D01*
X163654093Y-84903315D01*
X163654093Y-84736685D01*
X163686601Y-84573258D01*
X163750367Y-84419313D01*
X163842941Y-84280766D01*
X163960766Y-84162941D01*
X164099313Y-84070367D01*
X164253258Y-84006601D01*
X164416685Y-83974093D01*
X164583315Y-83974093D01*
X164746742Y-84006601D01*
G37*
G36*
X203746742Y-83986601D02*
G01*
X203900687Y-84050367D01*
X204039234Y-84142941D01*
X204157059Y-84260766D01*
X204249633Y-84399313D01*
X204313399Y-84553258D01*
X204345907Y-84716685D01*
X204345907Y-84883315D01*
X204313399Y-85046742D01*
X204249633Y-85200687D01*
X204157059Y-85339234D01*
X204039234Y-85457059D01*
X203900687Y-85549633D01*
X203746742Y-85613399D01*
X203583315Y-85645907D01*
X203416685Y-85645907D01*
X203253258Y-85613399D01*
X203099313Y-85549633D01*
X202960766Y-85457059D01*
X202842941Y-85339234D01*
X202750367Y-85200687D01*
X202686601Y-85046742D01*
X202654093Y-84883315D01*
X202654093Y-84716685D01*
X202686601Y-84553258D01*
X202750367Y-84399313D01*
X202842941Y-84260766D01*
X202960766Y-84142941D01*
X203099313Y-84050367D01*
X203253258Y-83986601D01*
X203416685Y-83954093D01*
X203583315Y-83954093D01*
X203746742Y-83986601D01*
G37*
G36*
X178707331Y-85098247D02*
G01*
X178751128Y-85127512D01*
X178780393Y-85171309D01*
X178790669Y-85222971D01*
X178790669Y-85492971D01*
X178780393Y-85544633D01*
X178751128Y-85588430D01*
X178707331Y-85617695D01*
X178655669Y-85627971D01*
X178285669Y-85627971D01*
X178234007Y-85617695D01*
X178190210Y-85588430D01*
X178160945Y-85544633D01*
X178150669Y-85492971D01*
X178150669Y-85222971D01*
X178160945Y-85171309D01*
X178190210Y-85127512D01*
X178234007Y-85098247D01*
X178285669Y-85087971D01*
X178655669Y-85087971D01*
X178707331Y-85098247D01*
G37*
G36*
X192221176Y-84664294D02*
G01*
X192264973Y-84693559D01*
X192294238Y-84737356D01*
X192304514Y-84789018D01*
X192304514Y-85059018D01*
X192294238Y-85110680D01*
X192264973Y-85154477D01*
X192221176Y-85183742D01*
X192169514Y-85194018D01*
X191799514Y-85194018D01*
X191747852Y-85183742D01*
X191704055Y-85154477D01*
X191674790Y-85110680D01*
X191664514Y-85059018D01*
X191664514Y-84789018D01*
X191674790Y-84737356D01*
X191704055Y-84693559D01*
X191747852Y-84664294D01*
X191799514Y-84654018D01*
X192169514Y-84654018D01*
X192221176Y-84664294D01*
G37*
G36*
X190636662Y-84660276D02*
G01*
X190680459Y-84689541D01*
X190709724Y-84733338D01*
X190720000Y-84785000D01*
X190720000Y-85055000D01*
X190709724Y-85106662D01*
X190680459Y-85150459D01*
X190636662Y-85179724D01*
X190585000Y-85190000D01*
X190215000Y-85190000D01*
X190163338Y-85179724D01*
X190119541Y-85150459D01*
X190090276Y-85106662D01*
X190080000Y-85055000D01*
X190080000Y-84785000D01*
X190090276Y-84733338D01*
X190119541Y-84689541D01*
X190163338Y-84660276D01*
X190215000Y-84650000D01*
X190585000Y-84650000D01*
X190636662Y-84660276D01*
G37*
G36*
X184036662Y-84050276D02*
G01*
X184080459Y-84079541D01*
X184109724Y-84123338D01*
X184120000Y-84175000D01*
X184120000Y-84445000D01*
X184109724Y-84496662D01*
X184080459Y-84540459D01*
X184036662Y-84569724D01*
X183985000Y-84580000D01*
X183615000Y-84580000D01*
X183563338Y-84569724D01*
X183519541Y-84540459D01*
X183490276Y-84496662D01*
X183480000Y-84445000D01*
X183480000Y-84175000D01*
X183490276Y-84123338D01*
X183519541Y-84079541D01*
X183563338Y-84050276D01*
X183615000Y-84040000D01*
X183985000Y-84040000D01*
X184036662Y-84050276D01*
G37*
G36*
X192221176Y-83644294D02*
G01*
X192264973Y-83673559D01*
X192294238Y-83717356D01*
X192304514Y-83769018D01*
X192304514Y-84039018D01*
X192294238Y-84090680D01*
X192264973Y-84134477D01*
X192221176Y-84163742D01*
X192169514Y-84174018D01*
X191799514Y-84174018D01*
X191747852Y-84163742D01*
X191704055Y-84134477D01*
X191674790Y-84090680D01*
X191664514Y-84039018D01*
X191664514Y-83769018D01*
X191674790Y-83717356D01*
X191704055Y-83673559D01*
X191747852Y-83644294D01*
X191799514Y-83634018D01*
X192169514Y-83634018D01*
X192221176Y-83644294D01*
G37*
G36*
X190636662Y-83640276D02*
G01*
X190680459Y-83669541D01*
X190709724Y-83713338D01*
X190720000Y-83765000D01*
X190720000Y-84035000D01*
X190709724Y-84086662D01*
X190680459Y-84130459D01*
X190636662Y-84159724D01*
X190585000Y-84170000D01*
X190215000Y-84170000D01*
X190163338Y-84159724D01*
X190119541Y-84130459D01*
X190090276Y-84086662D01*
X190080000Y-84035000D01*
X190080000Y-83765000D01*
X190090276Y-83713338D01*
X190119541Y-83669541D01*
X190163338Y-83640276D01*
X190215000Y-83630000D01*
X190585000Y-83630000D01*
X190636662Y-83640276D01*
G37*
G36*
X186986974Y-82934850D02*
G01*
X187030771Y-82964115D01*
X187060036Y-83007912D01*
X187070312Y-83059574D01*
X187070312Y-83429574D01*
X187060036Y-83481236D01*
X187030771Y-83525033D01*
X186986974Y-83554298D01*
X186935312Y-83564574D01*
X186665312Y-83564574D01*
X186613650Y-83554298D01*
X186569853Y-83525033D01*
X186540588Y-83481236D01*
X186530312Y-83429574D01*
X186530312Y-83059574D01*
X186540588Y-83007912D01*
X186569853Y-82964115D01*
X186613650Y-82934850D01*
X186665312Y-82924574D01*
X186935312Y-82924574D01*
X186986974Y-82934850D01*
G37*
G36*
X188006974Y-82934850D02*
G01*
X188050771Y-82964115D01*
X188080036Y-83007912D01*
X188090312Y-83059574D01*
X188090312Y-83429574D01*
X188080036Y-83481236D01*
X188050771Y-83525033D01*
X188006974Y-83554298D01*
X187955312Y-83564574D01*
X187685312Y-83564574D01*
X187633650Y-83554298D01*
X187589853Y-83525033D01*
X187560588Y-83481236D01*
X187550312Y-83429574D01*
X187550312Y-83059574D01*
X187560588Y-83007912D01*
X187589853Y-82964115D01*
X187633650Y-82934850D01*
X187685312Y-82924574D01*
X187955312Y-82924574D01*
X188006974Y-82934850D01*
G37*
G36*
X184036662Y-83030276D02*
G01*
X184080459Y-83059541D01*
X184109724Y-83103338D01*
X184120000Y-83155000D01*
X184120000Y-83425000D01*
X184109724Y-83476662D01*
X184080459Y-83520459D01*
X184036662Y-83549724D01*
X183985000Y-83560000D01*
X183615000Y-83560000D01*
X183563338Y-83549724D01*
X183519541Y-83520459D01*
X183490276Y-83476662D01*
X183480000Y-83425000D01*
X183480000Y-83155000D01*
X183490276Y-83103338D01*
X183519541Y-83059541D01*
X183563338Y-83030276D01*
X183615000Y-83020000D01*
X183985000Y-83020000D01*
X184036662Y-83030276D01*
G37*
G36*
X164746742Y-81466601D02*
G01*
X164900687Y-81530367D01*
X165039234Y-81622941D01*
X165157059Y-81740766D01*
X165249633Y-81879313D01*
X165313399Y-82033258D01*
X165345907Y-82196685D01*
X165345907Y-82363315D01*
X165313399Y-82526742D01*
X165249633Y-82680687D01*
X165157059Y-82819234D01*
X165039234Y-82937059D01*
X164900687Y-83029633D01*
X164746742Y-83093399D01*
X164583315Y-83125907D01*
X164416685Y-83125907D01*
X164253258Y-83093399D01*
X164099313Y-83029633D01*
X163960766Y-82937059D01*
X163842941Y-82819234D01*
X163750367Y-82680687D01*
X163686601Y-82526742D01*
X163654093Y-82363315D01*
X163654093Y-82196685D01*
X163686601Y-82033258D01*
X163750367Y-81879313D01*
X163842941Y-81740766D01*
X163960766Y-81622941D01*
X164099313Y-81530367D01*
X164253258Y-81466601D01*
X164416685Y-81434093D01*
X164583315Y-81434093D01*
X164746742Y-81466601D01*
G37*
G36*
X203746742Y-81446601D02*
G01*
X203900687Y-81510367D01*
X204039234Y-81602941D01*
X204157059Y-81720766D01*
X204249633Y-81859313D01*
X204313399Y-82013258D01*
X204345907Y-82176685D01*
X204345907Y-82343315D01*
X204313399Y-82506742D01*
X204249633Y-82660687D01*
X204157059Y-82799234D01*
X204039234Y-82917059D01*
X203900687Y-83009633D01*
X203746742Y-83073399D01*
X203583315Y-83105907D01*
X203416685Y-83105907D01*
X203253258Y-83073399D01*
X203099313Y-83009633D01*
X202960766Y-82917059D01*
X202842941Y-82799234D01*
X202750367Y-82660687D01*
X202686601Y-82506742D01*
X202654093Y-82343315D01*
X202654093Y-82176685D01*
X202686601Y-82013258D01*
X202750367Y-81859313D01*
X202842941Y-81720766D01*
X202960766Y-81602941D01*
X203099313Y-81510367D01*
X203253258Y-81446601D01*
X203416685Y-81414093D01*
X203583315Y-81414093D01*
X203746742Y-81446601D01*
G37*
G36*
X186986662Y-81690276D02*
G01*
X187030459Y-81719541D01*
X187059724Y-81763338D01*
X187070000Y-81815000D01*
X187070000Y-82185000D01*
X187059724Y-82236662D01*
X187030459Y-82280459D01*
X186986662Y-82309724D01*
X186935000Y-82320000D01*
X186665000Y-82320000D01*
X186613338Y-82309724D01*
X186569541Y-82280459D01*
X186540276Y-82236662D01*
X186530000Y-82185000D01*
X186530000Y-81815000D01*
X186540276Y-81763338D01*
X186569541Y-81719541D01*
X186613338Y-81690276D01*
X186665000Y-81680000D01*
X186935000Y-81680000D01*
X186986662Y-81690276D01*
G37*
G36*
X188006662Y-81690276D02*
G01*
X188050459Y-81719541D01*
X188079724Y-81763338D01*
X188090000Y-81815000D01*
X188090000Y-82185000D01*
X188079724Y-82236662D01*
X188050459Y-82280459D01*
X188006662Y-82309724D01*
X187955000Y-82320000D01*
X187685000Y-82320000D01*
X187633338Y-82309724D01*
X187589541Y-82280459D01*
X187560276Y-82236662D01*
X187550000Y-82185000D01*
X187550000Y-81815000D01*
X187560276Y-81763338D01*
X187589541Y-81719541D01*
X187633338Y-81690276D01*
X187685000Y-81680000D01*
X187955000Y-81680000D01*
X188006662Y-81690276D01*
G37*
G36*
X176447835Y-81589515D02*
G01*
X176488388Y-81616612D01*
X176515485Y-81657165D01*
X176525000Y-81705000D01*
X176525000Y-81955000D01*
X176515485Y-82002835D01*
X176488388Y-82043388D01*
X176447835Y-82070485D01*
X176400000Y-82080000D01*
X175900000Y-82080000D01*
X175852165Y-82070485D01*
X175811612Y-82043388D01*
X175784515Y-82002835D01*
X175775000Y-81955000D01*
X175775000Y-81705000D01*
X175784515Y-81657165D01*
X175811612Y-81616612D01*
X175852165Y-81589515D01*
X175900000Y-81580000D01*
X176400000Y-81580000D01*
X176447835Y-81589515D01*
G37*
G36*
X181847835Y-81589515D02*
G01*
X181888388Y-81616612D01*
X181915485Y-81657165D01*
X181925000Y-81705000D01*
X181925000Y-81955000D01*
X181915485Y-82002835D01*
X181888388Y-82043388D01*
X181847835Y-82070485D01*
X181800000Y-82080000D01*
X181300000Y-82080000D01*
X181252165Y-82070485D01*
X181211612Y-82043388D01*
X181184515Y-82002835D01*
X181175000Y-81955000D01*
X181175000Y-81705000D01*
X181184515Y-81657165D01*
X181211612Y-81616612D01*
X181252165Y-81589515D01*
X181300000Y-81580000D01*
X181800000Y-81580000D01*
X181847835Y-81589515D01*
G37*
G36*
X180550000Y-82075000D02*
G01*
X177150000Y-82075000D01*
X177150000Y-77775000D01*
X180550000Y-77775000D01*
X180550000Y-82075000D01*
G37*
G36*
X186810312Y-81044574D02*
G01*
X185810312Y-81044574D01*
X185810312Y-79444574D01*
X186810312Y-79444574D01*
X186810312Y-81044574D01*
G37*
G36*
X188810312Y-81044574D02*
G01*
X187810312Y-81044574D01*
X187810312Y-79444574D01*
X188810312Y-79444574D01*
X188810312Y-81044574D01*
G37*
G36*
X176447835Y-80319515D02*
G01*
X176488388Y-80346612D01*
X176515485Y-80387165D01*
X176525000Y-80435000D01*
X176525000Y-80685000D01*
X176515485Y-80732835D01*
X176488388Y-80773388D01*
X176447835Y-80800485D01*
X176400000Y-80810000D01*
X175900000Y-80810000D01*
X175852165Y-80800485D01*
X175811612Y-80773388D01*
X175784515Y-80732835D01*
X175775000Y-80685000D01*
X175775000Y-80435000D01*
X175784515Y-80387165D01*
X175811612Y-80346612D01*
X175852165Y-80319515D01*
X175900000Y-80310000D01*
X176400000Y-80310000D01*
X176447835Y-80319515D01*
G37*
G36*
X181847835Y-80319515D02*
G01*
X181888388Y-80346612D01*
X181915485Y-80387165D01*
X181925000Y-80435000D01*
X181925000Y-80685000D01*
X181915485Y-80732835D01*
X181888388Y-80773388D01*
X181847835Y-80800485D01*
X181800000Y-80810000D01*
X181300000Y-80810000D01*
X181252165Y-80800485D01*
X181211612Y-80773388D01*
X181184515Y-80732835D01*
X181175000Y-80685000D01*
X181175000Y-80435000D01*
X181184515Y-80387165D01*
X181211612Y-80346612D01*
X181252165Y-80319515D01*
X181300000Y-80310000D01*
X181800000Y-80310000D01*
X181847835Y-80319515D01*
G37*
G36*
X164746742Y-78926601D02*
G01*
X164900687Y-78990367D01*
X165039234Y-79082941D01*
X165157059Y-79200766D01*
X165249633Y-79339313D01*
X165313399Y-79493258D01*
X165345907Y-79656685D01*
X165345907Y-79823315D01*
X165313399Y-79986742D01*
X165249633Y-80140687D01*
X165157059Y-80279234D01*
X165039234Y-80397059D01*
X164900687Y-80489633D01*
X164746742Y-80553399D01*
X164583315Y-80585907D01*
X164416685Y-80585907D01*
X164253258Y-80553399D01*
X164099313Y-80489633D01*
X163960766Y-80397059D01*
X163842941Y-80279234D01*
X163750367Y-80140687D01*
X163686601Y-79986742D01*
X163654093Y-79823315D01*
X163654093Y-79656685D01*
X163686601Y-79493258D01*
X163750367Y-79339313D01*
X163842941Y-79200766D01*
X163960766Y-79082941D01*
X164099313Y-78990367D01*
X164253258Y-78926601D01*
X164416685Y-78894093D01*
X164583315Y-78894093D01*
X164746742Y-78926601D01*
G37*
G36*
X203746742Y-78906601D02*
G01*
X203900687Y-78970367D01*
X204039234Y-79062941D01*
X204157059Y-79180766D01*
X204249633Y-79319313D01*
X204313399Y-79473258D01*
X204345907Y-79636685D01*
X204345907Y-79803315D01*
X204313399Y-79966742D01*
X204249633Y-80120687D01*
X204157059Y-80259234D01*
X204039234Y-80377059D01*
X203900687Y-80469633D01*
X203746742Y-80533399D01*
X203583315Y-80565907D01*
X203416685Y-80565907D01*
X203253258Y-80533399D01*
X203099313Y-80469633D01*
X202960766Y-80377059D01*
X202842941Y-80259234D01*
X202750367Y-80120687D01*
X202686601Y-79966742D01*
X202654093Y-79803315D01*
X202654093Y-79636685D01*
X202686601Y-79473258D01*
X202750367Y-79319313D01*
X202842941Y-79180766D01*
X202960766Y-79062941D01*
X203099313Y-78970367D01*
X203253258Y-78906601D01*
X203416685Y-78874093D01*
X203583315Y-78874093D01*
X203746742Y-78906601D01*
G37*
G36*
X176447835Y-79049515D02*
G01*
X176488388Y-79076612D01*
X176515485Y-79117165D01*
X176525000Y-79165000D01*
X176525000Y-79415000D01*
X176515485Y-79462835D01*
X176488388Y-79503388D01*
X176447835Y-79530485D01*
X176400000Y-79540000D01*
X175900000Y-79540000D01*
X175852165Y-79530485D01*
X175811612Y-79503388D01*
X175784515Y-79462835D01*
X175775000Y-79415000D01*
X175775000Y-79165000D01*
X175784515Y-79117165D01*
X175811612Y-79076612D01*
X175852165Y-79049515D01*
X175900000Y-79040000D01*
X176400000Y-79040000D01*
X176447835Y-79049515D01*
G37*
G36*
X181847835Y-79049515D02*
G01*
X181888388Y-79076612D01*
X181915485Y-79117165D01*
X181925000Y-79165000D01*
X181925000Y-79415000D01*
X181915485Y-79462835D01*
X181888388Y-79503388D01*
X181847835Y-79530485D01*
X181800000Y-79540000D01*
X181300000Y-79540000D01*
X181252165Y-79530485D01*
X181211612Y-79503388D01*
X181184515Y-79462835D01*
X181175000Y-79415000D01*
X181175000Y-79165000D01*
X181184515Y-79117165D01*
X181211612Y-79076612D01*
X181252165Y-79049515D01*
X181300000Y-79040000D01*
X181800000Y-79040000D01*
X181847835Y-79049515D01*
G37*
G36*
X184036662Y-78250276D02*
G01*
X184080459Y-78279541D01*
X184109724Y-78323338D01*
X184120000Y-78375000D01*
X184120000Y-78645000D01*
X184109724Y-78696662D01*
X184080459Y-78740459D01*
X184036662Y-78769724D01*
X183985000Y-78780000D01*
X183615000Y-78780000D01*
X183563338Y-78769724D01*
X183519541Y-78740459D01*
X183490276Y-78696662D01*
X183480000Y-78645000D01*
X183480000Y-78375000D01*
X183490276Y-78323338D01*
X183519541Y-78279541D01*
X183563338Y-78250276D01*
X183615000Y-78240000D01*
X183985000Y-78240000D01*
X184036662Y-78250276D01*
G37*
G36*
X185400224Y-78250276D02*
G01*
X185444021Y-78279541D01*
X185473286Y-78323338D01*
X185483562Y-78375000D01*
X185483562Y-78645000D01*
X185473286Y-78696662D01*
X185444021Y-78740459D01*
X185400224Y-78769724D01*
X185348562Y-78780000D01*
X184978562Y-78780000D01*
X184926900Y-78769724D01*
X184883103Y-78740459D01*
X184853838Y-78696662D01*
X184843562Y-78645000D01*
X184843562Y-78375000D01*
X184853838Y-78323338D01*
X184883103Y-78279541D01*
X184926900Y-78250276D01*
X184978562Y-78240000D01*
X185348562Y-78240000D01*
X185400224Y-78250276D01*
G37*
G36*
X176447835Y-77779515D02*
G01*
X176488388Y-77806612D01*
X176515485Y-77847165D01*
X176525000Y-77895000D01*
X176525000Y-78145000D01*
X176515485Y-78192835D01*
X176488388Y-78233388D01*
X176447835Y-78260485D01*
X176400000Y-78270000D01*
X175900000Y-78270000D01*
X175852165Y-78260485D01*
X175811612Y-78233388D01*
X175784515Y-78192835D01*
X175775000Y-78145000D01*
X175775000Y-77895000D01*
X175784515Y-77847165D01*
X175811612Y-77806612D01*
X175852165Y-77779515D01*
X175900000Y-77770000D01*
X176400000Y-77770000D01*
X176447835Y-77779515D01*
G37*
G36*
X181847835Y-77779515D02*
G01*
X181888388Y-77806612D01*
X181915485Y-77847165D01*
X181925000Y-77895000D01*
X181925000Y-78145000D01*
X181915485Y-78192835D01*
X181888388Y-78233388D01*
X181847835Y-78260485D01*
X181800000Y-78270000D01*
X181300000Y-78270000D01*
X181252165Y-78260485D01*
X181211612Y-78233388D01*
X181184515Y-78192835D01*
X181175000Y-78145000D01*
X181175000Y-77895000D01*
X181184515Y-77847165D01*
X181211612Y-77806612D01*
X181252165Y-77779515D01*
X181300000Y-77770000D01*
X181800000Y-77770000D01*
X181847835Y-77779515D01*
G37*
G36*
X164746742Y-76386601D02*
G01*
X164900687Y-76450367D01*
X165039234Y-76542941D01*
X165157059Y-76660766D01*
X165249633Y-76799313D01*
X165313399Y-76953258D01*
X165345907Y-77116685D01*
X165345907Y-77283315D01*
X165313399Y-77446742D01*
X165249633Y-77600687D01*
X165157059Y-77739234D01*
X165039234Y-77857059D01*
X164900687Y-77949633D01*
X164746742Y-78013399D01*
X164583315Y-78045907D01*
X164416685Y-78045907D01*
X164253258Y-78013399D01*
X164099313Y-77949633D01*
X163960766Y-77857059D01*
X163842941Y-77739234D01*
X163750367Y-77600687D01*
X163686601Y-77446742D01*
X163654093Y-77283315D01*
X163654093Y-77116685D01*
X163686601Y-76953258D01*
X163750367Y-76799313D01*
X163842941Y-76660766D01*
X163960766Y-76542941D01*
X164099313Y-76450367D01*
X164253258Y-76386601D01*
X164416685Y-76354093D01*
X164583315Y-76354093D01*
X164746742Y-76386601D01*
G37*
G36*
X203746742Y-76366601D02*
G01*
X203900687Y-76430367D01*
X204039234Y-76522941D01*
X204157059Y-76640766D01*
X204249633Y-76779313D01*
X204313399Y-76933258D01*
X204345907Y-77096685D01*
X204345907Y-77263315D01*
X204313399Y-77426742D01*
X204249633Y-77580687D01*
X204157059Y-77719234D01*
X204039234Y-77837059D01*
X203900687Y-77929633D01*
X203746742Y-77993399D01*
X203583315Y-78025907D01*
X203416685Y-78025907D01*
X203253258Y-77993399D01*
X203099313Y-77929633D01*
X202960766Y-77837059D01*
X202842941Y-77719234D01*
X202750367Y-77580687D01*
X202686601Y-77426742D01*
X202654093Y-77263315D01*
X202654093Y-77096685D01*
X202686601Y-76933258D01*
X202750367Y-76779313D01*
X202842941Y-76640766D01*
X202960766Y-76522941D01*
X203099313Y-76430367D01*
X203253258Y-76366601D01*
X203416685Y-76334093D01*
X203583315Y-76334093D01*
X203746742Y-76366601D01*
G37*
G36*
X184036662Y-77230276D02*
G01*
X184080459Y-77259541D01*
X184109724Y-77303338D01*
X184120000Y-77355000D01*
X184120000Y-77625000D01*
X184109724Y-77676662D01*
X184080459Y-77720459D01*
X184036662Y-77749724D01*
X183985000Y-77760000D01*
X183615000Y-77760000D01*
X183563338Y-77749724D01*
X183519541Y-77720459D01*
X183490276Y-77676662D01*
X183480000Y-77625000D01*
X183480000Y-77355000D01*
X183490276Y-77303338D01*
X183519541Y-77259541D01*
X183563338Y-77230276D01*
X183615000Y-77220000D01*
X183985000Y-77220000D01*
X184036662Y-77230276D01*
G37*
G36*
X185400224Y-77230276D02*
G01*
X185444021Y-77259541D01*
X185473286Y-77303338D01*
X185483562Y-77355000D01*
X185483562Y-77625000D01*
X185473286Y-77676662D01*
X185444021Y-77720459D01*
X185400224Y-77749724D01*
X185348562Y-77760000D01*
X184978562Y-77760000D01*
X184926900Y-77749724D01*
X184883103Y-77720459D01*
X184853838Y-77676662D01*
X184843562Y-77625000D01*
X184843562Y-77355000D01*
X184853838Y-77303338D01*
X184883103Y-77259541D01*
X184926900Y-77230276D01*
X184978562Y-77220000D01*
X185348562Y-77220000D01*
X185400224Y-77230276D01*
G37*
G36*
X173676662Y-76135287D02*
G01*
X173720459Y-76164552D01*
X173749724Y-76208349D01*
X173760000Y-76260011D01*
X173760000Y-76630011D01*
X173749724Y-76681673D01*
X173720459Y-76725470D01*
X173676662Y-76754735D01*
X173625000Y-76765011D01*
X173355000Y-76765011D01*
X173303338Y-76754735D01*
X173259541Y-76725470D01*
X173230276Y-76681673D01*
X173220000Y-76630011D01*
X173220000Y-76260011D01*
X173230276Y-76208349D01*
X173259541Y-76164552D01*
X173303338Y-76135287D01*
X173355000Y-76125011D01*
X173625000Y-76125011D01*
X173676662Y-76135287D01*
G37*
G36*
X174696662Y-76135287D02*
G01*
X174740459Y-76164552D01*
X174769724Y-76208349D01*
X174780000Y-76260011D01*
X174780000Y-76630011D01*
X174769724Y-76681673D01*
X174740459Y-76725470D01*
X174696662Y-76754735D01*
X174645000Y-76765011D01*
X174375000Y-76765011D01*
X174323338Y-76754735D01*
X174279541Y-76725470D01*
X174250276Y-76681673D01*
X174240000Y-76630011D01*
X174240000Y-76260011D01*
X174250276Y-76208349D01*
X174279541Y-76164552D01*
X174323338Y-76135287D01*
X174375000Y-76125011D01*
X174645000Y-76125011D01*
X174696662Y-76135287D01*
G37*
G36*
X181800823Y-75506345D02*
G01*
X181844620Y-75535610D01*
X181873885Y-75579407D01*
X181884161Y-75631069D01*
X181884161Y-75901069D01*
X181873885Y-75952731D01*
X181844620Y-75996528D01*
X181800823Y-76025793D01*
X181749161Y-76036069D01*
X181379161Y-76036069D01*
X181327499Y-76025793D01*
X181283702Y-75996528D01*
X181254437Y-75952731D01*
X181244161Y-75901069D01*
X181244161Y-75631069D01*
X181254437Y-75579407D01*
X181283702Y-75535610D01*
X181327499Y-75506345D01*
X181379161Y-75496069D01*
X181749161Y-75496069D01*
X181800823Y-75506345D01*
G37*
G36*
X164746742Y-73846601D02*
G01*
X164900687Y-73910367D01*
X165039234Y-74002941D01*
X165157059Y-74120766D01*
X165249633Y-74259313D01*
X165313399Y-74413258D01*
X165345907Y-74576685D01*
X165345907Y-74743315D01*
X165313399Y-74906742D01*
X165249633Y-75060687D01*
X165157059Y-75199234D01*
X165039234Y-75317059D01*
X164900687Y-75409633D01*
X164746742Y-75473399D01*
X164583315Y-75505907D01*
X164416685Y-75505907D01*
X164253258Y-75473399D01*
X164099313Y-75409633D01*
X163960766Y-75317059D01*
X163842941Y-75199234D01*
X163750367Y-75060687D01*
X163686601Y-74906742D01*
X163654093Y-74743315D01*
X163654093Y-74576685D01*
X163686601Y-74413258D01*
X163750367Y-74259313D01*
X163842941Y-74120766D01*
X163960766Y-74002941D01*
X164099313Y-73910367D01*
X164253258Y-73846601D01*
X164416685Y-73814093D01*
X164583315Y-73814093D01*
X164746742Y-73846601D01*
G37*
G36*
X203746742Y-73826601D02*
G01*
X203900687Y-73890367D01*
X204039234Y-73982941D01*
X204157059Y-74100766D01*
X204249633Y-74239313D01*
X204313399Y-74393258D01*
X204345907Y-74556685D01*
X204345907Y-74723315D01*
X204313399Y-74886742D01*
X204249633Y-75040687D01*
X204157059Y-75179234D01*
X204039234Y-75297059D01*
X203900687Y-75389633D01*
X203746742Y-75453399D01*
X203583315Y-75485907D01*
X203416685Y-75485907D01*
X203253258Y-75453399D01*
X203099313Y-75389633D01*
X202960766Y-75297059D01*
X202842941Y-75179234D01*
X202750367Y-75040687D01*
X202686601Y-74886742D01*
X202654093Y-74723315D01*
X202654093Y-74556685D01*
X202686601Y-74393258D01*
X202750367Y-74239313D01*
X202842941Y-74100766D01*
X202960766Y-73982941D01*
X203099313Y-73890367D01*
X203253258Y-73826601D01*
X203416685Y-73794093D01*
X203583315Y-73794093D01*
X203746742Y-73826601D01*
G37*
G36*
X175350000Y-75150000D02*
G01*
X173650000Y-75150000D01*
X173650000Y-74250000D01*
X175350000Y-74250000D01*
X175350000Y-75150000D01*
G37*
G36*
X181800823Y-74486345D02*
G01*
X181844620Y-74515610D01*
X181873885Y-74559407D01*
X181884161Y-74611069D01*
X181884161Y-74881069D01*
X181873885Y-74932731D01*
X181844620Y-74976528D01*
X181800823Y-75005793D01*
X181749161Y-75016069D01*
X181379161Y-75016069D01*
X181327499Y-75005793D01*
X181283702Y-74976528D01*
X181254437Y-74932731D01*
X181244161Y-74881069D01*
X181244161Y-74611069D01*
X181254437Y-74559407D01*
X181283702Y-74515610D01*
X181327499Y-74486345D01*
X181379161Y-74476069D01*
X181749161Y-74476069D01*
X181800823Y-74486345D01*
G37*
G36*
X186736662Y-73750276D02*
G01*
X186780459Y-73779541D01*
X186809724Y-73823338D01*
X186820000Y-73875000D01*
X186820000Y-74145000D01*
X186809724Y-74196662D01*
X186780459Y-74240459D01*
X186736662Y-74269724D01*
X186685000Y-74280000D01*
X186315000Y-74280000D01*
X186263338Y-74269724D01*
X186219541Y-74240459D01*
X186190276Y-74196662D01*
X186180000Y-74145000D01*
X186180000Y-73875000D01*
X186190276Y-73823338D01*
X186219541Y-73779541D01*
X186263338Y-73750276D01*
X186315000Y-73740000D01*
X186685000Y-73740000D01*
X186736662Y-73750276D01*
G37*
G36*
X181811391Y-72750276D02*
G01*
X181855188Y-72779541D01*
X181884453Y-72823338D01*
X181894729Y-72875000D01*
X181894729Y-73145000D01*
X181884453Y-73196662D01*
X181855188Y-73240459D01*
X181811391Y-73269724D01*
X181759729Y-73280000D01*
X181389729Y-73280000D01*
X181338067Y-73269724D01*
X181294270Y-73240459D01*
X181265005Y-73196662D01*
X181254729Y-73145000D01*
X181254729Y-72875000D01*
X181265005Y-72823338D01*
X181294270Y-72779541D01*
X181338067Y-72750276D01*
X181389729Y-72740000D01*
X181759729Y-72740000D01*
X181811391Y-72750276D01*
G37*
G36*
X186736662Y-72730276D02*
G01*
X186780459Y-72759541D01*
X186809724Y-72803338D01*
X186820000Y-72855000D01*
X186820000Y-73125000D01*
X186809724Y-73176662D01*
X186780459Y-73220459D01*
X186736662Y-73249724D01*
X186685000Y-73260000D01*
X186315000Y-73260000D01*
X186263338Y-73249724D01*
X186219541Y-73220459D01*
X186190276Y-73176662D01*
X186180000Y-73125000D01*
X186180000Y-72855000D01*
X186190276Y-72803338D01*
X186219541Y-72759541D01*
X186263338Y-72730276D01*
X186315000Y-72720000D01*
X186685000Y-72720000D01*
X186736662Y-72730276D01*
G37*
G36*
X164746742Y-71306601D02*
G01*
X164900687Y-71370367D01*
X165039234Y-71462941D01*
X165157059Y-71580766D01*
X165249633Y-71719313D01*
X165313399Y-71873258D01*
X165345907Y-72036685D01*
X165345907Y-72203315D01*
X165313399Y-72366742D01*
X165249633Y-72520687D01*
X165157059Y-72659234D01*
X165039234Y-72777059D01*
X164900687Y-72869633D01*
X164746742Y-72933399D01*
X164583315Y-72965907D01*
X164416685Y-72965907D01*
X164253258Y-72933399D01*
X164099313Y-72869633D01*
X163960766Y-72777059D01*
X163842941Y-72659234D01*
X163750367Y-72520687D01*
X163686601Y-72366742D01*
X163654093Y-72203315D01*
X163654093Y-72036685D01*
X163686601Y-71873258D01*
X163750367Y-71719313D01*
X163842941Y-71580766D01*
X163960766Y-71462941D01*
X164099313Y-71370367D01*
X164253258Y-71306601D01*
X164416685Y-71274093D01*
X164583315Y-71274093D01*
X164746742Y-71306601D01*
G37*
G36*
X203746742Y-71286601D02*
G01*
X203900687Y-71350367D01*
X204039234Y-71442941D01*
X204157059Y-71560766D01*
X204249633Y-71699313D01*
X204313399Y-71853258D01*
X204345907Y-72016685D01*
X204345907Y-72183315D01*
X204313399Y-72346742D01*
X204249633Y-72500687D01*
X204157059Y-72639234D01*
X204039234Y-72757059D01*
X203900687Y-72849633D01*
X203746742Y-72913399D01*
X203583315Y-72945907D01*
X203416685Y-72945907D01*
X203253258Y-72913399D01*
X203099313Y-72849633D01*
X202960766Y-72757059D01*
X202842941Y-72639234D01*
X202750367Y-72500687D01*
X202686601Y-72346742D01*
X202654093Y-72183315D01*
X202654093Y-72016685D01*
X202686601Y-71853258D01*
X202750367Y-71699313D01*
X202842941Y-71560766D01*
X202960766Y-71442941D01*
X203099313Y-71350367D01*
X203253258Y-71286601D01*
X203416685Y-71254093D01*
X203583315Y-71254093D01*
X203746742Y-71286601D01*
G37*
G36*
X181811391Y-71730276D02*
G01*
X181855188Y-71759541D01*
X181884453Y-71803338D01*
X181894729Y-71855000D01*
X181894729Y-72125000D01*
X181884453Y-72176662D01*
X181855188Y-72220459D01*
X181811391Y-72249724D01*
X181759729Y-72260000D01*
X181389729Y-72260000D01*
X181338067Y-72249724D01*
X181294270Y-72220459D01*
X181265005Y-72176662D01*
X181254729Y-72125000D01*
X181254729Y-71855000D01*
X181265005Y-71803338D01*
X181294270Y-71759541D01*
X181338067Y-71730276D01*
X181389729Y-71720000D01*
X181759729Y-71720000D01*
X181811391Y-71730276D01*
G37*
G36*
X175350000Y-71750000D02*
G01*
X173650000Y-71750000D01*
X173650000Y-70850000D01*
X175350000Y-70850000D01*
X175350000Y-71750000D01*
G37*
G36*
X178176662Y-70190276D02*
G01*
X178220459Y-70219541D01*
X178249724Y-70263338D01*
X178260000Y-70315000D01*
X178260000Y-70685000D01*
X178249724Y-70736662D01*
X178220459Y-70780459D01*
X178176662Y-70809724D01*
X178125000Y-70820000D01*
X177855000Y-70820000D01*
X177803338Y-70809724D01*
X177759541Y-70780459D01*
X177730276Y-70736662D01*
X177720000Y-70685000D01*
X177720000Y-70315000D01*
X177730276Y-70263338D01*
X177759541Y-70219541D01*
X177803338Y-70190276D01*
X177855000Y-70180000D01*
X178125000Y-70180000D01*
X178176662Y-70190276D01*
G37*
G36*
X179196662Y-70190276D02*
G01*
X179240459Y-70219541D01*
X179269724Y-70263338D01*
X179280000Y-70315000D01*
X179280000Y-70685000D01*
X179269724Y-70736662D01*
X179240459Y-70780459D01*
X179196662Y-70809724D01*
X179145000Y-70820000D01*
X178875000Y-70820000D01*
X178823338Y-70809724D01*
X178779541Y-70780459D01*
X178750276Y-70736662D01*
X178740000Y-70685000D01*
X178740000Y-70315000D01*
X178750276Y-70263338D01*
X178779541Y-70219541D01*
X178823338Y-70190276D01*
X178875000Y-70180000D01*
X179145000Y-70180000D01*
X179196662Y-70190276D01*
G37*
G36*
X164746742Y-68766601D02*
G01*
X164900687Y-68830367D01*
X165039234Y-68922941D01*
X165157059Y-69040766D01*
X165249633Y-69179313D01*
X165313399Y-69333258D01*
X165345907Y-69496685D01*
X165345907Y-69663315D01*
X165313399Y-69826742D01*
X165249633Y-69980687D01*
X165157059Y-70119234D01*
X165039234Y-70237059D01*
X164900687Y-70329633D01*
X164746742Y-70393399D01*
X164583315Y-70425907D01*
X164416685Y-70425907D01*
X164253258Y-70393399D01*
X164099313Y-70329633D01*
X163960766Y-70237059D01*
X163842941Y-70119234D01*
X163750367Y-69980687D01*
X163686601Y-69826742D01*
X163654093Y-69663315D01*
X163654093Y-69496685D01*
X163686601Y-69333258D01*
X163750367Y-69179313D01*
X163842941Y-69040766D01*
X163960766Y-68922941D01*
X164099313Y-68830367D01*
X164253258Y-68766601D01*
X164416685Y-68734093D01*
X164583315Y-68734093D01*
X164746742Y-68766601D01*
G37*
G36*
X203746742Y-68746601D02*
G01*
X203900687Y-68810367D01*
X204039234Y-68902941D01*
X204157059Y-69020766D01*
X204249633Y-69159313D01*
X204313399Y-69313258D01*
X204345907Y-69476685D01*
X204345907Y-69643315D01*
X204313399Y-69806742D01*
X204249633Y-69960687D01*
X204157059Y-70099234D01*
X204039234Y-70217059D01*
X203900687Y-70309633D01*
X203746742Y-70373399D01*
X203583315Y-70405907D01*
X203416685Y-70405907D01*
X203253258Y-70373399D01*
X203099313Y-70309633D01*
X202960766Y-70217059D01*
X202842941Y-70099234D01*
X202750367Y-69960687D01*
X202686601Y-69806742D01*
X202654093Y-69643315D01*
X202654093Y-69476685D01*
X202686601Y-69313258D01*
X202750367Y-69159313D01*
X202842941Y-69020766D01*
X202960766Y-68902941D01*
X203099313Y-68810367D01*
X203253258Y-68746601D01*
X203416685Y-68714093D01*
X203583315Y-68714093D01*
X203746742Y-68746601D01*
G37*
G36*
X182200000Y-69650000D02*
G01*
X181620000Y-69650000D01*
X181620000Y-68500000D01*
X182200000Y-68500000D01*
X182200000Y-69650000D01*
G37*
G36*
X183000000Y-69650000D02*
G01*
X182420000Y-69650000D01*
X182420000Y-68500000D01*
X183000000Y-68500000D01*
X183000000Y-69650000D01*
G37*
G36*
X183500000Y-69650000D02*
G01*
X183220000Y-69650000D01*
X183220000Y-68500000D01*
X183500000Y-68500000D01*
X183500000Y-69650000D01*
G37*
G36*
X184000000Y-69650000D02*
G01*
X183720000Y-69650000D01*
X183720000Y-68500000D01*
X184000000Y-68500000D01*
X184000000Y-69650000D01*
G37*
G36*
X184500000Y-69650000D02*
G01*
X184220000Y-69650000D01*
X184220000Y-68500000D01*
X184500000Y-68500000D01*
X184500000Y-69650000D01*
G37*
G36*
X185000000Y-69650000D02*
G01*
X184720000Y-69650000D01*
X184720000Y-68500000D01*
X185000000Y-68500000D01*
X185000000Y-69650000D01*
G37*
G36*
X185500000Y-69650000D02*
G01*
X185220000Y-69650000D01*
X185220000Y-68500000D01*
X185500000Y-68500000D01*
X185500000Y-69650000D01*
G37*
G36*
X186000000Y-69650000D02*
G01*
X185720000Y-69650000D01*
X185720000Y-68500000D01*
X186000000Y-68500000D01*
X186000000Y-69650000D01*
G37*
G36*
X186500000Y-69650000D02*
G01*
X186220000Y-69650000D01*
X186220000Y-68500000D01*
X186500000Y-68500000D01*
X186500000Y-69650000D01*
G37*
G36*
X187000000Y-69650000D02*
G01*
X186720000Y-69650000D01*
X186720000Y-68500000D01*
X187000000Y-68500000D01*
X187000000Y-69650000D01*
G37*
G36*
X187800000Y-69650000D02*
G01*
X187220000Y-69650000D01*
X187220000Y-68500000D01*
X187800000Y-68500000D01*
X187800000Y-69650000D01*
G37*
G36*
X188600000Y-69650000D02*
G01*
X188020000Y-69650000D01*
X188020000Y-68500000D01*
X188600000Y-68500000D01*
X188600000Y-69650000D01*
G37*
G36*
X180990909Y-67489963D02*
G01*
X181109600Y-67558489D01*
X181206511Y-67655400D01*
X181275037Y-67774091D01*
X181310509Y-67906474D01*
X181315000Y-67975000D01*
X181315000Y-69025000D01*
X181310509Y-69093526D01*
X181275037Y-69225909D01*
X181206511Y-69344600D01*
X181109600Y-69441511D01*
X180990909Y-69510037D01*
X180858526Y-69545509D01*
X180721474Y-69545509D01*
X180589091Y-69510037D01*
X180470400Y-69441511D01*
X180373489Y-69344600D01*
X180304963Y-69225909D01*
X180269491Y-69093526D01*
X180265000Y-69025000D01*
X180265000Y-67975000D01*
X180269491Y-67906474D01*
X180304963Y-67774091D01*
X180373489Y-67655400D01*
X180470400Y-67558489D01*
X180589091Y-67489963D01*
X180721474Y-67454491D01*
X180858526Y-67454491D01*
X180990909Y-67489963D01*
G37*
G36*
X189630909Y-67489963D02*
G01*
X189749600Y-67558489D01*
X189846511Y-67655400D01*
X189915037Y-67774091D01*
X189950509Y-67906474D01*
X189955000Y-67975000D01*
X189955000Y-69025000D01*
X189950509Y-69093526D01*
X189915037Y-69225909D01*
X189846511Y-69344600D01*
X189749600Y-69441511D01*
X189630909Y-69510037D01*
X189498526Y-69545509D01*
X189361474Y-69545509D01*
X189229091Y-69510037D01*
X189110400Y-69441511D01*
X189013489Y-69344600D01*
X188944963Y-69225909D01*
X188909491Y-69093526D01*
X188905000Y-69025000D01*
X188905000Y-67975000D01*
X188909491Y-67906474D01*
X188944963Y-67774091D01*
X189013489Y-67655400D01*
X189110400Y-67558489D01*
X189229091Y-67489963D01*
X189361474Y-67454491D01*
X189498526Y-67454491D01*
X189630909Y-67489963D01*
G37*
G36*
X176505634Y-68566164D02*
G01*
X176538725Y-68588275D01*
X176560836Y-68621366D01*
X176568600Y-68660400D01*
X176568600Y-69219200D01*
X176560836Y-69258234D01*
X176538725Y-69291325D01*
X176505634Y-69313436D01*
X176466600Y-69321200D01*
X175145800Y-69321200D01*
X175106766Y-69313436D01*
X175073675Y-69291325D01*
X175051564Y-69258234D01*
X175043800Y-69219200D01*
X175043800Y-68660400D01*
X175051564Y-68621366D01*
X175073675Y-68588275D01*
X175106766Y-68566164D01*
X175145800Y-68558400D01*
X176466600Y-68558400D01*
X176505634Y-68566164D01*
G37*
G36*
X178893234Y-67626364D02*
G01*
X178926325Y-67648475D01*
X178948436Y-67681566D01*
X178956200Y-67720600D01*
X178956200Y-68279400D01*
X178948436Y-68318434D01*
X178926325Y-68351525D01*
X178893234Y-68373636D01*
X178854200Y-68381400D01*
X177533400Y-68381400D01*
X177494366Y-68373636D01*
X177461275Y-68351525D01*
X177439164Y-68318434D01*
X177431400Y-68279400D01*
X177431400Y-67720600D01*
X177439164Y-67681566D01*
X177461275Y-67648475D01*
X177494366Y-67626364D01*
X177533400Y-67618600D01*
X178854200Y-67618600D01*
X178893234Y-67626364D01*
G37*
G36*
X182344372Y-67699739D02*
G01*
X182417847Y-67742160D01*
X182477840Y-67802153D01*
X182520261Y-67875628D01*
X182542220Y-67957579D01*
X182542220Y-68042421D01*
X182520261Y-68124372D01*
X182477840Y-68197847D01*
X182417847Y-68257840D01*
X182344372Y-68300261D01*
X182262421Y-68322220D01*
X182177579Y-68322220D01*
X182095628Y-68300261D01*
X182022153Y-68257840D01*
X181962160Y-68197847D01*
X181919739Y-68124372D01*
X181897780Y-68042421D01*
X181897780Y-67957579D01*
X181919739Y-67875628D01*
X181962160Y-67802153D01*
X182022153Y-67742160D01*
X182095628Y-67699739D01*
X182177579Y-67677780D01*
X182262421Y-67677780D01*
X182344372Y-67699739D01*
G37*
G36*
X188124372Y-67699739D02*
G01*
X188197847Y-67742160D01*
X188257840Y-67802153D01*
X188300261Y-67875628D01*
X188322220Y-67957579D01*
X188322220Y-68042421D01*
X188300261Y-68124372D01*
X188257840Y-68197847D01*
X188197847Y-68257840D01*
X188124372Y-68300261D01*
X188042421Y-68322220D01*
X187957579Y-68322220D01*
X187875628Y-68300261D01*
X187802153Y-68257840D01*
X187742160Y-68197847D01*
X187699739Y-68124372D01*
X187677780Y-68042421D01*
X187677780Y-67957579D01*
X187699739Y-67875628D01*
X187742160Y-67802153D01*
X187802153Y-67742160D01*
X187875628Y-67699739D01*
X187957579Y-67677780D01*
X188042421Y-67677780D01*
X188124372Y-67699739D01*
G37*
G36*
X170236662Y-67760276D02*
G01*
X170280459Y-67789541D01*
X170309724Y-67833338D01*
X170320000Y-67885000D01*
X170320000Y-68155000D01*
X170309724Y-68206662D01*
X170280459Y-68250459D01*
X170236662Y-68279724D01*
X170185000Y-68290000D01*
X169815000Y-68290000D01*
X169763338Y-68279724D01*
X169719541Y-68250459D01*
X169690276Y-68206662D01*
X169680000Y-68155000D01*
X169680000Y-67885000D01*
X169690276Y-67833338D01*
X169719541Y-67789541D01*
X169763338Y-67760276D01*
X169815000Y-67750000D01*
X170185000Y-67750000D01*
X170236662Y-67760276D01*
G37*
G36*
X174236662Y-67752282D02*
G01*
X174280459Y-67781547D01*
X174309724Y-67825344D01*
X174320000Y-67877006D01*
X174320000Y-68147006D01*
X174309724Y-68198668D01*
X174280459Y-68242465D01*
X174236662Y-68271730D01*
X174185000Y-68282006D01*
X173815000Y-68282006D01*
X173763338Y-68271730D01*
X173719541Y-68242465D01*
X173690276Y-68198668D01*
X173680000Y-68147006D01*
X173680000Y-67877006D01*
X173690276Y-67825344D01*
X173719541Y-67781547D01*
X173763338Y-67752282D01*
X173815000Y-67742006D01*
X174185000Y-67742006D01*
X174236662Y-67752282D01*
G37*
G36*
X164746742Y-66226601D02*
G01*
X164900687Y-66290367D01*
X165039234Y-66382941D01*
X165157059Y-66500766D01*
X165249633Y-66639313D01*
X165313399Y-66793258D01*
X165345907Y-66956685D01*
X165345907Y-67123315D01*
X165313399Y-67286742D01*
X165249633Y-67440687D01*
X165157059Y-67579234D01*
X165039234Y-67697059D01*
X164900687Y-67789633D01*
X164746742Y-67853399D01*
X164583315Y-67885907D01*
X164416685Y-67885907D01*
X164253258Y-67853399D01*
X164099313Y-67789633D01*
X163960766Y-67697059D01*
X163842941Y-67579234D01*
X163750367Y-67440687D01*
X163686601Y-67286742D01*
X163654093Y-67123315D01*
X163654093Y-66956685D01*
X163686601Y-66793258D01*
X163750367Y-66639313D01*
X163842941Y-66500766D01*
X163960766Y-66382941D01*
X164099313Y-66290367D01*
X164253258Y-66226601D01*
X164416685Y-66194093D01*
X164583315Y-66194093D01*
X164746742Y-66226601D01*
G37*
G36*
X203746742Y-66206601D02*
G01*
X203900687Y-66270367D01*
X204039234Y-66362941D01*
X204157059Y-66480766D01*
X204249633Y-66619313D01*
X204313399Y-66773258D01*
X204345907Y-66936685D01*
X204345907Y-67103315D01*
X204313399Y-67266742D01*
X204249633Y-67420687D01*
X204157059Y-67559234D01*
X204039234Y-67677059D01*
X203900687Y-67769633D01*
X203746742Y-67833399D01*
X203583315Y-67865907D01*
X203416685Y-67865907D01*
X203253258Y-67833399D01*
X203099313Y-67769633D01*
X202960766Y-67677059D01*
X202842941Y-67559234D01*
X202750367Y-67420687D01*
X202686601Y-67266742D01*
X202654093Y-67103315D01*
X202654093Y-66936685D01*
X202686601Y-66773258D01*
X202750367Y-66619313D01*
X202842941Y-66480766D01*
X202960766Y-66362941D01*
X203099313Y-66270367D01*
X203253258Y-66206601D01*
X203416685Y-66174093D01*
X203583315Y-66174093D01*
X203746742Y-66206601D01*
G37*
G36*
X176505634Y-66686564D02*
G01*
X176538725Y-66708675D01*
X176560836Y-66741766D01*
X176568600Y-66780800D01*
X176568600Y-67339600D01*
X176560836Y-67378634D01*
X176538725Y-67411725D01*
X176505634Y-67433836D01*
X176466600Y-67441600D01*
X175145800Y-67441600D01*
X175106766Y-67433836D01*
X175073675Y-67411725D01*
X175051564Y-67378634D01*
X175043800Y-67339600D01*
X175043800Y-66780800D01*
X175051564Y-66741766D01*
X175073675Y-66708675D01*
X175106766Y-66686564D01*
X175145800Y-66678800D01*
X176466600Y-66678800D01*
X176505634Y-66686564D01*
G37*
G36*
X170236662Y-66740276D02*
G01*
X170280459Y-66769541D01*
X170309724Y-66813338D01*
X170320000Y-66865000D01*
X170320000Y-67135000D01*
X170309724Y-67186662D01*
X170280459Y-67230459D01*
X170236662Y-67259724D01*
X170185000Y-67270000D01*
X169815000Y-67270000D01*
X169763338Y-67259724D01*
X169719541Y-67230459D01*
X169690276Y-67186662D01*
X169680000Y-67135000D01*
X169680000Y-66865000D01*
X169690276Y-66813338D01*
X169719541Y-66769541D01*
X169763338Y-66740276D01*
X169815000Y-66730000D01*
X170185000Y-66730000D01*
X170236662Y-66740276D01*
G37*
G36*
X174236662Y-66732282D02*
G01*
X174280459Y-66761547D01*
X174309724Y-66805344D01*
X174320000Y-66857006D01*
X174320000Y-67127006D01*
X174309724Y-67178668D01*
X174280459Y-67222465D01*
X174236662Y-67251730D01*
X174185000Y-67262006D01*
X173815000Y-67262006D01*
X173763338Y-67251730D01*
X173719541Y-67222465D01*
X173690276Y-67178668D01*
X173680000Y-67127006D01*
X173680000Y-66857006D01*
X173690276Y-66805344D01*
X173719541Y-66761547D01*
X173763338Y-66732282D01*
X173815000Y-66722006D01*
X174185000Y-66722006D01*
X174236662Y-66732282D01*
G37*
G36*
X165350000Y-65350000D02*
G01*
X163650000Y-65350000D01*
X163650000Y-63650000D01*
X165350000Y-63650000D01*
X165350000Y-65350000D01*
G37*
G36*
X204350000Y-65330000D02*
G01*
X202650000Y-65330000D01*
X202650000Y-63630000D01*
X204350000Y-63630000D01*
X204350000Y-65330000D01*
G37*
G36*
X180981342Y-63358060D02*
G01*
X181094381Y-63423323D01*
X181186677Y-63515619D01*
X181251940Y-63628658D01*
X181285722Y-63754737D01*
X181290000Y-63820000D01*
X181290000Y-64820000D01*
X181285722Y-64885263D01*
X181251940Y-65011342D01*
X181186677Y-65124381D01*
X181094381Y-65216677D01*
X180981342Y-65281940D01*
X180855263Y-65315722D01*
X180724737Y-65315722D01*
X180598658Y-65281940D01*
X180485619Y-65216677D01*
X180393323Y-65124381D01*
X180328060Y-65011342D01*
X180294278Y-64885263D01*
X180290000Y-64820000D01*
X180290000Y-63820000D01*
X180294278Y-63754737D01*
X180328060Y-63628658D01*
X180393323Y-63515619D01*
X180485619Y-63423323D01*
X180598658Y-63358060D01*
X180724737Y-63324278D01*
X180855263Y-63324278D01*
X180981342Y-63358060D01*
G37*
G36*
X189621342Y-63358060D02*
G01*
X189734381Y-63423323D01*
X189826677Y-63515619D01*
X189891940Y-63628658D01*
X189925722Y-63754737D01*
X189930000Y-63820000D01*
X189930000Y-64820000D01*
X189925722Y-64885263D01*
X189891940Y-65011342D01*
X189826677Y-65124381D01*
X189734381Y-65216677D01*
X189621342Y-65281940D01*
X189495263Y-65315722D01*
X189364737Y-65315722D01*
X189238658Y-65281940D01*
X189125619Y-65216677D01*
X189033323Y-65124381D01*
X188968060Y-65011342D01*
X188934278Y-64885263D01*
X188930000Y-64820000D01*
X188930000Y-63820000D01*
X188934278Y-63754737D01*
X188968060Y-63628658D01*
X189033323Y-63515619D01*
X189125619Y-63423323D01*
X189238658Y-63358060D01*
X189364737Y-63324278D01*
X189495263Y-63324278D01*
X189621342Y-63358060D01*
G37*
G36*
X171310366Y-63300818D02*
G01*
X171360198Y-63306600D01*
X171377222Y-63314117D01*
X171399529Y-63318554D01*
X171423408Y-63334510D01*
X171443506Y-63343384D01*
X171457233Y-63357111D01*
X171478607Y-63371393D01*
X171492888Y-63392766D01*
X171506615Y-63406493D01*
X171515488Y-63426588D01*
X171531446Y-63450471D01*
X171535883Y-63472779D01*
X171543399Y-63489801D01*
X171549178Y-63539621D01*
X171550000Y-63543750D01*
X171550000Y-64456250D01*
X171549178Y-64460378D01*
X171543399Y-64510198D01*
X171535883Y-64527218D01*
X171531446Y-64549529D01*
X171515486Y-64573413D01*
X171506615Y-64593506D01*
X171492890Y-64607230D01*
X171478607Y-64628607D01*
X171457230Y-64642890D01*
X171443506Y-64656615D01*
X171423413Y-64665486D01*
X171399529Y-64681446D01*
X171377218Y-64685883D01*
X171360198Y-64693399D01*
X171310379Y-64699178D01*
X171306250Y-64700000D01*
X170818750Y-64700000D01*
X170814623Y-64699179D01*
X170764801Y-64693399D01*
X170747779Y-64685883D01*
X170725471Y-64681446D01*
X170701588Y-64665488D01*
X170681493Y-64656615D01*
X170667766Y-64642888D01*
X170646393Y-64628607D01*
X170632111Y-64607233D01*
X170618384Y-64593506D01*
X170609510Y-64573408D01*
X170593554Y-64549529D01*
X170589117Y-64527222D01*
X170581600Y-64510198D01*
X170575818Y-64460367D01*
X170575000Y-64456250D01*
X170575000Y-63543750D01*
X170575818Y-63539635D01*
X170581600Y-63489801D01*
X170589117Y-63472775D01*
X170593554Y-63450471D01*
X170609508Y-63426593D01*
X170618384Y-63406493D01*
X170632113Y-63392763D01*
X170646393Y-63371393D01*
X170667763Y-63357113D01*
X170681493Y-63343384D01*
X170701593Y-63334508D01*
X170725471Y-63318554D01*
X170747775Y-63314117D01*
X170764801Y-63306600D01*
X170814634Y-63300818D01*
X170818750Y-63300000D01*
X171306250Y-63300000D01*
X171310366Y-63300818D01*
G37*
G36*
X173185366Y-63300818D02*
G01*
X173235198Y-63306600D01*
X173252222Y-63314117D01*
X173274529Y-63318554D01*
X173298408Y-63334510D01*
X173318506Y-63343384D01*
X173332233Y-63357111D01*
X173353607Y-63371393D01*
X173367888Y-63392766D01*
X173381615Y-63406493D01*
X173390488Y-63426588D01*
X173406446Y-63450471D01*
X173410883Y-63472779D01*
X173418399Y-63489801D01*
X173424178Y-63539621D01*
X173425000Y-63543750D01*
X173425000Y-64456250D01*
X173424178Y-64460378D01*
X173418399Y-64510198D01*
X173410883Y-64527218D01*
X173406446Y-64549529D01*
X173390486Y-64573413D01*
X173381615Y-64593506D01*
X173367890Y-64607230D01*
X173353607Y-64628607D01*
X173332230Y-64642890D01*
X173318506Y-64656615D01*
X173298413Y-64665486D01*
X173274529Y-64681446D01*
X173252218Y-64685883D01*
X173235198Y-64693399D01*
X173185379Y-64699178D01*
X173181250Y-64700000D01*
X172693750Y-64700000D01*
X172689623Y-64699179D01*
X172639801Y-64693399D01*
X172622779Y-64685883D01*
X172600471Y-64681446D01*
X172576588Y-64665488D01*
X172556493Y-64656615D01*
X172542766Y-64642888D01*
X172521393Y-64628607D01*
X172507111Y-64607233D01*
X172493384Y-64593506D01*
X172484510Y-64573408D01*
X172468554Y-64549529D01*
X172464117Y-64527222D01*
X172456600Y-64510198D01*
X172450818Y-64460367D01*
X172450000Y-64456250D01*
X172450000Y-63543750D01*
X172450818Y-63539635D01*
X172456600Y-63489801D01*
X172464117Y-63472775D01*
X172468554Y-63450471D01*
X172484508Y-63426593D01*
X172493384Y-63406493D01*
X172507113Y-63392763D01*
X172521393Y-63371393D01*
X172542763Y-63357113D01*
X172556493Y-63343384D01*
X172576593Y-63334508D01*
X172600471Y-63318554D01*
X172622775Y-63314117D01*
X172639801Y-63306600D01*
X172689634Y-63300818D01*
X172693750Y-63300000D01*
X173181250Y-63300000D01*
X173185366Y-63300818D01*
G37*
M02*
