%TF.GenerationSoftware,KiCad,Pcbnew,9.0.7*%
%TF.CreationDate,2026-03-09T23:45:54-04:00*%
%TF.ProjectId,RP2350Adev,52503233-3530-4416-9465-762e6b696361,rev?*%
%TF.SameCoordinates,Original*%
%TF.FileFunction,Copper,L2,Bot*%
%TF.FilePolarity,Positive*%
%FSLAX46Y46*%
G04 Gerber Fmt 4.6, Leading zero omitted, Abs format (unit mm)*
G04 Created by KiCad (PCBNEW 9.0.7) date 2026-03-09 23:45:54*
%MOMM*%
%LPD*%
G01*
G04 APERTURE LIST*
%TA.AperFunction,ComponentPad*%
%ADD10R,0.850000X0.850000*%
%TD*%
%TA.AperFunction,ComponentPad*%
%ADD11C,0.850000*%
%TD*%
%TA.AperFunction,ComponentPad*%
%ADD12O,1.050000X2.100000*%
%TD*%
%TA.AperFunction,ComponentPad*%
%ADD13O,1.000000X2.000000*%
%TD*%
%TA.AperFunction,ComponentPad*%
%ADD14R,1.700000X1.700000*%
%TD*%
%TA.AperFunction,ComponentPad*%
%ADD15C,1.700000*%
%TD*%
%TA.AperFunction,ViaPad*%
%ADD16C,0.609600*%
%TD*%
%TA.AperFunction,Conductor*%
%ADD17C,0.152400*%
%TD*%
%TA.AperFunction,Conductor*%
%ADD18C,0.304800*%
%TD*%
%TA.AperFunction,Conductor*%
%ADD19C,0.508000*%
%TD*%
G04 APERTURE END LIST*
D10*
%TO.P,J3,1,Pin_1*%
%TO.N,/SWCLK*%
X182800000Y-107000000D03*
D11*
%TO.P,J3,2,Pin_2*%
%TO.N,GND*%
X183800000Y-107000000D03*
%TO.P,J3,3,Pin_3*%
%TO.N,/SWDIO*%
X184800000Y-107000000D03*
%TD*%
D12*
%TO.P,J1,S1,SHELL*%
%TO.N,GND*%
X189430000Y-68500000D03*
D13*
%TO.P,J1,S2,SHELL*%
X189430000Y-64320000D03*
%TO.P,J1,S3,SHELL*%
X180790000Y-64320000D03*
D12*
%TO.P,J1,S4,SHELL*%
X180790000Y-68500000D03*
%TD*%
D14*
%TO.P,J4,1,Pin_1*%
%TO.N,+5V*%
X203500000Y-64480000D03*
D15*
%TO.P,J4,2,Pin_2*%
%TO.N,GND*%
X203500000Y-67020000D03*
%TO.P,J4,3,Pin_3*%
%TO.N,+3V3*%
X203500000Y-69560000D03*
%TO.P,J4,4,Pin_4*%
%TO.N,/BOOT*%
X203500000Y-72100000D03*
%TO.P,J4,5,Pin_5*%
%TO.N,/GPIO29*%
X203500000Y-74640000D03*
%TO.P,J4,6,Pin_6*%
%TO.N,/GPIO28*%
X203500000Y-77180000D03*
%TO.P,J4,7,Pin_7*%
%TO.N,/GPIO27*%
X203500000Y-79720000D03*
%TO.P,J4,8,Pin_8*%
%TO.N,GND*%
X203500000Y-82260000D03*
%TO.P,J4,9,Pin_9*%
%TO.N,/GPIO26*%
X203500000Y-84800000D03*
%TO.P,J4,10,Pin_10*%
%TO.N,/GPIO23*%
X203500000Y-87340000D03*
%TO.P,J4,11,Pin_11*%
%TO.N,/RUN*%
X203500000Y-89880000D03*
%TO.P,J4,12,Pin_12*%
%TO.N,/GPIO22*%
X203500000Y-92420000D03*
%TO.P,J4,13,Pin_13*%
%TO.N,GND*%
X203500000Y-94960000D03*
%TO.P,J4,14,Pin_14*%
%TO.N,/GPIO21*%
X203500000Y-97500000D03*
%TO.P,J4,15,Pin_15*%
%TO.N,/GPIO20*%
X203500000Y-100040000D03*
%TO.P,J4,16,Pin_16*%
%TO.N,/GPIO19*%
X203500000Y-102580000D03*
%TO.P,J4,17,Pin_17*%
%TO.N,/GPIO18*%
X203500000Y-105120000D03*
%TO.P,J4,18,Pin_18*%
%TO.N,GND*%
X203500000Y-107660000D03*
%TO.P,J4,19,Pin_19*%
%TO.N,/GPIO17*%
X203500000Y-110200000D03*
%TO.P,J4,20,Pin_20*%
%TO.N,/GPIO16*%
X203500000Y-112740000D03*
%TD*%
D14*
%TO.P,J2,1,Pin_1*%
%TO.N,/GPIO0*%
X164500000Y-64500000D03*
D15*
%TO.P,J2,2,Pin_2*%
%TO.N,/GPIO1*%
X164500000Y-67040000D03*
%TO.P,J2,3,Pin_3*%
%TO.N,GND*%
X164500000Y-69580000D03*
%TO.P,J2,4,Pin_4*%
%TO.N,/GPIO2*%
X164500000Y-72120000D03*
%TO.P,J2,5,Pin_5*%
%TO.N,/GPIO3*%
X164500000Y-74660000D03*
%TO.P,J2,6,Pin_6*%
%TO.N,/GPIO4*%
X164500000Y-77200000D03*
%TO.P,J2,7,Pin_7*%
%TO.N,/GPIO5*%
X164500000Y-79740000D03*
%TO.P,J2,8,Pin_8*%
%TO.N,GND*%
X164500000Y-82280000D03*
%TO.P,J2,9,Pin_9*%
%TO.N,/GPIO6*%
X164500000Y-84820000D03*
%TO.P,J2,10,Pin_10*%
%TO.N,/GPIO7*%
X164500000Y-87360000D03*
%TO.P,J2,11,Pin_11*%
%TO.N,/GPIO8*%
X164500000Y-89900000D03*
%TO.P,J2,12,Pin_12*%
%TO.N,/GPIO9*%
X164500000Y-92440000D03*
%TO.P,J2,13,Pin_13*%
%TO.N,GND*%
X164500000Y-94980000D03*
%TO.P,J2,14,Pin_14*%
%TO.N,/GPIO10*%
X164500000Y-97520000D03*
%TO.P,J2,15,Pin_15*%
%TO.N,/GPIO11*%
X164500000Y-100060000D03*
%TO.P,J2,16,Pin_16*%
%TO.N,/GPIO12*%
X164500000Y-102600000D03*
%TO.P,J2,17,Pin_17*%
%TO.N,/GPIO13*%
X164500000Y-105140000D03*
%TO.P,J2,18,Pin_18*%
%TO.N,GND*%
X164500000Y-107680000D03*
%TO.P,J2,19,Pin_19*%
%TO.N,/GPIO14*%
X164500000Y-110220000D03*
%TO.P,J2,20,Pin_20*%
%TO.N,/GPIO15*%
X164500000Y-112760000D03*
%TD*%
D16*
%TO.N,GND*%
X181950000Y-99850000D03*
%TO.N,+1V1*%
X189000000Y-89208000D03*
%TO.N,GND*%
X189400000Y-84934513D03*
X188831456Y-82682726D03*
X187232370Y-84542196D03*
X199750000Y-90000000D03*
X189500000Y-94700000D03*
X186500000Y-75000000D03*
X174500000Y-70150000D03*
X184010000Y-89500000D03*
X182450000Y-96550000D03*
X185400000Y-89460000D03*
X182500000Y-100500000D03*
X174767051Y-81826589D03*
X174300000Y-100350000D03*
X174500000Y-64000000D03*
X183750000Y-97800000D03*
X178470669Y-84496876D03*
X184030000Y-90900000D03*
X188810209Y-81917826D03*
X175600000Y-88850000D03*
X174500000Y-65500000D03*
X181574729Y-74000000D03*
X177990000Y-71490000D03*
X184020000Y-88120000D03*
X182860000Y-89520000D03*
X175500000Y-65500000D03*
X191700000Y-89850000D03*
X190200000Y-105950000D03*
X183800000Y-82353447D03*
%TO.N,+3V3*%
X200000000Y-70500000D03*
X198500000Y-72000000D03*
X191700000Y-98490000D03*
X194500000Y-97000000D03*
%TO.N,+1V1*%
X183892000Y-94650000D03*
X178800000Y-88808525D03*
X185414709Y-83414709D03*
%TO.N,+5V*%
X191000000Y-66500000D03*
X179000000Y-66510000D03*
%TO.N,/BOOT*%
X183839949Y-76012051D03*
X185500000Y-76000000D03*
%TO.N,/GPIO23*%
X194927500Y-93408000D03*
X195927500Y-92400000D03*
%TO.N,/GPIO22*%
X200427500Y-93900000D03*
X198419500Y-93908000D03*
%TO.N,/RUN*%
X196000000Y-98500000D03*
X188000000Y-97000000D03*
X194000000Y-100000000D03*
X185657931Y-96957870D03*
%TO.N,GND*%
X176800000Y-91100000D03*
%TD*%
D17*
%TO.N,+1V1*%
X183892000Y-94650000D02*
X184000000Y-94542000D01*
X184000000Y-94542000D02*
X184000000Y-91500000D01*
X181808525Y-88808525D02*
X182000000Y-89000000D01*
X178800000Y-88808525D02*
X181808525Y-88808525D01*
D18*
%TO.N,+3V3*%
X193010000Y-98490000D02*
X194500000Y-97000000D01*
X200000000Y-70500000D02*
X198500000Y-72000000D01*
X191700000Y-98490000D02*
X193010000Y-98490000D01*
D17*
%TO.N,+1V1*%
X182000000Y-91500000D02*
X182000000Y-89000000D01*
X185414709Y-83414709D02*
X185500000Y-83500000D01*
X186000000Y-91500000D02*
X184000000Y-91500000D01*
X186000000Y-87500000D02*
X185000000Y-87500000D01*
X186000000Y-89000000D02*
X186000000Y-91500000D01*
X184000000Y-91500000D02*
X182000000Y-91500000D01*
X182000000Y-89000000D02*
X182000000Y-87500000D01*
X186000000Y-87500000D02*
X186000000Y-89000000D01*
X185000000Y-87500000D02*
X185000000Y-83829418D01*
X185000000Y-83829418D02*
X185414709Y-83414709D01*
D19*
%TO.N,+5V*%
X190990000Y-66510000D02*
X191000000Y-66500000D01*
X179000000Y-66510000D02*
X190990000Y-66510000D01*
D17*
%TO.N,/BOOT*%
X183852000Y-76000000D02*
X185500000Y-76000000D01*
X183839949Y-76012051D02*
X183852000Y-76000000D01*
%TO.N,/GPIO23*%
X194927500Y-93400000D02*
X195927500Y-92400000D01*
X194927500Y-93408000D02*
X194927500Y-93400000D01*
%TO.N,/GPIO22*%
X198427500Y-93900000D02*
X200427500Y-93900000D01*
X198419500Y-93908000D02*
X198427500Y-93900000D01*
%TO.N,/RUN*%
X187957870Y-96957870D02*
X188000000Y-97000000D01*
X194000000Y-100000000D02*
X195007633Y-98992367D01*
X185657931Y-96957870D02*
X187957870Y-96957870D01*
X195007633Y-98992367D02*
X195507633Y-98992367D01*
X195507633Y-98992367D02*
X196000000Y-98500000D01*
%TO.N,+1V1*%
X189000000Y-89208000D02*
X186208000Y-89208000D01*
X186208000Y-89208000D02*
X186000000Y-89000000D01*
%TD*%
%TA.AperFunction,Conductor*%
%TO.N,GND*%
G36*
X205572159Y-61214155D02*
G01*
X205639100Y-61234169D01*
X205684595Y-61287198D01*
X205695549Y-61338154D01*
X205695549Y-114591569D01*
X205675864Y-114658608D01*
X205623060Y-114704363D01*
X205572358Y-114715566D01*
X162125309Y-114999182D01*
X162058143Y-114979936D01*
X162012044Y-114927432D01*
X162000500Y-114875185D01*
X162000500Y-69473753D01*
X163150000Y-69473753D01*
X163150000Y-69686246D01*
X163183242Y-69896127D01*
X163183242Y-69896130D01*
X163248904Y-70098217D01*
X163345375Y-70287550D01*
X163384728Y-70341716D01*
X164017037Y-69709408D01*
X164034075Y-69772993D01*
X164099901Y-69887007D01*
X164192993Y-69980099D01*
X164307007Y-70045925D01*
X164370590Y-70062962D01*
X163738282Y-70695269D01*
X163738282Y-70695270D01*
X163792449Y-70734624D01*
X163932555Y-70806012D01*
X163983351Y-70853987D01*
X164000146Y-70921808D01*
X163977609Y-70987942D01*
X163932556Y-71026981D01*
X163854555Y-71066725D01*
X163697729Y-71180666D01*
X163560666Y-71317729D01*
X163446727Y-71474552D01*
X163358723Y-71647267D01*
X163358722Y-71647270D01*
X163298824Y-71831621D01*
X163268500Y-72023079D01*
X163268500Y-72216920D01*
X163298824Y-72408378D01*
X163358722Y-72592729D01*
X163358723Y-72592732D01*
X163406399Y-72686300D01*
X163446727Y-72765447D01*
X163560664Y-72922268D01*
X163697732Y-73059336D01*
X163854553Y-73173273D01*
X163939264Y-73216435D01*
X164027267Y-73261276D01*
X164027270Y-73261277D01*
X164060484Y-73272069D01*
X164118160Y-73311507D01*
X164145358Y-73375865D01*
X164133443Y-73444712D01*
X164086199Y-73496187D01*
X164060484Y-73507931D01*
X164027270Y-73518722D01*
X164027267Y-73518723D01*
X163854552Y-73606727D01*
X163697729Y-73720666D01*
X163560666Y-73857729D01*
X163446727Y-74014552D01*
X163358723Y-74187267D01*
X163358722Y-74187270D01*
X163298824Y-74371621D01*
X163268500Y-74563079D01*
X163268500Y-74756920D01*
X163298824Y-74948378D01*
X163358722Y-75132729D01*
X163358723Y-75132732D01*
X163436536Y-75285447D01*
X163446727Y-75305447D01*
X163560664Y-75462268D01*
X163697732Y-75599336D01*
X163854553Y-75713273D01*
X163897817Y-75735317D01*
X164027267Y-75801276D01*
X164027270Y-75801277D01*
X164060484Y-75812069D01*
X164118160Y-75851507D01*
X164145358Y-75915865D01*
X164133443Y-75984712D01*
X164086199Y-76036187D01*
X164060484Y-76047931D01*
X164027270Y-76058722D01*
X164027267Y-76058723D01*
X163854552Y-76146727D01*
X163697729Y-76260666D01*
X163560666Y-76397729D01*
X163446727Y-76554552D01*
X163358723Y-76727267D01*
X163358722Y-76727270D01*
X163298824Y-76911621D01*
X163268500Y-77103079D01*
X163268500Y-77296920D01*
X163298824Y-77488378D01*
X163358722Y-77672729D01*
X163358723Y-77672732D01*
X163436536Y-77825447D01*
X163446727Y-77845447D01*
X163560664Y-78002268D01*
X163697732Y-78139336D01*
X163854553Y-78253273D01*
X163939264Y-78296435D01*
X164027267Y-78341276D01*
X164027270Y-78341277D01*
X164060484Y-78352069D01*
X164118160Y-78391507D01*
X164145358Y-78455865D01*
X164133443Y-78524712D01*
X164086199Y-78576187D01*
X164060484Y-78587931D01*
X164027270Y-78598722D01*
X164027267Y-78598723D01*
X163854552Y-78686727D01*
X163697729Y-78800666D01*
X163560666Y-78937729D01*
X163446727Y-79094552D01*
X163358723Y-79267267D01*
X163358722Y-79267270D01*
X163298824Y-79451621D01*
X163268500Y-79643079D01*
X163268500Y-79836920D01*
X163298824Y-80028378D01*
X163358722Y-80212729D01*
X163358723Y-80212732D01*
X163436536Y-80365447D01*
X163446727Y-80385447D01*
X163560664Y-80542268D01*
X163697732Y-80679336D01*
X163854553Y-80793273D01*
X163893303Y-80813017D01*
X163932555Y-80833017D01*
X163983351Y-80880992D01*
X164000146Y-80948813D01*
X163977609Y-81014948D01*
X163932556Y-81053986D01*
X163792443Y-81125378D01*
X163792440Y-81125380D01*
X163738282Y-81164727D01*
X163738282Y-81164728D01*
X164370591Y-81797037D01*
X164307007Y-81814075D01*
X164192993Y-81879901D01*
X164099901Y-81972993D01*
X164034075Y-82087007D01*
X164017037Y-82150591D01*
X163384728Y-81518282D01*
X163384727Y-81518282D01*
X163345380Y-81572439D01*
X163248904Y-81761782D01*
X163183242Y-81963869D01*
X163183242Y-81963872D01*
X163150000Y-82173753D01*
X163150000Y-82386246D01*
X163183242Y-82596127D01*
X163183242Y-82596130D01*
X163248904Y-82798217D01*
X163345375Y-82987550D01*
X163384728Y-83041716D01*
X164017037Y-82409408D01*
X164034075Y-82472993D01*
X164099901Y-82587007D01*
X164192993Y-82680099D01*
X164307007Y-82745925D01*
X164370590Y-82762962D01*
X163738282Y-83395269D01*
X163738282Y-83395270D01*
X163792449Y-83434624D01*
X163932555Y-83506012D01*
X163983351Y-83553987D01*
X164000146Y-83621808D01*
X163977609Y-83687942D01*
X163932556Y-83726981D01*
X163854555Y-83766725D01*
X163697729Y-83880666D01*
X163560666Y-84017729D01*
X163446727Y-84174552D01*
X163358723Y-84347267D01*
X163358722Y-84347270D01*
X163298824Y-84531621D01*
X163268500Y-84723079D01*
X163268500Y-84916920D01*
X163298824Y-85108378D01*
X163358722Y-85292729D01*
X163358723Y-85292732D01*
X163436536Y-85445447D01*
X163446727Y-85465447D01*
X163560664Y-85622268D01*
X163697732Y-85759336D01*
X163854553Y-85873273D01*
X163939264Y-85916435D01*
X164027267Y-85961276D01*
X164027270Y-85961277D01*
X164060484Y-85972069D01*
X164118160Y-86011507D01*
X164145358Y-86075865D01*
X164133443Y-86144712D01*
X164086199Y-86196187D01*
X164060484Y-86207931D01*
X164027270Y-86218722D01*
X164027267Y-86218723D01*
X163854552Y-86306727D01*
X163697729Y-86420666D01*
X163560666Y-86557729D01*
X163446727Y-86714552D01*
X163358723Y-86887267D01*
X163358722Y-86887270D01*
X163298824Y-87071621D01*
X163271668Y-87243079D01*
X163268500Y-87263079D01*
X163268500Y-87456921D01*
X163268906Y-87459482D01*
X163298824Y-87648378D01*
X163358722Y-87832729D01*
X163358723Y-87832732D01*
X163436536Y-87985447D01*
X163446727Y-88005447D01*
X163560664Y-88162268D01*
X163697732Y-88299336D01*
X163854553Y-88413273D01*
X163939264Y-88456435D01*
X164027267Y-88501276D01*
X164027270Y-88501277D01*
X164060484Y-88512069D01*
X164118160Y-88551507D01*
X164145358Y-88615865D01*
X164133443Y-88684712D01*
X164086199Y-88736187D01*
X164060484Y-88747931D01*
X164027270Y-88758722D01*
X164027267Y-88758723D01*
X163854552Y-88846727D01*
X163697729Y-88960666D01*
X163560666Y-89097729D01*
X163446727Y-89254552D01*
X163358723Y-89427267D01*
X163358722Y-89427270D01*
X163298824Y-89611621D01*
X163268500Y-89803079D01*
X163268500Y-89996920D01*
X163298824Y-90188378D01*
X163358722Y-90372729D01*
X163358723Y-90372732D01*
X163436536Y-90525447D01*
X163446727Y-90545447D01*
X163560664Y-90702268D01*
X163697732Y-90839336D01*
X163854553Y-90953273D01*
X163939264Y-90996435D01*
X164027267Y-91041276D01*
X164027270Y-91041277D01*
X164060484Y-91052069D01*
X164118160Y-91091507D01*
X164145358Y-91155865D01*
X164133443Y-91224712D01*
X164086199Y-91276187D01*
X164060484Y-91287931D01*
X164027270Y-91298722D01*
X164027267Y-91298723D01*
X163854552Y-91386727D01*
X163697729Y-91500666D01*
X163560666Y-91637729D01*
X163446727Y-91794552D01*
X163358723Y-91967267D01*
X163358722Y-91967270D01*
X163298824Y-92151621D01*
X163268500Y-92343079D01*
X163268500Y-92536920D01*
X163298824Y-92728378D01*
X163358722Y-92912729D01*
X163358723Y-92912732D01*
X163407363Y-93008191D01*
X163446727Y-93085447D01*
X163560664Y-93242268D01*
X163697732Y-93379336D01*
X163854553Y-93493273D01*
X163893303Y-93513017D01*
X163932555Y-93533017D01*
X163983351Y-93580992D01*
X164000146Y-93648813D01*
X163977609Y-93714948D01*
X163932556Y-93753986D01*
X163792443Y-93825378D01*
X163792440Y-93825380D01*
X163738282Y-93864727D01*
X163738282Y-93864728D01*
X164370591Y-94497037D01*
X164307007Y-94514075D01*
X164192993Y-94579901D01*
X164099901Y-94672993D01*
X164034075Y-94787007D01*
X164017037Y-94850591D01*
X163384728Y-94218282D01*
X163384727Y-94218282D01*
X163345380Y-94272439D01*
X163248904Y-94461782D01*
X163183242Y-94663869D01*
X163183242Y-94663872D01*
X163150000Y-94873753D01*
X163150000Y-95086246D01*
X163183242Y-95296127D01*
X163183242Y-95296130D01*
X163248904Y-95498217D01*
X163345375Y-95687550D01*
X163384728Y-95741716D01*
X164017037Y-95109408D01*
X164034075Y-95172993D01*
X164099901Y-95287007D01*
X164192993Y-95380099D01*
X164307007Y-95445925D01*
X164370590Y-95462962D01*
X163738282Y-96095269D01*
X163738282Y-96095270D01*
X163792449Y-96134624D01*
X163932555Y-96206012D01*
X163983351Y-96253987D01*
X164000146Y-96321808D01*
X163977609Y-96387942D01*
X163932556Y-96426981D01*
X163854555Y-96466725D01*
X163697729Y-96580666D01*
X163560666Y-96717729D01*
X163446727Y-96874552D01*
X163358723Y-97047267D01*
X163358722Y-97047270D01*
X163298824Y-97231621D01*
X163290693Y-97282957D01*
X163268500Y-97423079D01*
X163268500Y-97616921D01*
X163268639Y-97617796D01*
X163298824Y-97808378D01*
X163358722Y-97992729D01*
X163358723Y-97992732D01*
X163394275Y-98062505D01*
X163446727Y-98165447D01*
X163560664Y-98322268D01*
X163697732Y-98459336D01*
X163854553Y-98573273D01*
X163939264Y-98616435D01*
X164027267Y-98661276D01*
X164027270Y-98661277D01*
X164060484Y-98672069D01*
X164118160Y-98711507D01*
X164145358Y-98775865D01*
X164133443Y-98844712D01*
X164086199Y-98896187D01*
X164060484Y-98907931D01*
X164027270Y-98918722D01*
X164027267Y-98918723D01*
X163854552Y-99006727D01*
X163697729Y-99120666D01*
X163560666Y-99257729D01*
X163446727Y-99414552D01*
X163358723Y-99587267D01*
X163358722Y-99587270D01*
X163298824Y-99771621D01*
X163268500Y-99963079D01*
X163268500Y-100156920D01*
X163298824Y-100348378D01*
X163358722Y-100532729D01*
X163358723Y-100532732D01*
X163436971Y-100686300D01*
X163446727Y-100705447D01*
X163560664Y-100862268D01*
X163697732Y-100999336D01*
X163854553Y-101113273D01*
X163939264Y-101156435D01*
X164027267Y-101201276D01*
X164027270Y-101201277D01*
X164060484Y-101212069D01*
X164118160Y-101251507D01*
X164145358Y-101315865D01*
X164133443Y-101384712D01*
X164086199Y-101436187D01*
X164060484Y-101447931D01*
X164027270Y-101458722D01*
X164027267Y-101458723D01*
X163854552Y-101546727D01*
X163697729Y-101660666D01*
X163560666Y-101797729D01*
X163446727Y-101954552D01*
X163358723Y-102127267D01*
X163358722Y-102127270D01*
X163298824Y-102311621D01*
X163268500Y-102503079D01*
X163268500Y-102696920D01*
X163298824Y-102888378D01*
X163358722Y-103072729D01*
X163358723Y-103072732D01*
X163436536Y-103225447D01*
X163446727Y-103245447D01*
X163560664Y-103402268D01*
X163697732Y-103539336D01*
X163854553Y-103653273D01*
X163939264Y-103696435D01*
X164027267Y-103741276D01*
X164027270Y-103741277D01*
X164060484Y-103752069D01*
X164118160Y-103791507D01*
X164145358Y-103855865D01*
X164133443Y-103924712D01*
X164086199Y-103976187D01*
X164060484Y-103987931D01*
X164027270Y-103998722D01*
X164027267Y-103998723D01*
X163854552Y-104086727D01*
X163697729Y-104200666D01*
X163560666Y-104337729D01*
X163446727Y-104494552D01*
X163358723Y-104667267D01*
X163358722Y-104667270D01*
X163298824Y-104851621D01*
X163268500Y-105043079D01*
X163268500Y-105236920D01*
X163298824Y-105428378D01*
X163358722Y-105612729D01*
X163358723Y-105612732D01*
X163436536Y-105765447D01*
X163446727Y-105785447D01*
X163560664Y-105942268D01*
X163697732Y-106079336D01*
X163854553Y-106193273D01*
X163932555Y-106233017D01*
X163983351Y-106280992D01*
X164000146Y-106348813D01*
X163977609Y-106414948D01*
X163932556Y-106453986D01*
X163792443Y-106525378D01*
X163792440Y-106525380D01*
X163738282Y-106564727D01*
X163738282Y-106564728D01*
X164370591Y-107197037D01*
X164307007Y-107214075D01*
X164192993Y-107279901D01*
X164099901Y-107372993D01*
X164034075Y-107487007D01*
X164017037Y-107550591D01*
X163384728Y-106918282D01*
X163384727Y-106918282D01*
X163345380Y-106972439D01*
X163248904Y-107161782D01*
X163183242Y-107363869D01*
X163183242Y-107363872D01*
X163150000Y-107573753D01*
X163150000Y-107786246D01*
X163183242Y-107996127D01*
X163183242Y-107996130D01*
X163248904Y-108198217D01*
X163345375Y-108387550D01*
X163384728Y-108441716D01*
X164017037Y-107809408D01*
X164034075Y-107872993D01*
X164099901Y-107987007D01*
X164192993Y-108080099D01*
X164307007Y-108145925D01*
X164370590Y-108162962D01*
X163738282Y-108795269D01*
X163738282Y-108795270D01*
X163792449Y-108834624D01*
X163932555Y-108906012D01*
X163983351Y-108953987D01*
X164000146Y-109021808D01*
X163977609Y-109087942D01*
X163932556Y-109126981D01*
X163854555Y-109166725D01*
X163697729Y-109280666D01*
X163560666Y-109417729D01*
X163446727Y-109574552D01*
X163358723Y-109747267D01*
X163358722Y-109747270D01*
X163298824Y-109931621D01*
X163268500Y-110123079D01*
X163268500Y-110316920D01*
X163298824Y-110508378D01*
X163358722Y-110692729D01*
X163358723Y-110692732D01*
X163436536Y-110845447D01*
X163446727Y-110865447D01*
X163560664Y-111022268D01*
X163697732Y-111159336D01*
X163854553Y-111273273D01*
X163939264Y-111316435D01*
X164027267Y-111361276D01*
X164027270Y-111361277D01*
X164060484Y-111372069D01*
X164118160Y-111411507D01*
X164145358Y-111475865D01*
X164133443Y-111544712D01*
X164086199Y-111596187D01*
X164060484Y-111607931D01*
X164027270Y-111618722D01*
X164027267Y-111618723D01*
X163854552Y-111706727D01*
X163697729Y-111820666D01*
X163560666Y-111957729D01*
X163446727Y-112114552D01*
X163358723Y-112287267D01*
X163358722Y-112287270D01*
X163298824Y-112471621D01*
X163268500Y-112663079D01*
X163268500Y-112856920D01*
X163298824Y-113048378D01*
X163358722Y-113232729D01*
X163358723Y-113232732D01*
X163436536Y-113385447D01*
X163446727Y-113405447D01*
X163560664Y-113562268D01*
X163697732Y-113699336D01*
X163854553Y-113813273D01*
X163939264Y-113856435D01*
X164027267Y-113901276D01*
X164027270Y-113901277D01*
X164119445Y-113931226D01*
X164211623Y-113961176D01*
X164403079Y-113991500D01*
X164403080Y-113991500D01*
X164596920Y-113991500D01*
X164596921Y-113991500D01*
X164788377Y-113961176D01*
X164972732Y-113901276D01*
X165145447Y-113813273D01*
X165302268Y-113699336D01*
X165439336Y-113562268D01*
X165553273Y-113405447D01*
X165641276Y-113232732D01*
X165701176Y-113048377D01*
X165731500Y-112856921D01*
X165731500Y-112663079D01*
X165701176Y-112471623D01*
X165641276Y-112287268D01*
X165641276Y-112287267D01*
X165553272Y-112114552D01*
X165538741Y-112094552D01*
X165439336Y-111957732D01*
X165302268Y-111820664D01*
X165145447Y-111706727D01*
X165106195Y-111686727D01*
X164972732Y-111618723D01*
X164972729Y-111618722D01*
X164939515Y-111607931D01*
X164881840Y-111568494D01*
X164854641Y-111504136D01*
X164866555Y-111435289D01*
X164913799Y-111383813D01*
X164939515Y-111372069D01*
X164972729Y-111361277D01*
X164972732Y-111361276D01*
X165145447Y-111273273D01*
X165302268Y-111159336D01*
X165439336Y-111022268D01*
X165553273Y-110865447D01*
X165641276Y-110692732D01*
X165701176Y-110508377D01*
X165731500Y-110316921D01*
X165731500Y-110123079D01*
X165701176Y-109931623D01*
X165641276Y-109747268D01*
X165641276Y-109747267D01*
X165553272Y-109574552D01*
X165538741Y-109554552D01*
X165439336Y-109417732D01*
X165302268Y-109280664D01*
X165208449Y-109212500D01*
X165145442Y-109166723D01*
X165067444Y-109126981D01*
X165016648Y-109079007D01*
X164999853Y-109011186D01*
X165022391Y-108945051D01*
X165067444Y-108906012D01*
X165207554Y-108834622D01*
X165261716Y-108795270D01*
X165261717Y-108795270D01*
X164629408Y-108162962D01*
X164692993Y-108145925D01*
X164807007Y-108080099D01*
X164900099Y-107987007D01*
X164965925Y-107872993D01*
X164982962Y-107809408D01*
X165615270Y-108441717D01*
X165615270Y-108441716D01*
X165654622Y-108387554D01*
X165751095Y-108198217D01*
X165816757Y-107996130D01*
X165816757Y-107996127D01*
X165850000Y-107786246D01*
X165850000Y-107573753D01*
X165816757Y-107363872D01*
X165816757Y-107363869D01*
X165751095Y-107161782D01*
X165654624Y-106972449D01*
X165615270Y-106918282D01*
X165615269Y-106918282D01*
X164982962Y-107550590D01*
X164965925Y-107487007D01*
X164900099Y-107372993D01*
X164807007Y-107279901D01*
X164692993Y-107214075D01*
X164629409Y-107197037D01*
X165261716Y-106564728D01*
X165226020Y-106538794D01*
X181993500Y-106538794D01*
X181993500Y-107461206D01*
X182004304Y-107535361D01*
X182004304Y-107535362D01*
X182004305Y-107535364D01*
X182060221Y-107649743D01*
X182060223Y-107649746D01*
X182150253Y-107739776D01*
X182150256Y-107739778D01*
X182245309Y-107786246D01*
X182264639Y-107795696D01*
X182338794Y-107806500D01*
X182338800Y-107806500D01*
X183261202Y-107806500D01*
X183261206Y-107806500D01*
X183280488Y-107803690D01*
X183349660Y-107813501D01*
X183356826Y-107817040D01*
X183361854Y-107819728D01*
X183530182Y-107889451D01*
X183530194Y-107889454D01*
X183708890Y-107924999D01*
X183708894Y-107925000D01*
X183891106Y-107925000D01*
X183891109Y-107924999D01*
X184069805Y-107889454D01*
X184069817Y-107889451D01*
X184238145Y-107819728D01*
X184238157Y-107819721D01*
X184348879Y-107745739D01*
X184415556Y-107724861D01*
X184465220Y-107734278D01*
X184564753Y-107775506D01*
X184602909Y-107783095D01*
X184720564Y-107806500D01*
X184720567Y-107806500D01*
X184879435Y-107806500D01*
X184957871Y-107790897D01*
X185035247Y-107775506D01*
X185182021Y-107714711D01*
X185314114Y-107626449D01*
X185426449Y-107514114D01*
X185514711Y-107382021D01*
X185575506Y-107235247D01*
X185606500Y-107079433D01*
X185606500Y-106920567D01*
X185606500Y-106920564D01*
X185575507Y-106764759D01*
X185575506Y-106764753D01*
X185514711Y-106617979D01*
X185514709Y-106617977D01*
X185514709Y-106617975D01*
X185426449Y-106485886D01*
X185426446Y-106485882D01*
X185314117Y-106373553D01*
X185314113Y-106373550D01*
X185182024Y-106285290D01*
X185182021Y-106285289D01*
X185035248Y-106224494D01*
X185035240Y-106224492D01*
X184879435Y-106193500D01*
X184879433Y-106193500D01*
X184720567Y-106193500D01*
X184720565Y-106193500D01*
X184564759Y-106224492D01*
X184564751Y-106224494D01*
X184465223Y-106265720D01*
X184395754Y-106273189D01*
X184348880Y-106254261D01*
X184238158Y-106180278D01*
X184238145Y-106180271D01*
X184069817Y-106110548D01*
X184069805Y-106110545D01*
X183891109Y-106075000D01*
X183708890Y-106075000D01*
X183530194Y-106110545D01*
X183530186Y-106110547D01*
X183361845Y-106180276D01*
X183356819Y-106182963D01*
X183288417Y-106197205D01*
X183280499Y-106196310D01*
X183261206Y-106193500D01*
X182338794Y-106193500D01*
X182264639Y-106204304D01*
X182264637Y-106204304D01*
X182264635Y-106204305D01*
X182150256Y-106260221D01*
X182150253Y-106260223D01*
X182060223Y-106350253D01*
X182060221Y-106350256D01*
X182004305Y-106464635D01*
X182004304Y-106464637D01*
X182004304Y-106464639D01*
X181993500Y-106538794D01*
X165226020Y-106538794D01*
X165207550Y-106525375D01*
X165067444Y-106453987D01*
X165016648Y-106406012D01*
X164999853Y-106338191D01*
X165022391Y-106272056D01*
X165067445Y-106233017D01*
X165084173Y-106224494D01*
X165145447Y-106193273D01*
X165302268Y-106079336D01*
X165439336Y-105942268D01*
X165553273Y-105785447D01*
X165641276Y-105612732D01*
X165701176Y-105428377D01*
X165731500Y-105236921D01*
X165731500Y-105043079D01*
X165701176Y-104851623D01*
X165641276Y-104667268D01*
X165641276Y-104667267D01*
X165553272Y-104494552D01*
X165538741Y-104474552D01*
X165439336Y-104337732D01*
X165302268Y-104200664D01*
X165145447Y-104086727D01*
X165106195Y-104066727D01*
X164972732Y-103998723D01*
X164972729Y-103998722D01*
X164939515Y-103987931D01*
X164881840Y-103948494D01*
X164854641Y-103884136D01*
X164866555Y-103815289D01*
X164913799Y-103763813D01*
X164939515Y-103752069D01*
X164972729Y-103741277D01*
X164972732Y-103741276D01*
X165145447Y-103653273D01*
X165302268Y-103539336D01*
X165439336Y-103402268D01*
X165553273Y-103245447D01*
X165641276Y-103072732D01*
X165701176Y-102888377D01*
X165731500Y-102696921D01*
X165731500Y-102503079D01*
X165701176Y-102311623D01*
X165641276Y-102127268D01*
X165641276Y-102127267D01*
X165553272Y-101954552D01*
X165538741Y-101934552D01*
X165439336Y-101797732D01*
X165302268Y-101660664D01*
X165145447Y-101546727D01*
X165106195Y-101526727D01*
X164972732Y-101458723D01*
X164972729Y-101458722D01*
X164939515Y-101447931D01*
X164881840Y-101408494D01*
X164854641Y-101344136D01*
X164866555Y-101275289D01*
X164913799Y-101223813D01*
X164939515Y-101212069D01*
X164972729Y-101201277D01*
X164972732Y-101201276D01*
X165145447Y-101113273D01*
X165302268Y-100999336D01*
X165439336Y-100862268D01*
X165553273Y-100705447D01*
X165641276Y-100532732D01*
X165701176Y-100348377D01*
X165731500Y-100156921D01*
X165731500Y-99963079D01*
X165726641Y-99932400D01*
X193313700Y-99932400D01*
X193313700Y-100067599D01*
X193340072Y-100200178D01*
X193340074Y-100200186D01*
X193391807Y-100325082D01*
X193391812Y-100325091D01*
X193466915Y-100437490D01*
X193466918Y-100437494D01*
X193562505Y-100533081D01*
X193562509Y-100533084D01*
X193674908Y-100608187D01*
X193674914Y-100608190D01*
X193674915Y-100608191D01*
X193799814Y-100659926D01*
X193928117Y-100685447D01*
X193932400Y-100686299D01*
X193932403Y-100686300D01*
X193932405Y-100686300D01*
X194067597Y-100686300D01*
X194067598Y-100686299D01*
X194200186Y-100659926D01*
X194325085Y-100608191D01*
X194437491Y-100533084D01*
X194533084Y-100437491D01*
X194608191Y-100325085D01*
X194659926Y-100200186D01*
X194686300Y-100067595D01*
X194686300Y-99932405D01*
X194686300Y-99932402D01*
X194686299Y-99932400D01*
X194659927Y-99799821D01*
X194659926Y-99799814D01*
X194641352Y-99754974D01*
X194633883Y-99685507D01*
X194665157Y-99623028D01*
X194668170Y-99619903D01*
X195055691Y-99232383D01*
X195117013Y-99198901D01*
X195143371Y-99196067D01*
X195548150Y-99196067D01*
X195548152Y-99196067D01*
X195623020Y-99165056D01*
X195623024Y-99165051D01*
X195633178Y-99158269D01*
X195634492Y-99160235D01*
X195681155Y-99134750D01*
X195750847Y-99139728D01*
X195754978Y-99141354D01*
X195799808Y-99159924D01*
X195799810Y-99159924D01*
X195799814Y-99159926D01*
X195882127Y-99176299D01*
X195932400Y-99186299D01*
X195932403Y-99186300D01*
X195932405Y-99186300D01*
X196067597Y-99186300D01*
X196067598Y-99186299D01*
X196200186Y-99159926D01*
X196325085Y-99108191D01*
X196437491Y-99033084D01*
X196533084Y-98937491D01*
X196608191Y-98825085D01*
X196659926Y-98700186D01*
X196686300Y-98567595D01*
X196686300Y-98432405D01*
X196686300Y-98432402D01*
X196686299Y-98432400D01*
X196665658Y-98328632D01*
X196659926Y-98299814D01*
X196608191Y-98174915D01*
X196608190Y-98174914D01*
X196608187Y-98174908D01*
X196533084Y-98062509D01*
X196533081Y-98062505D01*
X196437494Y-97966918D01*
X196437490Y-97966915D01*
X196325091Y-97891812D01*
X196325082Y-97891807D01*
X196200186Y-97840074D01*
X196200178Y-97840072D01*
X196067598Y-97813700D01*
X196067595Y-97813700D01*
X195932405Y-97813700D01*
X195932402Y-97813700D01*
X195799821Y-97840072D01*
X195799813Y-97840074D01*
X195674917Y-97891807D01*
X195674908Y-97891812D01*
X195562509Y-97966915D01*
X195562505Y-97966918D01*
X195466918Y-98062505D01*
X195466915Y-98062509D01*
X195391812Y-98174908D01*
X195391807Y-98174917D01*
X195340074Y-98299813D01*
X195340072Y-98299821D01*
X195313700Y-98432400D01*
X195313700Y-98567599D01*
X195328196Y-98640476D01*
X195321969Y-98710068D01*
X195279105Y-98765245D01*
X195213216Y-98788489D01*
X195206579Y-98788667D01*
X195048151Y-98788667D01*
X194967114Y-98788667D01*
X194967112Y-98788667D01*
X194967110Y-98788668D01*
X194892248Y-98819675D01*
X194380157Y-99331766D01*
X194318834Y-99365251D01*
X194249142Y-99360267D01*
X194245024Y-99358646D01*
X194200190Y-99340075D01*
X194200178Y-99340072D01*
X194067598Y-99313700D01*
X194067595Y-99313700D01*
X193932405Y-99313700D01*
X193932402Y-99313700D01*
X193799821Y-99340072D01*
X193799813Y-99340074D01*
X193674917Y-99391807D01*
X193674908Y-99391812D01*
X193562509Y-99466915D01*
X193562505Y-99466918D01*
X193466918Y-99562505D01*
X193466915Y-99562509D01*
X193391812Y-99674908D01*
X193391807Y-99674917D01*
X193340074Y-99799813D01*
X193340072Y-99799821D01*
X193313700Y-99932400D01*
X165726641Y-99932400D01*
X165701176Y-99771623D01*
X165641276Y-99587268D01*
X165641276Y-99587267D01*
X165553272Y-99414552D01*
X165538741Y-99394552D01*
X165439336Y-99257732D01*
X165302268Y-99120664D01*
X165145447Y-99006727D01*
X165106195Y-98986727D01*
X164972732Y-98918723D01*
X164972729Y-98918722D01*
X164939515Y-98907931D01*
X164881840Y-98868494D01*
X164854641Y-98804136D01*
X164866555Y-98735289D01*
X164913799Y-98683813D01*
X164939515Y-98672069D01*
X164972729Y-98661277D01*
X164972732Y-98661276D01*
X165145447Y-98573273D01*
X165302268Y-98459336D01*
X165339204Y-98422400D01*
X191013700Y-98422400D01*
X191013700Y-98557599D01*
X191040072Y-98690178D01*
X191040074Y-98690186D01*
X191091807Y-98815082D01*
X191091812Y-98815091D01*
X191166915Y-98927490D01*
X191166918Y-98927494D01*
X191262505Y-99023081D01*
X191262509Y-99023084D01*
X191374908Y-99098187D01*
X191374914Y-99098190D01*
X191374915Y-99098191D01*
X191499814Y-99149926D01*
X191575868Y-99165054D01*
X191632400Y-99176299D01*
X191632403Y-99176300D01*
X191632405Y-99176300D01*
X191767597Y-99176300D01*
X191767598Y-99176299D01*
X191900186Y-99149926D01*
X192025085Y-99098191D01*
X192137491Y-99023084D01*
X192233084Y-98927491D01*
X192301559Y-98825009D01*
X192355172Y-98780204D01*
X192404662Y-98769900D01*
X193046848Y-98769900D01*
X193046850Y-98769900D01*
X193118037Y-98750825D01*
X193181862Y-98713976D01*
X194199648Y-97696188D01*
X194260969Y-97662705D01*
X194311517Y-97662254D01*
X194349191Y-97669747D01*
X194432402Y-97686300D01*
X194432405Y-97686300D01*
X194567597Y-97686300D01*
X194567598Y-97686299D01*
X194700186Y-97659926D01*
X194825085Y-97608191D01*
X194937491Y-97533084D01*
X195033084Y-97437491D01*
X195061238Y-97395356D01*
X195105365Y-97329316D01*
X195105365Y-97329315D01*
X195108186Y-97325092D01*
X195108187Y-97325091D01*
X195108191Y-97325085D01*
X195159926Y-97200186D01*
X195186300Y-97067595D01*
X195186300Y-96932405D01*
X195186300Y-96932402D01*
X195186299Y-96932400D01*
X195174793Y-96874554D01*
X195159926Y-96799814D01*
X195108191Y-96674915D01*
X195108190Y-96674914D01*
X195108187Y-96674908D01*
X195033084Y-96562509D01*
X195033081Y-96562505D01*
X194937494Y-96466918D01*
X194937490Y-96466915D01*
X194825091Y-96391812D01*
X194825082Y-96391807D01*
X194700186Y-96340074D01*
X194700178Y-96340072D01*
X194567598Y-96313700D01*
X194567595Y-96313700D01*
X194432405Y-96313700D01*
X194432402Y-96313700D01*
X194299821Y-96340072D01*
X194299813Y-96340074D01*
X194174917Y-96391807D01*
X194174908Y-96391812D01*
X194062509Y-96466915D01*
X194062505Y-96466918D01*
X193966918Y-96562505D01*
X193966915Y-96562509D01*
X193891812Y-96674908D01*
X193891807Y-96674917D01*
X193840074Y-96799813D01*
X193840072Y-96799821D01*
X193813700Y-96932400D01*
X193813700Y-97067599D01*
X193837745Y-97188480D01*
X193831518Y-97258071D01*
X193803809Y-97300352D01*
X192930381Y-98173781D01*
X192869058Y-98207266D01*
X192842700Y-98210100D01*
X192404662Y-98210100D01*
X192337623Y-98190415D01*
X192301559Y-98154990D01*
X192233082Y-98052506D01*
X192137494Y-97956918D01*
X192137490Y-97956915D01*
X192025091Y-97881812D01*
X192025082Y-97881807D01*
X191900186Y-97830074D01*
X191900178Y-97830072D01*
X191767598Y-97803700D01*
X191767595Y-97803700D01*
X191632405Y-97803700D01*
X191632402Y-97803700D01*
X191499821Y-97830072D01*
X191499813Y-97830074D01*
X191374917Y-97881807D01*
X191374908Y-97881812D01*
X191262509Y-97956915D01*
X191262505Y-97956918D01*
X191166918Y-98052505D01*
X191166915Y-98052509D01*
X191091812Y-98164908D01*
X191091807Y-98164917D01*
X191040074Y-98289813D01*
X191040072Y-98289821D01*
X191013700Y-98422400D01*
X165339204Y-98422400D01*
X165439336Y-98322268D01*
X165553273Y-98165447D01*
X165641276Y-97992732D01*
X165701176Y-97808377D01*
X165731500Y-97616921D01*
X165731500Y-97423079D01*
X165701176Y-97231623D01*
X165647882Y-97067599D01*
X165641277Y-97047270D01*
X165641275Y-97047267D01*
X165630166Y-97025465D01*
X165586863Y-96940476D01*
X165561282Y-96890270D01*
X184971631Y-96890270D01*
X184971631Y-97025469D01*
X184998003Y-97158048D01*
X184998005Y-97158056D01*
X185049738Y-97282952D01*
X185049743Y-97282961D01*
X185124846Y-97395360D01*
X185124849Y-97395364D01*
X185220436Y-97490951D01*
X185220440Y-97490954D01*
X185332839Y-97566057D01*
X185332845Y-97566060D01*
X185332846Y-97566061D01*
X185457745Y-97617796D01*
X185575450Y-97641209D01*
X185590331Y-97644169D01*
X185590334Y-97644170D01*
X185590336Y-97644170D01*
X185725528Y-97644170D01*
X185725529Y-97644169D01*
X185858117Y-97617796D01*
X185983016Y-97566061D01*
X186095422Y-97490954D01*
X186191015Y-97395361D01*
X186266122Y-97282955D01*
X186284694Y-97238117D01*
X186328534Y-97183715D01*
X186394828Y-97161649D01*
X186399255Y-97161570D01*
X187241225Y-97161570D01*
X187308264Y-97181255D01*
X187354019Y-97234059D01*
X187355786Y-97238118D01*
X187391805Y-97325078D01*
X187391812Y-97325091D01*
X187466915Y-97437490D01*
X187466918Y-97437494D01*
X187562505Y-97533081D01*
X187562509Y-97533084D01*
X187674908Y-97608187D01*
X187674914Y-97608190D01*
X187674915Y-97608191D01*
X187799814Y-97659926D01*
X187932400Y-97686299D01*
X187932403Y-97686300D01*
X187932405Y-97686300D01*
X188067597Y-97686300D01*
X188067598Y-97686299D01*
X188200186Y-97659926D01*
X188325085Y-97608191D01*
X188437491Y-97533084D01*
X188533084Y-97437491D01*
X188608191Y-97325085D01*
X188659926Y-97200186D01*
X188686300Y-97067595D01*
X188686300Y-96932405D01*
X188686300Y-96932402D01*
X188686299Y-96932400D01*
X188674793Y-96874554D01*
X188659926Y-96799814D01*
X188608191Y-96674915D01*
X188608190Y-96674914D01*
X188608187Y-96674908D01*
X188533084Y-96562509D01*
X188533081Y-96562505D01*
X188437494Y-96466918D01*
X188437490Y-96466915D01*
X188325091Y-96391812D01*
X188325082Y-96391807D01*
X188200186Y-96340074D01*
X188200178Y-96340072D01*
X188067598Y-96313700D01*
X188067595Y-96313700D01*
X187932405Y-96313700D01*
X187932402Y-96313700D01*
X187799821Y-96340072D01*
X187799813Y-96340074D01*
X187674917Y-96391807D01*
X187674908Y-96391812D01*
X187562509Y-96466915D01*
X187562505Y-96466918D01*
X187466918Y-96562505D01*
X187466915Y-96562509D01*
X187391812Y-96674908D01*
X187391804Y-96674923D01*
X187390686Y-96677624D01*
X187389721Y-96678820D01*
X187388939Y-96680285D01*
X187388661Y-96680136D01*
X187346845Y-96732027D01*
X187280550Y-96754091D01*
X187276126Y-96754170D01*
X186399255Y-96754170D01*
X186332216Y-96734485D01*
X186286461Y-96681681D01*
X186284704Y-96677647D01*
X186266122Y-96632785D01*
X186217934Y-96560666D01*
X186191018Y-96520383D01*
X186191012Y-96520375D01*
X186095425Y-96424788D01*
X186095421Y-96424785D01*
X185983022Y-96349682D01*
X185983013Y-96349677D01*
X185858117Y-96297944D01*
X185858109Y-96297942D01*
X185725529Y-96271570D01*
X185725526Y-96271570D01*
X185590336Y-96271570D01*
X185590333Y-96271570D01*
X185457752Y-96297942D01*
X185457744Y-96297944D01*
X185332848Y-96349677D01*
X185332839Y-96349682D01*
X185220440Y-96424785D01*
X185220436Y-96424788D01*
X185124849Y-96520375D01*
X185124846Y-96520379D01*
X185049743Y-96632778D01*
X185049738Y-96632787D01*
X184998005Y-96757683D01*
X184998003Y-96757691D01*
X184971631Y-96890270D01*
X165561282Y-96890270D01*
X165553274Y-96874554D01*
X165498971Y-96799813D01*
X165439336Y-96717732D01*
X165302268Y-96580664D01*
X165145710Y-96466918D01*
X165145442Y-96466723D01*
X165067444Y-96426981D01*
X165016648Y-96379007D01*
X164999853Y-96311186D01*
X165022391Y-96245051D01*
X165067444Y-96206012D01*
X165207554Y-96134622D01*
X165261716Y-96095270D01*
X165261717Y-96095270D01*
X164629408Y-95462962D01*
X164692993Y-95445925D01*
X164807007Y-95380099D01*
X164900099Y-95287007D01*
X164965925Y-95172993D01*
X164982962Y-95109408D01*
X165615270Y-95741717D01*
X165615270Y-95741716D01*
X165654622Y-95687554D01*
X165751095Y-95498217D01*
X165816757Y-95296130D01*
X165816757Y-95296127D01*
X165850000Y-95086246D01*
X165850000Y-94873753D01*
X165816757Y-94663872D01*
X165816757Y-94663869D01*
X165751095Y-94461782D01*
X165654624Y-94272449D01*
X165615270Y-94218282D01*
X165615269Y-94218282D01*
X164982962Y-94850590D01*
X164965925Y-94787007D01*
X164900099Y-94672993D01*
X164807007Y-94579901D01*
X164692993Y-94514075D01*
X164629409Y-94497037D01*
X165261716Y-93864728D01*
X165207550Y-93825375D01*
X165067444Y-93753987D01*
X165016648Y-93706012D01*
X164999853Y-93638191D01*
X165022391Y-93572056D01*
X165067445Y-93533017D01*
X165145445Y-93493274D01*
X165145444Y-93493274D01*
X165145447Y-93493273D01*
X165302268Y-93379336D01*
X165439336Y-93242268D01*
X165553273Y-93085447D01*
X165641276Y-92912732D01*
X165701176Y-92728377D01*
X165731500Y-92536921D01*
X165731500Y-92343079D01*
X165701176Y-92151623D01*
X165641276Y-91967268D01*
X165641276Y-91967267D01*
X165553272Y-91794552D01*
X165439336Y-91637732D01*
X165302268Y-91500664D01*
X165145447Y-91386727D01*
X165106195Y-91366727D01*
X164972732Y-91298723D01*
X164972729Y-91298722D01*
X164939515Y-91287931D01*
X164881840Y-91248494D01*
X164854641Y-91184136D01*
X164866555Y-91115289D01*
X164913799Y-91063813D01*
X164939515Y-91052069D01*
X164972729Y-91041277D01*
X164972732Y-91041276D01*
X165145447Y-90953273D01*
X165302268Y-90839336D01*
X165439336Y-90702268D01*
X165553273Y-90545447D01*
X165641276Y-90372732D01*
X165701176Y-90188377D01*
X165731500Y-89996921D01*
X165731500Y-89803079D01*
X165701176Y-89611623D01*
X165654725Y-89468661D01*
X165641277Y-89427270D01*
X165641276Y-89427267D01*
X165596435Y-89339264D01*
X165553273Y-89254553D01*
X165439336Y-89097732D01*
X165302268Y-88960664D01*
X165205861Y-88890620D01*
X165145445Y-88846725D01*
X165144284Y-88846134D01*
X165144272Y-88846128D01*
X164972732Y-88758724D01*
X164931926Y-88745465D01*
X164924717Y-88742048D01*
X164923458Y-88740925D01*
X178113700Y-88740925D01*
X178113700Y-88876124D01*
X178140072Y-89008703D01*
X178140074Y-89008711D01*
X178191807Y-89133607D01*
X178191812Y-89133616D01*
X178266915Y-89246015D01*
X178266918Y-89246019D01*
X178362505Y-89341606D01*
X178362509Y-89341609D01*
X178474908Y-89416712D01*
X178474917Y-89416717D01*
X178503210Y-89428436D01*
X178599814Y-89468451D01*
X178732400Y-89494824D01*
X178732403Y-89494825D01*
X178732405Y-89494825D01*
X178867597Y-89494825D01*
X178867598Y-89494824D01*
X179000186Y-89468451D01*
X179125085Y-89416716D01*
X179237491Y-89341609D01*
X179333084Y-89246016D01*
X179408191Y-89133610D01*
X179426763Y-89088772D01*
X179470603Y-89034370D01*
X179536897Y-89012304D01*
X179541324Y-89012225D01*
X181672300Y-89012225D01*
X181739339Y-89031910D01*
X181785094Y-89084714D01*
X181796300Y-89136225D01*
X181796300Y-91540517D01*
X181796301Y-91540522D01*
X181827308Y-91615384D01*
X181884615Y-91672691D01*
X181942517Y-91696673D01*
X181959481Y-91703700D01*
X183672300Y-91703700D01*
X183739339Y-91723385D01*
X183785094Y-91776189D01*
X183796300Y-91827700D01*
X183796300Y-93867526D01*
X183776615Y-93934565D01*
X183723811Y-93980320D01*
X183696493Y-93989143D01*
X183691818Y-93990072D01*
X183691813Y-93990074D01*
X183566917Y-94041807D01*
X183566908Y-94041812D01*
X183454509Y-94116915D01*
X183454505Y-94116918D01*
X183358918Y-94212505D01*
X183358915Y-94212509D01*
X183283812Y-94324908D01*
X183283807Y-94324917D01*
X183232074Y-94449813D01*
X183232072Y-94449821D01*
X183205700Y-94582400D01*
X183205700Y-94717599D01*
X183232072Y-94850178D01*
X183232074Y-94850186D01*
X183283807Y-94975082D01*
X183283812Y-94975091D01*
X183358915Y-95087490D01*
X183358918Y-95087494D01*
X183454505Y-95183081D01*
X183454509Y-95183084D01*
X183566908Y-95258187D01*
X183566914Y-95258190D01*
X183566915Y-95258191D01*
X183691814Y-95309926D01*
X183810600Y-95333554D01*
X183824400Y-95336299D01*
X183824403Y-95336300D01*
X183824405Y-95336300D01*
X183959597Y-95336300D01*
X183959598Y-95336299D01*
X184092186Y-95309926D01*
X184217085Y-95258191D01*
X184329491Y-95183084D01*
X184425084Y-95087491D01*
X184500191Y-94975085D01*
X184551926Y-94850186D01*
X184554605Y-94836716D01*
X184556998Y-94824690D01*
X184578299Y-94717599D01*
X184578300Y-94717597D01*
X184578300Y-94582402D01*
X184578299Y-94582400D01*
X184557930Y-94480000D01*
X184551926Y-94449814D01*
X184508714Y-94345491D01*
X184500192Y-94324917D01*
X184500187Y-94324908D01*
X184425084Y-94212509D01*
X184425081Y-94212505D01*
X184329494Y-94116918D01*
X184329490Y-94116915D01*
X184258809Y-94069687D01*
X184214004Y-94016074D01*
X184203700Y-93966585D01*
X184203700Y-93340400D01*
X194241200Y-93340400D01*
X194241200Y-93475599D01*
X194267572Y-93608178D01*
X194267574Y-93608186D01*
X194319307Y-93733082D01*
X194319312Y-93733091D01*
X194394415Y-93845490D01*
X194394418Y-93845494D01*
X194490005Y-93941081D01*
X194490009Y-93941084D01*
X194602408Y-94016187D01*
X194602414Y-94016190D01*
X194602415Y-94016191D01*
X194727314Y-94067926D01*
X194859900Y-94094299D01*
X194859903Y-94094300D01*
X194859905Y-94094300D01*
X194995097Y-94094300D01*
X194995098Y-94094299D01*
X195127686Y-94067926D01*
X195252585Y-94016191D01*
X195364991Y-93941084D01*
X195460584Y-93845491D01*
X195463986Y-93840400D01*
X197733200Y-93840400D01*
X197733200Y-93975599D01*
X197759572Y-94108178D01*
X197759574Y-94108186D01*
X197811307Y-94233082D01*
X197811312Y-94233091D01*
X197886415Y-94345490D01*
X197886418Y-94345494D01*
X197982005Y-94441081D01*
X197982009Y-94441084D01*
X198094408Y-94516187D01*
X198094414Y-94516190D01*
X198094415Y-94516191D01*
X198219314Y-94567926D01*
X198351900Y-94594299D01*
X198351903Y-94594300D01*
X198351905Y-94594300D01*
X198487097Y-94594300D01*
X198487098Y-94594299D01*
X198619686Y-94567926D01*
X198744585Y-94516191D01*
X198856991Y-94441084D01*
X198952584Y-94345491D01*
X199027691Y-94233085D01*
X199042107Y-94198282D01*
X199049577Y-94180248D01*
X199093417Y-94125844D01*
X199159711Y-94103779D01*
X199164138Y-94103700D01*
X199686176Y-94103700D01*
X199753215Y-94123385D01*
X199798970Y-94176189D01*
X199800726Y-94180222D01*
X199814100Y-94212509D01*
X199819310Y-94225087D01*
X199894412Y-94337486D01*
X199894418Y-94337494D01*
X199990005Y-94433081D01*
X199990009Y-94433084D01*
X200102408Y-94508187D01*
X200102414Y-94508190D01*
X200102415Y-94508191D01*
X200227314Y-94559926D01*
X200340324Y-94582405D01*
X200359900Y-94586299D01*
X200359903Y-94586300D01*
X200359905Y-94586300D01*
X200495097Y-94586300D01*
X200495098Y-94586299D01*
X200627686Y-94559926D01*
X200752585Y-94508191D01*
X200864991Y-94433084D01*
X200960584Y-94337491D01*
X201035691Y-94225085D01*
X201087426Y-94100186D01*
X201113800Y-93967595D01*
X201113800Y-93832405D01*
X201113800Y-93832402D01*
X201113799Y-93832400D01*
X201100476Y-93765422D01*
X201087426Y-93699814D01*
X201035691Y-93574915D01*
X201035689Y-93574912D01*
X201035687Y-93574908D01*
X200960584Y-93462509D01*
X200960581Y-93462505D01*
X200864994Y-93366918D01*
X200864990Y-93366915D01*
X200752591Y-93291812D01*
X200752582Y-93291807D01*
X200627686Y-93240074D01*
X200627678Y-93240072D01*
X200495098Y-93213700D01*
X200495095Y-93213700D01*
X200359905Y-93213700D01*
X200359902Y-93213700D01*
X200227321Y-93240072D01*
X200227313Y-93240074D01*
X200102417Y-93291807D01*
X200102408Y-93291812D01*
X199990009Y-93366915D01*
X199990005Y-93366918D01*
X199894418Y-93462505D01*
X199894412Y-93462513D01*
X199819310Y-93574912D01*
X199819309Y-93574915D01*
X199800736Y-93619752D01*
X199756897Y-93674155D01*
X199690603Y-93696221D01*
X199686176Y-93696300D01*
X199157511Y-93696300D01*
X199090472Y-93676615D01*
X199044717Y-93623811D01*
X199042950Y-93619753D01*
X199027692Y-93582917D01*
X199027687Y-93582908D01*
X198952584Y-93470509D01*
X198952581Y-93470505D01*
X198856994Y-93374918D01*
X198856990Y-93374915D01*
X198744591Y-93299812D01*
X198744582Y-93299807D01*
X198619686Y-93248074D01*
X198619678Y-93248072D01*
X198487098Y-93221700D01*
X198487095Y-93221700D01*
X198351905Y-93221700D01*
X198351902Y-93221700D01*
X198219321Y-93248072D01*
X198219313Y-93248074D01*
X198094417Y-93299807D01*
X198094408Y-93299812D01*
X197982009Y-93374915D01*
X197982005Y-93374918D01*
X197886418Y-93470505D01*
X197886415Y-93470509D01*
X197811312Y-93582908D01*
X197811307Y-93582917D01*
X197759574Y-93707813D01*
X197759572Y-93707821D01*
X197733200Y-93840400D01*
X195463986Y-93840400D01*
X195487389Y-93805375D01*
X195514085Y-93765422D01*
X195535688Y-93733089D01*
X195535691Y-93733085D01*
X195587426Y-93608186D01*
X195613800Y-93475595D01*
X195613800Y-93340405D01*
X195613800Y-93340402D01*
X195593843Y-93240074D01*
X195587426Y-93207814D01*
X195587425Y-93207812D01*
X195587239Y-93206876D01*
X195593466Y-93137284D01*
X195636329Y-93082107D01*
X195702218Y-93058862D01*
X195733047Y-93061067D01*
X195859900Y-93086299D01*
X195859903Y-93086300D01*
X195859905Y-93086300D01*
X195995097Y-93086300D01*
X195995098Y-93086299D01*
X196127686Y-93059926D01*
X196252585Y-93008191D01*
X196364991Y-92933084D01*
X196460584Y-92837491D01*
X196535691Y-92725085D01*
X196587426Y-92600186D01*
X196613800Y-92467595D01*
X196613800Y-92332405D01*
X196613800Y-92332402D01*
X196613799Y-92332400D01*
X196587427Y-92199821D01*
X196587426Y-92199814D01*
X196535691Y-92074915D01*
X196535690Y-92074914D01*
X196535687Y-92074908D01*
X196460584Y-91962509D01*
X196460581Y-91962505D01*
X196364994Y-91866918D01*
X196364990Y-91866915D01*
X196252591Y-91791812D01*
X196252582Y-91791807D01*
X196127686Y-91740074D01*
X196127678Y-91740072D01*
X195995098Y-91713700D01*
X195995095Y-91713700D01*
X195859905Y-91713700D01*
X195859902Y-91713700D01*
X195727321Y-91740072D01*
X195727313Y-91740074D01*
X195602417Y-91791807D01*
X195602408Y-91791812D01*
X195490009Y-91866915D01*
X195490005Y-91866918D01*
X195394418Y-91962505D01*
X195394415Y-91962509D01*
X195319312Y-92074908D01*
X195319307Y-92074917D01*
X195267574Y-92199813D01*
X195267572Y-92199821D01*
X195241200Y-92332400D01*
X195241200Y-92467599D01*
X195267760Y-92601124D01*
X195261533Y-92670715D01*
X195218670Y-92725893D01*
X195152780Y-92749137D01*
X195121952Y-92746933D01*
X195034834Y-92729604D01*
X194995095Y-92721700D01*
X194859905Y-92721700D01*
X194859902Y-92721700D01*
X194727321Y-92748072D01*
X194727313Y-92748074D01*
X194602417Y-92799807D01*
X194602408Y-92799812D01*
X194490009Y-92874915D01*
X194490005Y-92874918D01*
X194394418Y-92970505D01*
X194394415Y-92970509D01*
X194319312Y-93082908D01*
X194319307Y-93082917D01*
X194267574Y-93207813D01*
X194267572Y-93207821D01*
X194241200Y-93340400D01*
X184203700Y-93340400D01*
X184203700Y-91827700D01*
X184223385Y-91760661D01*
X184276189Y-91714906D01*
X184327700Y-91703700D01*
X186040517Y-91703700D01*
X186040519Y-91703700D01*
X186077953Y-91688194D01*
X186115384Y-91672691D01*
X186115385Y-91672689D01*
X186115387Y-91672689D01*
X186172689Y-91615387D01*
X186172689Y-91615385D01*
X186172691Y-91615384D01*
X186188194Y-91577953D01*
X186203700Y-91540519D01*
X186203700Y-89535700D01*
X186223385Y-89468661D01*
X186276189Y-89422906D01*
X186327700Y-89411700D01*
X188258676Y-89411700D01*
X188325715Y-89431385D01*
X188371470Y-89484189D01*
X188373226Y-89488222D01*
X188391808Y-89533082D01*
X188391810Y-89533087D01*
X188466912Y-89645486D01*
X188466918Y-89645494D01*
X188562505Y-89741081D01*
X188562509Y-89741084D01*
X188674908Y-89816187D01*
X188674914Y-89816190D01*
X188674915Y-89816191D01*
X188799814Y-89867926D01*
X188932400Y-89894299D01*
X188932403Y-89894300D01*
X188932405Y-89894300D01*
X189067597Y-89894300D01*
X189067598Y-89894299D01*
X189200186Y-89867926D01*
X189325085Y-89816191D01*
X189437491Y-89741084D01*
X189533084Y-89645491D01*
X189608191Y-89533085D01*
X189659926Y-89408186D01*
X189686300Y-89275595D01*
X189686300Y-89140405D01*
X189686300Y-89140402D01*
X189686299Y-89140400D01*
X189675155Y-89084375D01*
X189659926Y-89007814D01*
X189608191Y-88882915D01*
X189608189Y-88882912D01*
X189608187Y-88882908D01*
X189533084Y-88770509D01*
X189533081Y-88770505D01*
X189437494Y-88674918D01*
X189437490Y-88674915D01*
X189325091Y-88599812D01*
X189325082Y-88599807D01*
X189200186Y-88548074D01*
X189200178Y-88548072D01*
X189067598Y-88521700D01*
X189067595Y-88521700D01*
X188932405Y-88521700D01*
X188932402Y-88521700D01*
X188799821Y-88548072D01*
X188799813Y-88548074D01*
X188674917Y-88599807D01*
X188674908Y-88599812D01*
X188562509Y-88674915D01*
X188562505Y-88674918D01*
X188466918Y-88770505D01*
X188466912Y-88770513D01*
X188391810Y-88882912D01*
X188386220Y-88896406D01*
X188373236Y-88927752D01*
X188329397Y-88982155D01*
X188263103Y-89004221D01*
X188258676Y-89004300D01*
X186343738Y-89004300D01*
X186314297Y-88995655D01*
X186284311Y-88989132D01*
X186279295Y-88985377D01*
X186276699Y-88984615D01*
X186256057Y-88967981D01*
X186240019Y-88951943D01*
X186206534Y-88890620D01*
X186203700Y-88864262D01*
X186203700Y-87459482D01*
X186203698Y-87459477D01*
X186202639Y-87456921D01*
X186196673Y-87442517D01*
X186172691Y-87384615D01*
X186115384Y-87327308D01*
X186040522Y-87296301D01*
X186040520Y-87296300D01*
X186040519Y-87296300D01*
X186040517Y-87296300D01*
X185327700Y-87296300D01*
X185260661Y-87276615D01*
X185214906Y-87223811D01*
X185203700Y-87172300D01*
X185203700Y-84223576D01*
X185223385Y-84156537D01*
X185276189Y-84110782D01*
X185340944Y-84101470D01*
X185341049Y-84100412D01*
X185347112Y-84101009D01*
X185347114Y-84101009D01*
X185482306Y-84101009D01*
X185482307Y-84101008D01*
X185614895Y-84074635D01*
X185739794Y-84022900D01*
X185852200Y-83947793D01*
X185947793Y-83852200D01*
X186022900Y-83739794D01*
X186074635Y-83614895D01*
X186101009Y-83482304D01*
X186101009Y-83347114D01*
X186101009Y-83347111D01*
X186101008Y-83347109D01*
X186074636Y-83214530D01*
X186074635Y-83214523D01*
X186022900Y-83089624D01*
X186022899Y-83089623D01*
X186022896Y-83089617D01*
X185947793Y-82977218D01*
X185947790Y-82977214D01*
X185852203Y-82881627D01*
X185852199Y-82881624D01*
X185739800Y-82806521D01*
X185739791Y-82806516D01*
X185614895Y-82754783D01*
X185614887Y-82754781D01*
X185482307Y-82728409D01*
X185482304Y-82728409D01*
X185347114Y-82728409D01*
X185347111Y-82728409D01*
X185214530Y-82754781D01*
X185214522Y-82754783D01*
X185089626Y-82806516D01*
X185089617Y-82806521D01*
X184977218Y-82881624D01*
X184977214Y-82881627D01*
X184881627Y-82977214D01*
X184881624Y-82977218D01*
X184806521Y-83089617D01*
X184806516Y-83089626D01*
X184754783Y-83214522D01*
X184754781Y-83214530D01*
X184728409Y-83347109D01*
X184728409Y-83482308D01*
X184754781Y-83614887D01*
X184754783Y-83614895D01*
X184791923Y-83704559D01*
X184799392Y-83774029D01*
X184798551Y-83776894D01*
X184798683Y-83776921D01*
X184796300Y-83788901D01*
X184796300Y-87540517D01*
X184796301Y-87540522D01*
X184827308Y-87615384D01*
X184884615Y-87672691D01*
X184942517Y-87696673D01*
X184959481Y-87703700D01*
X185040519Y-87703700D01*
X185672300Y-87703700D01*
X185739339Y-87723385D01*
X185785094Y-87776189D01*
X185796300Y-87827700D01*
X185796300Y-91172300D01*
X185776615Y-91239339D01*
X185723811Y-91285094D01*
X185672300Y-91296300D01*
X182327700Y-91296300D01*
X182260661Y-91276615D01*
X182214906Y-91223811D01*
X182203700Y-91172300D01*
X182203700Y-89040521D01*
X182203701Y-89040519D01*
X182203701Y-88959482D01*
X182203700Y-88959479D01*
X182203700Y-87459481D01*
X182196673Y-87442517D01*
X182172691Y-87384615D01*
X182115384Y-87327308D01*
X182040522Y-87296301D01*
X182040520Y-87296300D01*
X182040519Y-87296300D01*
X181959481Y-87296300D01*
X181959479Y-87296300D01*
X181959477Y-87296301D01*
X181884615Y-87327308D01*
X181827308Y-87384615D01*
X181796301Y-87459477D01*
X181796300Y-87459482D01*
X181796300Y-88480825D01*
X181776615Y-88547864D01*
X181723811Y-88593619D01*
X181672300Y-88604825D01*
X179541324Y-88604825D01*
X179474285Y-88585140D01*
X179428530Y-88532336D01*
X179426773Y-88528302D01*
X179408191Y-88483440D01*
X179361307Y-88413273D01*
X179333087Y-88371038D01*
X179333081Y-88371030D01*
X179237494Y-88275443D01*
X179237490Y-88275440D01*
X179125091Y-88200337D01*
X179125082Y-88200332D01*
X179000186Y-88148599D01*
X179000178Y-88148597D01*
X178867598Y-88122225D01*
X178867595Y-88122225D01*
X178732405Y-88122225D01*
X178732402Y-88122225D01*
X178599821Y-88148597D01*
X178599813Y-88148599D01*
X178474917Y-88200332D01*
X178474908Y-88200337D01*
X178362509Y-88275440D01*
X178362505Y-88275443D01*
X178266918Y-88371030D01*
X178266915Y-88371034D01*
X178191812Y-88483433D01*
X178191807Y-88483442D01*
X178140074Y-88608338D01*
X178140072Y-88608346D01*
X178113700Y-88740925D01*
X164923458Y-88740925D01*
X164904356Y-88723889D01*
X164881840Y-88708494D01*
X164878663Y-88700977D01*
X164872571Y-88695544D01*
X164865260Y-88669263D01*
X164854641Y-88644136D01*
X164856033Y-88636092D01*
X164853846Y-88628230D01*
X164861902Y-88602171D01*
X164866555Y-88575289D01*
X164872074Y-88569275D01*
X164874485Y-88561478D01*
X164895353Y-88543911D01*
X164913799Y-88523813D01*
X164925666Y-88518393D01*
X164927937Y-88516482D01*
X164930607Y-88516136D01*
X164939515Y-88512069D01*
X164972729Y-88501277D01*
X164972732Y-88501276D01*
X165145447Y-88413273D01*
X165302268Y-88299336D01*
X165439336Y-88162268D01*
X165553273Y-88005447D01*
X165641276Y-87832732D01*
X165701176Y-87648377D01*
X165731500Y-87456921D01*
X165731500Y-87263079D01*
X165701176Y-87071623D01*
X165641276Y-86887268D01*
X165641276Y-86887267D01*
X165553272Y-86714552D01*
X165538741Y-86694552D01*
X165439336Y-86557732D01*
X165302268Y-86420664D01*
X165145447Y-86306727D01*
X165106195Y-86286727D01*
X164972732Y-86218723D01*
X164972729Y-86218722D01*
X164939515Y-86207931D01*
X164881840Y-86168494D01*
X164854641Y-86104136D01*
X164866555Y-86035289D01*
X164913799Y-85983813D01*
X164939515Y-85972069D01*
X164972729Y-85961277D01*
X164972732Y-85961276D01*
X165145447Y-85873273D01*
X165302268Y-85759336D01*
X165439336Y-85622268D01*
X165553273Y-85465447D01*
X165641276Y-85292732D01*
X165701176Y-85108377D01*
X165731500Y-84916921D01*
X165731500Y-84723079D01*
X165701176Y-84531623D01*
X165641276Y-84347268D01*
X165641276Y-84347267D01*
X165596435Y-84259264D01*
X165553273Y-84174553D01*
X165439336Y-84017732D01*
X165302268Y-83880664D01*
X165159441Y-83776894D01*
X165145442Y-83766723D01*
X165067444Y-83726981D01*
X165016648Y-83679007D01*
X164999853Y-83611186D01*
X165022391Y-83545051D01*
X165067444Y-83506012D01*
X165207554Y-83434622D01*
X165261716Y-83395270D01*
X165261717Y-83395270D01*
X164629408Y-82762962D01*
X164692993Y-82745925D01*
X164807007Y-82680099D01*
X164900099Y-82587007D01*
X164965925Y-82472993D01*
X164982962Y-82409408D01*
X165615270Y-83041717D01*
X165615270Y-83041716D01*
X165654622Y-82987554D01*
X165751095Y-82798217D01*
X165816757Y-82596130D01*
X165816757Y-82596127D01*
X165850000Y-82386246D01*
X165850000Y-82173757D01*
X165849132Y-82168277D01*
X165849132Y-82168274D01*
X165816757Y-81963872D01*
X165816757Y-81963869D01*
X165751095Y-81761782D01*
X165654624Y-81572449D01*
X165615270Y-81518282D01*
X165615269Y-81518282D01*
X164982962Y-82150590D01*
X164965925Y-82087007D01*
X164900099Y-81972993D01*
X164807007Y-81879901D01*
X164692993Y-81814075D01*
X164629409Y-81797037D01*
X165261716Y-81164728D01*
X165207550Y-81125375D01*
X165067444Y-81053987D01*
X165016648Y-81006012D01*
X164999853Y-80938191D01*
X165022391Y-80872056D01*
X165067445Y-80833017D01*
X165145445Y-80793274D01*
X165145444Y-80793274D01*
X165145447Y-80793273D01*
X165302268Y-80679336D01*
X165439336Y-80542268D01*
X165553273Y-80385447D01*
X165641276Y-80212732D01*
X165701176Y-80028377D01*
X165731500Y-79836921D01*
X165731500Y-79643079D01*
X165701176Y-79451623D01*
X165641276Y-79267268D01*
X165641276Y-79267267D01*
X165553272Y-79094552D01*
X165538741Y-79074552D01*
X165439336Y-78937732D01*
X165302268Y-78800664D01*
X165145447Y-78686727D01*
X165106195Y-78666727D01*
X164972732Y-78598723D01*
X164972729Y-78598722D01*
X164939515Y-78587931D01*
X164881840Y-78548494D01*
X164854641Y-78484136D01*
X164866555Y-78415289D01*
X164913799Y-78363813D01*
X164939515Y-78352069D01*
X164972729Y-78341277D01*
X164972732Y-78341276D01*
X165145447Y-78253273D01*
X165302268Y-78139336D01*
X165439336Y-78002268D01*
X165553273Y-77845447D01*
X165641276Y-77672732D01*
X165701176Y-77488377D01*
X165731500Y-77296921D01*
X165731500Y-77103079D01*
X165701176Y-76911623D01*
X165641276Y-76727268D01*
X165641276Y-76727267D01*
X165586741Y-76620238D01*
X165553273Y-76554553D01*
X165439336Y-76397732D01*
X165302268Y-76260664D01*
X165145447Y-76146727D01*
X165106195Y-76126727D01*
X164972732Y-76058723D01*
X164972726Y-76058721D01*
X164965258Y-76056295D01*
X164965257Y-76056295D01*
X164939515Y-76047931D01*
X164881840Y-76008494D01*
X164854775Y-75944451D01*
X183153649Y-75944451D01*
X183153649Y-76079650D01*
X183180021Y-76212229D01*
X183180023Y-76212237D01*
X183231756Y-76337133D01*
X183231761Y-76337142D01*
X183306864Y-76449541D01*
X183306867Y-76449545D01*
X183402454Y-76545132D01*
X183402458Y-76545135D01*
X183514857Y-76620238D01*
X183514863Y-76620241D01*
X183514864Y-76620242D01*
X183639763Y-76671977D01*
X183711765Y-76686299D01*
X183772349Y-76698350D01*
X183772352Y-76698351D01*
X183772354Y-76698351D01*
X183907546Y-76698351D01*
X183907547Y-76698350D01*
X184040135Y-76671977D01*
X184165034Y-76620242D01*
X184277440Y-76545135D01*
X184373033Y-76449542D01*
X184448140Y-76337136D01*
X184453133Y-76325082D01*
X184471704Y-76280248D01*
X184484246Y-76264682D01*
X184492552Y-76246497D01*
X184505721Y-76238033D01*
X184515544Y-76225844D01*
X184534513Y-76219530D01*
X184551330Y-76208723D01*
X184578889Y-76204760D01*
X184581838Y-76203779D01*
X184586265Y-76203700D01*
X184758676Y-76203700D01*
X184825715Y-76223385D01*
X184871470Y-76276189D01*
X184873226Y-76280222D01*
X184891808Y-76325082D01*
X184891810Y-76325087D01*
X184966912Y-76437486D01*
X184966918Y-76437494D01*
X185062505Y-76533081D01*
X185062509Y-76533084D01*
X185174908Y-76608187D01*
X185174914Y-76608190D01*
X185174915Y-76608191D01*
X185299814Y-76659926D01*
X185432400Y-76686299D01*
X185432403Y-76686300D01*
X185432405Y-76686300D01*
X185567597Y-76686300D01*
X185567598Y-76686299D01*
X185700186Y-76659926D01*
X185825085Y-76608191D01*
X185937491Y-76533084D01*
X186033084Y-76437491D01*
X186108191Y-76325085D01*
X186159926Y-76200186D01*
X186186300Y-76067595D01*
X186186300Y-75932405D01*
X186186300Y-75932402D01*
X186186299Y-75932400D01*
X186174185Y-75871500D01*
X186159926Y-75799814D01*
X186108191Y-75674915D01*
X186108189Y-75674912D01*
X186108187Y-75674908D01*
X186033084Y-75562509D01*
X186033081Y-75562505D01*
X185937494Y-75466918D01*
X185937490Y-75466915D01*
X185825091Y-75391812D01*
X185825082Y-75391807D01*
X185700186Y-75340074D01*
X185700178Y-75340072D01*
X185567598Y-75313700D01*
X185567595Y-75313700D01*
X185432405Y-75313700D01*
X185432402Y-75313700D01*
X185299821Y-75340072D01*
X185299813Y-75340074D01*
X185174917Y-75391807D01*
X185174908Y-75391812D01*
X185062509Y-75466915D01*
X185062505Y-75466918D01*
X184966918Y-75562505D01*
X184966912Y-75562513D01*
X184891810Y-75674912D01*
X184886220Y-75688406D01*
X184873236Y-75719752D01*
X184860694Y-75735317D01*
X184852389Y-75753503D01*
X184839218Y-75761967D01*
X184829397Y-75774155D01*
X184810430Y-75780468D01*
X184793611Y-75791277D01*
X184766051Y-75795239D01*
X184763103Y-75796221D01*
X184758676Y-75796300D01*
X184576282Y-75796300D01*
X184509243Y-75776615D01*
X184463488Y-75723811D01*
X184461721Y-75719753D01*
X184448141Y-75686968D01*
X184448136Y-75686959D01*
X184373033Y-75574560D01*
X184373030Y-75574556D01*
X184277443Y-75478969D01*
X184277439Y-75478966D01*
X184165040Y-75403863D01*
X184165031Y-75403858D01*
X184040135Y-75352125D01*
X184040127Y-75352123D01*
X183907547Y-75325751D01*
X183907544Y-75325751D01*
X183772354Y-75325751D01*
X183772351Y-75325751D01*
X183639770Y-75352123D01*
X183639762Y-75352125D01*
X183514866Y-75403858D01*
X183514857Y-75403863D01*
X183402458Y-75478966D01*
X183402454Y-75478969D01*
X183306867Y-75574556D01*
X183306864Y-75574560D01*
X183231761Y-75686959D01*
X183231756Y-75686968D01*
X183180023Y-75811864D01*
X183180021Y-75811872D01*
X183153649Y-75944451D01*
X164854775Y-75944451D01*
X164854641Y-75944135D01*
X164866555Y-75875289D01*
X164913799Y-75823813D01*
X164939515Y-75812069D01*
X164972729Y-75801277D01*
X164972732Y-75801276D01*
X164984580Y-75795239D01*
X165145447Y-75713273D01*
X165302268Y-75599336D01*
X165439336Y-75462268D01*
X165553273Y-75305447D01*
X165641276Y-75132732D01*
X165701176Y-74948377D01*
X165731500Y-74756921D01*
X165731500Y-74563079D01*
X165701176Y-74371623D01*
X165641276Y-74187268D01*
X165641276Y-74187267D01*
X165553272Y-74014552D01*
X165538741Y-73994552D01*
X165439336Y-73857732D01*
X165302268Y-73720664D01*
X165145447Y-73606727D01*
X165106195Y-73586727D01*
X164972732Y-73518723D01*
X164972729Y-73518722D01*
X164939515Y-73507931D01*
X164881840Y-73468494D01*
X164854641Y-73404136D01*
X164866555Y-73335289D01*
X164913799Y-73283813D01*
X164939515Y-73272069D01*
X164972729Y-73261277D01*
X164972732Y-73261276D01*
X165145447Y-73173273D01*
X165302268Y-73059336D01*
X165439336Y-72922268D01*
X165553273Y-72765447D01*
X165641276Y-72592732D01*
X165701176Y-72408377D01*
X165731500Y-72216921D01*
X165731500Y-72023079D01*
X165717138Y-71932400D01*
X197813700Y-71932400D01*
X197813700Y-72067599D01*
X197840072Y-72200178D01*
X197840074Y-72200186D01*
X197891807Y-72325082D01*
X197891812Y-72325091D01*
X197966915Y-72437490D01*
X197966918Y-72437494D01*
X198062505Y-72533081D01*
X198062509Y-72533084D01*
X198174908Y-72608187D01*
X198174914Y-72608190D01*
X198174915Y-72608191D01*
X198299814Y-72659926D01*
X198432400Y-72686299D01*
X198432403Y-72686300D01*
X198432405Y-72686300D01*
X198567597Y-72686300D01*
X198567598Y-72686299D01*
X198700186Y-72659926D01*
X198825085Y-72608191D01*
X198937491Y-72533084D01*
X199033084Y-72437491D01*
X199108191Y-72325085D01*
X199159926Y-72200186D01*
X199186300Y-72067595D01*
X199186300Y-71932405D01*
X199186300Y-71932402D01*
X199162275Y-71811623D01*
X199162254Y-71811518D01*
X199168481Y-71741927D01*
X199196188Y-71699648D01*
X199699648Y-71196188D01*
X199760969Y-71162705D01*
X199811517Y-71162254D01*
X199849191Y-71169747D01*
X199932402Y-71186300D01*
X199932405Y-71186300D01*
X200067597Y-71186300D01*
X200067598Y-71186299D01*
X200200186Y-71159926D01*
X200325085Y-71108191D01*
X200437491Y-71033084D01*
X200533084Y-70937491D01*
X200608191Y-70825085D01*
X200659926Y-70700186D01*
X200686300Y-70567595D01*
X200686300Y-70432405D01*
X200686300Y-70432402D01*
X200686299Y-70432400D01*
X200659927Y-70299821D01*
X200659926Y-70299814D01*
X200608191Y-70174915D01*
X200608190Y-70174914D01*
X200608187Y-70174908D01*
X200533084Y-70062509D01*
X200533081Y-70062505D01*
X200437494Y-69966918D01*
X200437490Y-69966915D01*
X200325091Y-69891812D01*
X200325082Y-69891807D01*
X200200186Y-69840074D01*
X200200178Y-69840072D01*
X200067598Y-69813700D01*
X200067595Y-69813700D01*
X199932405Y-69813700D01*
X199932402Y-69813700D01*
X199799821Y-69840072D01*
X199799813Y-69840074D01*
X199674917Y-69891807D01*
X199674908Y-69891812D01*
X199562509Y-69966915D01*
X199562505Y-69966918D01*
X199466918Y-70062505D01*
X199466915Y-70062509D01*
X199391812Y-70174908D01*
X199391807Y-70174917D01*
X199340074Y-70299813D01*
X199340072Y-70299821D01*
X199313700Y-70432400D01*
X199313700Y-70432405D01*
X199313700Y-70567595D01*
X199313700Y-70567597D01*
X199313699Y-70567597D01*
X199337745Y-70688478D01*
X199331518Y-70758070D01*
X199303809Y-70800351D01*
X198800351Y-71303809D01*
X198739028Y-71337294D01*
X198688478Y-71337745D01*
X198567597Y-71313700D01*
X198567595Y-71313700D01*
X198432405Y-71313700D01*
X198432402Y-71313700D01*
X198299821Y-71340072D01*
X198299813Y-71340074D01*
X198174917Y-71391807D01*
X198174908Y-71391812D01*
X198062509Y-71466915D01*
X198062505Y-71466918D01*
X197966918Y-71562505D01*
X197966915Y-71562509D01*
X197891812Y-71674908D01*
X197891807Y-71674917D01*
X197840074Y-71799813D01*
X197840072Y-71799821D01*
X197813700Y-71932400D01*
X165717138Y-71932400D01*
X165701176Y-71831623D01*
X165671226Y-71739445D01*
X165641277Y-71647270D01*
X165641276Y-71647267D01*
X165553272Y-71474552D01*
X165547724Y-71466916D01*
X165439336Y-71317732D01*
X165302268Y-71180664D01*
X165202512Y-71108187D01*
X165145442Y-71066723D01*
X165067444Y-71026981D01*
X165016648Y-70979007D01*
X164999853Y-70911186D01*
X165022391Y-70845051D01*
X165067444Y-70806012D01*
X165207554Y-70734622D01*
X165261716Y-70695270D01*
X165261717Y-70695270D01*
X164629408Y-70062962D01*
X164692993Y-70045925D01*
X164807007Y-69980099D01*
X164900099Y-69887007D01*
X164965925Y-69772993D01*
X164982962Y-69709408D01*
X165615270Y-70341717D01*
X165615270Y-70341716D01*
X165654622Y-70287554D01*
X165751095Y-70098217D01*
X165816757Y-69896130D01*
X165816757Y-69896127D01*
X165850000Y-69686246D01*
X165850000Y-69473753D01*
X165816757Y-69263872D01*
X165816757Y-69263869D01*
X165751095Y-69061782D01*
X165654624Y-68872449D01*
X165615270Y-68818282D01*
X165615269Y-68818282D01*
X164982962Y-69450590D01*
X164965925Y-69387007D01*
X164900099Y-69272993D01*
X164807007Y-69179901D01*
X164692993Y-69114075D01*
X164629409Y-69097037D01*
X165261716Y-68464728D01*
X165207550Y-68425375D01*
X165067444Y-68353987D01*
X165016648Y-68306012D01*
X164999853Y-68238191D01*
X165022391Y-68172056D01*
X165067445Y-68133017D01*
X165145445Y-68093274D01*
X165145444Y-68093274D01*
X165145447Y-68093273D01*
X165302268Y-67979336D01*
X165439336Y-67842268D01*
X165553273Y-67685447D01*
X165641276Y-67512732D01*
X165701176Y-67328377D01*
X165731500Y-67136921D01*
X165731500Y-66943079D01*
X165701176Y-66751623D01*
X165644633Y-66577599D01*
X165641277Y-66567270D01*
X165641275Y-66567267D01*
X165634553Y-66554075D01*
X165577652Y-66442400D01*
X178313700Y-66442400D01*
X178313700Y-66577599D01*
X178340072Y-66710178D01*
X178340074Y-66710186D01*
X178391807Y-66835082D01*
X178391812Y-66835091D01*
X178466915Y-66947490D01*
X178466918Y-66947494D01*
X178562505Y-67043081D01*
X178562509Y-67043084D01*
X178674908Y-67118187D01*
X178674914Y-67118190D01*
X178674915Y-67118191D01*
X178799814Y-67169926D01*
X178882127Y-67186299D01*
X178932400Y-67196299D01*
X178932403Y-67196300D01*
X178932405Y-67196300D01*
X179067597Y-67196300D01*
X179067598Y-67196299D01*
X179200186Y-67169926D01*
X179325085Y-67118191D01*
X179437491Y-67043084D01*
X179533084Y-66947491D01*
X179533237Y-66947260D01*
X179533677Y-66946605D01*
X179534104Y-66946247D01*
X179536948Y-66942783D01*
X179537605Y-66943322D01*
X179587291Y-66901802D01*
X179636776Y-66891500D01*
X180157846Y-66891500D01*
X180224885Y-66911185D01*
X180270640Y-66963989D01*
X180280584Y-67033147D01*
X180251559Y-67096703D01*
X180226737Y-67118602D01*
X180136600Y-67178829D01*
X180136596Y-67178832D01*
X179993832Y-67321596D01*
X179993829Y-67321600D01*
X179881659Y-67489473D01*
X179881652Y-67489486D01*
X179804390Y-67676016D01*
X179804387Y-67676025D01*
X179765000Y-67874041D01*
X179765000Y-68250000D01*
X180490000Y-68250000D01*
X180490000Y-68750000D01*
X179765000Y-68750000D01*
X179765000Y-69125958D01*
X179804387Y-69323974D01*
X179804390Y-69323983D01*
X179881652Y-69510513D01*
X179881659Y-69510526D01*
X179993829Y-69678399D01*
X179993832Y-69678403D01*
X180136596Y-69821167D01*
X180136600Y-69821170D01*
X180304473Y-69933340D01*
X180304486Y-69933347D01*
X180491016Y-70010609D01*
X180491025Y-70010612D01*
X180540000Y-70020353D01*
X180540000Y-69216988D01*
X180549940Y-69234205D01*
X180605795Y-69290060D01*
X180674204Y-69329556D01*
X180750504Y-69350000D01*
X180829496Y-69350000D01*
X180905796Y-69329556D01*
X180974205Y-69290060D01*
X181030060Y-69234205D01*
X181040000Y-69216988D01*
X181040000Y-70020352D01*
X181088974Y-70010612D01*
X181088983Y-70010609D01*
X181275513Y-69933347D01*
X181275526Y-69933340D01*
X181443399Y-69821170D01*
X181443403Y-69821167D01*
X181586167Y-69678403D01*
X181586170Y-69678399D01*
X181698340Y-69510526D01*
X181698347Y-69510513D01*
X181775609Y-69323983D01*
X181775612Y-69323974D01*
X181814999Y-69125958D01*
X181815000Y-69125955D01*
X181815000Y-68750000D01*
X181090000Y-68750000D01*
X181090000Y-68250000D01*
X181685950Y-68250000D01*
X181752989Y-68269685D01*
X181793337Y-68311999D01*
X181799492Y-68322661D01*
X181799495Y-68322665D01*
X181897335Y-68420505D01*
X181897336Y-68420506D01*
X181897338Y-68420507D01*
X181910216Y-68427942D01*
X182017164Y-68489688D01*
X182150817Y-68525500D01*
X182150819Y-68525500D01*
X182289181Y-68525500D01*
X182289183Y-68525500D01*
X182422836Y-68489688D01*
X182542665Y-68420505D01*
X182640505Y-68322665D01*
X182709688Y-68202836D01*
X182745500Y-68069183D01*
X182745500Y-67930817D01*
X182709688Y-67797164D01*
X182669497Y-67727550D01*
X182640507Y-67677338D01*
X182640503Y-67677333D01*
X182542666Y-67579496D01*
X182542661Y-67579492D01*
X182422838Y-67510313D01*
X182422837Y-67510312D01*
X182422836Y-67510312D01*
X182289183Y-67474500D01*
X182150817Y-67474500D01*
X182017164Y-67510312D01*
X182017161Y-67510313D01*
X181890297Y-67583558D01*
X181888677Y-67580753D01*
X181837631Y-67600471D01*
X181769190Y-67586413D01*
X181719215Y-67537585D01*
X181712788Y-67524350D01*
X181698347Y-67489486D01*
X181698340Y-67489473D01*
X181586170Y-67321600D01*
X181586167Y-67321596D01*
X181443403Y-67178832D01*
X181443399Y-67178829D01*
X181353263Y-67118602D01*
X181308458Y-67064990D01*
X181299751Y-66995665D01*
X181329905Y-66932637D01*
X181389348Y-66895918D01*
X181422154Y-66891500D01*
X188797846Y-66891500D01*
X188864885Y-66911185D01*
X188910640Y-66963989D01*
X188920584Y-67033147D01*
X188891559Y-67096703D01*
X188866737Y-67118602D01*
X188776600Y-67178829D01*
X188776596Y-67178832D01*
X188633832Y-67321596D01*
X188633829Y-67321600D01*
X188521659Y-67489473D01*
X188521653Y-67489485D01*
X188507210Y-67524353D01*
X188463368Y-67578755D01*
X188397074Y-67600819D01*
X188329375Y-67583539D01*
X188327664Y-67582381D01*
X188202838Y-67510313D01*
X188202837Y-67510312D01*
X188202836Y-67510312D01*
X188069183Y-67474500D01*
X187930817Y-67474500D01*
X187797164Y-67510312D01*
X187797161Y-67510313D01*
X187677338Y-67579492D01*
X187677333Y-67579496D01*
X187579496Y-67677333D01*
X187579492Y-67677338D01*
X187510313Y-67797161D01*
X187510312Y-67797164D01*
X187474500Y-67930817D01*
X187474500Y-68069182D01*
X187510312Y-68202835D01*
X187510313Y-68202838D01*
X187579492Y-68322661D01*
X187579494Y-68322664D01*
X187579495Y-68322665D01*
X187677335Y-68420505D01*
X187677336Y-68420506D01*
X187677338Y-68420507D01*
X187690216Y-68427942D01*
X187797164Y-68489688D01*
X187930817Y-68525500D01*
X187930819Y-68525500D01*
X188069181Y-68525500D01*
X188069183Y-68525500D01*
X188202836Y-68489688D01*
X188322665Y-68420505D01*
X188420505Y-68322665D01*
X188426663Y-68311999D01*
X188477231Y-68263784D01*
X188534050Y-68250000D01*
X189130000Y-68250000D01*
X189130000Y-68750000D01*
X188405000Y-68750000D01*
X188405000Y-69125958D01*
X188444387Y-69323974D01*
X188444390Y-69323983D01*
X188521652Y-69510513D01*
X188521659Y-69510526D01*
X188633829Y-69678399D01*
X188633832Y-69678403D01*
X188776596Y-69821167D01*
X188776600Y-69821170D01*
X188944473Y-69933340D01*
X188944486Y-69933347D01*
X189131016Y-70010609D01*
X189131025Y-70010612D01*
X189180000Y-70020353D01*
X189180000Y-69216988D01*
X189189940Y-69234205D01*
X189245795Y-69290060D01*
X189314204Y-69329556D01*
X189390504Y-69350000D01*
X189469496Y-69350000D01*
X189545796Y-69329556D01*
X189614205Y-69290060D01*
X189670060Y-69234205D01*
X189680000Y-69216988D01*
X189680000Y-70020352D01*
X189728974Y-70010612D01*
X189728983Y-70010609D01*
X189915513Y-69933347D01*
X189915526Y-69933340D01*
X190083399Y-69821170D01*
X190083403Y-69821167D01*
X190226167Y-69678403D01*
X190226170Y-69678399D01*
X190338340Y-69510526D01*
X190338347Y-69510513D01*
X190379668Y-69410755D01*
X190415609Y-69323983D01*
X190415612Y-69323974D01*
X190454999Y-69125958D01*
X190455000Y-69125955D01*
X190455000Y-68750000D01*
X189730000Y-68750000D01*
X189730000Y-68250000D01*
X190455000Y-68250000D01*
X190455000Y-67874045D01*
X190454999Y-67874041D01*
X190415612Y-67676025D01*
X190415609Y-67676016D01*
X190338347Y-67489486D01*
X190338340Y-67489473D01*
X190226170Y-67321600D01*
X190226167Y-67321596D01*
X190083403Y-67178832D01*
X190083399Y-67178829D01*
X189993263Y-67118602D01*
X189948458Y-67064990D01*
X189939751Y-66995665D01*
X189969905Y-66932637D01*
X190029348Y-66895918D01*
X190062154Y-66891500D01*
X190370524Y-66891500D01*
X190437563Y-66911185D01*
X190462451Y-66933340D01*
X190462608Y-66933184D01*
X190465302Y-66935878D01*
X190466377Y-66936835D01*
X190466917Y-66937493D01*
X190562505Y-67033081D01*
X190562509Y-67033084D01*
X190674908Y-67108187D01*
X190674914Y-67108190D01*
X190674915Y-67108191D01*
X190799814Y-67159926D01*
X190894846Y-67178829D01*
X190932400Y-67186299D01*
X190932403Y-67186300D01*
X190932405Y-67186300D01*
X191067597Y-67186300D01*
X191067598Y-67186299D01*
X191200186Y-67159926D01*
X191325085Y-67108191D01*
X191437491Y-67033084D01*
X191533084Y-66937491D01*
X191548945Y-66913753D01*
X202150000Y-66913753D01*
X202150000Y-67126246D01*
X202183242Y-67336127D01*
X202183242Y-67336130D01*
X202248904Y-67538217D01*
X202345375Y-67727550D01*
X202384728Y-67781716D01*
X203017037Y-67149408D01*
X203034075Y-67212993D01*
X203099901Y-67327007D01*
X203192993Y-67420099D01*
X203307007Y-67485925D01*
X203370590Y-67502962D01*
X202738282Y-68135269D01*
X202738282Y-68135270D01*
X202792449Y-68174624D01*
X202932555Y-68246012D01*
X202983351Y-68293987D01*
X203000146Y-68361808D01*
X202977609Y-68427942D01*
X202932556Y-68466981D01*
X202854555Y-68506725D01*
X202697729Y-68620666D01*
X202560666Y-68757729D01*
X202446727Y-68914552D01*
X202358723Y-69087267D01*
X202358722Y-69087270D01*
X202298824Y-69271621D01*
X202298824Y-69271623D01*
X202268500Y-69463079D01*
X202268500Y-69656921D01*
X202273145Y-69686246D01*
X202298824Y-69848378D01*
X202358722Y-70032729D01*
X202358723Y-70032732D01*
X202431170Y-70174915D01*
X202446727Y-70205447D01*
X202560664Y-70362268D01*
X202697732Y-70499336D01*
X202854553Y-70613273D01*
X202939264Y-70656435D01*
X203027267Y-70701276D01*
X203027270Y-70701277D01*
X203060484Y-70712069D01*
X203118160Y-70751507D01*
X203145358Y-70815865D01*
X203133443Y-70884712D01*
X203086199Y-70936187D01*
X203060484Y-70947931D01*
X203027270Y-70958722D01*
X203027267Y-70958723D01*
X202854552Y-71046727D01*
X202697729Y-71160666D01*
X202560666Y-71297729D01*
X202446727Y-71454552D01*
X202358723Y-71627267D01*
X202358722Y-71627270D01*
X202298824Y-71811621D01*
X202268500Y-72003079D01*
X202268500Y-72196920D01*
X202298824Y-72388378D01*
X202358722Y-72572729D01*
X202358723Y-72572732D01*
X202403152Y-72659927D01*
X202446727Y-72745447D01*
X202560664Y-72902268D01*
X202697732Y-73039336D01*
X202854553Y-73153273D01*
X202939264Y-73196435D01*
X203027267Y-73241276D01*
X203027270Y-73241277D01*
X203060484Y-73252069D01*
X203118160Y-73291507D01*
X203145358Y-73355865D01*
X203133443Y-73424712D01*
X203086199Y-73476187D01*
X203060484Y-73487931D01*
X203027270Y-73498722D01*
X203027267Y-73498723D01*
X202854552Y-73586727D01*
X202697729Y-73700666D01*
X202560666Y-73837729D01*
X202446727Y-73994552D01*
X202358723Y-74167267D01*
X202358722Y-74167270D01*
X202298824Y-74351621D01*
X202268500Y-74543079D01*
X202268500Y-74736920D01*
X202298824Y-74928378D01*
X202358722Y-75112729D01*
X202358723Y-75112732D01*
X202446727Y-75285447D01*
X202560664Y-75442268D01*
X202697732Y-75579336D01*
X202854553Y-75693273D01*
X202906519Y-75719751D01*
X203027267Y-75781276D01*
X203027270Y-75781277D01*
X203060484Y-75792069D01*
X203118160Y-75831507D01*
X203145358Y-75895865D01*
X203133443Y-75964712D01*
X203086199Y-76016187D01*
X203060484Y-76027931D01*
X203027270Y-76038722D01*
X203027267Y-76038723D01*
X202854552Y-76126727D01*
X202697729Y-76240666D01*
X202560666Y-76377729D01*
X202446727Y-76534552D01*
X202358723Y-76707267D01*
X202358722Y-76707270D01*
X202298824Y-76891621D01*
X202268500Y-77083079D01*
X202268500Y-77276920D01*
X202298824Y-77468378D01*
X202358722Y-77652729D01*
X202358723Y-77652732D01*
X202446727Y-77825447D01*
X202560664Y-77982268D01*
X202697732Y-78119336D01*
X202854553Y-78233273D01*
X202939264Y-78276435D01*
X203027267Y-78321276D01*
X203027270Y-78321277D01*
X203060484Y-78332069D01*
X203118160Y-78371507D01*
X203145358Y-78435865D01*
X203133443Y-78504712D01*
X203086199Y-78556187D01*
X203060484Y-78567931D01*
X203027270Y-78578722D01*
X203027267Y-78578723D01*
X202854552Y-78666727D01*
X202697729Y-78780666D01*
X202560666Y-78917729D01*
X202446727Y-79074552D01*
X202358723Y-79247267D01*
X202358722Y-79247270D01*
X202298824Y-79431621D01*
X202268500Y-79623079D01*
X202268500Y-79816920D01*
X202298824Y-80008378D01*
X202358722Y-80192729D01*
X202358723Y-80192732D01*
X202446727Y-80365447D01*
X202560664Y-80522268D01*
X202697732Y-80659336D01*
X202854553Y-80773273D01*
X202932555Y-80813017D01*
X202983351Y-80860992D01*
X203000146Y-80928813D01*
X202977609Y-80994948D01*
X202932556Y-81033986D01*
X202792443Y-81105378D01*
X202792440Y-81105380D01*
X202738282Y-81144727D01*
X202738282Y-81144728D01*
X203370591Y-81777037D01*
X203307007Y-81794075D01*
X203192993Y-81859901D01*
X203099901Y-81952993D01*
X203034075Y-82067007D01*
X203017037Y-82130591D01*
X202384728Y-81498282D01*
X202384727Y-81498282D01*
X202345380Y-81552439D01*
X202248904Y-81741782D01*
X202183242Y-81943869D01*
X202183242Y-81943872D01*
X202150000Y-82153753D01*
X202150000Y-82366246D01*
X202183242Y-82576127D01*
X202183242Y-82576130D01*
X202248904Y-82778217D01*
X202345375Y-82967550D01*
X202384728Y-83021716D01*
X203017037Y-82389408D01*
X203034075Y-82452993D01*
X203099901Y-82567007D01*
X203192993Y-82660099D01*
X203307007Y-82725925D01*
X203370590Y-82742962D01*
X202738282Y-83375269D01*
X202738282Y-83375270D01*
X202792449Y-83414624D01*
X202932555Y-83486012D01*
X202983351Y-83533987D01*
X203000146Y-83601808D01*
X202977609Y-83667942D01*
X202932556Y-83706981D01*
X202854555Y-83746725D01*
X202697729Y-83860666D01*
X202560666Y-83997729D01*
X202446727Y-84154552D01*
X202358723Y-84327267D01*
X202358722Y-84327270D01*
X202298824Y-84511621D01*
X202268500Y-84703079D01*
X202268500Y-84896920D01*
X202298824Y-85088378D01*
X202358722Y-85272729D01*
X202358723Y-85272732D01*
X202446727Y-85445447D01*
X202560664Y-85602268D01*
X202697732Y-85739336D01*
X202854553Y-85853273D01*
X202939264Y-85896435D01*
X203027267Y-85941276D01*
X203027270Y-85941277D01*
X203060484Y-85952069D01*
X203118160Y-85991507D01*
X203145358Y-86055865D01*
X203133443Y-86124712D01*
X203086199Y-86176187D01*
X203060484Y-86187931D01*
X203027270Y-86198722D01*
X203027267Y-86198723D01*
X202854552Y-86286727D01*
X202697729Y-86400666D01*
X202560666Y-86537729D01*
X202446727Y-86694552D01*
X202358723Y-86867267D01*
X202358722Y-86867270D01*
X202298824Y-87051621D01*
X202268500Y-87243079D01*
X202268500Y-87436920D01*
X202298824Y-87628378D01*
X202358722Y-87812729D01*
X202358723Y-87812732D01*
X202446727Y-87985447D01*
X202560664Y-88142268D01*
X202697732Y-88279336D01*
X202854553Y-88393273D01*
X202939264Y-88436435D01*
X203027267Y-88481276D01*
X203027270Y-88481277D01*
X203060484Y-88492069D01*
X203118160Y-88531507D01*
X203145358Y-88595865D01*
X203133443Y-88664712D01*
X203086199Y-88716187D01*
X203060484Y-88727931D01*
X203027270Y-88738722D01*
X203027267Y-88738723D01*
X202854552Y-88826727D01*
X202697729Y-88940666D01*
X202560666Y-89077729D01*
X202446727Y-89234552D01*
X202358723Y-89407267D01*
X202358722Y-89407270D01*
X202298824Y-89591621D01*
X202268500Y-89783079D01*
X202268500Y-89976920D01*
X202298824Y-90168378D01*
X202358722Y-90352729D01*
X202358723Y-90352732D01*
X202446727Y-90525447D01*
X202560664Y-90682268D01*
X202697732Y-90819336D01*
X202854553Y-90933273D01*
X202939264Y-90976435D01*
X203027267Y-91021276D01*
X203027270Y-91021277D01*
X203060484Y-91032069D01*
X203118160Y-91071507D01*
X203145358Y-91135865D01*
X203133443Y-91204712D01*
X203086199Y-91256187D01*
X203060484Y-91267931D01*
X203027270Y-91278722D01*
X203027267Y-91278723D01*
X202854552Y-91366727D01*
X202697729Y-91480666D01*
X202560666Y-91617729D01*
X202446727Y-91774552D01*
X202358723Y-91947267D01*
X202358722Y-91947270D01*
X202298824Y-92131621D01*
X202268500Y-92323079D01*
X202268500Y-92516920D01*
X202298824Y-92708378D01*
X202358722Y-92892729D01*
X202358723Y-92892732D01*
X202417554Y-93008192D01*
X202446727Y-93065447D01*
X202560664Y-93222268D01*
X202697732Y-93359336D01*
X202854553Y-93473273D01*
X202932555Y-93513017D01*
X202983351Y-93560992D01*
X203000146Y-93628813D01*
X202977609Y-93694948D01*
X202932556Y-93733986D01*
X202792443Y-93805378D01*
X202792440Y-93805380D01*
X202738282Y-93844727D01*
X202738282Y-93844728D01*
X203370591Y-94477037D01*
X203307007Y-94494075D01*
X203192993Y-94559901D01*
X203099901Y-94652993D01*
X203034075Y-94767007D01*
X203017037Y-94830591D01*
X202384728Y-94198282D01*
X202384727Y-94198282D01*
X202345380Y-94252439D01*
X202248904Y-94441782D01*
X202183242Y-94643869D01*
X202183242Y-94643872D01*
X202150000Y-94853753D01*
X202150000Y-95066246D01*
X202183242Y-95276127D01*
X202183242Y-95276130D01*
X202248904Y-95478217D01*
X202345375Y-95667550D01*
X202384728Y-95721716D01*
X203017037Y-95089408D01*
X203034075Y-95152993D01*
X203099901Y-95267007D01*
X203192993Y-95360099D01*
X203307007Y-95425925D01*
X203370590Y-95442962D01*
X202738282Y-96075269D01*
X202738282Y-96075270D01*
X202792449Y-96114624D01*
X202932555Y-96186012D01*
X202983351Y-96233987D01*
X203000146Y-96301808D01*
X202977609Y-96367942D01*
X202932556Y-96406981D01*
X202854555Y-96446725D01*
X202697729Y-96560666D01*
X202560666Y-96697729D01*
X202446727Y-96854552D01*
X202358723Y-97027267D01*
X202358722Y-97027270D01*
X202298824Y-97211621D01*
X202280854Y-97325078D01*
X202268500Y-97403079D01*
X202268500Y-97596921D01*
X202275984Y-97644170D01*
X202298824Y-97788378D01*
X202358722Y-97972729D01*
X202358723Y-97972732D01*
X202446727Y-98145447D01*
X202560664Y-98302268D01*
X202697732Y-98439336D01*
X202854553Y-98553273D01*
X202939264Y-98596435D01*
X203027267Y-98641276D01*
X203027270Y-98641277D01*
X203060484Y-98652069D01*
X203118160Y-98691507D01*
X203145358Y-98755865D01*
X203133443Y-98824712D01*
X203086199Y-98876187D01*
X203060484Y-98887931D01*
X203027270Y-98898722D01*
X203027267Y-98898723D01*
X202854552Y-98986727D01*
X202697729Y-99100666D01*
X202560666Y-99237729D01*
X202446727Y-99394552D01*
X202358723Y-99567267D01*
X202358722Y-99567270D01*
X202298824Y-99751621D01*
X202268500Y-99943079D01*
X202268500Y-100136920D01*
X202298824Y-100328378D01*
X202358722Y-100512729D01*
X202358723Y-100512732D01*
X202407363Y-100608191D01*
X202446727Y-100685447D01*
X202560664Y-100842268D01*
X202697732Y-100979336D01*
X202854553Y-101093273D01*
X202939264Y-101136435D01*
X203027267Y-101181276D01*
X203027270Y-101181277D01*
X203060484Y-101192069D01*
X203118160Y-101231507D01*
X203145358Y-101295865D01*
X203133443Y-101364712D01*
X203086199Y-101416187D01*
X203060484Y-101427931D01*
X203027270Y-101438722D01*
X203027267Y-101438723D01*
X202854552Y-101526727D01*
X202697729Y-101640666D01*
X202560666Y-101777729D01*
X202446727Y-101934552D01*
X202358723Y-102107267D01*
X202358722Y-102107270D01*
X202298824Y-102291621D01*
X202268500Y-102483079D01*
X202268500Y-102676920D01*
X202298824Y-102868378D01*
X202358722Y-103052729D01*
X202358723Y-103052732D01*
X202446727Y-103225447D01*
X202560664Y-103382268D01*
X202697732Y-103519336D01*
X202854553Y-103633273D01*
X202939264Y-103676435D01*
X203027267Y-103721276D01*
X203027270Y-103721277D01*
X203060484Y-103732069D01*
X203118160Y-103771507D01*
X203145358Y-103835865D01*
X203133443Y-103904712D01*
X203086199Y-103956187D01*
X203060484Y-103967931D01*
X203027270Y-103978722D01*
X203027267Y-103978723D01*
X202854552Y-104066727D01*
X202697729Y-104180666D01*
X202560666Y-104317729D01*
X202446727Y-104474552D01*
X202358723Y-104647267D01*
X202358722Y-104647270D01*
X202298824Y-104831621D01*
X202268500Y-105023079D01*
X202268500Y-105216920D01*
X202298824Y-105408378D01*
X202358722Y-105592729D01*
X202358723Y-105592732D01*
X202446727Y-105765447D01*
X202560664Y-105922268D01*
X202697732Y-106059336D01*
X202854553Y-106173273D01*
X202915455Y-106204304D01*
X202932555Y-106213017D01*
X202983351Y-106260992D01*
X203000146Y-106328813D01*
X202977609Y-106394948D01*
X202932556Y-106433986D01*
X202792443Y-106505378D01*
X202792440Y-106505380D01*
X202738282Y-106544727D01*
X202738282Y-106544728D01*
X203370591Y-107177037D01*
X203307007Y-107194075D01*
X203192993Y-107259901D01*
X203099901Y-107352993D01*
X203034075Y-107467007D01*
X203017037Y-107530591D01*
X202384728Y-106898282D01*
X202384727Y-106898282D01*
X202345380Y-106952439D01*
X202248904Y-107141782D01*
X202183242Y-107343869D01*
X202183242Y-107343872D01*
X202150000Y-107553753D01*
X202150000Y-107766246D01*
X202183242Y-107976127D01*
X202183242Y-107976130D01*
X202248904Y-108178217D01*
X202345375Y-108367550D01*
X202384728Y-108421716D01*
X203017037Y-107789408D01*
X203034075Y-107852993D01*
X203099901Y-107967007D01*
X203192993Y-108060099D01*
X203307007Y-108125925D01*
X203370590Y-108142962D01*
X202738282Y-108775269D01*
X202738282Y-108775270D01*
X202792449Y-108814624D01*
X202932555Y-108886012D01*
X202983351Y-108933987D01*
X203000146Y-109001808D01*
X202977609Y-109067942D01*
X202932556Y-109106981D01*
X202854555Y-109146725D01*
X202697729Y-109260666D01*
X202560666Y-109397729D01*
X202446727Y-109554552D01*
X202358723Y-109727267D01*
X202358722Y-109727270D01*
X202298824Y-109911621D01*
X202268500Y-110103079D01*
X202268500Y-110296920D01*
X202298824Y-110488378D01*
X202358722Y-110672729D01*
X202358723Y-110672732D01*
X202446727Y-110845447D01*
X202560664Y-111002268D01*
X202697732Y-111139336D01*
X202854553Y-111253273D01*
X202939264Y-111296435D01*
X203027267Y-111341276D01*
X203027270Y-111341277D01*
X203060484Y-111352069D01*
X203118160Y-111391507D01*
X203145358Y-111455865D01*
X203133443Y-111524712D01*
X203086199Y-111576187D01*
X203060484Y-111587931D01*
X203027270Y-111598722D01*
X203027267Y-111598723D01*
X202854552Y-111686727D01*
X202697729Y-111800666D01*
X202560666Y-111937729D01*
X202446727Y-112094552D01*
X202358723Y-112267267D01*
X202358722Y-112267270D01*
X202298824Y-112451621D01*
X202268500Y-112643079D01*
X202268500Y-112836920D01*
X202298824Y-113028378D01*
X202358722Y-113212729D01*
X202358723Y-113212732D01*
X202446727Y-113385447D01*
X202560664Y-113542268D01*
X202697732Y-113679336D01*
X202854553Y-113793273D01*
X202939264Y-113836435D01*
X203027267Y-113881276D01*
X203027270Y-113881277D01*
X203088822Y-113901276D01*
X203211623Y-113941176D01*
X203403079Y-113971500D01*
X203403080Y-113971500D01*
X203596920Y-113971500D01*
X203596921Y-113971500D01*
X203788377Y-113941176D01*
X203972732Y-113881276D01*
X204145447Y-113793273D01*
X204302268Y-113679336D01*
X204439336Y-113542268D01*
X204553273Y-113385447D01*
X204641276Y-113212732D01*
X204701176Y-113028377D01*
X204731500Y-112836921D01*
X204731500Y-112643079D01*
X204701176Y-112451623D01*
X204647775Y-112287270D01*
X204641277Y-112267270D01*
X204641276Y-112267267D01*
X204596435Y-112179264D01*
X204553273Y-112094553D01*
X204439336Y-111937732D01*
X204302268Y-111800664D01*
X204145447Y-111686727D01*
X203972732Y-111598723D01*
X203972729Y-111598722D01*
X203939515Y-111587931D01*
X203881840Y-111548494D01*
X203854641Y-111484136D01*
X203866555Y-111415289D01*
X203913799Y-111363813D01*
X203939515Y-111352069D01*
X203972729Y-111341277D01*
X203972732Y-111341276D01*
X204145447Y-111253273D01*
X204302268Y-111139336D01*
X204439336Y-111002268D01*
X204553273Y-110845447D01*
X204641276Y-110672732D01*
X204701176Y-110488377D01*
X204731500Y-110296921D01*
X204731500Y-110103079D01*
X204701176Y-109911623D01*
X204647775Y-109747270D01*
X204641277Y-109727270D01*
X204641276Y-109727267D01*
X204596435Y-109639264D01*
X204553273Y-109554553D01*
X204439336Y-109397732D01*
X204302268Y-109260664D01*
X204172969Y-109166723D01*
X204145442Y-109146723D01*
X204067444Y-109106981D01*
X204016648Y-109059007D01*
X203999853Y-108991186D01*
X204022391Y-108925051D01*
X204067444Y-108886012D01*
X204207554Y-108814622D01*
X204261716Y-108775270D01*
X204261717Y-108775270D01*
X203629408Y-108142962D01*
X203692993Y-108125925D01*
X203807007Y-108060099D01*
X203900099Y-107967007D01*
X203965925Y-107852993D01*
X203982962Y-107789408D01*
X204615270Y-108421717D01*
X204615270Y-108421716D01*
X204654622Y-108367554D01*
X204751095Y-108178217D01*
X204816757Y-107976130D01*
X204816757Y-107976127D01*
X204850000Y-107766246D01*
X204850000Y-107553753D01*
X204816757Y-107343872D01*
X204816757Y-107343869D01*
X204751095Y-107141782D01*
X204654624Y-106952449D01*
X204615270Y-106898282D01*
X204615269Y-106898282D01*
X203982962Y-107530590D01*
X203965925Y-107467007D01*
X203900099Y-107352993D01*
X203807007Y-107259901D01*
X203692993Y-107194075D01*
X203629409Y-107177037D01*
X204261716Y-106544728D01*
X204207550Y-106505375D01*
X204067444Y-106433987D01*
X204016648Y-106386012D01*
X203999853Y-106318191D01*
X204022391Y-106252056D01*
X204067445Y-106213017D01*
X204100235Y-106196310D01*
X204145447Y-106173273D01*
X204302268Y-106059336D01*
X204439336Y-105922268D01*
X204553273Y-105765447D01*
X204641276Y-105592732D01*
X204701176Y-105408377D01*
X204731500Y-105216921D01*
X204731500Y-105023079D01*
X204701176Y-104831623D01*
X204647775Y-104667270D01*
X204641277Y-104647270D01*
X204641276Y-104647267D01*
X204596435Y-104559264D01*
X204553273Y-104474553D01*
X204439336Y-104317732D01*
X204302268Y-104180664D01*
X204145447Y-104066727D01*
X203972732Y-103978723D01*
X203972729Y-103978722D01*
X203939515Y-103967931D01*
X203881840Y-103928494D01*
X203854641Y-103864136D01*
X203866555Y-103795289D01*
X203913799Y-103743813D01*
X203939515Y-103732069D01*
X203972729Y-103721277D01*
X203972732Y-103721276D01*
X204145447Y-103633273D01*
X204302268Y-103519336D01*
X204439336Y-103382268D01*
X204553273Y-103225447D01*
X204641276Y-103052732D01*
X204701176Y-102868377D01*
X204731500Y-102676921D01*
X204731500Y-102483079D01*
X204701176Y-102291623D01*
X204647775Y-102127270D01*
X204641277Y-102107270D01*
X204641276Y-102107267D01*
X204596435Y-102019264D01*
X204553273Y-101934553D01*
X204439336Y-101777732D01*
X204302268Y-101640664D01*
X204145447Y-101526727D01*
X203972732Y-101438723D01*
X203972729Y-101438722D01*
X203939515Y-101427931D01*
X203881840Y-101388494D01*
X203854641Y-101324136D01*
X203866555Y-101255289D01*
X203913799Y-101203813D01*
X203939515Y-101192069D01*
X203972729Y-101181277D01*
X203972732Y-101181276D01*
X204145447Y-101093273D01*
X204302268Y-100979336D01*
X204439336Y-100842268D01*
X204553273Y-100685447D01*
X204641276Y-100512732D01*
X204701176Y-100328377D01*
X204731500Y-100136921D01*
X204731500Y-99943079D01*
X204701176Y-99751623D01*
X204647775Y-99587270D01*
X204641277Y-99567270D01*
X204641276Y-99567267D01*
X204590143Y-99466915D01*
X204553273Y-99394553D01*
X204439336Y-99237732D01*
X204302268Y-99100664D01*
X204145447Y-98986727D01*
X203972732Y-98898723D01*
X203972729Y-98898722D01*
X203939515Y-98887931D01*
X203881840Y-98848494D01*
X203854641Y-98784136D01*
X203866555Y-98715289D01*
X203913799Y-98663813D01*
X203939515Y-98652069D01*
X203972729Y-98641277D01*
X203972732Y-98641276D01*
X203974302Y-98640476D01*
X204145447Y-98553273D01*
X204302268Y-98439336D01*
X204439336Y-98302268D01*
X204553273Y-98145447D01*
X204641276Y-97972732D01*
X204701176Y-97788377D01*
X204731500Y-97596921D01*
X204731500Y-97403079D01*
X204701176Y-97211623D01*
X204647775Y-97047270D01*
X204641277Y-97027270D01*
X204641276Y-97027267D01*
X204563464Y-96874554D01*
X204553273Y-96854553D01*
X204439336Y-96697732D01*
X204302268Y-96560664D01*
X204173235Y-96466916D01*
X204145442Y-96446723D01*
X204067444Y-96406981D01*
X204016648Y-96359007D01*
X203999853Y-96291186D01*
X204022391Y-96225051D01*
X204067444Y-96186012D01*
X204207554Y-96114622D01*
X204261716Y-96075270D01*
X204261717Y-96075270D01*
X203629408Y-95442962D01*
X203692993Y-95425925D01*
X203807007Y-95360099D01*
X203900099Y-95267007D01*
X203965925Y-95152993D01*
X203982962Y-95089408D01*
X204615270Y-95721717D01*
X204615270Y-95721716D01*
X204654622Y-95667554D01*
X204751095Y-95478217D01*
X204816757Y-95276130D01*
X204816757Y-95276127D01*
X204850000Y-95066246D01*
X204850000Y-94853753D01*
X204816757Y-94643872D01*
X204816757Y-94643869D01*
X204751095Y-94441782D01*
X204654624Y-94252449D01*
X204615270Y-94198282D01*
X204615269Y-94198282D01*
X203982962Y-94830590D01*
X203965925Y-94767007D01*
X203900099Y-94652993D01*
X203807007Y-94559901D01*
X203692993Y-94494075D01*
X203629409Y-94477037D01*
X204261716Y-93844728D01*
X204207550Y-93805375D01*
X204067444Y-93733987D01*
X204016648Y-93686012D01*
X203999853Y-93618191D01*
X204022391Y-93552056D01*
X204067445Y-93513017D01*
X204145445Y-93473274D01*
X204145444Y-93473274D01*
X204145447Y-93473273D01*
X204302268Y-93359336D01*
X204439336Y-93222268D01*
X204553273Y-93065447D01*
X204641276Y-92892732D01*
X204701176Y-92708377D01*
X204731500Y-92516921D01*
X204731500Y-92323079D01*
X204701176Y-92131623D01*
X204647775Y-91967270D01*
X204641277Y-91947270D01*
X204641276Y-91947267D01*
X204580353Y-91827700D01*
X204553273Y-91774553D01*
X204439336Y-91617732D01*
X204302268Y-91480664D01*
X204145447Y-91366727D01*
X203972732Y-91278723D01*
X203972729Y-91278722D01*
X203939515Y-91267931D01*
X203881840Y-91228494D01*
X203854641Y-91164136D01*
X203866555Y-91095289D01*
X203913799Y-91043813D01*
X203939515Y-91032069D01*
X203972729Y-91021277D01*
X203972732Y-91021276D01*
X204145447Y-90933273D01*
X204302268Y-90819336D01*
X204439336Y-90682268D01*
X204553273Y-90525447D01*
X204641276Y-90352732D01*
X204701176Y-90168377D01*
X204731500Y-89976921D01*
X204731500Y-89783079D01*
X204701176Y-89591623D01*
X204647775Y-89427270D01*
X204641277Y-89407270D01*
X204641276Y-89407267D01*
X204574185Y-89275595D01*
X204553273Y-89234553D01*
X204439336Y-89077732D01*
X204302268Y-88940664D01*
X204145447Y-88826727D01*
X203972732Y-88738723D01*
X203972729Y-88738722D01*
X203939515Y-88727931D01*
X203881840Y-88688494D01*
X203854641Y-88624136D01*
X203866555Y-88555289D01*
X203913799Y-88503813D01*
X203939515Y-88492069D01*
X203972729Y-88481277D01*
X203972732Y-88481276D01*
X203973617Y-88480825D01*
X204145447Y-88393273D01*
X204302268Y-88279336D01*
X204439336Y-88142268D01*
X204553273Y-87985447D01*
X204641276Y-87812732D01*
X204701176Y-87628377D01*
X204731500Y-87436921D01*
X204731500Y-87243079D01*
X204701176Y-87051623D01*
X204647775Y-86887270D01*
X204641277Y-86867270D01*
X204641276Y-86867267D01*
X204596435Y-86779264D01*
X204553273Y-86694553D01*
X204439336Y-86537732D01*
X204302268Y-86400664D01*
X204145447Y-86286727D01*
X203972732Y-86198723D01*
X203972729Y-86198722D01*
X203939515Y-86187931D01*
X203881840Y-86148494D01*
X203854641Y-86084136D01*
X203866555Y-86015289D01*
X203913799Y-85963813D01*
X203939515Y-85952069D01*
X203972729Y-85941277D01*
X203972732Y-85941276D01*
X204145447Y-85853273D01*
X204302268Y-85739336D01*
X204439336Y-85602268D01*
X204553273Y-85445447D01*
X204641276Y-85272732D01*
X204701176Y-85088377D01*
X204731500Y-84896921D01*
X204731500Y-84703079D01*
X204701176Y-84511623D01*
X204647775Y-84347270D01*
X204641277Y-84327270D01*
X204641276Y-84327267D01*
X204588442Y-84223576D01*
X204553273Y-84154553D01*
X204439336Y-83997732D01*
X204302268Y-83860664D01*
X204187006Y-83776921D01*
X204145442Y-83746723D01*
X204067444Y-83706981D01*
X204016648Y-83659007D01*
X203999853Y-83591186D01*
X204022391Y-83525051D01*
X204067444Y-83486012D01*
X204207554Y-83414622D01*
X204261716Y-83375270D01*
X204261717Y-83375270D01*
X203629408Y-82742962D01*
X203692993Y-82725925D01*
X203807007Y-82660099D01*
X203900099Y-82567007D01*
X203965925Y-82452993D01*
X203982962Y-82389408D01*
X204615270Y-83021717D01*
X204615270Y-83021716D01*
X204654622Y-82967554D01*
X204751095Y-82778217D01*
X204816757Y-82576130D01*
X204816757Y-82576127D01*
X204850000Y-82366246D01*
X204850000Y-82153753D01*
X204816757Y-81943872D01*
X204816757Y-81943869D01*
X204751095Y-81741782D01*
X204654624Y-81552449D01*
X204615270Y-81498282D01*
X204615269Y-81498282D01*
X203982962Y-82130590D01*
X203965925Y-82067007D01*
X203900099Y-81952993D01*
X203807007Y-81859901D01*
X203692993Y-81794075D01*
X203629409Y-81777037D01*
X204261716Y-81144728D01*
X204207550Y-81105375D01*
X204067444Y-81033987D01*
X204016648Y-80986012D01*
X203999853Y-80918191D01*
X204022391Y-80852056D01*
X204067445Y-80813017D01*
X204145445Y-80773274D01*
X204145444Y-80773274D01*
X204145447Y-80773273D01*
X204302268Y-80659336D01*
X204439336Y-80522268D01*
X204553273Y-80365447D01*
X204641276Y-80192732D01*
X204701176Y-80008377D01*
X204731500Y-79816921D01*
X204731500Y-79623079D01*
X204701176Y-79431623D01*
X204647775Y-79267270D01*
X204641277Y-79247270D01*
X204641276Y-79247267D01*
X204596435Y-79159264D01*
X204553273Y-79074553D01*
X204439336Y-78917732D01*
X204302268Y-78780664D01*
X204145447Y-78666727D01*
X203972732Y-78578723D01*
X203972729Y-78578722D01*
X203939515Y-78567931D01*
X203881840Y-78528494D01*
X203854641Y-78464136D01*
X203866555Y-78395289D01*
X203913799Y-78343813D01*
X203939515Y-78332069D01*
X203972729Y-78321277D01*
X203972732Y-78321276D01*
X204145447Y-78233273D01*
X204302268Y-78119336D01*
X204439336Y-77982268D01*
X204553273Y-77825447D01*
X204641276Y-77652732D01*
X204701176Y-77468377D01*
X204731500Y-77276921D01*
X204731500Y-77083079D01*
X204701176Y-76891623D01*
X204647775Y-76727270D01*
X204641277Y-76707270D01*
X204641276Y-76707267D01*
X204590794Y-76608191D01*
X204553273Y-76534553D01*
X204439336Y-76377732D01*
X204302268Y-76240664D01*
X204145447Y-76126727D01*
X203972732Y-76038723D01*
X203972729Y-76038722D01*
X203939515Y-76027931D01*
X203881840Y-75988494D01*
X203854641Y-75924136D01*
X203866555Y-75855289D01*
X203913799Y-75803813D01*
X203939515Y-75792069D01*
X203972729Y-75781277D01*
X203972732Y-75781276D01*
X203986708Y-75774155D01*
X204145447Y-75693273D01*
X204302268Y-75579336D01*
X204439336Y-75442268D01*
X204553273Y-75285447D01*
X204641276Y-75112732D01*
X204701176Y-74928377D01*
X204731500Y-74736921D01*
X204731500Y-74543079D01*
X204701176Y-74351623D01*
X204647775Y-74187270D01*
X204641277Y-74167270D01*
X204641276Y-74167267D01*
X204596435Y-74079264D01*
X204553273Y-73994553D01*
X204439336Y-73837732D01*
X204302268Y-73700664D01*
X204145447Y-73586727D01*
X203972732Y-73498723D01*
X203972729Y-73498722D01*
X203939515Y-73487931D01*
X203881840Y-73448494D01*
X203854641Y-73384136D01*
X203866555Y-73315289D01*
X203913799Y-73263813D01*
X203939515Y-73252069D01*
X203972729Y-73241277D01*
X203972732Y-73241276D01*
X204145447Y-73153273D01*
X204302268Y-73039336D01*
X204439336Y-72902268D01*
X204553273Y-72745447D01*
X204641276Y-72572732D01*
X204701176Y-72388377D01*
X204731500Y-72196921D01*
X204731500Y-72003079D01*
X204701176Y-71811623D01*
X204647775Y-71647270D01*
X204641277Y-71627270D01*
X204641276Y-71627267D01*
X204596435Y-71539264D01*
X204553273Y-71454553D01*
X204439336Y-71297732D01*
X204302268Y-71160664D01*
X204145447Y-71046727D01*
X203972732Y-70958723D01*
X203972729Y-70958722D01*
X203939515Y-70947931D01*
X203881840Y-70908494D01*
X203854641Y-70844136D01*
X203866555Y-70775289D01*
X203913799Y-70723813D01*
X203939515Y-70712069D01*
X203972729Y-70701277D01*
X203972732Y-70701276D01*
X203997849Y-70688478D01*
X204145447Y-70613273D01*
X204302268Y-70499336D01*
X204439336Y-70362268D01*
X204553273Y-70205447D01*
X204641276Y-70032732D01*
X204701176Y-69848377D01*
X204731500Y-69656921D01*
X204731500Y-69463079D01*
X204701176Y-69271623D01*
X204641276Y-69087268D01*
X204641276Y-69087267D01*
X204553272Y-68914552D01*
X204439336Y-68757732D01*
X204302268Y-68620664D01*
X204171286Y-68525500D01*
X204145442Y-68506723D01*
X204067444Y-68466981D01*
X204016648Y-68419007D01*
X203999853Y-68351186D01*
X204022391Y-68285051D01*
X204067444Y-68246012D01*
X204207554Y-68174622D01*
X204261716Y-68135270D01*
X204261717Y-68135270D01*
X203629408Y-67502962D01*
X203692993Y-67485925D01*
X203807007Y-67420099D01*
X203900099Y-67327007D01*
X203965925Y-67212993D01*
X203982962Y-67149408D01*
X204615270Y-67781717D01*
X204615270Y-67781716D01*
X204654622Y-67727554D01*
X204751095Y-67538217D01*
X204816757Y-67336130D01*
X204816757Y-67336127D01*
X204850000Y-67126246D01*
X204850000Y-66913753D01*
X204816757Y-66703872D01*
X204816757Y-66703869D01*
X204751095Y-66501782D01*
X204654624Y-66312449D01*
X204615270Y-66258282D01*
X204615269Y-66258282D01*
X203982962Y-66890590D01*
X203965925Y-66827007D01*
X203900099Y-66712993D01*
X203807007Y-66619901D01*
X203692993Y-66554075D01*
X203629409Y-66537037D01*
X204261716Y-65904728D01*
X204257231Y-65847740D01*
X204259018Y-65847599D01*
X204255863Y-65810879D01*
X204288466Y-65749083D01*
X204349304Y-65714724D01*
X204377394Y-65711500D01*
X204386200Y-65711500D01*
X204386206Y-65711500D01*
X204460361Y-65700696D01*
X204533836Y-65664776D01*
X204574743Y-65644778D01*
X204574746Y-65644776D01*
X204664776Y-65554746D01*
X204664778Y-65554743D01*
X204710918Y-65460361D01*
X204720696Y-65440361D01*
X204731500Y-65366206D01*
X204731500Y-63593794D01*
X204720696Y-63519639D01*
X204718361Y-63514863D01*
X204664778Y-63405256D01*
X204664776Y-63405253D01*
X204574746Y-63315223D01*
X204574743Y-63315221D01*
X204460364Y-63259305D01*
X204460362Y-63259304D01*
X204460361Y-63259304D01*
X204386206Y-63248500D01*
X202613794Y-63248500D01*
X202539639Y-63259304D01*
X202539637Y-63259304D01*
X202539635Y-63259305D01*
X202425256Y-63315221D01*
X202425253Y-63315223D01*
X202335223Y-63405253D01*
X202335221Y-63405256D01*
X202279305Y-63519635D01*
X202279304Y-63519637D01*
X202279304Y-63519639D01*
X202268500Y-63593794D01*
X202268500Y-65366206D01*
X202279304Y-65440361D01*
X202279304Y-65440362D01*
X202279305Y-65440364D01*
X202335221Y-65554743D01*
X202335223Y-65554746D01*
X202425253Y-65644776D01*
X202425256Y-65644778D01*
X202534863Y-65698361D01*
X202539639Y-65700696D01*
X202613794Y-65711500D01*
X202613800Y-65711500D01*
X202622603Y-65711500D01*
X202689642Y-65731185D01*
X202735397Y-65783989D01*
X202745341Y-65853147D01*
X202741717Y-65861080D01*
X202738282Y-65904728D01*
X203370591Y-66537037D01*
X203307007Y-66554075D01*
X203192993Y-66619901D01*
X203099901Y-66712993D01*
X203034075Y-66827007D01*
X203017037Y-66890591D01*
X202384728Y-66258282D01*
X202384727Y-66258282D01*
X202345380Y-66312439D01*
X202248904Y-66501782D01*
X202183242Y-66703869D01*
X202183242Y-66703872D01*
X202150000Y-66913753D01*
X191548945Y-66913753D01*
X191563814Y-66891500D01*
X191598232Y-66839991D01*
X191598232Y-66839990D01*
X191598233Y-66839989D01*
X191608186Y-66825092D01*
X191608191Y-66825085D01*
X191659926Y-66700186D01*
X191686300Y-66567595D01*
X191686300Y-66432405D01*
X191686300Y-66432402D01*
X191686299Y-66432400D01*
X191678771Y-66394553D01*
X191659926Y-66299814D01*
X191608191Y-66174915D01*
X191608190Y-66174914D01*
X191608187Y-66174908D01*
X191533084Y-66062509D01*
X191533081Y-66062505D01*
X191437494Y-65966918D01*
X191437490Y-65966915D01*
X191325091Y-65891812D01*
X191325082Y-65891807D01*
X191200186Y-65840074D01*
X191200178Y-65840072D01*
X191067598Y-65813700D01*
X191067595Y-65813700D01*
X190932405Y-65813700D01*
X190932402Y-65813700D01*
X190799821Y-65840072D01*
X190799813Y-65840074D01*
X190674917Y-65891807D01*
X190674908Y-65891812D01*
X190562509Y-65966915D01*
X190562505Y-65966918D01*
X190466919Y-66062504D01*
X190466916Y-66062509D01*
X190459645Y-66073390D01*
X190406035Y-66118195D01*
X190356543Y-66128500D01*
X179636776Y-66128500D01*
X179569737Y-66108815D01*
X179537285Y-66076939D01*
X179536948Y-66077217D01*
X179534370Y-66074075D01*
X179533677Y-66073395D01*
X179533087Y-66072513D01*
X179533081Y-66072505D01*
X179437494Y-65976918D01*
X179437490Y-65976915D01*
X179325091Y-65901812D01*
X179325082Y-65901807D01*
X179200186Y-65850074D01*
X179200178Y-65850072D01*
X179067598Y-65823700D01*
X179067595Y-65823700D01*
X178932405Y-65823700D01*
X178932402Y-65823700D01*
X178799821Y-65850072D01*
X178799813Y-65850074D01*
X178674917Y-65901807D01*
X178674908Y-65901812D01*
X178562509Y-65976915D01*
X178562505Y-65976918D01*
X178466918Y-66072505D01*
X178466915Y-66072509D01*
X178391812Y-66184908D01*
X178391807Y-66184917D01*
X178340074Y-66309813D01*
X178340072Y-66309821D01*
X178313700Y-66442400D01*
X165577652Y-66442400D01*
X165553273Y-66394553D01*
X165439336Y-66237732D01*
X165302268Y-66100664D01*
X165223857Y-66043695D01*
X165145445Y-65986725D01*
X165104738Y-65965984D01*
X165053943Y-65918010D01*
X165037148Y-65850189D01*
X165059686Y-65784054D01*
X165114401Y-65740603D01*
X165161034Y-65731500D01*
X165386200Y-65731500D01*
X165386206Y-65731500D01*
X165460361Y-65720696D01*
X165517553Y-65692736D01*
X165574743Y-65664778D01*
X165574746Y-65664776D01*
X165664776Y-65574746D01*
X165664778Y-65574743D01*
X165692736Y-65517553D01*
X165720696Y-65460361D01*
X165731500Y-65386206D01*
X165731500Y-63721504D01*
X179790000Y-63721504D01*
X179790000Y-64070000D01*
X180490000Y-64070000D01*
X180490000Y-64570000D01*
X179790000Y-64570000D01*
X179790000Y-64918495D01*
X179828427Y-65111681D01*
X179828430Y-65111693D01*
X179903807Y-65293671D01*
X179903814Y-65293684D01*
X180013248Y-65457462D01*
X180013251Y-65457466D01*
X180152533Y-65596748D01*
X180152537Y-65596751D01*
X180316315Y-65706185D01*
X180316328Y-65706192D01*
X180498308Y-65781569D01*
X180540000Y-65789862D01*
X180540000Y-64886988D01*
X180549940Y-64904205D01*
X180605795Y-64960060D01*
X180674204Y-64999556D01*
X180750504Y-65020000D01*
X180829496Y-65020000D01*
X180905796Y-64999556D01*
X180974205Y-64960060D01*
X181030060Y-64904205D01*
X181040000Y-64886988D01*
X181040000Y-65789862D01*
X181081690Y-65781569D01*
X181081692Y-65781569D01*
X181263671Y-65706192D01*
X181263684Y-65706185D01*
X181427462Y-65596751D01*
X181427466Y-65596748D01*
X181566748Y-65457466D01*
X181566751Y-65457462D01*
X181676185Y-65293684D01*
X181676192Y-65293671D01*
X181751569Y-65111693D01*
X181751572Y-65111681D01*
X181789999Y-64918495D01*
X181790000Y-64918492D01*
X181790000Y-64570000D01*
X181090000Y-64570000D01*
X181090000Y-64070000D01*
X181790000Y-64070000D01*
X181790000Y-63721508D01*
X181789999Y-63721504D01*
X188430000Y-63721504D01*
X188430000Y-64070000D01*
X189130000Y-64070000D01*
X189130000Y-64570000D01*
X188430000Y-64570000D01*
X188430000Y-64918495D01*
X188468427Y-65111681D01*
X188468430Y-65111693D01*
X188543807Y-65293671D01*
X188543814Y-65293684D01*
X188653248Y-65457462D01*
X188653251Y-65457466D01*
X188792533Y-65596748D01*
X188792537Y-65596751D01*
X188956315Y-65706185D01*
X188956328Y-65706192D01*
X189138308Y-65781569D01*
X189180000Y-65789862D01*
X189180000Y-64886988D01*
X189189940Y-64904205D01*
X189245795Y-64960060D01*
X189314204Y-64999556D01*
X189390504Y-65020000D01*
X189469496Y-65020000D01*
X189545796Y-64999556D01*
X189614205Y-64960060D01*
X189670060Y-64904205D01*
X189680000Y-64886988D01*
X189680000Y-65789862D01*
X189721690Y-65781569D01*
X189721692Y-65781569D01*
X189903671Y-65706192D01*
X189903684Y-65706185D01*
X190067462Y-65596751D01*
X190067466Y-65596748D01*
X190206748Y-65457466D01*
X190206751Y-65457462D01*
X190316185Y-65293684D01*
X190316192Y-65293671D01*
X190391569Y-65111693D01*
X190391572Y-65111681D01*
X190429999Y-64918495D01*
X190430000Y-64918492D01*
X190430000Y-64570000D01*
X189730000Y-64570000D01*
X189730000Y-64070000D01*
X190430000Y-64070000D01*
X190430000Y-63721508D01*
X190429999Y-63721504D01*
X190408516Y-63613498D01*
X190391572Y-63528318D01*
X190391569Y-63528306D01*
X190316192Y-63346328D01*
X190316185Y-63346315D01*
X190206751Y-63182537D01*
X190206748Y-63182533D01*
X190067466Y-63043251D01*
X190067462Y-63043248D01*
X189903684Y-62933814D01*
X189903671Y-62933807D01*
X189721691Y-62858429D01*
X189721683Y-62858427D01*
X189680000Y-62850135D01*
X189680000Y-63753011D01*
X189670060Y-63735795D01*
X189614205Y-63679940D01*
X189545796Y-63640444D01*
X189469496Y-63620000D01*
X189390504Y-63620000D01*
X189314204Y-63640444D01*
X189245795Y-63679940D01*
X189189940Y-63735795D01*
X189180000Y-63753011D01*
X189180000Y-62850136D01*
X189179999Y-62850135D01*
X189138316Y-62858427D01*
X189138308Y-62858429D01*
X188956328Y-62933807D01*
X188956315Y-62933814D01*
X188792537Y-63043248D01*
X188792533Y-63043251D01*
X188653251Y-63182533D01*
X188653248Y-63182537D01*
X188543814Y-63346315D01*
X188543807Y-63346328D01*
X188468430Y-63528306D01*
X188468427Y-63528318D01*
X188430000Y-63721504D01*
X181789999Y-63721504D01*
X181751572Y-63528318D01*
X181751569Y-63528306D01*
X181676192Y-63346328D01*
X181676185Y-63346315D01*
X181566751Y-63182537D01*
X181566748Y-63182533D01*
X181427466Y-63043251D01*
X181427462Y-63043248D01*
X181263684Y-62933814D01*
X181263671Y-62933807D01*
X181081691Y-62858429D01*
X181081683Y-62858427D01*
X181040000Y-62850135D01*
X181040000Y-63753011D01*
X181030060Y-63735795D01*
X180974205Y-63679940D01*
X180905796Y-63640444D01*
X180829496Y-63620000D01*
X180750504Y-63620000D01*
X180674204Y-63640444D01*
X180605795Y-63679940D01*
X180549940Y-63735795D01*
X180540000Y-63753011D01*
X180540000Y-62850136D01*
X180539999Y-62850135D01*
X180498316Y-62858427D01*
X180498308Y-62858429D01*
X180316328Y-62933807D01*
X180316315Y-62933814D01*
X180152537Y-63043248D01*
X180152533Y-63043251D01*
X180013251Y-63182533D01*
X180013248Y-63182537D01*
X179903814Y-63346315D01*
X179903807Y-63346328D01*
X179828430Y-63528306D01*
X179828427Y-63528318D01*
X179790000Y-63721504D01*
X165731500Y-63721504D01*
X165731500Y-63613794D01*
X165720696Y-63539639D01*
X165718361Y-63534863D01*
X165664778Y-63425256D01*
X165664776Y-63425253D01*
X165574746Y-63335223D01*
X165574743Y-63335221D01*
X165460364Y-63279305D01*
X165460362Y-63279304D01*
X165460361Y-63279304D01*
X165386206Y-63268500D01*
X163613794Y-63268500D01*
X163539639Y-63279304D01*
X163539637Y-63279304D01*
X163539635Y-63279305D01*
X163425256Y-63335221D01*
X163425253Y-63335223D01*
X163335223Y-63425253D01*
X163335221Y-63425256D01*
X163279305Y-63539635D01*
X163279304Y-63539637D01*
X163279304Y-63539639D01*
X163268500Y-63613794D01*
X163268500Y-65386206D01*
X163279304Y-65460361D01*
X163279304Y-65460362D01*
X163279305Y-65460364D01*
X163335221Y-65574743D01*
X163335223Y-65574746D01*
X163425253Y-65664776D01*
X163425256Y-65664778D01*
X163520828Y-65711500D01*
X163539639Y-65720696D01*
X163613794Y-65731500D01*
X163613800Y-65731500D01*
X163838966Y-65731500D01*
X163906005Y-65751185D01*
X163951760Y-65803989D01*
X163961704Y-65873147D01*
X163932679Y-65936703D01*
X163895262Y-65965984D01*
X163854554Y-65986725D01*
X163697729Y-66100666D01*
X163560666Y-66237729D01*
X163446727Y-66394552D01*
X163358723Y-66567267D01*
X163358722Y-66567270D01*
X163298824Y-66751621D01*
X163268500Y-66943079D01*
X163268500Y-67136920D01*
X163298824Y-67328378D01*
X163358722Y-67512729D01*
X163358723Y-67512732D01*
X163441922Y-67676016D01*
X163446727Y-67685447D01*
X163560664Y-67842268D01*
X163697732Y-67979336D01*
X163854553Y-68093273D01*
X163932555Y-68133017D01*
X163983351Y-68180992D01*
X164000146Y-68248813D01*
X163977609Y-68314948D01*
X163932556Y-68353986D01*
X163792443Y-68425378D01*
X163792440Y-68425380D01*
X163738282Y-68464727D01*
X163738282Y-68464728D01*
X164370591Y-69097037D01*
X164307007Y-69114075D01*
X164192993Y-69179901D01*
X164099901Y-69272993D01*
X164034075Y-69387007D01*
X164017037Y-69450591D01*
X163384728Y-68818282D01*
X163384727Y-68818282D01*
X163345380Y-68872439D01*
X163248904Y-69061782D01*
X163183242Y-69263869D01*
X163183242Y-69263872D01*
X163150000Y-69473753D01*
X162000500Y-69473753D01*
X162000500Y-61124613D01*
X162020185Y-61057574D01*
X162072989Y-61011819D01*
X162125104Y-61000614D01*
X205572159Y-61214155D01*
G37*
%TD.AperFunction*%
%TD*%
M02*
